G04 start of page 3 for group 1 idx 1 *
G04 Title: (unknown), solder *
G04 Creator: pcb 1.99z *
G04 CreationDate: Thu 21 Oct 2010 17:09:23 GMT UTC *
G04 For: richard *
G04 Format: Gerber/RS-274X *
G04 PCB-Dimensions: 41339 62992 *
G04 PCB-Coordinate-Origin: lower left *
%MOIN*%
%FSLAX25Y25*%
%LNBACK*%
%ADD11C,0.0200*%
%ADD12C,0.0250*%
%ADD13C,0.0600*%
%ADD14C,0.0591*%
%ADD15C,0.1457*%
%ADD16C,0.0380*%
%ADD17C,0.0362*%
%ADD18C,0.0984*%
%ADD19C,0.0433*%
G54D11*G36*
X17972Y31732D02*X18075Y31689D01*
X18676Y31544D01*
X19292Y31496D01*
X18676Y31448D01*
X18075Y31303D01*
X17972Y31260D01*
Y31732D01*
G37*
G36*
Y10637D02*X18120Y10104D01*
X18236Y9479D01*
X18297Y8847D01*
X18302Y8211D01*
X18252Y7578D01*
X18147Y6951D01*
X17988Y6336D01*
X17972Y6291D01*
Y10637D01*
G37*
G36*
Y56699D02*X18120Y56166D01*
X18236Y55541D01*
X18297Y54909D01*
X18302Y54273D01*
X18252Y53640D01*
X18147Y53013D01*
X17988Y52398D01*
X17972Y52353D01*
Y56699D01*
G37*
G36*
Y62992D02*X41339D01*
Y0D01*
X17972D01*
Y3995D01*
X18034Y4085D01*
X18389Y4712D01*
X18689Y5369D01*
X18929Y6048D01*
X19110Y6747D01*
X19229Y7458D01*
X19285Y8177D01*
X19279Y8898D01*
X19210Y9616D01*
X19079Y10325D01*
X18886Y11020D01*
X18633Y11696D01*
X18323Y12347D01*
X17972Y12943D01*
Y14015D01*
X18075Y13972D01*
X18676Y13827D01*
X19292Y13779D01*
X19908Y13827D01*
X20509Y13972D01*
X21079Y14208D01*
X21334Y14364D01*
X30555D01*
X30558Y13379D01*
X30613Y13150D01*
X30703Y12933D01*
X30826Y12732D01*
X30979Y12553D01*
X31158Y12400D01*
X31359Y12277D01*
X31576Y12187D01*
X31805Y12132D01*
X32040Y12114D01*
X38275Y12132D01*
X38504Y12187D01*
X38721Y12277D01*
X38922Y12400D01*
X39101Y12553D01*
X39254Y12732D01*
X39377Y12933D01*
X39467Y13150D01*
X39522Y13379D01*
X39540Y13614D01*
X39522Y19849D01*
X39467Y20078D01*
X39377Y20295D01*
X39254Y20496D01*
X39101Y20675D01*
X38922Y20828D01*
X38721Y20951D01*
X38504Y21041D01*
X38275Y21096D01*
X38040Y21114D01*
X31805Y21096D01*
X31576Y21041D01*
X31359Y20951D01*
X31158Y20828D01*
X30979Y20675D01*
X30826Y20496D01*
X30703Y20295D01*
X30613Y20078D01*
X30558Y19849D01*
X30540Y19614D01*
X30542Y18865D01*
X23052D01*
X23036Y18933D01*
X22800Y19503D01*
X22477Y20030D01*
X22076Y20500D01*
X21606Y20901D01*
X21079Y21224D01*
X20509Y21460D01*
X19908Y21605D01*
X19292Y21653D01*
X18676Y21605D01*
X18075Y21460D01*
X17972Y21417D01*
Y23858D01*
X18075Y23815D01*
X18676Y23670D01*
X19292Y23622D01*
X19908Y23670D01*
X20509Y23815D01*
X21079Y24051D01*
X21591Y24365D01*
X31156D01*
X31399Y23969D01*
X31858Y23432D01*
X32395Y22973D01*
X32997Y22604D01*
X33649Y22334D01*
X34336Y22169D01*
X35040Y22114D01*
X35744Y22169D01*
X36431Y22334D01*
X37083Y22604D01*
X37685Y22973D01*
X38222Y23432D01*
X38681Y23969D01*
X39050Y24571D01*
X39320Y25223D01*
X39485Y25910D01*
X39540Y26614D01*
X39485Y27318D01*
X39320Y28005D01*
X39050Y28657D01*
X38681Y29259D01*
X38222Y29796D01*
X37685Y30255D01*
X37083Y30624D01*
X36431Y30894D01*
X35744Y31059D01*
X35040Y31114D01*
X34336Y31059D01*
X33649Y30894D01*
X32997Y30624D01*
X32395Y30255D01*
X31858Y29796D01*
X31399Y29259D01*
X31157Y28864D01*
X23000D01*
X22800Y29346D01*
X22477Y29873D01*
X22076Y30343D01*
X21606Y30744D01*
X21079Y31067D01*
X20509Y31303D01*
X19908Y31448D01*
X19292Y31496D01*
X19908Y31544D01*
X20509Y31689D01*
X21079Y31925D01*
X21606Y32248D01*
X22076Y32649D01*
X22477Y33119D01*
X22800Y33646D01*
X23036Y34216D01*
X23072Y34364D01*
X31157D01*
X31399Y33969D01*
X31858Y33432D01*
X32395Y32973D01*
X32997Y32604D01*
X33649Y32334D01*
X34336Y32169D01*
X35040Y32114D01*
X35744Y32169D01*
X36431Y32334D01*
X37083Y32604D01*
X37685Y32973D01*
X38222Y33432D01*
X38681Y33969D01*
X39050Y34571D01*
X39320Y35223D01*
X39485Y35910D01*
X39540Y36614D01*
X39485Y37318D01*
X39320Y38005D01*
X39050Y38657D01*
X38681Y39259D01*
X38222Y39796D01*
X37685Y40255D01*
X37083Y40624D01*
X36431Y40894D01*
X35744Y41059D01*
X35040Y41114D01*
X34336Y41059D01*
X33649Y40894D01*
X32997Y40624D01*
X32395Y40255D01*
X31858Y39796D01*
X31399Y39259D01*
X31157Y38865D01*
X21203D01*
X21079Y38941D01*
X20509Y39177D01*
X19908Y39322D01*
X19292Y39370D01*
X18676Y39322D01*
X18075Y39177D01*
X17972Y39134D01*
Y41575D01*
X18075Y41532D01*
X18676Y41387D01*
X19292Y41339D01*
X19908Y41387D01*
X20509Y41532D01*
X21079Y41768D01*
X21606Y42091D01*
X22076Y42492D01*
X22477Y42962D01*
X22800Y43489D01*
X23036Y44059D01*
X23110Y44364D01*
X31157D01*
X31399Y43969D01*
X31858Y43432D01*
X32395Y42973D01*
X32997Y42604D01*
X33649Y42334D01*
X34336Y42169D01*
X35040Y42114D01*
X35744Y42169D01*
X36431Y42334D01*
X37083Y42604D01*
X37685Y42973D01*
X38222Y43432D01*
X38681Y43969D01*
X39050Y44571D01*
X39320Y45223D01*
X39485Y45910D01*
X39540Y46614D01*
X39485Y47318D01*
X39320Y48005D01*
X39050Y48657D01*
X38681Y49259D01*
X38222Y49796D01*
X37685Y50255D01*
X37083Y50624D01*
X36431Y50894D01*
X35744Y51059D01*
X35040Y51114D01*
X34336Y51059D01*
X33649Y50894D01*
X32997Y50624D01*
X32395Y50255D01*
X31858Y49796D01*
X31399Y49259D01*
X31157Y48865D01*
X20884D01*
X20509Y49020D01*
X19908Y49165D01*
X19292Y49213D01*
X18676Y49165D01*
X18075Y49020D01*
X17972Y48977D01*
Y50057D01*
X18034Y50147D01*
X18389Y50774D01*
X18689Y51431D01*
X18929Y52110D01*
X19110Y52809D01*
X19229Y53520D01*
X19285Y54239D01*
X19279Y54960D01*
X19210Y55678D01*
X19079Y56387D01*
X18886Y57082D01*
X18633Y57758D01*
X18323Y58409D01*
X17972Y59005D01*
Y62992D01*
G37*
G36*
X10971D02*X17972D01*
Y59005D01*
X17957Y59030D01*
X17538Y59617D01*
X17485Y59674D01*
X17424Y59722D01*
X17357Y59760D01*
X17285Y59787D01*
X17209Y59802D01*
X17132Y59805D01*
X17056Y59796D01*
X16981Y59776D01*
X16911Y59744D01*
X16847Y59701D01*
X16790Y59649D01*
X16742Y59588D01*
X16704Y59521D01*
X16677Y59449D01*
X16662Y59373D01*
X16659Y59296D01*
X16668Y59220D01*
X16688Y59145D01*
X16720Y59075D01*
X16763Y59011D01*
X17132Y58494D01*
X17454Y57947D01*
X17728Y57373D01*
X17950Y56778D01*
X17972Y56699D01*
Y52353D01*
X17776Y51799D01*
X17513Y51221D01*
X17200Y50668D01*
X16840Y50144D01*
X16799Y50079D01*
X16768Y50008D01*
X16748Y49933D01*
X16741Y49856D01*
X16746Y49779D01*
X16763Y49704D01*
X16791Y49632D01*
X16830Y49566D01*
X16879Y49506D01*
X16937Y49455D01*
X17002Y49414D01*
X17073Y49383D01*
X17148Y49363D01*
X17225Y49356D01*
X17302Y49361D01*
X17377Y49378D01*
X17449Y49406D01*
X17515Y49445D01*
X17575Y49494D01*
X17626Y49552D01*
X17972Y50057D01*
Y48977D01*
X17505Y48784D01*
X16978Y48461D01*
X16508Y48060D01*
X16107Y47590D01*
X15784Y47063D01*
X15548Y46493D01*
X15403Y45892D01*
X15355Y45276D01*
X15403Y44660D01*
X15548Y44059D01*
X15784Y43489D01*
X16107Y42962D01*
X16508Y42492D01*
X16978Y42091D01*
X17505Y41768D01*
X17972Y41575D01*
Y39134D01*
X17505Y38941D01*
X16978Y38618D01*
X16508Y38217D01*
X16107Y37747D01*
X15784Y37220D01*
X15548Y36650D01*
X15403Y36049D01*
X15355Y35433D01*
X15403Y34817D01*
X15548Y34216D01*
X15784Y33646D01*
X16107Y33119D01*
X16508Y32649D01*
X16978Y32248D01*
X17505Y31925D01*
X17972Y31732D01*
Y31260D01*
X17505Y31067D01*
X16978Y30744D01*
X16508Y30343D01*
X16107Y29873D01*
X15784Y29346D01*
X15548Y28776D01*
X15403Y28175D01*
X15355Y27559D01*
X15403Y26943D01*
X15548Y26342D01*
X15784Y25772D01*
X16107Y25245D01*
X16508Y24775D01*
X16978Y24374D01*
X17505Y24051D01*
X17972Y23858D01*
Y21417D01*
X17505Y21224D01*
X16978Y20901D01*
X16508Y20500D01*
X16107Y20030D01*
X15784Y19503D01*
X15548Y18933D01*
X15403Y18332D01*
X15355Y17716D01*
X15403Y17100D01*
X15548Y16499D01*
X15784Y15929D01*
X16107Y15402D01*
X16508Y14932D01*
X16978Y14531D01*
X17505Y14208D01*
X17972Y14015D01*
Y12943D01*
X17957Y12968D01*
X17538Y13555D01*
X17485Y13612D01*
X17424Y13660D01*
X17357Y13698D01*
X17285Y13725D01*
X17209Y13740D01*
X17132Y13743D01*
X17056Y13734D01*
X16981Y13714D01*
X16911Y13682D01*
X16847Y13639D01*
X16790Y13587D01*
X16742Y13526D01*
X16704Y13459D01*
X16677Y13387D01*
X16662Y13311D01*
X16659Y13234D01*
X16668Y13158D01*
X16688Y13083D01*
X16720Y13013D01*
X16763Y12949D01*
X17132Y12432D01*
X17454Y11885D01*
X17728Y11311D01*
X17950Y10716D01*
X17972Y10637D01*
Y6291D01*
X17776Y5737D01*
X17513Y5159D01*
X17200Y4606D01*
X16840Y4082D01*
X16799Y4017D01*
X16768Y3946D01*
X16748Y3871D01*
X16741Y3794D01*
X16746Y3717D01*
X16763Y3642D01*
X16791Y3570D01*
X16830Y3504D01*
X16879Y3444D01*
X16937Y3393D01*
X17002Y3352D01*
X17073Y3321D01*
X17148Y3301D01*
X17225Y3294D01*
X17302Y3299D01*
X17377Y3316D01*
X17449Y3344D01*
X17515Y3383D01*
X17575Y3432D01*
X17626Y3490D01*
X17972Y3995D01*
Y0D01*
X10971D01*
Y206D01*
X11456Y210D01*
X12174Y279D01*
X12883Y410D01*
X13578Y603D01*
X14254Y856D01*
X14905Y1166D01*
X15526Y1532D01*
X16113Y1951D01*
X16170Y2004D01*
X16218Y2065D01*
X16256Y2132D01*
X16283Y2204D01*
X16298Y2280D01*
X16301Y2357D01*
X16292Y2433D01*
X16272Y2508D01*
X16240Y2578D01*
X16197Y2642D01*
X16145Y2699D01*
X16084Y2747D01*
X16017Y2785D01*
X15945Y2812D01*
X15869Y2827D01*
X15792Y2830D01*
X15716Y2821D01*
X15641Y2801D01*
X15571Y2769D01*
X15507Y2726D01*
X14990Y2357D01*
X14443Y2035D01*
X13869Y1761D01*
X13274Y1539D01*
X12662Y1369D01*
X12037Y1253D01*
X11405Y1192D01*
X10971Y1189D01*
Y15742D01*
X11278Y15744D01*
X11911Y15694D01*
X12538Y15589D01*
X13153Y15430D01*
X13752Y15218D01*
X14330Y14955D01*
X14883Y14642D01*
X15407Y14282D01*
X15472Y14241D01*
X15543Y14210D01*
X15618Y14190D01*
X15695Y14183D01*
X15772Y14188D01*
X15847Y14205D01*
X15919Y14233D01*
X15985Y14272D01*
X16045Y14321D01*
X16096Y14379D01*
X16137Y14444D01*
X16168Y14515D01*
X16188Y14590D01*
X16195Y14667D01*
X16190Y14744D01*
X16173Y14819D01*
X16145Y14891D01*
X16106Y14957D01*
X16057Y15017D01*
X15999Y15068D01*
X15404Y15476D01*
X14777Y15831D01*
X14120Y16131D01*
X13441Y16371D01*
X12742Y16552D01*
X12031Y16671D01*
X11312Y16727D01*
X10971Y16724D01*
Y20279D01*
X11024Y20275D01*
X11394Y20304D01*
X11754Y20391D01*
X12097Y20533D01*
X12413Y20726D01*
X12695Y20967D01*
X12936Y21249D01*
X13129Y21565D01*
X13271Y21908D01*
X13358Y22268D01*
X13387Y22638D01*
X13358Y23008D01*
X13271Y23368D01*
X13129Y23711D01*
X12936Y24027D01*
X12695Y24309D01*
X12413Y24550D01*
X12097Y24743D01*
X11754Y24885D01*
X11394Y24972D01*
X11024Y25001D01*
X10971Y24997D01*
Y37995D01*
X11024Y37991D01*
X11394Y38020D01*
X11754Y38107D01*
X12097Y38249D01*
X12413Y38442D01*
X12695Y38683D01*
X12936Y38965D01*
X13129Y39281D01*
X13271Y39624D01*
X13358Y39984D01*
X13387Y40354D01*
X13358Y40724D01*
X13271Y41084D01*
X13129Y41427D01*
X12936Y41743D01*
X12695Y42025D01*
X12413Y42266D01*
X12097Y42459D01*
X11754Y42601D01*
X11394Y42688D01*
X11024Y42717D01*
X10971Y42713D01*
Y46268D01*
X11456Y46272D01*
X12174Y46341D01*
X12883Y46472D01*
X13578Y46665D01*
X14254Y46918D01*
X14905Y47228D01*
X15526Y47594D01*
X16113Y48013D01*
X16170Y48066D01*
X16218Y48127D01*
X16256Y48194D01*
X16283Y48266D01*
X16298Y48342D01*
X16301Y48419D01*
X16292Y48495D01*
X16272Y48570D01*
X16240Y48640D01*
X16197Y48704D01*
X16145Y48761D01*
X16084Y48809D01*
X16017Y48847D01*
X15945Y48874D01*
X15869Y48889D01*
X15792Y48892D01*
X15716Y48883D01*
X15641Y48863D01*
X15571Y48831D01*
X15507Y48788D01*
X14990Y48419D01*
X14443Y48097D01*
X13869Y47823D01*
X13274Y47601D01*
X12662Y47431D01*
X12037Y47315D01*
X11405Y47254D01*
X10971Y47251D01*
Y61804D01*
X11278Y61806D01*
X11911Y61756D01*
X12538Y61651D01*
X13153Y61492D01*
X13752Y61280D01*
X14330Y61017D01*
X14883Y60704D01*
X15407Y60344D01*
X15472Y60303D01*
X15543Y60272D01*
X15618Y60252D01*
X15695Y60245D01*
X15772Y60250D01*
X15847Y60267D01*
X15919Y60295D01*
X15985Y60334D01*
X16045Y60383D01*
X16096Y60441D01*
X16137Y60506D01*
X16168Y60577D01*
X16188Y60652D01*
X16195Y60729D01*
X16190Y60806D01*
X16173Y60881D01*
X16145Y60953D01*
X16106Y61019D01*
X16057Y61079D01*
X15999Y61130D01*
X15404Y61538D01*
X14777Y61893D01*
X14120Y62193D01*
X13441Y62433D01*
X12742Y62614D01*
X12031Y62733D01*
X11312Y62789D01*
X10971Y62786D01*
Y62992D01*
G37*
G36*
X4075D02*X10971D01*
Y62786D01*
X10591Y62783D01*
X9873Y62714D01*
X9164Y62583D01*
X8469Y62390D01*
X7793Y62137D01*
X7142Y61827D01*
X6521Y61461D01*
X5934Y61042D01*
X5877Y60989D01*
X5829Y60928D01*
X5791Y60861D01*
X5764Y60789D01*
X5749Y60713D01*
X5746Y60636D01*
X5755Y60560D01*
X5775Y60485D01*
X5807Y60415D01*
X5850Y60351D01*
X5902Y60294D01*
X5963Y60246D01*
X6030Y60208D01*
X6102Y60181D01*
X6178Y60166D01*
X6255Y60163D01*
X6331Y60172D01*
X6406Y60192D01*
X6476Y60224D01*
X6540Y60267D01*
X7057Y60636D01*
X7604Y60958D01*
X8178Y61232D01*
X8773Y61454D01*
X9385Y61624D01*
X10010Y61740D01*
X10642Y61801D01*
X10971Y61804D01*
Y47251D01*
X10769Y47249D01*
X10136Y47299D01*
X9509Y47404D01*
X8894Y47563D01*
X8295Y47775D01*
X7717Y48038D01*
X7164Y48351D01*
X6640Y48711D01*
X6575Y48752D01*
X6504Y48783D01*
X6429Y48803D01*
X6352Y48810D01*
X6275Y48805D01*
X6200Y48788D01*
X6128Y48760D01*
X6062Y48721D01*
X6002Y48672D01*
X5951Y48614D01*
X5910Y48549D01*
X5879Y48478D01*
X5859Y48403D01*
X5852Y48326D01*
X5857Y48249D01*
X5874Y48174D01*
X5902Y48102D01*
X5941Y48036D01*
X5990Y47976D01*
X6048Y47925D01*
X6643Y47517D01*
X7270Y47162D01*
X7927Y46862D01*
X8606Y46622D01*
X9305Y46441D01*
X10016Y46322D01*
X10735Y46266D01*
X10971Y46268D01*
Y42713D01*
X10654Y42688D01*
X10294Y42601D01*
X9951Y42459D01*
X9635Y42266D01*
X9353Y42025D01*
X9112Y41743D01*
X8919Y41427D01*
X8777Y41084D01*
X8690Y40724D01*
X8661Y40354D01*
X8690Y39984D01*
X8777Y39624D01*
X8919Y39281D01*
X9112Y38965D01*
X9353Y38683D01*
X9635Y38442D01*
X9951Y38249D01*
X10294Y38107D01*
X10654Y38020D01*
X10971Y37995D01*
Y24997D01*
X10654Y24972D01*
X10294Y24885D01*
X9951Y24743D01*
X9635Y24550D01*
X9353Y24309D01*
X9112Y24027D01*
X8919Y23711D01*
X8777Y23368D01*
X8690Y23008D01*
X8661Y22638D01*
X8690Y22268D01*
X8777Y21908D01*
X8919Y21565D01*
X9112Y21249D01*
X9353Y20967D01*
X9635Y20726D01*
X9951Y20533D01*
X10294Y20391D01*
X10654Y20304D01*
X10971Y20279D01*
Y16724D01*
X10591Y16721D01*
X9873Y16652D01*
X9164Y16521D01*
X8469Y16328D01*
X7793Y16075D01*
X7142Y15765D01*
X6521Y15399D01*
X5934Y14980D01*
X5877Y14927D01*
X5829Y14866D01*
X5791Y14799D01*
X5764Y14727D01*
X5749Y14651D01*
X5746Y14574D01*
X5755Y14498D01*
X5775Y14423D01*
X5807Y14353D01*
X5850Y14289D01*
X5902Y14232D01*
X5963Y14184D01*
X6030Y14146D01*
X6102Y14119D01*
X6178Y14104D01*
X6255Y14101D01*
X6331Y14110D01*
X6406Y14130D01*
X6476Y14162D01*
X6540Y14205D01*
X7057Y14574D01*
X7604Y14896D01*
X8178Y15170D01*
X8773Y15392D01*
X9385Y15562D01*
X10010Y15678D01*
X10642Y15739D01*
X10971Y15742D01*
Y1189D01*
X10769Y1187D01*
X10136Y1237D01*
X9509Y1342D01*
X8894Y1501D01*
X8295Y1713D01*
X7717Y1976D01*
X7164Y2289D01*
X6640Y2649D01*
X6575Y2690D01*
X6504Y2721D01*
X6429Y2741D01*
X6352Y2748D01*
X6275Y2743D01*
X6200Y2726D01*
X6128Y2698D01*
X6062Y2659D01*
X6002Y2610D01*
X5951Y2552D01*
X5910Y2487D01*
X5879Y2416D01*
X5859Y2341D01*
X5852Y2264D01*
X5857Y2187D01*
X5874Y2112D01*
X5902Y2040D01*
X5941Y1974D01*
X5990Y1914D01*
X6048Y1863D01*
X6643Y1455D01*
X7270Y1100D01*
X7927Y800D01*
X8606Y560D01*
X9305Y379D01*
X10016Y260D01*
X10735Y204D01*
X10971Y206D01*
Y0D01*
X4075D01*
Y3988D01*
X4090Y3963D01*
X4509Y3376D01*
X4562Y3319D01*
X4623Y3271D01*
X4690Y3233D01*
X4762Y3206D01*
X4838Y3191D01*
X4915Y3188D01*
X4991Y3197D01*
X5066Y3217D01*
X5136Y3249D01*
X5200Y3292D01*
X5257Y3344D01*
X5305Y3405D01*
X5343Y3472D01*
X5370Y3544D01*
X5385Y3620D01*
X5388Y3697D01*
X5379Y3773D01*
X5359Y3848D01*
X5327Y3918D01*
X5284Y3982D01*
X4915Y4499D01*
X4593Y5046D01*
X4319Y5620D01*
X4097Y6215D01*
X4075Y6294D01*
Y10640D01*
X4271Y11194D01*
X4534Y11772D01*
X4847Y12325D01*
X5207Y12849D01*
X5248Y12914D01*
X5279Y12985D01*
X5299Y13060D01*
X5306Y13137D01*
X5301Y13214D01*
X5284Y13289D01*
X5256Y13361D01*
X5217Y13427D01*
X5168Y13487D01*
X5110Y13538D01*
X5045Y13579D01*
X4974Y13610D01*
X4899Y13630D01*
X4822Y13637D01*
X4745Y13632D01*
X4670Y13615D01*
X4598Y13587D01*
X4532Y13548D01*
X4472Y13499D01*
X4421Y13441D01*
X4075Y12936D01*
Y50050D01*
X4090Y50025D01*
X4509Y49438D01*
X4562Y49381D01*
X4623Y49333D01*
X4690Y49295D01*
X4762Y49268D01*
X4838Y49253D01*
X4915Y49250D01*
X4991Y49259D01*
X5066Y49279D01*
X5136Y49311D01*
X5200Y49354D01*
X5257Y49406D01*
X5305Y49467D01*
X5343Y49534D01*
X5370Y49606D01*
X5385Y49682D01*
X5388Y49759D01*
X5379Y49835D01*
X5359Y49910D01*
X5327Y49980D01*
X5284Y50044D01*
X4915Y50561D01*
X4593Y51108D01*
X4319Y51682D01*
X4097Y52277D01*
X4075Y52356D01*
Y56702D01*
X4271Y57256D01*
X4534Y57834D01*
X4847Y58387D01*
X5207Y58911D01*
X5248Y58976D01*
X5279Y59047D01*
X5299Y59122D01*
X5306Y59199D01*
X5301Y59276D01*
X5284Y59351D01*
X5256Y59423D01*
X5217Y59489D01*
X5168Y59549D01*
X5110Y59600D01*
X5045Y59641D01*
X4974Y59672D01*
X4899Y59692D01*
X4822Y59699D01*
X4745Y59694D01*
X4670Y59677D01*
X4598Y59649D01*
X4532Y59610D01*
X4472Y59561D01*
X4421Y59503D01*
X4075Y58998D01*
Y62992D01*
G37*
G36*
Y6294D02*X3927Y6827D01*
X3811Y7452D01*
X3750Y8084D01*
X3745Y8720D01*
X3795Y9353D01*
X3900Y9980D01*
X4059Y10595D01*
X4075Y10640D01*
Y6294D01*
G37*
G36*
Y52356D02*X3927Y52889D01*
X3811Y53514D01*
X3750Y54146D01*
X3745Y54782D01*
X3795Y55415D01*
X3900Y56042D01*
X4059Y56657D01*
X4075Y56702D01*
Y52356D01*
G37*
G36*
X0Y0D02*Y62992D01*
X4075D01*
Y58998D01*
X4013Y58908D01*
X3658Y58281D01*
X3358Y57624D01*
X3118Y56945D01*
X2937Y56246D01*
X2818Y55535D01*
X2762Y54816D01*
X2768Y54095D01*
X2837Y53377D01*
X2968Y52668D01*
X3161Y51973D01*
X3414Y51297D01*
X3724Y50646D01*
X4075Y50050D01*
Y12936D01*
X4013Y12846D01*
X3658Y12219D01*
X3358Y11562D01*
X3118Y10883D01*
X2937Y10184D01*
X2818Y9473D01*
X2762Y8754D01*
X2768Y8033D01*
X2837Y7315D01*
X2968Y6606D01*
X3161Y5911D01*
X3414Y5235D01*
X3724Y4584D01*
X4075Y3988D01*
Y0D01*
X0D01*
G37*
G54D12*X19292Y27559D02*X20237Y26614D01*
X35040D01*
X19292Y17716D02*X20394Y16614D01*
X35040D01*
X19292Y45276D02*X20630Y46614D01*
X35040D01*
X19292Y35433D02*X20473Y36614D01*
X35040D01*
G54D13*D03*
Y46614D03*
G54D14*X19292Y45276D03*
Y35433D03*
Y27559D03*
G54D11*G36*
X32040Y19614D02*Y13614D01*
X38040D01*
Y19614D01*
X32040D01*
G37*
G54D13*X35040Y26614D03*
G54D14*X19292Y17716D03*
G54D15*X11024Y8465D03*
Y54527D03*
G54D16*G54D17*G54D16*G54D17*G54D18*G54D19*G54D18*M02*
