999
dxflib 2.0.4.8
  0
SECTION
  2
HEADER
  9
$ACADVER
  1
AC1015
  9
$HANDSEED
  5
FFFF
  9
$DIMASZ
 40
2.5
  9
$DIMGAP
 40
0.625
  9
$DIMEXO
 40
0.625
  9
$INSUNITS
 70
4
  9
$DIMTXT
 40
2.5
  9
$DIMSTYLE
  2
Standard
  9
$PLIMMAX
 10
210.0
 20
297.0
  9
$PLIMMIN
 10
0.0
 20
0.0
  9
$PINSBASE
 10
5.0000000000000284
 20
-18.9999999999999787
 30
0.0
  9
$DIMEXE
 40
1.25
  0
ENDSEC
  0
SECTION
  2
TABLES
  0
TABLE
  2
VPORT
  5
8
100
AcDbSymbolTable
 70
1
  0
VPORT
  5
30
100
AcDbSymbolTableRecord
100
AcDbViewportTableRecord
  2
*Active
 70
0
 10
0.0
 20
0.0
 11
1.0
 21
1.0
 12
286.3055555555554861
 22
148.5
 13
0.0
 23
0.0
 14
10.0
 24
10.0
 15
10.0
 25
10.0
 16
0.0
 26
0.0
 36
1.0
 17
0.0
 27
0.0
 37
0.0
 40
297.0
 41
1.92798353909465
 42
50.0
 43
0.0
 44
0.0
 50
0.0
 51
0.0
 71
0
 72
100
 73
1
 74
3
 75
1
 76
1
 77
0
 78
0
281
0
 65
1
110
0.0
120
0.0
130
0.0
111
1.0
121
0.0
131
0.0
112
0.0
122
1.0
132
0.0
 79
0
146
0.0
  0
ENDTAB
  0
TABLE
  2
LTYPE
  5
5
100
AcDbSymbolTable
 70
21
  0
LTYPE
  5
14
100
AcDbSymbolTableRecord
100
AcDbLinetypeTableRecord
  2
ByBlock
 70
0
  3

 72
65
 73
0
 40
0.0
  0
LTYPE
  5
15
100
AcDbSymbolTableRecord
100
AcDbLinetypeTableRecord
  2
ByLayer
 70
0
  3

 72
65
 73
0
 40
0.0
  0
LTYPE
  5
16
100
AcDbSymbolTableRecord
100
AcDbLinetypeTableRecord
  2
CONTINUOUS
 70
0
  3
Solid line
 72
65
 73
0
 40
0.0
  0
LTYPE
  5
31
100
AcDbSymbolTableRecord
100
AcDbLinetypeTableRecord
  2
DOT
 70
0
  3
Dot . . . . . . . . . . . . . . . . . . . . . .
 72
65
 73
2
 40
6.3499999999999996
 49
0.0
 74
0
 49
-6.3499999999999996
 74
0
  0
LTYPE
  5
32
100
AcDbSymbolTableRecord
100
AcDbLinetypeTableRecord
  2
DOT2
 70
0
  3
Dot (.5x) .....................................
 72
65
 73
2
 40
3.1749999999999998
 49
0.0
 74
0
 49
-3.1749999999999998
 74
0
  0
LTYPE
  5
33
100
AcDbSymbolTableRecord
100
AcDbLinetypeTableRecord
  2
DOTX2
 70
0
  3
Dot (2x) .  .  .  .  .  .  .  .  .  .  .  .  .
 72
65
 73
2
 40
12.6999999999999993
 49
0.0
 74
0
 49
-12.6999999999999993
 74
0
  0
LTYPE
  5
34
100
AcDbSymbolTableRecord
100
AcDbLinetypeTableRecord
  2
DASHED
 70
0
  3
Dashed __ __ __ __ __ __ __ __ __ __ __ __ __ _
 72
65
 73
2
 40
19.0500000000000007
 49
12.6999999999999993
 74
0
 49
-6.3499999999999996
 74
0
  0
LTYPE
  5
35
100
AcDbSymbolTableRecord
100
AcDbLinetypeTableRecord
  2
DASHED2
 70
0
  3
Dashed (.5x) _ _ _ _ _ _ _ _ _ _ _ _ _ _ _ _ _
 72
65
 73
2
 40
9.5250000000000004
 49
6.3499999999999996
 74
0
 49
-3.1749999999999998
 74
0
  0
LTYPE
  5
36
100
AcDbSymbolTableRecord
100
AcDbLinetypeTableRecord
  2
DASHEDX2
 70
0
  3
Dashed (2x) ____  ____  ____  ____  ____  ___
 72
65
 73
2
 40
38.1000000000000014
 49
25.3999999999999986
 74
0
 49
-12.6999999999999993
 74
0
  0
LTYPE
  5
37
100
AcDbSymbolTableRecord
100
AcDbLinetypeTableRecord
  2
DASHDOT
 70
0
  3
Dash dot __ . __ . __ . __ . __ . __ . __ . __
 72
65
 73
4
 40
25.3999999999999986
 49
12.6999999999999993
 74
0
 49
-6.3499999999999996
 74
0
 49
0.0
 74
0
 49
-6.3499999999999996
 74
0
  0
LTYPE
  5
38
100
AcDbSymbolTableRecord
100
AcDbLinetypeTableRecord
  2
DASHDOT2
 70
0
  3
Dash dot (.5x) _._._._._._._._._._._._._._._.
 72
65
 73
4
 40
12.6999999999999993
 49
6.3499999999999996
 74
0
 49
-3.1749999999999998
 74
0
 49
0.0
 74
0
 49
-3.1749999999999998
 74
0
  0
LTYPE
  5
39
100
AcDbSymbolTableRecord
100
AcDbLinetypeTableRecord
  2
DASHDOTX2
 70
0
  3
Dash dot (2x) ____  .  ____  .  ____  .  ___
 72
65
 73
4
 40
50.7999999999999972
 49
25.3999999999999986
 74
0
 49
-12.6999999999999993
 74
0
 49
0.0
 74
0
 49
-12.6999999999999993
 74
0
  0
LTYPE
  5
3A
100
AcDbSymbolTableRecord
100
AcDbLinetypeTableRecord
  2
DIVIDE
 70
0
  3
Divide ____ . . ____ . . ____ . . ____ . . ____
 72
65
 73
6
 40
31.75
 49
12.6999999999999993
 74
0
 49
-6.3499999999999996
 74
0
 49
0.0
 74
0
 49
-6.3499999999999996
 74
0
 49
0.0
 74
0
 49
-6.3499999999999996
 74
0
  0
LTYPE
  5
3B
100
AcDbSymbolTableRecord
100
AcDbLinetypeTableRecord
  2
DIVIDE2
 70
0
  3
Divide (.5x) __..__..__..__..__..__..__..__.._
 72
65
 73
6
 40
15.875
 49
6.3499999999999996
 74
0
 49
-3.1749999999999998
 74
0
 49
0.0
 74
0
 49
-3.1749999999999998
 74
0
 49
0.0
 74
0
 49
-3.1749999999999998
 74
0
  0
LTYPE
  5
3C
100
AcDbSymbolTableRecord
100
AcDbLinetypeTableRecord
  2
DIVIDEX2
 70
0
  3
Divide (2x) ________  .  .  ________  .  .  _
 72
65
 73
6
 40
63.5
 49
25.3999999999999986
 74
0
 49
-12.6999999999999993
 74
0
 49
0.0
 74
0
 49
-12.6999999999999993
 74
0
 49
0.0
 74
0
 49
-12.6999999999999993
 74
0
  0
LTYPE
  5
3D
100
AcDbSymbolTableRecord
100
AcDbLinetypeTableRecord
  2
CENTER
 70
0
  3
Center ____ _ ____ _ ____ _ ____ _ ____ _ ____
 72
65
 73
4
 40
50.7999999999999972
 49
31.75
 74
0
 49
-6.3499999999999996
 74
0
 49
6.3499999999999996
 74
0
 49
-6.3499999999999996
 74
0
  0
LTYPE
  5
3E
100
AcDbSymbolTableRecord
100
AcDbLinetypeTableRecord
  2
CENTER2
 70
0
  3
Center (.5x) ___ _ ___ _ ___ _ ___ _ ___ _ ___
 72
65
 73
4
 40
28.5749999999999993
 49
19.0500000000000007
 74
0
 49
-3.1749999999999998
 74
0
 49
3.1749999999999998
 74
0
 49
-3.1749999999999998
 74
0
  0
LTYPE
  5
3F
100
AcDbSymbolTableRecord
100
AcDbLinetypeTableRecord
  2
CENTERX2
 70
0
  3
Center (2x) ________  __  ________  __  _____
 72
65
 73
4
 40
101.5999999999999943
 49
63.5
 74
0
 49
-12.6999999999999993
 74
0
 49
12.6999999999999993
 74
0
 49
-12.6999999999999993
 74
0
  0
LTYPE
  5
40
100
AcDbSymbolTableRecord
100
AcDbLinetypeTableRecord
  2
BORDER
 70
0
  3
Border __ __ . __ __ . __ __ . __ __ . __ __ .
 72
65
 73
6
 40
44.4500000000000028
 49
12.6999999999999993
 74
0
 49
-6.3499999999999996
 74
0
 49
12.6999999999999993
 74
0
 49
-6.3499999999999996
 74
0
 49
0.0
 74
0
 49
-6.3499999999999996
 74
0
  0
LTYPE
  5
41
100
AcDbSymbolTableRecord
100
AcDbLinetypeTableRecord
  2
BORDER2
 70
0
  3
Border (.5x) __.__.__.__.__.__.__.__.__.__.__.
 72
65
 73
6
 40
22.2250000000000014
 49
6.3499999999999996
 74
0
 49
-3.1749999999999998
 74
0
 49
6.3499999999999996
 74
0
 49
-3.1749999999999998
 74
0
 49
0.0
 74
0
 49
-3.1749999999999998
 74
0
  0
LTYPE
  5
42
100
AcDbSymbolTableRecord
100
AcDbLinetypeTableRecord
  2
BORDERX2
 70
0
  3
Border (2x) ____  ____  .  ____  ____  .  ___
 72
65
 73
6
 40
88.9000000000000057
 49
25.3999999999999986
 74
0
 49
-12.6999999999999993
 74
0
 49
25.3999999999999986
 74
0
 49
-12.6999999999999993
 74
0
 49
0.0
 74
0
 49
-12.6999999999999993
 74
0
  0
ENDTAB
  0
TABLE
  2
LAYER
  5
2
100
AcDbSymbolTable
 70
20
  0
LAYER
  5
10
100
AcDbSymbolTableRecord
100
AcDbLayerTableRecord
  2
0
 70
0
 62
7
  6
CONTINUOUS
370
0
390
F
  0
LAYER
  5
43
100
AcDbSymbolTableRecord
100
AcDbLayerTableRecord
  2
base
 70
0
 62
7
  6
CONTINUOUS
370
0
390
F
  0
LAYER
  5
44
100
AcDbSymbolTableRecord
100
AcDbLayerTableRecord
  2
side_east
 70
0
 62
7
  6
CONTINUOUS
370
0
390
F
  0
LAYER
  5
45
100
AcDbSymbolTableRecord
100
AcDbLayerTableRecord
  2
side_west
 70
0
 62
7
  6
CONTINUOUS
370
0
390
F
  0
LAYER
  5
46
100
AcDbSymbolTableRecord
100
AcDbLayerTableRecord
  2
side_south
 70
0
 62
7
  6
CONTINUOUS
370
0
390
F
  0
LAYER
  5
47
100
AcDbSymbolTableRecord
100
AcDbLayerTableRecord
  2
side_north
 70
0
 62
7
  6
CONTINUOUS
370
0
390
F
  0
LAYER
  5
48
100
AcDbSymbolTableRecord
100
AcDbLayerTableRecord
  2
top
 70
0
 62
7
  6
CONTINUOUS
370
0
390
F
  0
LAYER
  5
49
100
AcDbSymbolTableRecord
100
AcDbLayerTableRecord
  2
top_inner
 70
0
 62
7
  6
CONTINUOUS
370
0
390
F
  0
LAYER
  5
4A
100
AcDbSymbolTableRecord
100
AcDbLayerTableRecord
  2
base_origin
 70
0
 62
2
  6
CONTINUOUS
370
0
390
F
  0
LAYER
  5
4B
100
AcDbSymbolTableRecord
100
AcDbLayerTableRecord
  2
side_east_origin
 70
0
 62
2
  6
CONTINUOUS
370
0
390
F
  0
LAYER
  5
4C
100
AcDbSymbolTableRecord
100
AcDbLayerTableRecord
  2
side_north_origin
 70
0
 62
2
  6
CONTINUOUS
370
0
390
F
  0
LAYER
  5
4D
100
AcDbSymbolTableRecord
100
AcDbLayerTableRecord
  2
side_south_origin
 70
0
 62
2
  6
CONTINUOUS
370
0
390
F
  0
LAYER
  5
4E
100
AcDbSymbolTableRecord
100
AcDbLayerTableRecord
  2
side_west_origin
 70
0
 62
2
  6
CONTINUOUS
370
0
390
F
  0
LAYER
  5
4F
100
AcDbSymbolTableRecord
100
AcDbLayerTableRecord
  2
top_origin
 70
0
 62
2
  6
CONTINUOUS
370
0
390
F
  0
LAYER
  5
50
100
AcDbSymbolTableRecord
100
AcDbLayerTableRecord
  2
dims
 70
0
 62
4
  6
CONTINUOUS
370
0
390
F
  0
LAYER
  5
51
100
AcDbSymbolTableRecord
100
AcDbLayerTableRecord
  2
side_cuts
 70
0
 62
7
  6
CONTINUOUS
370
0
390
F
  0
LAYER
  5
52
100
AcDbSymbolTableRecord
100
AcDbLayerTableRecord
  2
top_inner_origin
 70
0
 62
2
  6
CONTINUOUS
370
0
390
F
  0
LAYER
  5
53
100
AcDbSymbolTableRecord
100
AcDbLayerTableRecord
  2
support_1
 70
0
 62
7
  6
CONTINUOUS
370
0
390
F
  0
LAYER
  5
54
100
AcDbSymbolTableRecord
100
AcDbLayerTableRecord
  2
support_3
 70
0
 62
7
  6
CONTINUOUS
370
0
390
F
  0
LAYER
  5
55
100
AcDbSymbolTableRecord
100
AcDbLayerTableRecord
  2
support_2
 70
0
 62
7
  6
CONTINUOUS
370
0
390
F
  0
ENDTAB
  0
TABLE
  2
STYLE
  5
3
100
AcDbSymbolTable
 70
1
  0
STYLE
  5
11
100
AcDbSymbolTableRecord
100
AcDbTextStyleTableRecord
  2
Standard
 70
0
 40
0.0
 41
0.75
 50
0.0
 71
0
 42
2.5
  3
txt
  4

  0
ENDTAB
  0
TABLE
  2
VIEW
  5
6
100
AcDbSymbolTable
 70
0
  0
ENDTAB
  0
TABLE
  2
UCS
  5
7
100
AcDbSymbolTable
 70
0
  0
ENDTAB
  0
TABLE
  2
APPID
  5
9
100
AcDbSymbolTable
 70
1
  0
APPID
  5
12
100
AcDbSymbolTableRecord
100
AcDbRegAppTableRecord
  2
ACAD
 70
0
  0
ENDTAB
  0
TABLE
  2
DIMSTYLE
  5
A
100
AcDbSymbolTable
 70
1
100
AcDbDimStyleTable
 71
0
  0
DIMSTYLE
105
27
100
AcDbSymbolTableRecord
100
AcDbDimStyleTableRecord
  2
Standard
 41
2.5
 42
0.625
 43
3.75
 44
1.25
 70
0
 73
0
 74
0
 77
1
 78
8
140
2.5
141
2.5
143
0.03937007874016
147
0.625
171
3
172
1
271
2
272
2
274
3
278
44
283
0
284
8
340
11
  0
ENDTAB
  0
TABLE
  2
BLOCK_RECORD
  5
1
100
AcDbSymbolTable
 70
1
  0
BLOCK_RECORD
  5
1F
100
AcDbSymbolTableRecord
100
AcDbBlockTableRecord
  2
*Model_Space
340
22
  0
BLOCK_RECORD
  5
1B
100
AcDbSymbolTableRecord
100
AcDbBlockTableRecord
  2
*Paper_Space
340
1E
  0
BLOCK_RECORD
  5
23
100
AcDbSymbolTableRecord
100
AcDbBlockTableRecord
  2
*Paper_Space0
340
26
  0
BLOCK_RECORD
  5
56
100
AcDbSymbolTableRecord
100
AcDbBlockTableRecord
  2
T-Slot_Full_Slot
340
0
  0
BLOCK_RECORD
  5
57
100
AcDbSymbolTableRecord
100
AcDbBlockTableRecord
  2
T-Slot_Full_Hole
340
0
  0
BLOCK_RECORD
  5
58
100
AcDbSymbolTableRecord
100
AcDbBlockTableRecord
  2
T-Slot_Minimal_Slot
340
0
  0
BLOCK_RECORD
  5
59
100
AcDbSymbolTableRecord
100
AcDbBlockTableRecord
  2
T-Slot_Minimal_Hole
340
0
  0
ENDTAB
  0
ENDSEC
  0
SECTION
  2
BLOCKS
  0
BLOCK
  5
20
100
AcDbEntity
  8
0
100
AcDbBlockBegin
  2
*Model_Space
 70
0
 10
0.0
 20
0.0
 30
0.0
  3
*Model_Space
  1

  0
ENDBLK
  5
21
100
AcDbEntity
  8
0
100
AcDbBlockEnd
  0
BLOCK
  5
1C
100
AcDbEntity
 67
1
  8
0
100
AcDbBlockBegin
  2
*Paper_Space
 70
0
 10
0.0
 20
0.0
 30
0.0
  3
*Paper_Space
  1

  0
ENDBLK
  5
1D
100
AcDbEntity
 67
1
  8
0
100
AcDbBlockEnd
  0
BLOCK
  5
24
100
AcDbEntity
  8
0
100
AcDbBlockBegin
  2
*Paper_Space0
 70
0
 10
0.0
 20
0.0
 30
0.0
  3
*Paper_Space0
  1

  0
ENDBLK
  5
25
100
AcDbEntity
  8
0
100
AcDbBlockEnd
  0
BLOCK
  5
5A
100
AcDbEntity
  8
0
100
AcDbBlockBegin
  2
T-Slot_Full_Slot
 70
0
 10
0.0
 20
0.0
 30
0.0
  3
T-Slot_Full_Slot
  1

  0
LINE
  5
5B
100
AcDbEntity
100
AcDbLine
  8
0
 62
256
370
-1
  6
ByLayer
 10
6.5
 20
-0.0000000000000016
 30
0.0
 11
6.4999999999999982
 21
-4.0000000000000018
 31
0.0
  0
LINE
  5
5C
100
AcDbEntity
100
AcDbLine
  8
0
 62
256
370
-1
  6
ByLayer
 10
6.4999999999999982
 20
-4.0000000000000018
 30
0.0
 11
16.4999999999999929
 21
-4.0000000000000249
 31
0.0
  0
LINE
  5
5D
100
AcDbEntity
100
AcDbLine
  8
0
 62
256
370
-1
  6
ByLayer
 10
16.4999999999999929
 20
-4.0000000000000249
 30
0.0
 11
16.5
 21
-0.000000000000004
 31
0.0
  0
LINE
  5
5E
100
AcDbEntity
100
AcDbLine
  8
0
 62
256
370
-1
  6
ByLayer
 10
-6.5
 20
0.0000000000000024
 30
0.0
 11
-6.5000000000000018
 21
-3.9999999999999956
 31
0.0
  0
LINE
  5
5F
100
AcDbEntity
100
AcDbLine
  8
0
 62
256
370
-1
  6
ByLayer
 10
-6.5000000000000018
 20
-3.9999999999999956
 30
0.0
 11
-16.5000000000000036
 21
-4.0000000000000115
 31
0.0
  0
LINE
  5
60
100
AcDbEntity
100
AcDbLine
  8
0
 62
256
370
-1
  6
ByLayer
 10
-16.5000000000000036
 20
-4.0000000000000115
 30
0.0
 11
-16.5
 21
0.0000000000000061
 31
0.0
  0
LINE
  5
61
100
AcDbEntity
100
AcDbLine
  8
0
 62
256
370
-1
  6
ByLayer
 10
-6.5
 20
0.0000000000000024
 30
0.0
 11
-1.5
 21
0.0000000000000006
 31
0.0
  0
LINE
  5
62
100
AcDbEntity
100
AcDbLine
  8
0
 62
256
370
-1
  6
ByLayer
 10
1.5000000000000071
 20
-0.0000000000000004
 30
0.0
 11
6.5
 21
-0.0000000000000016
 31
0.0
  0
LINE
  5
63
100
AcDbEntity
100
AcDbLine
  8
0
 62
256
370
-1
  6
ByLayer
 10
1.5000000000000011
 20
2.9999999999999996
 30
0.0
 11
1.5
 21
-0.0000000000000004
 31
0.0
  0
LINE
  5
64
100
AcDbEntity
100
AcDbLine
  8
0
 62
256
370
-1
  6
ByLayer
 10
-1.5
 20
0.0000000000000006
 30
0.0
 11
-1.4999999999999969
 21
3.0000000000000155
 31
0.0
  0
LINE
  5
65
100
AcDbEntity
100
AcDbLine
  8
0
 62
256
370
-1
  6
ByLayer
 10
1.5000000000000013
 20
3.0000000000000133
 30
0.0
 11
2.7000000000000015
 21
2.9999999999999987
 31
0.0
  0
LINE
  5
66
100
AcDbEntity
100
AcDbLine
  8
0
 62
256
370
-1
  6
ByLayer
 10
-1.4999999999999956
 20
3.0000000000000129
 30
0.0
 11
-2.6999999999999997
 21
3.0000000000000004
 31
0.0
  0
LINE
  5
67
100
AcDbEntity
100
AcDbLine
  8
0
 62
256
370
-1
  6
ByLayer
 10
2.700000000000002
 20
5.5
 30
0.0
 11
1.4999999999999984
 21
5.5
 31
0.0
  0
LINE
  5
68
100
AcDbEntity
100
AcDbLine
  8
0
 62
256
370
-1
  6
ByLayer
 10
-2.6999999999999931
 20
5.5000000000000036
 30
0.0
 11
-1.4999999999999949
 21
5.5
 31
0.0
  0
LINE
  5
69
100
AcDbEntity
100
AcDbLine
  8
0
 62
256
370
-1
  6
ByLayer
 10
-1.4999999999999956
 20
6.2000000000000144
 30
0.0
 11
1.5000000000000107
 21
6.2000000000000126
 31
0.0
  0
LINE
  5
6A
100
AcDbEntity
100
AcDbLine
  8
0
 62
256
370
-1
  6
ByLayer
 10
1.5000000000000107
 20
6.2000000000000126
 30
0.0
 11
1.4999999999999984
 21
5.5
 31
0.0
  0
LINE
  5
6B
100
AcDbEntity
100
AcDbLine
  8
0
 62
256
370
-1
  6
ByLayer
 10
-1.4999999999999991
 20
5.5000000000000151
 30
0.0
 11
-1.4999999999999956
 21
6.2000000000000144
 31
0.0
  0
ARC
  5
6C
100
AcDbEntity
  8
0
 62
256
370
-1
  6
ByLayer
100
AcDbCircle
 10
-2.6999999999999962
 20
3.8000000000000029
 30
0.0
 40
0.7999999999999998
100
AcDbArc
 50
180.0
 51
270.0
  0
ARC
  5
6D
100
AcDbEntity
  8
0
 62
256
370
-1
  6
ByLayer
100
AcDbCircle
 10
-3.1000000000000014
 20
3.7999999999999998
 30
0.0
 40
0.3999999999999999
100
AcDbArc
 50
90.0
 51
180.0
  0
ARC
  5
6E
100
AcDbEntity
  8
0
 62
256
370
-1
  6
ByLayer
100
AcDbCircle
 10
-3.1000000000000014
 20
4.5999999999999988
 30
0.0
 40
0.4000000000000004
100
AcDbArc
 50
270.0
 51
360.0
  0
LINE
  5
6F
100
AcDbEntity
100
AcDbLine
  8
0
 62
256
370
-1
  6
ByLayer
 10
-2.6999999999999971
 20
4.6000000000000032
 30
0.0
 11
-2.6999999999999931
 21
5.5000000000000036
 31
0.0
  0
LINE
  5
70
100
AcDbEntity
100
AcDbLine
  8
0
 62
256
370
-1
  6
ByLayer
 10
2.6999999999999993
 20
4.6000000000000014
 30
0.0
 11
2.700000000000002
 21
5.5
 31
0.0
  0
ARC
  5
71
100
AcDbEntity
  8
0
 62
256
370
-1
  6
ByLayer
100
AcDbCircle
 10
2.700000000000002
 20
3.7999999999999989
 30
0.0
 40
0.7999999999999998
100
AcDbArc
 50
270.0
 51
360.0
  0
ARC
  5
72
100
AcDbEntity
  8
0
 62
256
370
-1
  6
ByLayer
100
AcDbCircle
 10
3.1000000000000001
 20
3.8000000000000003
 30
0.0
 40
0.3999999999999999
100
AcDbArc
 50
360.0
 51
90.0
  0
ARC
  5
73
100
AcDbEntity
  8
0
 62
256
370
-1
  6
ByLayer
100
AcDbCircle
 10
3.1000000000000001
 20
4.6000000000000005
 30
0.0
 40
0.4000000000000004
100
AcDbArc
 50
180.0
 51
270.0
  0
ENDBLK
  5
74
100
AcDbEntity
  8
0
100
AcDbBlockEnd
  0
BLOCK
  5
75
100
AcDbEntity
  8
0
100
AcDbBlockBegin
  2
T-Slot_Full_Hole
 70
0
 10
0.0
 20
0.0
 30
0.0
  3
T-Slot_Full_Hole
  1

  0
CIRCLE
  5
76
100
AcDbEntity
100
AcDbCircle
  8
0
 62
256
370
-1
  6
ByLayer
 10
-0.0000000000000018
 20
0.0000000000000142
 30
0.0
 40
1.5
  0
LINE
  5
77
100
AcDbEntity
100
AcDbLine
  8
0
 62
256
370
-1
  6
ByLayer
 10
6.5
 20
-1.9999999999999871
 30
0.0
 11
6.5000000000000009
 21
2.0000000000000124
 31
0.0
  0
LINE
  5
78
100
AcDbEntity
100
AcDbLine
  8
0
 62
256
370
-1
  6
ByLayer
 10
-6.5
 20
2.0000000000000164
 30
0.0
 11
-6.5
 21
-1.9999999999999818
 31
0.0
  0
LINE
  5
79
100
AcDbEntity
100
AcDbLine
  8
0
 62
256
370
-1
  6
ByLayer
 10
-6.5
 20
-1.9999999999999818
 30
0.0
 11
-16.5
 21
-1.9999999999999807
 31
0.0
  0
LINE
  5
7A
100
AcDbEntity
100
AcDbLine
  8
0
 62
256
370
-1
  6
ByLayer
 10
-16.5
 20
-1.9999999999999807
 30
0.0
 11
-16.5
 21
2.0000000000000027
 31
0.0
  0
LINE
  5
7B
100
AcDbEntity
100
AcDbLine
  8
0
 62
256
370
-1
  6
ByLayer
 10
-16.5
 20
2.0000000000000027
 30
0.0
 11
-6.5
 21
2.0000000000000164
 31
0.0
  0
LINE
  5
7C
100
AcDbEntity
100
AcDbLine
  8
0
 62
256
370
-1
  6
ByLayer
 10
16.5000000000000036
 20
-1.9999999999999722
 30
0.0
 11
6.5
 21
-1.9999999999999871
 31
0.0
  0
LINE
  5
7D
100
AcDbEntity
100
AcDbLine
  8
0
 62
256
370
-1
  6
ByLayer
 10
6.5000000000000009
 20
2.0000000000000124
 30
0.0
 11
16.5000000000000036
 21
1.9999999999999925
 31
0.0
  0
LINE
  5
7E
100
AcDbEntity
100
AcDbLine
  8
0
 62
256
370
-1
  6
ByLayer
 10
16.5000000000000036
 20
1.9999999999999925
 30
0.0
 11
16.5000000000000036
 21
-1.9999999999999722
 31
0.0
  0
ENDBLK
  5
7F
100
AcDbEntity
  8
0
100
AcDbBlockEnd
  0
BLOCK
  5
80
100
AcDbEntity
  8
0
100
AcDbBlockBegin
  2
T-Slot_Minimal_Slot
 70
0
 10
0.0
 20
0.0
 30
0.0
  3
T-Slot_Minimal_Slot
  1

  0
LINE
  5
81
100
AcDbEntity
100
AcDbLine
  8
0
 62
256
370
-1
  6
ByLayer
 10
1.499999999999986
 20
2.9999999999999858
 30
0.0
 11
1.4999999999999858
 21
-0.0000000000000004
 31
0.0
  0
LINE
  5
82
100
AcDbEntity
100
AcDbLine
  8
0
 62
256
370
-1
  6
ByLayer
 10
-1.5000000000000142
 20
0.0000000000000002
 30
0.0
 11
-1.5000000000000147
 21
2.9999999999999996
 31
0.0
  0
LINE
  5
83
100
AcDbEntity
100
AcDbLine
  8
0
 62
256
370
-1
  6
ByLayer
 10
1.4999999999999853
 20
3.0
 30
0.0
 11
2.6999999999999886
 21
2.9999999999999862
 31
0.0
  0
LINE
  5
84
100
AcDbEntity
100
AcDbLine
  8
0
 62
256
370
-1
  6
ByLayer
 10
-1.5
 20
3.0
 30
0.0
 11
-2.7000000000000171
 21
2.9999999999999862
 31
0.0
  0
LINE
  5
85
100
AcDbEntity
100
AcDbLine
  8
0
 62
256
370
-1
  6
ByLayer
 10
2.6999999999999886
 20
5.4999999999999858
 30
0.0
 11
1.4999999999999856
 21
5.4999999999999867
 31
0.0
  0
LINE
  5
86
100
AcDbEntity
100
AcDbLine
  8
0
 62
256
370
-1
  6
ByLayer
 10
-2.7000000000000166
 20
5.4999999999999858
 30
0.0
 11
-1.5000000000000004
 21
5.4999999999999858
 31
0.0
  0
LINE
  5
87
100
AcDbEntity
100
AcDbLine
  8
0
 62
256
370
-1
  6
ByLayer
 10
1.5000000000000004
 20
6.2000000000000002
 30
0.0
 11
1.4999999999999856
 21
5.4999999999999867
 31
0.0
  0
LINE
  5
88
100
AcDbEntity
100
AcDbLine
  8
0
 62
256
370
-1
  6
ByLayer
 10
-1.4999999999999996
 20
6.2000000000000011
 30
0.0
 11
1.5000000000000004
 21
6.2000000000000002
 31
0.0
  0
LINE
  5
89
100
AcDbEntity
100
AcDbLine
  8
0
 62
256
370
-1
  6
ByLayer
 10
-1.5000000000000135
 20
5.5000000000000009
 30
0.0
 11
-1.4999999999999996
 21
6.2000000000000011
 31
0.0
  0
ARC
  5
8A
100
AcDbEntity
  8
0
 62
256
370
-1
  6
ByLayer
100
AcDbCircle
 10
-2.6999999999999988
 20
3.8000000000000007
 30
0.0
 40
0.7999999999999998
100
AcDbArc
 50
180.0
 51
270.0
  0
ARC
  5
8B
100
AcDbEntity
  8
0
 62
256
370
-1
  6
ByLayer
100
AcDbCircle
 10
-3.1000000000000001
 20
3.7999999999999994
 30
0.0
 40
0.3999999999999999
100
AcDbArc
 50
90.0
 51
180.0
  0
ARC
  5
8C
100
AcDbEntity
  8
0
 62
256
370
-1
  6
ByLayer
100
AcDbCircle
 10
-3.0999999999999996
 20
4.5999999999999988
 30
0.0
 40
0.4000000000000004
100
AcDbArc
 50
270.0
 51
0.0
  0
LINE
  5
8D
100
AcDbEntity
100
AcDbLine
  8
0
 62
256
370
-1
  6
ByLayer
 10
-2.6999999999999993
 20
4.6000000000000005
 30
0.0
 11
-2.6999999999999993
 21
5.5
 31
0.0
  0
ARC
  5
8E
100
AcDbEntity
  8
0
 62
256
370
-1
  6
ByLayer
100
AcDbCircle
 10
2.7000000000000002
 20
3.7999999999999998
 30
0.0
 40
0.7999999999999998
100
AcDbArc
 50
270.0
 51
360.0
  0
ARC
  5
8F
100
AcDbEntity
  8
0
 62
256
370
-1
  6
ByLayer
100
AcDbCircle
 10
3.100000000000001
 20
3.8000000000000003
 30
0.0
 40
0.3999999999999999
100
AcDbArc
 50
360.0
 51
89.9999999999999858
  0
ARC
  5
90
100
AcDbEntity
  8
0
 62
256
370
-1
  6
ByLayer
100
AcDbCircle
 10
3.100000000000001
 20
4.6000000000000005
 30
0.0
 40
0.4000000000000004
100
AcDbArc
 50
180.0
 51
270.0
  0
LINE
  5
91
100
AcDbEntity
100
AcDbLine
  8
0
 62
256
370
-1
  6
ByLayer
 10
2.7000000000000006
 20
4.6000000000000005
 30
0.0
 11
2.6999999999999886
 21
5.4999999999999858
 31
0.0
  0
ENDBLK
  5
92
100
AcDbEntity
  8
0
100
AcDbBlockEnd
  0
BLOCK
  5
93
100
AcDbEntity
  8
0
100
AcDbBlockBegin
  2
T-Slot_Minimal_Hole
 70
0
 10
0.0
 20
0.0
 30
0.0
  3
T-Slot_Minimal_Hole
  1

  0
CIRCLE
  5
94
100
AcDbEntity
100
AcDbCircle
  8
0
 62
256
370
-1
  6
ByLayer
 10
0.0
 20
0.0
 30
0.0
 40
1.5
  0
ENDBLK
  5
95
100
AcDbEntity
  8
0
100
AcDbBlockEnd
  0
ENDSEC
  0
SECTION
  2
ENTITIES
  0
LINE
  5
96
100
AcDbEntity
100
AcDbLine
  8
top_inner
 62
256
370
-1
  6
ByLayer
 10
60.0
 20
375.0
 30
0.0
 11
60.0
 21
379.0
 31
0.0
  0
LINE
  5
97
100
AcDbEntity
100
AcDbLine
  8
top_inner
 62
256
370
-1
  6
ByLayer
 10
60.0
 20
379.0
 30
0.0
 11
70.0
 21
379.0
 31
0.0
  0
LINE
  5
98
100
AcDbEntity
100
AcDbLine
  8
top_inner
 62
256
370
-1
  6
ByLayer
 10
70.0
 20
379.0
 30
0.0
 11
70.0
 21
375.0
 31
0.0
  0
LINE
  5
99
100
AcDbEntity
100
AcDbLine
  8
top_inner
 62
256
370
-1
  6
ByLayer
 10
46.0
 20
280.0
 30
0.0
 11
46.0
 21
276.0
 31
0.0
  0
LINE
  5
9A
100
AcDbEntity
100
AcDbLine
  8
top_inner
 62
256
370
-1
  6
ByLayer
 10
46.0
 20
276.0
 30
0.0
 11
54.0
 21
276.0
 31
0.0
  0
LINE
  5
9B
100
AcDbEntity
100
AcDbLine
  8
top_inner
 62
256
370
-1
  6
ByLayer
 10
54.0
 20
276.0
 30
0.0
 11
54.0
 21
280.0
 31
0.0
  0
LINE
  5
9C
100
AcDbEntity
100
AcDbLine
  8
top_inner
 62
256
370
-1
  6
ByLayer
 10
20.0
 20
368.0
 30
0.0
 11
16.0
 21
368.0
 31
0.0
  0
LINE
  5
9D
100
AcDbEntity
100
AcDbLine
  8
top_inner
 62
256
370
-1
  6
ByLayer
 10
16.0
 20
368.0
 30
0.0
 11
16.0
 21
364.0
 31
0.0
  0
LINE
  5
9E
100
AcDbEntity
100
AcDbLine
  8
top_inner
 62
256
370
-1
  6
ByLayer
 10
16.0
 20
364.0
 30
0.0
 11
20.0
 21
364.0
 31
0.0
  0
LINE
  5
9F
100
AcDbEntity
100
AcDbLine
  8
top_inner
 62
256
370
-1
  6
ByLayer
 10
20.0
 20
317.0
 30
0.0
 11
16.0
 21
317.0
 31
0.0
  0
LINE
  5
A0
100
AcDbEntity
100
AcDbLine
  8
top_inner
 62
256
370
-1
  6
ByLayer
 10
16.0
 20
317.0
 30
0.0
 11
16.0
 21
321.0
 31
0.0
  0
LINE
  5
A1
100
AcDbEntity
100
AcDbLine
  8
top_inner
 62
256
370
-1
  6
ByLayer
 10
16.0
 20
321.0
 30
0.0
 11
20.0
 21
321.0
 31
0.0
  0
LINE
  5
A2
100
AcDbEntity
100
AcDbLine
  8
top_inner
 62
256
370
-1
  6
ByLayer
 10
180.0
 20
369.0
 30
0.0
 11
184.0
 21
369.0
 31
0.0
  0
LINE
  5
A3
100
AcDbEntity
100
AcDbLine
  8
top_inner
 62
256
370
-1
  6
ByLayer
 10
184.0
 20
369.0
 30
0.0
 11
184.0
 21
365.0
 31
0.0
  0
LINE
  5
A4
100
AcDbEntity
100
AcDbLine
  8
top_inner
 62
256
370
-1
  6
ByLayer
 10
184.0
 20
365.0
 30
0.0
 11
180.0
 21
365.0
 31
0.0
  0
LINE
  5
A5
100
AcDbEntity
100
AcDbLine
  8
top_inner
 62
256
370
-1
  6
ByLayer
 10
180.0
 20
322.0
 30
0.0
 11
184.0
 21
322.0
 31
0.0
  0
LINE
  5
A6
100
AcDbEntity
100
AcDbLine
  8
top_inner
 62
256
370
-1
  6
ByLayer
 10
184.0
 20
322.0
 30
0.0
 11
184.0
 21
326.0
 31
0.0
  0
LINE
  5
A7
100
AcDbEntity
100
AcDbLine
  8
top_inner
 62
256
370
-1
  6
ByLayer
 10
184.0
 20
326.0
 30
0.0
 11
180.0
 21
326.0
 31
0.0
  0
LINE
  5
A8
100
AcDbEntity
100
AcDbLine
  8
top_inner
 62
256
370
-1
  6
ByLayer
 10
20.0
 20
375.0
 30
0.0
 11
20.0
 21
368.0
 31
0.0
  0
LINE
  5
A9
100
AcDbEntity
100
AcDbLine
  8
top_inner
 62
256
370
-1
  6
ByLayer
 10
180.0
 20
369.0
 30
0.0
 11
180.0
 21
375.0
 31
0.0
  0
LINE
  5
AA
100
AcDbEntity
100
AcDbLine
  8
top_inner
 62
256
370
-1
  6
ByLayer
 10
120.0
 20
280.0
 30
0.0
 11
120.0
 21
276.0
 31
0.0
  0
LINE
  5
AB
100
AcDbEntity
100
AcDbLine
  8
top_inner
 62
256
370
-1
  6
ByLayer
 10
120.0
 20
276.0
 30
0.0
 11
130.0
 21
276.0
 31
0.0
  0
LINE
  5
AC
100
AcDbEntity
100
AcDbLine
  8
top_inner
 62
256
370
-1
  6
ByLayer
 10
130.0
 20
276.0
 30
0.0
 11
130.0
 21
280.0
 31
0.0
  0
LINE
  5
AD
100
AcDbEntity
100
AcDbLine
  8
top_inner
 62
256
370
-1
  6
ByLayer
 10
120.0
 20
375.0
 30
0.0
 11
120.0
 21
379.0
 31
0.0
  0
LINE
  5
AE
100
AcDbEntity
100
AcDbLine
  8
top_inner
 62
256
370
-1
  6
ByLayer
 10
120.0
 20
379.0
 30
0.0
 11
130.0
 21
379.0
 31
0.0
  0
LINE
  5
AF
100
AcDbEntity
100
AcDbLine
  8
top_inner
 62
256
370
-1
  6
ByLayer
 10
130.0
 20
379.0
 30
0.0
 11
130.0
 21
375.0
 31
0.0
  0
LINE
  5
B0
100
AcDbEntity
100
AcDbLine
  8
top_inner
 62
256
370
-1
  6
ByLayer
 10
120.0
 20
375.0
 30
0.0
 11
70.0
 21
375.0
 31
0.0
  0
LINE
  5
B1
100
AcDbEntity
100
AcDbLine
  8
top_inner
 62
256
370
-1
  6
ByLayer
 10
54.0
 20
280.0
 30
0.0
 11
120.0
 21
280.0
 31
0.0
  0
LINE
  5
B2
100
AcDbEntity
100
AcDbLine
  8
top_inner
 62
256
370
-1
  6
ByLayer
 10
138.0
 20
302.0500000000000114
 30
0.0
 11
138.0
 21
369.2500000000000568
 31
0.0
  0
LINE
  5
B3
100
AcDbEntity
100
AcDbLine
  8
top_inner
 62
256
370
-1
  6
ByLayer
 10
138.0
 20
369.2500000000000568
 30
0.0
 11
31.9999999999999964
 21
369.2500000000000568
 31
0.0
  0
LINE
  5
B4
100
AcDbEntity
100
AcDbLine
  8
top_inner
 62
256
370
-1
  6
ByLayer
 10
31.9999999999999964
 20
369.2500000000000568
 30
0.0
 11
31.9999999999999964
 21
302.0500000000000114
 31
0.0
  0
LINE
  5
B5
100
AcDbEntity
100
AcDbLine
  8
top_inner
 62
256
370
-1
  6
ByLayer
 10
35.0
 20
300.5
 30
0.0
 11
126.0000000000000142
 21
300.5
 31
0.0
  0
LINE
  5
B6
100
AcDbEntity
100
AcDbLine
  8
top_inner
 62
256
370
-1
  6
ByLayer
 10
126.0000000000000142
 20
300.5
 30
0.0
 11
125.9999999999999858
 21
302.0500000000000114
 31
0.0
  0
LINE
  5
B7
100
AcDbEntity
100
AcDbLine
  8
top_inner
 62
256
370
-1
  6
ByLayer
 10
35.0000000000000071
 20
302.0500000000000114
 30
0.0
 11
35.0
 21
300.5
 31
0.0
  0
LINE
  5
B8
100
AcDbEntity
100
AcDbLine
  8
top_inner
 62
256
370
-1
  6
ByLayer
 10
31.9999999999999964
 20
302.0500000000000114
 30
0.0
 11
35.0000000000000071
 21
302.0500000000000114
 31
0.0
  0
LINE
  5
B9
100
AcDbEntity
100
AcDbLine
  8
top_inner
 62
256
370
-1
  6
ByLayer
 10
126.0
 20
302.0500000000000114
 30
0.0
 11
138.0
 21
302.0500000000000114
 31
0.0
  0
LINE
  5
BA
100
AcDbEntity
100
AcDbLine
  8
top_inner
 62
256
370
-1
  6
ByLayer
 10
40.25
 20
282.7500000000000568
 30
0.0
 11
40.25
 21
298.75
 31
0.0
  0
LINE
  5
BB
100
AcDbEntity
100
AcDbLine
  8
top_inner
 62
256
370
-1
  6
ByLayer
 10
40.25
 20
298.75
 30
0.0
 11
24.25
 21
298.75
 31
0.0
  0
LINE
  5
BC
100
AcDbEntity
100
AcDbLine
  8
top_inner
 62
256
370
-1
  6
ByLayer
 10
129.25
 20
282.7500000000000568
 30
0.0
 11
145.25
 21
282.7500000000000568
 31
0.0
  0
LINE
  5
BD
100
AcDbEntity
100
AcDbLine
  8
top_inner
 62
256
370
-1
  6
ByLayer
 10
145.25
 20
282.7500000000000568
 30
0.0
 11
145.25
 21
298.7500000000000568
 31
0.0
  0
LINE
  5
BE
100
AcDbEntity
100
AcDbLine
  8
top_inner
 62
256
370
-1
  6
ByLayer
 10
145.25
 20
298.7500000000000568
 30
0.0
 11
129.25
 21
298.7500000000000568
 31
0.0
  0
LINE
  5
BF
100
AcDbEntity
100
AcDbLine
  8
top_inner
 62
256
370
-1
  6
ByLayer
 10
129.25
 20
298.7500000000000568
 30
0.0
 11
129.25
 21
282.7500000000000568
 31
0.0
  0
LINE
  5
C0
100
AcDbEntity
100
AcDbLine
  8
top_inner
 62
256
370
-1
  6
ByLayer
 10
21.5
 20
341.25
 30
0.0
 11
29.4999999999999964
 21
341.25
 31
0.0
  0
LINE
  5
C1
100
AcDbEntity
100
AcDbLine
  8
top_inner
 62
256
370
-1
  6
ByLayer
 10
29.4999999999999964
 20
341.25
 30
0.0
 11
29.4999999999999964
 21
349.25
 31
0.0
  0
LINE
  5
C2
100
AcDbEntity
100
AcDbLine
  8
top_inner
 62
256
370
-1
  6
ByLayer
 10
29.4999999999999964
 20
349.25
 30
0.0
 11
21.5
 21
349.25
 31
0.0
  0
LINE
  5
C3
100
AcDbEntity
100
AcDbLine
  8
top_inner
 62
256
370
-1
  6
ByLayer
 10
140.0
 20
310.0
 30
0.0
 11
148.0
 21
310.0
 31
0.0
  0
LINE
  5
C4
100
AcDbEntity
100
AcDbLine
  8
top_inner
 62
256
370
-1
  6
ByLayer
 10
148.0
 20
310.0
 30
0.0
 11
148.0
 21
318.0
 31
0.0
  0
LINE
  5
C5
100
AcDbEntity
100
AcDbLine
  8
top_inner
 62
256
370
-1
  6
ByLayer
 10
148.0
 20
318.0
 30
0.0
 11
140.0
 21
318.0
 31
0.0
  0
LINE
  5
C6
100
AcDbEntity
100
AcDbLine
  8
top_inner
 62
256
370
-1
  6
ByLayer
 10
140.0
 20
318.0
 30
0.0
 11
140.0
 21
310.0
 31
0.0
  0
LINE
  5
C7
100
AcDbEntity
100
AcDbLine
  8
top_inner
 62
256
370
-1
  6
ByLayer
 10
140.0
 20
321.0
 30
0.0
 11
148.0
 21
321.0
 31
0.0
  0
LINE
  5
C8
100
AcDbEntity
100
AcDbLine
  8
top_inner
 62
256
370
-1
  6
ByLayer
 10
148.0
 20
321.0
 30
0.0
 11
148.0
 21
329.0
 31
0.0
  0
LINE
  5
C9
100
AcDbEntity
100
AcDbLine
  8
top_inner
 62
256
370
-1
  6
ByLayer
 10
148.0
 20
329.0
 30
0.0
 11
140.0
 21
329.0
 31
0.0
  0
LINE
  5
CA
100
AcDbEntity
100
AcDbLine
  8
top_inner
 62
256
370
-1
  6
ByLayer
 10
140.0
 20
329.0
 30
0.0
 11
140.0
 21
321.0
 31
0.0
  0
LINE
  5
CB
100
AcDbEntity
100
AcDbLine
  8
top_inner
 62
256
370
-1
  6
ByLayer
 10
160.0
 20
349.0
 30
0.0
 11
173.0000000000000284
 21
349.0
 31
0.0
  0
LINE
  5
CC
100
AcDbEntity
100
AcDbLine
  8
top_inner
 62
256
370
-1
  6
ByLayer
 10
173.0
 20
349.0
 30
0.0
 11
173.0
 21
370.0
 31
0.0
  0
LINE
  5
CD
100
AcDbEntity
100
AcDbLine
  8
top_inner
 62
256
370
-1
  6
ByLayer
 10
160.0000000000000284
 20
370.0
 30
0.0
 11
160.0000000000000284
 21
349.0
 31
0.0
  0
LINE
  5
CE
100
AcDbEntity
100
AcDbLine
  8
top_inner
 62
256
370
-1
  6
ByLayer
 10
173.0000000000000568
 20
370.0
 30
0.0
 11
160.0000000000000284
 21
370.0
 31
0.0
  0
LINE
  5
CF
100
AcDbEntity
100
AcDbLine
  8
top_inner
 62
256
370
-1
  6
ByLayer
 10
165.6000000000000227
 20
285.5
 30
0.0
 11
155.3000000000000114
 21
285.5
 31
0.0
  0
LINE
  5
D0
100
AcDbEntity
100
AcDbLine
  8
top_inner
 62
256
370
-1
  6
ByLayer
 10
155.3000000000000114
 20
285.5
 30
0.0
 11
155.3000000000000114
 21
295.7999999999999545
 31
0.0
  0
LINE
  5
D1
100
AcDbEntity
100
AcDbLine
  8
top_inner
 62
256
370
-1
  6
ByLayer
 10
155.3000000000000114
 20
295.7999999999999545
 30
0.0
 11
165.6000000000000227
 21
295.7999999999999545
 31
0.0
  0
LINE
  5
D2
100
AcDbEntity
100
AcDbLine
  8
top_inner
 62
256
370
-1
  6
ByLayer
 10
165.6000000000000227
 20
295.7999999999999545
 30
0.0
 11
165.6000000000000227
 21
285.5
 31
0.0
  0
ARC
  5
D3
100
AcDbEntity
  8
top
 62
256
370
-1
  6
ByLayer
100
AcDbCircle
 10
15.0
 20
266.0
 30
0.0
 40
4.0
100
AcDbArc
 50
90.0
 51
180.0
  0
LINE
  5
D4
100
AcDbEntity
100
AcDbLine
  8
top
 62
256
370
-1
  6
ByLayer
 10
11.0
 20
266.0
 30
0.0
 11
11.0
 21
161.0
 31
0.0
  0
ARC
  5
D5
100
AcDbEntity
  8
top
 62
256
370
-1
  6
ByLayer
100
AcDbCircle
 10
15.0
 20
161.0
 30
0.0
 40
4.0
100
AcDbArc
 50
180.0
 51
270.0
  0
LINE
  5
D6
100
AcDbEntity
100
AcDbLine
  8
top
 62
256
370
-1
  6
ByLayer
 10
15.0
 20
157.0
 30
0.0
 11
185.0
 21
157.0
 31
0.0
  0
ARC
  5
D7
100
AcDbEntity
  8
top
 62
256
370
-1
  6
ByLayer
100
AcDbCircle
 10
185.0
 20
161.0
 30
0.0
 40
4.0
100
AcDbArc
 50
270.0
 51
0.0
  0
LINE
  5
D8
100
AcDbEntity
100
AcDbLine
  8
top
 62
256
370
-1
  6
ByLayer
 10
185.0
 20
270.0
 30
0.0
 11
15.0
 21
270.0
 31
0.0
  0
LINE
  5
D9
100
AcDbEntity
100
AcDbLine
  8
top
 62
256
370
-1
  6
ByLayer
 10
189.0
 20
161.0
 30
0.0
 11
189.0
 21
266.0
 31
0.0
  0
ARC
  5
DA
100
AcDbEntity
  8
top
 62
256
370
-1
  6
ByLayer
100
AcDbCircle
 10
185.0
 20
266.0
 30
0.0
 40
4.0
100
AcDbArc
 50
0.0
 51
90.0
  0
INSERT
  5
DB
100
AcDbEntity
100
AcDbBlockReference
  8
top
 62
256
370
-1
  6
ByLayer
  2
T-Slot_Full_Hole
 10
150.0
 20
164.0
 30
0.0
 44
1.0
 45
1.0
  0
INSERT
  5
DC
100
AcDbEntity
100
AcDbBlockReference
  8
top
 62
256
370
-1
  6
ByLayer
  2
T-Slot_Full_Hole
 10
150.0
 20
263.0
 30
0.0
 44
1.0
 45
1.0
  0
INSERT
  5
DD
100
AcDbEntity
100
AcDbBlockReference
  8
top
 62
256
370
-1
  6
ByLayer
  2
T-Slot_Full_Hole
 10
182.0
 20
230.5000000000000284
 30
0.0
 50
90.0
 44
1.0
 45
1.0
  0
INSERT
  5
DE
100
AcDbEntity
100
AcDbBlockReference
  8
top
 62
256
370
-1
  6
ByLayer
  2
T-Slot_Full_Hole
 10
18.0
 20
230.5000000000000284
 30
0.0
 50
90.0
 44
1.0
 45
1.0
  0
INSERT
  5
DF
100
AcDbEntity
100
AcDbBlockReference
  8
top
 62
256
370
-1
  6
ByLayer
  2
T-Slot_Minimal_Hole
 10
30.0
 20
263.0
 30
0.0
  0
LINE
  5
E0
100
AcDbEntity
100
AcDbLine
  8
top
 62
256
370
-1
  6
ByLayer
 10
50.0
 20
265.0
 30
0.0
 11
80.0
 21
265.0
 31
0.0
  0
LINE
  5
E1
100
AcDbEntity
100
AcDbLine
  8
top
 62
256
370
-1
  6
ByLayer
 10
80.0
 20
265.0
 30
0.0
 11
80.0
 21
261.0
 31
0.0
  0
LINE
  5
E2
100
AcDbEntity
100
AcDbLine
  8
top
 62
256
370
-1
  6
ByLayer
 10
80.0
 20
261.0
 30
0.0
 11
50.0
 21
261.0
 31
0.0
  0
LINE
  5
E3
100
AcDbEntity
100
AcDbLine
  8
top
 62
256
370
-1
  6
ByLayer
 10
50.0
 20
261.0
 30
0.0
 11
50.0
 21
265.0
 31
0.0
  0
LINE
  5
E4
100
AcDbEntity
100
AcDbLine
  8
top
 62
256
370
-1
  6
ByLayer
 10
38.0
 20
162.0
 30
0.0
 11
63.0
 21
162.0
 31
0.0
  0
LINE
  5
E5
100
AcDbEntity
100
AcDbLine
  8
top
 62
256
370
-1
  6
ByLayer
 10
63.0
 20
162.0
 30
0.0
 11
63.0
 21
166.0
 31
0.0
  0
LINE
  5
E6
100
AcDbEntity
100
AcDbLine
  8
top
 62
256
370
-1
  6
ByLayer
 10
63.0
 20
166.0
 30
0.0
 11
38.0
 21
166.0
 31
0.0
  0
LINE
  5
E7
100
AcDbEntity
100
AcDbLine
  8
top
 62
256
370
-1
  6
ByLayer
 10
38.0
 20
166.0
 30
0.0
 11
38.0
 21
162.0
 31
0.0
  0
LINE
  5
E8
100
AcDbEntity
100
AcDbLine
  8
top
 62
256
370
-1
  6
ByLayer
 10
16.0
 20
185.0
 30
0.0
 11
20.0
 21
185.0
 31
0.0
  0
LINE
  5
E9
100
AcDbEntity
100
AcDbLine
  8
top
 62
256
370
-1
  6
ByLayer
 10
20.0
 20
185.0
 30
0.0
 11
20.0
 21
196.0
 31
0.0
  0
LINE
  5
EA
100
AcDbEntity
100
AcDbLine
  8
top
 62
256
370
-1
  6
ByLayer
 10
20.0
 20
196.0
 30
0.0
 11
16.0
 21
196.0
 31
0.0
  0
LINE
  5
EB
100
AcDbEntity
100
AcDbLine
  8
top
 62
256
370
-1
  6
ByLayer
 10
16.0
 20
196.0
 30
0.0
 11
16.0
 21
185.0
 31
0.0
  0
LINE
  5
EC
100
AcDbEntity
100
AcDbLine
  8
top
 62
256
370
-1
  6
ByLayer
 10
180.0
 20
185.0
 30
0.0
 11
184.0
 21
185.0
 31
0.0
  0
LINE
  5
ED
100
AcDbEntity
100
AcDbLine
  8
top
 62
256
370
-1
  6
ByLayer
 10
184.0
 20
185.0
 30
0.0
 11
184.0
 21
172.0
 31
0.0
  0
LINE
  5
EE
100
AcDbEntity
100
AcDbLine
  8
top
 62
256
370
-1
  6
ByLayer
 10
184.0
 20
172.0
 30
0.0
 11
180.0
 21
172.0
 31
0.0
  0
LINE
  5
EF
100
AcDbEntity
100
AcDbLine
  8
top
 62
256
370
-1
  6
ByLayer
 10
180.0
 20
172.0
 30
0.0
 11
180.0
 21
185.0
 31
0.0
  0
INSERT
  5
F0
100
AcDbEntity
100
AcDbBlockReference
  8
top
 62
256
370
-1
  6
ByLayer
  2
T-Slot_Minimal_Hole
 10
30.0
 20
164.0
 30
0.0
 44
1.0
 45
1.0
  0
INSERT
  5
F1
100
AcDbEntity
100
AcDbBlockReference
  8
top
 62
256
370
-1
  6
ByLayer
  2
T-Slot_Minimal_Hole
 10
182.0
 20
190.0
 30
0.0
 44
1.0
 45
1.0
  0
INSERT
  5
F2
100
AcDbEntity
100
AcDbBlockReference
  8
top
 62
256
370
-1
  6
ByLayer
  2
T-Slot_Minimal_Hole
 10
18.0
 20
178.0
 30
0.0
 44
1.0
 45
1.0
  0
LINE
  5
F3
100
AcDbEntity
100
AcDbLine
  8
top
 62
256
370
-1
  6
ByLayer
 10
160.0
 20
236.0
 30
0.0
 11
173.0000000000000284
 21
236.0
 31
0.0
  0
LINE
  5
F4
100
AcDbEntity
100
AcDbLine
  8
top
 62
256
370
-1
  6
ByLayer
 10
173.0000000000000284
 20
236.0
 30
0.0
 11
173.0000000000000284
 21
255.2000000000000171
 31
0.0
  0
LINE
  5
F5
100
AcDbEntity
100
AcDbLine
  8
top
 62
256
370
-1
  6
ByLayer
 10
173.0000000000000284
 20
255.2000000000000171
 30
0.0
 11
160.0
 21
255.2000000000000171
 31
0.0
  0
LINE
  5
F6
100
AcDbEntity
100
AcDbLine
  8
top
 62
256
370
-1
  6
ByLayer
 10
160.0
 20
255.2000000000000171
 30
0.0
 11
160.0
 21
236.0
 31
0.0
  0
INSERT
  5
F7
100
AcDbEntity
100
AcDbBlockReference
  8
side_north
 62
256
370
-1
  6
ByLayer
  2
T-Slot_Full_Slot
 10
70.0
 20
120.0
 30
0.0
  0
INSERT
  5
F8
100
AcDbEntity
100
AcDbBlockReference
  8
side_north
 62
256
370
-1
  6
ByLayer
  2
T-Slot_Full_Slot
 10
130.0
 20
120.0
 30
0.0
 44
1.0
 45
1.0
  0
LINE
  5
F9
100
AcDbEntity
100
AcDbLine
  8
side_north
 62
256
370
-1
  6
ByLayer
 10
86.5
 20
120.0
 30
0.0
 11
113.5
 21
120.0
 31
0.0
  0
LINE
  5
FA
100
AcDbEntity
100
AcDbLine
  8
side_north
 62
256
370
-1
  6
ByLayer
 10
110.6000000000000085
 20
126.9000000000000057
 30
0.0
 11
98.6000000000000085
 21
126.9000000000000057
 31
0.0
  0
LINE
  5
FB
100
AcDbEntity
100
AcDbLine
  8
side_north
 62
256
370
-1
  6
ByLayer
 10
98.6000000000000085
 20
126.9000000000000057
 30
0.0
 11
98.6000000000000085
 21
136.9000000000000057
 31
0.0
  0
LINE
  5
FC
100
AcDbEntity
100
AcDbLine
  8
side_north
 62
256
370
-1
  6
ByLayer
 10
98.6000000000000085
 20
136.9000000000000057
 30
0.0
 11
110.6000000000000085
 21
136.9000000000000057
 31
0.0
  0
LINE
  5
FD
100
AcDbEntity
100
AcDbLine
  8
side_north
 62
256
370
-1
  6
ByLayer
 10
110.6000000000000085
 20
136.9000000000000057
 30
0.0
 11
110.6000000000000085
 21
126.9000000000000057
 31
0.0
  0
LINE
  5
FE
100
AcDbEntity
100
AcDbLine
  8
side_north
 62
256
370
-1
  6
ByLayer
 10
110.9000000000000057
 20
143.7000000000000171
 30
0.0
 11
103.9000000000000057
 21
143.7000000000000171
 31
0.0
  0
LINE
  5
FF
100
AcDbEntity
100
AcDbLine
  8
side_north
 62
256
370
-1
  6
ByLayer
 10
103.9000000000000057
 20
143.7000000000000171
 30
0.0
 11
103.9000000000000057
 21
144.7000000000000171
 31
0.0
  0
LINE
  5
100
100
AcDbEntity
100
AcDbLine
  8
side_north
 62
256
370
-1
  6
ByLayer
 10
103.9000000000000057
 20
144.7000000000000171
 30
0.0
 11
110.9000000000000057
 21
144.7000000000000171
 31
0.0
  0
LINE
  5
101
100
AcDbEntity
100
AcDbLine
  8
side_north
 62
256
370
-1
  6
ByLayer
 10
110.9000000000000057
 20
144.7000000000000171
 30
0.0
 11
110.9000000000000057
 21
143.7000000000000171
 31
0.0
  0
LINE
  5
102
100
AcDbEntity
100
AcDbLine
  8
side_north
 62
256
370
-1
  6
ByLayer
 10
180.0
 20
128.0
 30
0.0
 11
184.0
 21
128.0
 31
0.0
  0
LINE
  5
103
100
AcDbEntity
100
AcDbLine
  8
side_north
 62
256
370
-1
  6
ByLayer
 10
184.0
 20
128.0
 30
0.0
 11
184.0
 21
120.0
 31
0.0
  0
LINE
  5
104
100
AcDbEntity
100
AcDbLine
  8
side_north
 62
256
370
-1
  6
ByLayer
 10
180.0
 20
142.0
 30
0.0
 11
184.0
 21
142.0
 31
0.0
  0
LINE
  5
105
100
AcDbEntity
100
AcDbLine
  8
side_north
 62
256
370
-1
  6
ByLayer
 10
184.0
 20
142.0
 30
0.0
 11
184.0
 21
150.0
 31
0.0
  0
LINE
  5
106
100
AcDbEntity
100
AcDbLine
  8
side_north
 62
256
370
-1
  6
ByLayer
 10
180.0
 20
128.0
 30
0.0
 11
180.0
 21
142.0
 31
0.0
  0
LINE
  5
107
100
AcDbEntity
100
AcDbLine
  8
side_north
 62
256
370
-1
  6
ByLayer
 10
20.0
 20
142.0
 30
0.0
 11
16.0
 21
142.0
 31
0.0
  0
LINE
  5
108
100
AcDbEntity
100
AcDbLine
  8
side_north
 62
256
370
-1
  6
ByLayer
 10
16.0
 20
142.0
 30
0.0
 11
16.0
 21
150.0
 31
0.0
  0
LINE
  5
109
100
AcDbEntity
100
AcDbLine
  8
side_north
 62
256
370
-1
  6
ByLayer
 10
20.0
 20
128.0
 30
0.0
 11
16.0
 21
128.0
 31
0.0
  0
LINE
  5
10A
100
AcDbEntity
100
AcDbLine
  8
side_north
 62
256
370
-1
  6
ByLayer
 10
16.0
 20
128.0
 30
0.0
 11
16.0
 21
120.0
 31
0.0
  0
LINE
  5
10B
100
AcDbEntity
100
AcDbLine
  8
side_north
 62
256
370
-1
  6
ByLayer
 10
20.0
 20
142.0
 30
0.0
 11
20.0
 21
128.0
 31
0.0
  0
INSERT
  5
10C
100
AcDbEntity
100
AcDbBlockReference
  8
side_north
 62
256
370
-1
  6
ByLayer
  2
T-Slot_Full_Slot
 10
150.0
 20
150.0
 30
0.0
 41
1.0
 42
-1.0
 43
1.0
 44
1.0
 45
1.0
  0
LINE
  5
10D
100
AcDbEntity
100
AcDbLine
  8
side_north
 62
256
370
-1
  6
ByLayer
 10
184.0
 20
150.0
 30
0.0
 11
166.5
 21
150.0000000000000284
 31
0.0
  0
INSERT
  5
10E
100
AcDbEntity
100
AcDbBlockReference
  8
side_north
 62
256
370
-1
  6
ByLayer
  2
T-Slot_Minimal_Slot
 10
30.0
 20
150.0
 30
0.0
 41
1.0
 42
-1.0
 43
1.0
 44
1.0
 45
1.0
  0
LINE
  5
10F
100
AcDbEntity
100
AcDbLine
  8
side_north
 62
256
370
-1
  6
ByLayer
 10
28.5
 20
150.0000000000000284
 30
0.0
 11
16.0
 21
150.0
 31
0.0
  0
LINE
  5
110
100
AcDbEntity
100
AcDbLine
  8
side_north
 62
256
370
-1
  6
ByLayer
 10
50.0
 20
150.0
 30
0.0
 11
50.0
 21
154.0
 31
0.0
  0
LINE
  5
111
100
AcDbEntity
100
AcDbLine
  8
side_north
 62
256
370
-1
  6
ByLayer
 10
50.0
 20
154.0
 30
0.0
 11
80.0
 21
154.0
 31
0.0
  0
LINE
  5
112
100
AcDbEntity
100
AcDbLine
  8
side_north
 62
256
370
-1
  6
ByLayer
 10
80.0
 20
154.0
 30
0.0
 11
80.0
 21
150.0
 31
0.0
  0
LINE
  5
113
100
AcDbEntity
100
AcDbLine
  8
side_north
 62
256
370
-1
  6
ByLayer
 10
50.0
 20
150.0
 30
0.0
 11
31.5
 21
150.0000000000000284
 31
0.0
  0
LINE
  5
114
100
AcDbEntity
100
AcDbLine
  8
side_north
 62
256
370
-1
  6
ByLayer
 10
40.0
 20
120.0
 30
0.0
 11
40.0
 21
116.0
 31
0.0
  0
LINE
  5
115
100
AcDbEntity
100
AcDbLine
  8
side_north
 62
256
370
-1
  6
ByLayer
 10
40.0
 20
116.0
 30
0.0
 11
36.0
 21
116.0
 31
0.0
  0
LINE
  5
116
100
AcDbEntity
100
AcDbLine
  8
side_north
 62
256
370
-1
  6
ByLayer
 10
36.0
 20
116.0
 30
0.0
 11
36.0
 21
120.0
 31
0.0
  0
LINE
  5
117
100
AcDbEntity
100
AcDbLine
  8
side_north
 62
256
370
-1
  6
ByLayer
 10
40.0
 20
120.0
 30
0.0
 11
53.5
 21
120.0000000000000142
 31
0.0
  0
LINE
  5
118
100
AcDbEntity
100
AcDbLine
  8
side_north
 62
256
370
-1
  6
ByLayer
 10
60.0
 20
150.0
 30
0.0
 11
70.0
 21
150.0
 31
0.0
  0
LINE
  5
119
100
AcDbEntity
100
AcDbLine
  8
side_north
 62
256
370
-1
  6
ByLayer
 10
70.0
 20
150.0
 30
0.0
 11
70.0
 21
146.0
 31
0.0
  0
LINE
  5
11A
100
AcDbEntity
100
AcDbLine
  8
side_north
 62
256
370
-1
  6
ByLayer
 10
70.0
 20
146.0
 30
0.0
 11
60.0
 21
146.0
 31
0.0
  0
LINE
  5
11B
100
AcDbEntity
100
AcDbLine
  8
side_north
 62
256
370
-1
  6
ByLayer
 10
60.0
 20
146.0
 30
0.0
 11
60.0
 21
150.0
 31
0.0
  0
LINE
  5
11C
100
AcDbEntity
100
AcDbLine
  8
side_north
 62
256
370
-1
  6
ByLayer
 10
120.0
 20
150.0
 30
0.0
 11
120.0
 21
146.0
 31
0.0
  0
LINE
  5
11D
100
AcDbEntity
100
AcDbLine
  8
side_north
 62
256
370
-1
  6
ByLayer
 10
120.0
 20
146.0
 30
0.0
 11
130.0
 21
146.0
 31
0.0
  0
LINE
  5
11E
100
AcDbEntity
100
AcDbLine
  8
side_north
 62
256
370
-1
  6
ByLayer
 10
130.0
 20
146.0
 30
0.0
 11
130.0
 21
150.0
 31
0.0
  0
LINE
  5
11F
100
AcDbEntity
100
AcDbLine
  8
side_north
 62
256
370
-1
  6
ByLayer
 10
120.0
 20
150.0
 30
0.0
 11
80.0
 21
150.0
 31
0.0
  0
LINE
  5
120
100
AcDbEntity
100
AcDbLine
  8
side_north
 62
256
370
-1
  6
ByLayer
 10
133.5000000000000284
 20
150.0000000000000284
 30
0.0
 11
130.0
 21
150.0
 31
0.0
  0
INSERT
  5
121
100
AcDbEntity
100
AcDbBlockReference
  8
side_west
 62
256
370
-1
  6
ByLayer
  2
T-Slot_Full_Slot
 10
-10.0
 20
56.5
 30
0.0
 50
90.0
 44
1.0
 45
1.0
  0
LINE
  5
122
100
AcDbEntity
100
AcDbLine
  8
side_west
 62
256
370
-1
  6
ByLayer
 10
-10.0000000000000036
 20
40.0
 30
0.0
 11
-10.0
 21
9.0
 31
0.0
  0
LINE
  5
123
100
AcDbEntity
100
AcDbLine
  8
side_west
 62
256
370
-1
  6
ByLayer
 10
-31.4000000000000057
 20
31.3000000000000007
 30
0.0
 11
-19.9000000000000021
 21
31.3000000000000007
 31
0.0
  0
LINE
  5
124
100
AcDbEntity
100
AcDbLine
  8
side_west
 62
256
370
-1
  6
ByLayer
 10
-19.9000000000000021
 20
31.3000000000000007
 30
0.0
 11
-19.9000000000000021
 21
46.6000000000000014
 31
0.0
  0
LINE
  5
125
100
AcDbEntity
100
AcDbLine
  8
side_west
 62
256
370
-1
  6
ByLayer
 10
-19.9000000000000021
 20
46.6000000000000014
 30
0.0
 11
-31.4000000000000057
 21
46.6000000000000014
 31
0.0
  0
LINE
  5
126
100
AcDbEntity
100
AcDbLine
  8
side_west
 62
256
370
-1
  6
ByLayer
 10
-31.4000000000000057
 20
46.6000000000000014
 30
0.0
 11
-31.4000000000000057
 21
31.3000000000000007
 31
0.0
  0
LINE
  5
127
100
AcDbEntity
100
AcDbLine
  8
side_west
 62
256
370
-1
  6
ByLayer
 10
-31.4000000000000057
 20
50.6000000000000014
 30
0.0
 11
-19.9000000000000021
 21
50.6000000000000014
 31
0.0
  0
LINE
  5
128
100
AcDbEntity
100
AcDbLine
  8
side_west
 62
256
370
-1
  6
ByLayer
 10
-19.9000000000000021
 20
50.6000000000000014
 30
0.0
 11
-19.9000000000000021
 21
65.9000000000000057
 31
0.0
  0
LINE
  5
129
100
AcDbEntity
100
AcDbLine
  8
side_west
 62
256
370
-1
  6
ByLayer
 10
-19.9000000000000021
 20
65.9000000000000057
 30
0.0
 11
-31.4000000000000057
 21
65.9000000000000057
 31
0.0
  0
LINE
  5
12A
100
AcDbEntity
100
AcDbLine
  8
side_west
 62
256
370
-1
  6
ByLayer
 10
-31.4000000000000057
 20
65.9000000000000057
 30
0.0
 11
-31.4000000000000057
 21
50.6000000000000014
 31
0.0
  0
LINE
  5
12B
100
AcDbEntity
100
AcDbLine
  8
side_west
 62
256
370
-1
  6
ByLayer
 10
-30.7000000000000028
 20
95.7000000000000171
 30
0.0
 11
-23.7000000000000028
 21
95.7000000000000171
 31
0.0
  0
LINE
  5
12C
100
AcDbEntity
100
AcDbLine
  8
side_west
 62
256
370
-1
  6
ByLayer
 10
-23.7000000000000028
 20
95.7000000000000171
 30
0.0
 11
-23.7000000000000028
 21
81.3000000000000114
 31
0.0
  0
LINE
  5
12D
100
AcDbEntity
100
AcDbLine
  8
side_west
 62
256
370
-1
  6
ByLayer
 10
-23.7000000000000028
 20
81.3000000000000114
 30
0.0
 11
-30.7000000000000028
 21
81.3000000000000114
 31
0.0
  0
LINE
  5
12E
100
AcDbEntity
100
AcDbLine
  8
side_west
 62
256
370
-1
  6
ByLayer
 10
-30.7000000000000028
 20
81.3000000000000114
 30
0.0
 11
-30.7000000000000028
 21
95.7000000000000171
 31
0.0
  0
LINE
  5
12F
100
AcDbEntity
100
AcDbLine
  8
side_west
 62
256
370
-1
  6
ByLayer
 10
-18.0
 20
104.0
 30
0.0
 11
-18.0
 21
108.0
 31
0.0
  0
LINE
  5
130
100
AcDbEntity
100
AcDbLine
  8
side_west
 62
256
370
-1
  6
ByLayer
 10
-32.0
 20
108.0
 30
0.0
 11
-32.0
 21
104.0
 31
0.0
  0
LINE
  5
131
100
AcDbEntity
100
AcDbLine
  8
side_west
 62
256
370
-1
  6
ByLayer
 10
-40.0
 20
104.0
 30
0.0
 11
-32.0
 21
104.0
 31
0.0
  0
LINE
  5
132
100
AcDbEntity
100
AcDbLine
  8
side_west
 62
256
370
-1
  6
ByLayer
 10
-18.0
 20
104.0
 30
0.0
 11
-10.0
 21
104.0
 31
0.0
  0
LINE
  5
133
100
AcDbEntity
100
AcDbLine
  8
side_west
 62
256
370
-1
  6
ByLayer
 10
-18.0
 20
9.0
 30
0.0
 11
-18.0
 21
5.0
 31
0.0
  0
LINE
  5
134
100
AcDbEntity
100
AcDbLine
  8
side_west
 62
256
370
-1
  6
ByLayer
 10
-32.0
 20
5.0
 30
0.0
 11
-32.0
 21
9.0
 31
0.0
  0
LINE
  5
135
100
AcDbEntity
100
AcDbLine
  8
side_west
 62
256
370
-1
  6
ByLayer
 10
-32.0
 20
9.0
 30
0.0
 11
-40.0
 21
9.0
 31
0.0
  0
LINE
  5
136
100
AcDbEntity
100
AcDbLine
  8
side_west
 62
256
370
-1
  6
ByLayer
 10
-10.0
 20
9.0
 30
0.0
 11
-18.0
 21
9.0
 31
0.0
  0
LINE
  5
137
100
AcDbEntity
100
AcDbLine
  8
side_west
 62
256
370
-1
  6
ByLayer
 10
-19.0
 20
5.0
 30
0.0
 11
-19.0
 21
2.0
 31
0.0
  0
LINE
  5
138
100
AcDbEntity
100
AcDbLine
  8
side_west
 62
256
370
-1
  6
ByLayer
 10
-19.0
 20
2.0
 30
0.0
 11
-17.0
 21
2.0
 31
0.0
  0
LINE
  5
139
100
AcDbEntity
100
AcDbLine
  8
side_west
 62
256
370
-1
  6
ByLayer
 10
-17.0
 20
2.0
 30
0.0
 11
-17.0
 21
0.0
 31
0.0
  0
LINE
  5
13A
100
AcDbEntity
100
AcDbLine
  8
side_west
 62
256
370
-1
  6
ByLayer
 10
-17.0
 20
0.0
 30
0.0
 11
-23.0
 21
0.0
 31
0.0
  0
LINE
  5
13B
100
AcDbEntity
100
AcDbLine
  8
side_west
 62
256
370
-1
  6
ByLayer
 10
-27.0
 20
5.0
 30
0.0
 11
-27.0
 21
2.0
 31
0.0
  0
LINE
  5
13C
100
AcDbEntity
100
AcDbLine
  8
side_west
 62
256
370
-1
  6
ByLayer
 10
-27.0
 20
2.0
 30
0.0
 11
-29.0
 21
2.0
 31
0.0
  0
LINE
  5
13D
100
AcDbEntity
100
AcDbLine
  8
side_west
 62
256
370
-1
  6
ByLayer
 10
-29.0
 20
2.0
 30
0.0
 11
-29.0
 21
0.0
 31
0.0
  0
LINE
  5
13E
100
AcDbEntity
100
AcDbLine
  8
side_west
 62
256
370
-1
  6
ByLayer
 10
-29.0
 20
0.0
 30
0.0
 11
-23.0
 21
0.0
 31
0.0
  0
LINE
  5
13F
100
AcDbEntity
100
AcDbLine
  8
side_west
 62
256
370
-1
  6
ByLayer
 10
-27.0
 20
5.0
 30
0.0
 11
-32.0
 21
5.0
 31
0.0
  0
LINE
  5
140
100
AcDbEntity
100
AcDbLine
  8
side_west
 62
256
370
-1
  6
ByLayer
 10
-18.0
 20
5.0
 30
0.0
 11
-19.0
 21
5.0
 31
0.0
  0
LINE
  5
141
100
AcDbEntity
100
AcDbLine
  8
side_west
 62
256
370
-1
  6
ByLayer
 10
-19.0
 20
108.0
 30
0.0
 11
-19.0
 21
111.0
 31
0.0
  0
LINE
  5
142
100
AcDbEntity
100
AcDbLine
  8
side_west
 62
256
370
-1
  6
ByLayer
 10
-19.0
 20
111.0
 30
0.0
 11
-17.0
 21
111.0
 31
0.0
  0
LINE
  5
143
100
AcDbEntity
100
AcDbLine
  8
side_west
 62
256
370
-1
  6
ByLayer
 10
-17.0
 20
111.0
 30
0.0
 11
-17.0
 21
113.0
 31
0.0
  0
LINE
  5
144
100
AcDbEntity
100
AcDbLine
  8
side_west
 62
256
370
-1
  6
ByLayer
 10
-17.0
 20
113.0
 30
0.0
 11
-23.0
 21
113.0
 31
0.0
  0
LINE
  5
145
100
AcDbEntity
100
AcDbLine
  8
side_west
 62
256
370
-1
  6
ByLayer
 10
-27.0
 20
108.0
 30
0.0
 11
-27.0
 21
111.0
 31
0.0
  0
LINE
  5
146
100
AcDbEntity
100
AcDbLine
  8
side_west
 62
256
370
-1
  6
ByLayer
 10
-27.0
 20
111.0
 30
0.0
 11
-29.0
 21
111.0
 31
0.0
  0
LINE
  5
147
100
AcDbEntity
100
AcDbLine
  8
side_west
 62
256
370
-1
  6
ByLayer
 10
-29.0
 20
111.0
 30
0.0
 11
-29.0
 21
113.0
 31
0.0
  0
LINE
  5
148
100
AcDbEntity
100
AcDbLine
  8
side_west
 62
256
370
-1
  6
ByLayer
 10
-29.0
 20
113.0
 30
0.0
 11
-23.0
 21
113.0
 31
0.0
  0
LINE
  5
149
100
AcDbEntity
100
AcDbLine
  8
side_west
 62
256
370
-1
  6
ByLayer
 10
-18.0
 20
108.0
 30
0.0
 11
-19.0
 21
108.0
 31
0.0
  0
LINE
  5
14A
100
AcDbEntity
100
AcDbLine
  8
side_west
 62
256
370
-1
  6
ByLayer
 10
-27.0
 20
108.0
 30
0.0
 11
-32.0
 21
108.0
 31
0.0
  0
INSERT
  5
14B
100
AcDbEntity
100
AcDbBlockReference
  8
side_west
 62
256
370
-1
  6
ByLayer
  2
T-Slot_Full_Slot
 10
-40.0
 20
73.5000000000000142
 30
0.0
 50
270.0
 44
1.0
 45
1.0
  0
INSERT
  5
14C
100
AcDbEntity
100
AcDbBlockReference
  8
side_west
 62
256
370
-1
  6
ByLayer
  2
T-Slot_Minimal_Slot
 10
-40.0
 20
21.0
 30
0.0
 50
270.0
  0
LINE
  5
14D
100
AcDbEntity
100
AcDbLine
  8
side_west
 62
256
370
-1
  6
ByLayer
 10
-40.0
 20
9.0
 30
0.0
 11
-40.0
 21
19.5
 31
0.0
  0
LINE
  5
14E
100
AcDbEntity
100
AcDbLine
  8
side_west
 62
256
370
-1
  6
ByLayer
 10
-40.0
 20
28.0
 30
0.0
 11
-44.0
 21
28.0
 31
0.0
  0
LINE
  5
14F
100
AcDbEntity
100
AcDbLine
  8
side_west
 62
256
370
-1
  6
ByLayer
 10
-44.0
 20
28.0
 30
0.0
 11
-44.0
 21
39.0
 31
0.0
  0
LINE
  5
150
100
AcDbEntity
100
AcDbLine
  8
side_west
 62
256
370
-1
  6
ByLayer
 10
-44.0
 20
39.0
 30
0.0
 11
-40.0
 21
39.0
 31
0.0
  0
LINE
  5
151
100
AcDbEntity
100
AcDbLine
  8
side_west
 62
256
370
-1
  6
ByLayer
 10
-40.0
 20
22.5
 30
0.0
 11
-40.0
 21
28.0
 31
0.0
  0
LINE
  5
152
100
AcDbEntity
100
AcDbLine
  8
side_west
 62
256
370
-1
  6
ByLayer
 10
-10.0
 20
97.0
 30
0.0
 11
-6.0
 21
97.0
 31
0.0
  0
LINE
  5
153
100
AcDbEntity
100
AcDbLine
  8
side_west
 62
256
370
-1
  6
ByLayer
 10
-6.0
 20
97.0
 30
0.0
 11
-6.0
 21
93.0
 31
0.0
  0
LINE
  5
154
100
AcDbEntity
100
AcDbLine
  8
side_west
 62
256
370
-1
  6
ByLayer
 10
-6.0
 20
93.0
 30
0.0
 11
-10.0
 21
93.0
 31
0.0
  0
LINE
  5
155
100
AcDbEntity
100
AcDbLine
  8
side_west
 62
256
370
-1
  6
ByLayer
 10
-10.0
 20
104.0
 30
0.0
 11
-10.0
 21
97.0
 31
0.0
  0
LINE
  5
156
100
AcDbEntity
100
AcDbLine
  8
side_west
 62
256
370
-1
  6
ByLayer
 10
-10.0
 20
93.0
 30
0.0
 11
-9.9999999999999947
 21
73.0
 31
0.0
  0
LINE
  5
157
100
AcDbEntity
100
AcDbLine
  8
side_west
 62
256
370
-1
  6
ByLayer
 10
-40.0
 20
50.0
 30
0.0
 11
-36.0
 21
50.0
 31
0.0
  0
LINE
  5
158
100
AcDbEntity
100
AcDbLine
  8
side_west
 62
256
370
-1
  6
ByLayer
 10
-36.0
 20
50.0
 30
0.0
 11
-36.0
 21
46.0
 31
0.0
  0
LINE
  5
159
100
AcDbEntity
100
AcDbLine
  8
side_west
 62
256
370
-1
  6
ByLayer
 10
-36.0
 20
46.0
 30
0.0
 11
-40.0
 21
46.0
 31
0.0
  0
LINE
  5
15A
100
AcDbEntity
100
AcDbLine
  8
side_west
 62
256
370
-1
  6
ByLayer
 10
-40.0
 20
97.0
 30
0.0
 11
-36.0
 21
97.0
 31
0.0
  0
LINE
  5
15B
100
AcDbEntity
100
AcDbLine
  8
side_west
 62
256
370
-1
  6
ByLayer
 10
-36.0
 20
97.0
 30
0.0
 11
-36.0
 21
93.0
 31
0.0
  0
LINE
  5
15C
100
AcDbEntity
100
AcDbLine
  8
side_west
 62
256
370
-1
  6
ByLayer
 10
-36.0
 20
93.0
 30
0.0
 11
-40.0
 21
93.0
 31
0.0
  0
LINE
  5
15D
100
AcDbEntity
100
AcDbLine
  8
side_west
 62
256
370
-1
  6
ByLayer
 10
-40.0
 20
97.0
 30
0.0
 11
-40.0
 21
104.0
 31
0.0
  0
LINE
  5
15E
100
AcDbEntity
100
AcDbLine
  8
side_west
 62
256
370
-1
  6
ByLayer
 10
-40.0
 20
90.0
 30
0.0
 11
-40.0
 21
93.0
 31
0.0
  0
LINE
  5
15F
100
AcDbEntity
100
AcDbLine
  8
side_west
 62
256
370
-1
  6
ByLayer
 10
-40.0
 20
50.0
 30
0.0
 11
-40.0
 21
57.0
 31
0.0
  0
LINE
  5
160
100
AcDbEntity
100
AcDbLine
  8
side_west
 62
256
370
-1
  6
ByLayer
 10
-40.0
 20
39.0
 30
0.0
 11
-40.0
 21
46.0
 31
0.0
  0
INSERT
  5
161
100
AcDbEntity
100
AcDbBlockReference
  8
side_east
 62
256
370
-1
  6
ByLayer
  2
T-Slot_Full_Slot
 10
210.0000000000000284
 20
56.5
 30
0.0
 41
1.0
 42
-1.0
 43
1.0
 50
89.9999999999999858
 44
1.0
 45
1.0
  0
LINE
  5
162
100
AcDbEntity
100
AcDbLine
  8
side_east
 62
256
370
-1
  6
ByLayer
 10
210.0
 20
9.0
 30
0.0
 11
210.0000000000000284
 21
40.0
 31
0.0
  0
LINE
  5
163
100
AcDbEntity
100
AcDbLine
  8
side_east
 62
256
370
-1
  6
ByLayer
 10
216.9000000000000057
 20
21.5
 30
0.0
 11
216.9000000000000057
 21
21.5
 31
0.0
  0
LINE
  5
164
100
AcDbEntity
100
AcDbLine
  8
side_east
 62
256
370
-1
  6
ByLayer
 10
216.9000000000000057
 20
19.5
 30
0.0
 11
216.9000000000000057
 21
19.5
 31
0.0
  0
LINE
  5
165
100
AcDbEntity
100
AcDbLine
  8
side_east
 62
256
370
-1
  6
ByLayer
 10
216.9000000000000057
 20
21.5
 30
0.0
 11
213.9000000000000057
 21
21.5
 31
0.0
  0
LINE
  5
166
100
AcDbEntity
100
AcDbLine
  8
side_east
 62
256
370
-1
  6
ByLayer
 10
213.9000000000000057
 20
21.5
 30
0.0
 11
213.9000000000000341
 21
19.4999999999999964
 31
0.0
  0
LINE
  5
167
100
AcDbEntity
100
AcDbLine
  8
side_east
 62
256
370
-1
  6
ByLayer
 10
213.9000000000000341
 20
19.4999999999999964
 30
0.0
 11
216.9000000000000341
 21
19.4999999999999964
 31
0.0
  0
LINE
  5
168
100
AcDbEntity
100
AcDbLine
  8
side_east
 62
256
370
-1
  6
ByLayer
 10
232.0
 20
104.0
 30
0.0
 11
240.0
 21
104.0
 31
0.0
  0
LINE
  5
169
100
AcDbEntity
100
AcDbLine
  8
side_east
 62
256
370
-1
  6
ByLayer
 10
210.0
 20
104.0
 30
0.0
 11
218.0
 21
104.0
 31
0.0
  0
LINE
  5
16A
100
AcDbEntity
100
AcDbLine
  8
side_east
 62
256
370
-1
  6
ByLayer
 10
232.0
 20
108.0
 30
0.0
 11
232.0
 21
104.0
 31
0.0
  0
LINE
  5
16B
100
AcDbEntity
100
AcDbLine
  8
side_east
 62
256
370
-1
  6
ByLayer
 10
218.0
 20
104.0
 30
0.0
 11
218.0
 21
108.0
 31
0.0
  0
LINE
  5
16C
100
AcDbEntity
100
AcDbLine
  8
side_east
 62
256
370
-1
  6
ByLayer
 10
240.0
 20
9.0
 30
0.0
 11
232.0000000000000284
 21
9.0
 31
0.0
  0
LINE
  5
16D
100
AcDbEntity
100
AcDbLine
  8
side_east
 62
256
370
-1
  6
ByLayer
 10
218.0000000000000284
 20
9.0
 30
0.0
 11
210.0
 21
9.0
 31
0.0
  0
LINE
  5
16E
100
AcDbEntity
100
AcDbLine
  8
side_east
 62
256
370
-1
  6
ByLayer
 10
218.0000000000000284
 20
5.0
 30
0.0
 11
218.0000000000000284
 21
9.0
 31
0.0
  0
LINE
  5
16F
100
AcDbEntity
100
AcDbLine
  8
side_east
 62
256
370
-1
  6
ByLayer
 10
232.0000000000000284
 20
5.0
 30
0.0
 11
232.0000000000000284
 21
9.0
 31
0.0
  0
LINE
  5
170
100
AcDbEntity
100
AcDbLine
  8
side_east
 62
256
370
-1
  6
ByLayer
 10
219.0
 20
108.0
 30
0.0
 11
219.0
 21
111.0
 31
0.0
  0
LINE
  5
171
100
AcDbEntity
100
AcDbLine
  8
side_east
 62
256
370
-1
  6
ByLayer
 10
219.0
 20
111.0
 30
0.0
 11
217.0
 21
111.0
 31
0.0
  0
LINE
  5
172
100
AcDbEntity
100
AcDbLine
  8
side_east
 62
256
370
-1
  6
ByLayer
 10
217.0
 20
111.0
 30
0.0
 11
217.0
 21
113.0
 31
0.0
  0
LINE
  5
173
100
AcDbEntity
100
AcDbLine
  8
side_east
 62
256
370
-1
  6
ByLayer
 10
217.0
 20
113.0
 30
0.0
 11
223.0
 21
113.0
 31
0.0
  0
LINE
  5
174
100
AcDbEntity
100
AcDbLine
  8
side_east
 62
256
370
-1
  6
ByLayer
 10
227.0
 20
108.0
 30
0.0
 11
227.0
 21
111.0
 31
0.0
  0
LINE
  5
175
100
AcDbEntity
100
AcDbLine
  8
side_east
 62
256
370
-1
  6
ByLayer
 10
227.0
 20
111.0
 30
0.0
 11
229.0
 21
111.0
 31
0.0
  0
LINE
  5
176
100
AcDbEntity
100
AcDbLine
  8
side_east
 62
256
370
-1
  6
ByLayer
 10
229.0
 20
111.0
 30
0.0
 11
229.0
 21
113.0
 31
0.0
  0
LINE
  5
177
100
AcDbEntity
100
AcDbLine
  8
side_east
 62
256
370
-1
  6
ByLayer
 10
229.0
 20
113.0
 30
0.0
 11
223.0
 21
113.0
 31
0.0
  0
LINE
  5
178
100
AcDbEntity
100
AcDbLine
  8
side_east
 62
256
370
-1
  6
ByLayer
 10
227.0
 20
108.0
 30
0.0
 11
232.0
 21
108.0
 31
0.0
  0
LINE
  5
179
100
AcDbEntity
100
AcDbLine
  8
side_east
 62
256
370
-1
  6
ByLayer
 10
218.0
 20
108.0
 30
0.0
 11
219.0
 21
108.0
 31
0.0
  0
LINE
  5
17A
100
AcDbEntity
100
AcDbLine
  8
side_east
 62
256
370
-1
  6
ByLayer
 10
219.0
 20
5.0
 30
0.0
 11
219.0
 21
2.0
 31
0.0
  0
LINE
  5
17B
100
AcDbEntity
100
AcDbLine
  8
side_east
 62
256
370
-1
  6
ByLayer
 10
219.0
 20
2.0
 30
0.0
 11
217.0
 21
2.0
 31
0.0
  0
LINE
  5
17C
100
AcDbEntity
100
AcDbLine
  8
side_east
 62
256
370
-1
  6
ByLayer
 10
217.0
 20
2.0
 30
0.0
 11
217.0
 21
0.0
 31
0.0
  0
LINE
  5
17D
100
AcDbEntity
100
AcDbLine
  8
side_east
 62
256
370
-1
  6
ByLayer
 10
217.0
 20
0.0
 30
0.0
 11
223.0
 21
0.0
 31
0.0
  0
LINE
  5
17E
100
AcDbEntity
100
AcDbLine
  8
side_east
 62
256
370
-1
  6
ByLayer
 10
227.0
 20
5.0
 30
0.0
 11
227.0
 21
2.0
 31
0.0
  0
LINE
  5
17F
100
AcDbEntity
100
AcDbLine
  8
side_east
 62
256
370
-1
  6
ByLayer
 10
227.0
 20
2.0
 30
0.0
 11
229.0
 21
2.0
 31
0.0
  0
LINE
  5
180
100
AcDbEntity
100
AcDbLine
  8
side_east
 62
256
370
-1
  6
ByLayer
 10
229.0
 20
2.0
 30
0.0
 11
229.0
 21
0.0
 31
0.0
  0
LINE
  5
181
100
AcDbEntity
100
AcDbLine
  8
side_east
 62
256
370
-1
  6
ByLayer
 10
229.0
 20
0.0
 30
0.0
 11
223.0
 21
0.0
 31
0.0
  0
LINE
  5
182
100
AcDbEntity
100
AcDbLine
  8
side_east
 62
256
370
-1
  6
ByLayer
 10
227.0
 20
5.0
 30
0.0
 11
232.0000000000000284
 21
5.0
 31
0.0
  0
LINE
  5
183
100
AcDbEntity
100
AcDbLine
  8
side_east
 62
256
370
-1
  6
ByLayer
 10
218.0000000000000284
 20
5.0
 30
0.0
 11
219.0
 21
5.0
 31
0.0
  0
INSERT
  5
184
100
AcDbEntity
100
AcDbBlockReference
  8
side_east
 62
256
370
-1
  6
ByLayer
  2
T-Slot_Full_Slot
 10
240.0
 20
73.5000000000000142
 30
0.0
 50
90.0
 44
1.0
 45
1.0
  0
INSERT
  5
185
100
AcDbEntity
100
AcDbBlockReference
  8
side_east
 62
256
370
-1
  6
ByLayer
  2
T-Slot_Minimal_Slot
 10
240.0
 20
33.0
 30
0.0
 50
90.0
 44
1.0
 45
1.0
  0
LINE
  5
186
100
AcDbEntity
100
AcDbLine
  8
side_east
 62
256
370
-1
  6
ByLayer
 10
240.0
 20
28.0
 30
0.0
 11
244.0
 21
28.0
 31
0.0
  0
LINE
  5
187
100
AcDbEntity
100
AcDbLine
  8
side_east
 62
256
370
-1
  6
ByLayer
 10
244.0
 20
28.0
 30
0.0
 11
244.0
 21
15.0
 31
0.0
  0
LINE
  5
188
100
AcDbEntity
100
AcDbLine
  8
side_east
 62
256
370
-1
  6
ByLayer
 10
244.0
 20
15.0
 30
0.0
 11
240.0
 21
15.0
 31
0.0
  0
LINE
  5
189
100
AcDbEntity
100
AcDbLine
  8
side_east
 62
256
370
-1
  6
ByLayer
 10
240.0000000000000284
 20
31.5
 30
0.0
 11
240.0
 21
28.0
 31
0.0
  0
LINE
  5
18A
100
AcDbEntity
100
AcDbLine
  8
side_east
 62
256
370
-1
  6
ByLayer
 10
240.0
 20
15.0
 30
0.0
 11
240.0
 21
9.0
 31
0.0
  0
LINE
  5
18B
100
AcDbEntity
100
AcDbLine
  8
side_east
 62
256
370
-1
  6
ByLayer
 10
210.0
 20
80.0
 30
0.0
 11
206.0
 21
80.0
 31
0.0
  0
LINE
  5
18C
100
AcDbEntity
100
AcDbLine
  8
side_east
 62
256
370
-1
  6
ByLayer
 10
206.0
 20
80.0
 30
0.0
 11
206.0
 21
84.0
 31
0.0
  0
LINE
  5
18D
100
AcDbEntity
100
AcDbLine
  8
side_east
 62
256
370
-1
  6
ByLayer
 10
206.0
 20
84.0
 30
0.0
 11
210.0
 21
84.0
 31
0.0
  0
LINE
  5
18E
100
AcDbEntity
100
AcDbLine
  8
side_east
 62
256
370
-1
  6
ByLayer
 10
210.0000000000000284
 20
73.0
 30
0.0
 11
210.0
 21
80.0
 31
0.0
  0
LINE
  5
18F
100
AcDbEntity
100
AcDbLine
  8
side_east
 62
256
370
-1
  6
ByLayer
 10
210.0
 20
84.0
 30
0.0
 11
210.0
 21
104.0
 31
0.0
  0
LINE
  5
190
100
AcDbEntity
100
AcDbLine
  8
side_east
 62
256
370
-1
  6
ByLayer
 10
240.0
 20
51.0
 30
0.0
 11
236.0
 21
51.0
 31
0.0
  0
LINE
  5
191
100
AcDbEntity
100
AcDbLine
  8
side_east
 62
256
370
-1
  6
ByLayer
 10
236.0
 20
51.0
 30
0.0
 11
236.0
 21
55.0
 31
0.0
  0
LINE
  5
192
100
AcDbEntity
100
AcDbLine
  8
side_east
 62
256
370
-1
  6
ByLayer
 10
236.0
 20
55.0
 30
0.0
 11
240.0
 21
55.0
 31
0.0
  0
LINE
  5
193
100
AcDbEntity
100
AcDbLine
  8
side_east
 62
256
370
-1
  6
ByLayer
 10
240.0
 20
94.0
 30
0.0
 11
236.0
 21
94.0
 31
0.0
  0
LINE
  5
194
100
AcDbEntity
100
AcDbLine
  8
side_east
 62
256
370
-1
  6
ByLayer
 10
236.0
 20
94.0
 30
0.0
 11
236.0
 21
98.0
 31
0.0
  0
LINE
  5
195
100
AcDbEntity
100
AcDbLine
  8
side_east
 62
256
370
-1
  6
ByLayer
 10
236.0
 20
98.0
 30
0.0
 11
240.0
 21
98.0
 31
0.0
  0
LINE
  5
196
100
AcDbEntity
100
AcDbLine
  8
side_east
 62
256
370
-1
  6
ByLayer
 10
240.0
 20
57.0
 30
0.0
 11
240.0
 21
55.0
 31
0.0
  0
LINE
  5
197
100
AcDbEntity
100
AcDbLine
  8
side_east
 62
256
370
-1
  6
ByLayer
 10
240.0
 20
51.0
 30
0.0
 11
240.0
 21
34.5
 31
0.0
  0
LINE
  5
198
100
AcDbEntity
100
AcDbLine
  8
side_east
 62
256
370
-1
  6
ByLayer
 10
240.0
 20
94.0
 30
0.0
 11
240.0
 21
90.0
 31
0.0
  0
LINE
  5
199
100
AcDbEntity
100
AcDbLine
  8
side_east
 62
256
370
-1
  6
ByLayer
 10
240.0
 20
104.0
 30
0.0
 11
240.0
 21
98.0
 31
0.0
  0
INSERT
  5
19A
100
AcDbEntity
100
AcDbBlockReference
  8
side_south
 62
256
370
-1
  6
ByLayer
  2
T-Slot_Full_Slot
 10
70.0
 20
-10.0
 30
0.0
 41
1.0
 42
-1.0
 43
1.0
 44
1.0
 45
1.0
  0
INSERT
  5
19B
100
AcDbEntity
100
AcDbBlockReference
  8
side_south
 62
256
370
-1
  6
ByLayer
  2
T-Slot_Full_Slot
 10
130.0
 20
-10.0
 30
0.0
 41
1.0
 42
-1.0
 43
1.0
 44
1.0
 45
1.0
  0
LINE
  5
19C
100
AcDbEntity
100
AcDbLine
  8
side_south
 62
256
370
-1
  6
ByLayer
 10
113.5
 20
-9.9999999999999982
 30
0.0
 11
86.5
 21
-10.0
 31
0.0
  0
LINE
  5
19D
100
AcDbEntity
100
AcDbLine
  8
side_south
 62
256
370
-1
  6
ByLayer
 10
59.1000000000000014
 20
-22.9000000000000057
 30
0.0
 11
59.1000000000000014
 21
-20.4000000000000021
 31
0.0
  0
LINE
  5
19E
100
AcDbEntity
100
AcDbLine
  8
side_south
 62
256
370
-1
  6
ByLayer
 10
59.1000000000000014
 20
-20.4000000000000021
 30
0.0
 11
60.6999999999999957
 21
-20.4000000000000021
 31
0.0
  0
LINE
  5
19F
100
AcDbEntity
100
AcDbLine
  8
side_south
 62
256
370
-1
  6
ByLayer
 10
60.6999999999999957
 20
-20.4000000000000021
 30
0.0
 11
60.6999999999999957
 21
-22.9000000000000021
 31
0.0
  0
LINE
  5
1A0
100
AcDbEntity
100
AcDbLine
  8
side_south
 62
256
370
-1
  6
ByLayer
 10
77.1000000000000085
 20
-22.9000000000000021
 30
0.0
 11
77.1000000000000085
 21
-20.4000000000000021
 31
0.0
  0
LINE
  5
1A1
100
AcDbEntity
100
AcDbLine
  8
side_south
 62
256
370
-1
  6
ByLayer
 10
77.1000000000000085
 20
-20.4000000000000021
 30
0.0
 11
78.7000000000000028
 21
-20.4000000000000021
 31
0.0
  0
LINE
  5
1A2
100
AcDbEntity
100
AcDbLine
  8
side_south
 62
256
370
-1
  6
ByLayer
 10
78.7000000000000028
 20
-20.4000000000000021
 30
0.0
 11
78.7000000000000028
 21
-22.9000000000000021
 31
0.0
  0
LINE
  5
1A3
100
AcDbEntity
100
AcDbLine
  8
side_south
 62
256
370
-1
  6
ByLayer
 10
95.1000000000000085
 20
-22.9000000000000021
 30
0.0
 11
95.1000000000000085
 21
-20.4000000000000021
 31
0.0
  0
LINE
  5
1A4
100
AcDbEntity
100
AcDbLine
  8
side_south
 62
256
370
-1
  6
ByLayer
 10
95.1000000000000085
 20
-20.4000000000000021
 30
0.0
 11
96.7000000000000028
 21
-20.4000000000000021
 31
0.0
  0
LINE
  5
1A5
100
AcDbEntity
100
AcDbLine
  8
side_south
 62
256
370
-1
  6
ByLayer
 10
96.7000000000000028
 20
-20.4000000000000021
 30
0.0
 11
96.7000000000000028
 21
-22.9000000000000021
 31
0.0
  0
LINE
  5
1A6
100
AcDbEntity
100
AcDbLine
  8
side_south
 62
256
370
-1
  6
ByLayer
 10
113.1000000000000085
 20
-22.9000000000000021
 30
0.0
 11
113.1000000000000085
 21
-20.4000000000000021
 31
0.0
  0
LINE
  5
1A7
100
AcDbEntity
100
AcDbLine
  8
side_south
 62
256
370
-1
  6
ByLayer
 10
113.1000000000000085
 20
-20.4000000000000021
 30
0.0
 11
114.7000000000000171
 21
-20.4000000000000021
 31
0.0
  0
LINE
  5
1A8
100
AcDbEntity
100
AcDbLine
  8
side_south
 62
256
370
-1
  6
ByLayer
 10
114.7000000000000171
 20
-20.4000000000000021
 30
0.0
 11
114.7000000000000171
 21
-22.9000000000000021
 31
0.0
  0
LINE
  5
1A9
100
AcDbEntity
100
AcDbLine
  8
side_south
 62
256
370
-1
  6
ByLayer
 10
20.0
 20
-18.0
 30
0.0
 11
16.0
 21
-18.0
 31
0.0
  0
LINE
  5
1AA
100
AcDbEntity
100
AcDbLine
  8
side_south
 62
256
370
-1
  6
ByLayer
 10
16.0
 20
-18.0
 30
0.0
 11
16.0
 21
-10.0
 31
0.0
  0
LINE
  5
1AB
100
AcDbEntity
100
AcDbLine
  8
side_south
 62
256
370
-1
  6
ByLayer
 10
20.0
 20
-32.0
 30
0.0
 11
16.0
 21
-32.0
 31
0.0
  0
LINE
  5
1AC
100
AcDbEntity
100
AcDbLine
  8
side_south
 62
256
370
-1
  6
ByLayer
 10
16.0
 20
-32.0
 30
0.0
 11
16.0
 21
-40.0
 31
0.0
  0
LINE
  5
1AD
100
AcDbEntity
100
AcDbLine
  8
side_south
 62
256
370
-1
  6
ByLayer
 10
20.0
 20
-18.0
 30
0.0
 11
20.0
 21
-32.0
 31
0.0
  0
LINE
  5
1AE
100
AcDbEntity
100
AcDbLine
  8
side_south
 62
256
370
-1
  6
ByLayer
 10
180.0
 20
-18.0
 30
0.0
 11
184.0
 21
-18.0
 31
0.0
  0
LINE
  5
1AF
100
AcDbEntity
100
AcDbLine
  8
side_south
 62
256
370
-1
  6
ByLayer
 10
184.0
 20
-18.0
 30
0.0
 11
184.0
 21
-10.0
 31
0.0
  0
LINE
  5
1B0
100
AcDbEntity
100
AcDbLine
  8
side_south
 62
256
370
-1
  6
ByLayer
 10
180.0
 20
-32.0
 30
0.0
 11
184.0
 21
-32.0
 31
0.0
  0
LINE
  5
1B1
100
AcDbEntity
100
AcDbLine
  8
side_south
 62
256
370
-1
  6
ByLayer
 10
184.0
 20
-32.0
 30
0.0
 11
184.0
 21
-40.0
 31
0.0
  0
LINE
  5
1B2
100
AcDbEntity
100
AcDbLine
  8
side_south
 62
256
370
-1
  6
ByLayer
 10
180.0
 20
-32.0
 30
0.0
 11
180.0
 21
-18.0
 31
0.0
  0
INSERT
  5
1B3
100
AcDbEntity
100
AcDbBlockReference
  8
side_south
 62
256
370
-1
  6
ByLayer
  2
T-Slot_Full_Slot
 10
150.0
 20
-40.0
 30
0.0
 44
1.0
 45
1.0
  0
LINE
  5
1B4
100
AcDbEntity
100
AcDbLine
  8
side_south
 62
256
370
-1
  6
ByLayer
 10
166.5000000000000284
 20
-40.0000000000000071
 30
0.0
 11
184.0
 21
-40.0
 31
0.0
  0
INSERT
  5
1B5
100
AcDbEntity
100
AcDbBlockReference
  8
side_south
 62
256
370
-1
  6
ByLayer
  2
T-Slot_Minimal_Slot
 10
30.0
 20
-40.0
 30
0.0
 44
1.0
 45
1.0
  0
LINE
  5
1B6
100
AcDbEntity
100
AcDbLine
  8
side_south
 62
256
370
-1
  6
ByLayer
 10
16.0
 20
-40.0
 30
0.0
 11
28.5
 21
-40.0000000000000071
 31
0.0
  0
LINE
  5
1B7
100
AcDbEntity
100
AcDbLine
  8
side_south
 62
256
370
-1
  6
ByLayer
 10
38.0
 20
-40.0
 30
0.0
 11
38.0
 21
-44.0
 31
0.0
  0
LINE
  5
1B8
100
AcDbEntity
100
AcDbLine
  8
side_south
 62
256
370
-1
  6
ByLayer
 10
38.0
 20
-44.0
 30
0.0
 11
63.0
 21
-44.0
 31
0.0
  0
LINE
  5
1B9
100
AcDbEntity
100
AcDbLine
  8
side_south
 62
256
370
-1
  6
ByLayer
 10
63.0
 20
-44.0
 30
0.0
 11
63.0
 21
-40.0
 31
0.0
  0
LINE
  5
1BA
100
AcDbEntity
100
AcDbLine
  8
side_south
 62
256
370
-1
  6
ByLayer
 10
31.5
 20
-40.0000000000000071
 30
0.0
 11
38.0
 21
-40.0
 31
0.0
  0
LINE
  5
1BB
100
AcDbEntity
100
AcDbLine
  8
side_south
 62
256
370
-1
  6
ByLayer
 10
49.0
 20
-6.0
 30
0.0
 11
45.0
 21
-6.0
 31
0.0
  0
LINE
  5
1BC
100
AcDbEntity
100
AcDbLine
  8
side_south
 62
256
370
-1
  6
ByLayer
 10
45.0
 20
-6.0
 30
0.0
 11
45.0
 21
-10.0
 31
0.0
  0
LINE
  5
1BD
100
AcDbEntity
100
AcDbLine
  8
side_south
 62
256
370
-1
  6
ByLayer
 10
49.0
 20
-10.0
 30
0.0
 11
49.0
 21
-6.0
 31
0.0
  0
LINE
  5
1BE
100
AcDbEntity
100
AcDbLine
  8
side_south
 62
256
370
-1
  6
ByLayer
 10
53.5
 20
-9.9999999999999982
 30
0.0
 11
49.0
 21
-10.0
 31
0.0
  0
LINE
  5
1BF
100
AcDbEntity
100
AcDbLine
  8
side_south
 62
256
370
-1
  6
ByLayer
 10
46.0
 20
-40.0
 30
0.0
 11
54.0
 21
-40.0
 31
0.0
  0
LINE
  5
1C0
100
AcDbEntity
100
AcDbLine
  8
side_south
 62
256
370
-1
  6
ByLayer
 10
54.0
 20
-40.0
 30
0.0
 11
54.0
 21
-36.0
 31
0.0
  0
LINE
  5
1C1
100
AcDbEntity
100
AcDbLine
  8
side_south
 62
256
370
-1
  6
ByLayer
 10
54.0
 20
-36.0
 30
0.0
 11
46.0
 21
-36.0
 31
0.0
  0
LINE
  5
1C2
100
AcDbEntity
100
AcDbLine
  8
side_south
 62
256
370
-1
  6
ByLayer
 10
46.0
 20
-36.0
 30
0.0
 11
46.0
 21
-40.0
 31
0.0
  0
LINE
  5
1C3
100
AcDbEntity
100
AcDbLine
  8
side_south
 62
256
370
-1
  6
ByLayer
 10
120.0
 20
-40.0
 30
0.0
 11
120.0
 21
-36.0
 31
0.0
  0
LINE
  5
1C4
100
AcDbEntity
100
AcDbLine
  8
side_south
 62
256
370
-1
  6
ByLayer
 10
120.0
 20
-36.0
 30
0.0
 11
130.0
 21
-36.0
 31
0.0
  0
LINE
  5
1C5
100
AcDbEntity
100
AcDbLine
  8
side_south
 62
256
370
-1
  6
ByLayer
 10
130.0
 20
-36.0
 30
0.0
 11
130.0
 21
-40.0
 31
0.0
  0
LINE
  5
1C6
100
AcDbEntity
100
AcDbLine
  8
side_south
 62
256
370
-1
  6
ByLayer
 10
63.0
 20
-40.0
 30
0.0
 11
120.0
 21
-40.0
 31
0.0
  0
LINE
  5
1C7
100
AcDbEntity
100
AcDbLine
  8
side_south
 62
256
370
-1
  6
ByLayer
 10
130.0
 20
-40.0
 30
0.0
 11
133.5000000000000284
 21
-40.0000000000000071
 31
0.0
  0
ARC
  5
1C8
100
AcDbEntity
  8
base
 62
256
370
-1
  6
ByLayer
100
AcDbCircle
 10
4.0000000000000027
 20
109.0
 30
0.0
 40
4.0
100
AcDbArc
 50
90.0000000000000426
 51
180.0
  0
ARC
  5
1C9
100
AcDbEntity
  8
base
 62
256
370
-1
  6
ByLayer
100
AcDbCircle
 10
4.0
 20
4.0
 30
0.0
 40
4.0
100
AcDbArc
 50
180.0
 51
270.0
  0
LINE
  5
1CA
100
AcDbEntity
100
AcDbLine
  8
base
 62
256
370
-1
  6
ByLayer
 10
4.0
 20
0.0
 30
0.0
 11
196.0
 21
0.0
 31
0.0
  0
ARC
  5
1CB
100
AcDbEntity
  8
base
 62
256
370
-1
  6
ByLayer
100
AcDbCircle
 10
196.0
 20
4.0
 30
0.0
 40
4.0
100
AcDbArc
 50
270.0
 51
0.0
  0
LINE
  5
1CC
100
AcDbEntity
100
AcDbLine
  8
base
 62
256
370
-1
  6
ByLayer
 10
196.0
 20
113.0
 30
0.0
 11
4.0
 21
113.0
 31
0.0
  0
ARC
  5
1CD
100
AcDbEntity
  8
base
 62
256
370
-1
  6
ByLayer
100
AcDbCircle
 10
196.0
 20
109.0
 30
0.0
 40
4.0
100
AcDbArc
 50
0.0
 51
90.0
  0
INSERT
  5
1CE
100
AcDbEntity
100
AcDbBlockReference
  8
base
 62
256
370
-1
  6
ByLayer
  2
T-Slot_Full_Hole
 10
130.0
 20
7.0
 30
0.0
  0
INSERT
  5
1CF
100
AcDbEntity
100
AcDbBlockReference
  8
base
 62
256
370
-1
  6
ByLayer
  2
T-Slot_Full_Hole
 10
70.0
 20
7.0
 30
0.0
 44
1.0
 45
1.0
  0
INSERT
  5
1D0
100
AcDbEntity
100
AcDbBlockReference
  8
base
 62
256
370
-1
  6
ByLayer
  2
T-Slot_Full_Hole
 10
70.0
 20
106.0
 30
0.0
 44
1.0
 45
1.0
  0
INSERT
  5
1D1
100
AcDbEntity
100
AcDbBlockReference
  8
base
 62
256
370
-1
  6
ByLayer
  2
T-Slot_Full_Hole
 10
130.0
 20
106.0
 30
0.0
 44
1.0
 45
1.0
  0
INSERT
  5
1D2
100
AcDbEntity
100
AcDbBlockReference
  8
base
 62
256
370
-1
  6
ByLayer
  2
T-Slot_Full_Hole
 10
18.0
 20
56.5
 30
0.0
 50
90.0
 44
1.0
 45
1.0
  0
INSERT
  5
1D3
100
AcDbEntity
100
AcDbBlockReference
  8
base
 62
256
370
-1
  6
ByLayer
  2
T-Slot_Full_Hole
 10
182.0
 20
56.5
 30
0.0
 50
90.0
 44
1.0
 45
1.0
  0
LINE
  5
1D4
100
AcDbEntity
100
AcDbLine
  8
base
 62
256
370
-1
  6
ByLayer
 10
16.0
 20
93.0
 30
0.0
 11
16.0
 21
97.0
 31
0.0
  0
LINE
  5
1D5
100
AcDbEntity
100
AcDbLine
  8
base
 62
256
370
-1
  6
ByLayer
 10
184.0
 20
80.0
 30
0.0
 11
180.0
 21
80.0
 31
0.0
  0
LINE
  5
1D6
100
AcDbEntity
100
AcDbLine
  8
base
 62
256
370
-1
  6
ByLayer
 10
180.0
 20
80.0
 30
0.0
 11
180.0
 21
84.0
 31
0.0
  0
LINE
  5
1D7
100
AcDbEntity
100
AcDbLine
  8
base
 62
256
370
-1
  6
ByLayer
 10
180.0
 20
84.0
 30
0.0
 11
184.0
 21
84.0
 31
0.0
  0
LINE
  5
1D8
100
AcDbEntity
100
AcDbLine
  8
base
 62
256
370
-1
  6
ByLayer
 10
184.0
 20
84.0
 30
0.0
 11
184.0
 21
80.0
 31
0.0
  0
LINE
  5
1D9
100
AcDbEntity
100
AcDbLine
  8
base
 62
256
370
-1
  6
ByLayer
 10
40.0
 20
108.0
 30
0.0
 11
36.0
 21
108.0
 31
0.0
  0
LINE
  5
1DA
100
AcDbEntity
100
AcDbLine
  8
base
 62
256
370
-1
  6
ByLayer
 10
36.0
 20
108.0
 30
0.0
 11
36.0
 21
104.0
 31
0.0
  0
LINE
  5
1DB
100
AcDbEntity
100
AcDbLine
  8
base
 62
256
370
-1
  6
ByLayer
 10
36.0
 20
104.0
 30
0.0
 11
40.0
 21
104.0
 31
0.0
  0
LINE
  5
1DC
100
AcDbEntity
100
AcDbLine
  8
base
 62
256
370
-1
  6
ByLayer
 10
40.0
 20
104.0
 30
0.0
 11
40.0
 21
108.0
 31
0.0
  0
LINE
  5
1DD
100
AcDbEntity
100
AcDbLine
  8
base
 62
256
370
-1
  6
ByLayer
 10
49.0
 20
5.0
 30
0.0
 11
49.0
 21
9.0
 31
0.0
  0
LINE
  5
1DE
100
AcDbEntity
100
AcDbLine
  8
base
 62
256
370
-1
  6
ByLayer
 10
49.0
 20
9.0
 30
0.0
 11
45.0
 21
9.0
 31
0.0
  0
LINE
  5
1DF
100
AcDbEntity
100
AcDbLine
  8
base
 62
256
370
-1
  6
ByLayer
 10
45.0
 20
5.0
 30
0.0
 11
49.0
 21
5.0
 31
0.0
  0
LINE
  5
1E0
100
AcDbEntity
100
AcDbLine
  8
base
 62
256
370
-1
  6
ByLayer
 10
45.0
 20
9.0
 30
0.0
 11
45.0
 21
5.0
 31
0.0
  0
LINE
  5
1E1
100
AcDbEntity
100
AcDbLine
  8
base
 62
256
370
-1
  6
ByLayer
 10
200.0
 20
30.0
 30
0.0
 11
192.0
 21
30.0
 31
0.0
  0
LINE
  5
1E2
100
AcDbEntity
100
AcDbLine
  8
base
 62
256
370
-1
  6
ByLayer
 10
192.0
 20
34.0
 30
0.0
 11
200.0
 21
34.0
 31
0.0
  0
LINE
  5
1E3
100
AcDbEntity
100
AcDbLine
  8
base
 62
256
370
-1
  6
ByLayer
 10
200.0
 20
83.0
 30
0.0
 11
192.0
 21
83.0
 31
0.0
  0
LINE
  5
1E4
100
AcDbEntity
100
AcDbLine
  8
base
 62
256
370
-1
  6
ByLayer
 10
192.0
 20
79.0
 30
0.0
 11
200.0
 21
79.0
 31
0.0
  0
LINE
  5
1E5
100
AcDbEntity
100
AcDbLine
  8
base
 62
256
370
-1
  6
ByLayer
 10
0.0
 20
30.0
 30
0.0
 11
8.0
 21
30.0
 31
0.0
  0
LINE
  5
1E6
100
AcDbEntity
100
AcDbLine
  8
base
 62
256
370
-1
  6
ByLayer
 10
0.0
 20
34.0
 30
0.0
 11
8.0
 21
34.0
 31
0.0
  0
LINE
  5
1E7
100
AcDbEntity
100
AcDbLine
  8
base
 62
256
370
-1
  6
ByLayer
 10
0.0
 20
83.0
 30
0.0
 11
8.0
 21
83.0
 31
0.0
  0
LINE
  5
1E8
100
AcDbEntity
100
AcDbLine
  8
base
 62
256
370
-1
  6
ByLayer
 10
0.0
 20
79.0
 30
0.0
 11
8.0
 21
79.0
 31
0.0
  0
ARC
  5
1E9
100
AcDbEntity
  8
base
 62
256
370
-1
  6
ByLayer
100
AcDbCircle
 10
8.0
 20
81.0
 30
0.0
 40
2.0
100
AcDbArc
 50
270.0
 51
90.0
  0
ARC
  5
1EA
100
AcDbEntity
  8
base
 62
256
370
-1
  6
ByLayer
100
AcDbCircle
 10
8.0
 20
32.0
 30
0.0
 40
2.0
100
AcDbArc
 50
270.0
 51
90.0
  0
ARC
  5
1EB
100
AcDbEntity
  8
base
 62
256
370
-1
  6
ByLayer
100
AcDbCircle
 10
192.0
 20
32.0
 30
0.0
 40
2.0
100
AcDbArc
 50
90.0
 51
270.0
  0
ARC
  5
1EC
100
AcDbEntity
  8
base
 62
256
370
-1
  6
ByLayer
100
AcDbCircle
 10
192.0
 20
81.0
 30
0.0
 40
2.0
100
AcDbArc
 50
90.0
 51
270.0
  0
LINE
  5
1ED
100
AcDbEntity
100
AcDbLine
  8
base
 62
256
370
-1
  6
ByLayer
 10
0.0
 20
109.0
 30
0.0
 11
0.0
 21
83.0
 31
0.0
  0
LINE
  5
1EE
100
AcDbEntity
100
AcDbLine
  8
base
 62
256
370
-1
  6
ByLayer
 10
0.0
 20
79.0
 30
0.0
 11
0.0
 21
34.0
 31
0.0
  0
LINE
  5
1EF
100
AcDbEntity
100
AcDbLine
  8
base
 62
256
370
-1
  6
ByLayer
 10
0.0
 20
30.0
 30
0.0
 11
0.0
 21
4.0
 31
0.0
  0
LINE
  5
1F0
100
AcDbEntity
100
AcDbLine
  8
base
 62
256
370
-1
  6
ByLayer
 10
200.0
 20
4.0
 30
0.0
 11
200.0
 21
30.0
 31
0.0
  0
LINE
  5
1F1
100
AcDbEntity
100
AcDbLine
  8
base
 62
256
370
-1
  6
ByLayer
 10
200.0
 20
34.0
 30
0.0
 11
200.0
 21
79.0
 31
0.0
  0
LINE
  5
1F2
100
AcDbEntity
100
AcDbLine
  8
base
 62
256
370
-1
  6
ByLayer
 10
200.0
 20
83.0
 30
0.0
 11
200.0
 21
109.0
 31
0.0
  0
LINE
  5
1F3
100
AcDbEntity
100
AcDbLine
  8
base_origin
 62
256
370
-1
  6
ByLayer
 10
15.0
 20
14.0
 30
0.0
 11
25.0
 21
4.0
 31
0.0
  0
LINE
  5
1F4
100
AcDbEntity
100
AcDbLine
  8
base_origin
 62
256
370
-1
  6
ByLayer
 10
25.0
 20
14.0
 30
0.0
 11
15.0
 21
4.0
 31
0.0
  0
LINE
  5
1F5
100
AcDbEntity
100
AcDbLine
  8
side_east_origin
 62
256
370
-1
  6
ByLayer
 10
205.0
 20
14.0
 30
0.0
 11
215.0
 21
4.0
 31
0.0
  0
LINE
  5
1F6
100
AcDbEntity
100
AcDbLine
  8
side_east_origin
 62
256
370
-1
  6
ByLayer
 10
215.0
 20
14.0
 30
0.0
 11
205.0
 21
4.0
 31
0.0
  0
LINE
  5
1F7
100
AcDbEntity
100
AcDbLine
  8
side_west_origin
 62
256
370
-1
  6
ByLayer
 10
-15.0
 20
14.0
 30
0.0
 11
-5.0
 21
4.0
 31
0.0
  0
LINE
  5
1F8
100
AcDbEntity
100
AcDbLine
  8
side_west_origin
 62
256
370
-1
  6
ByLayer
 10
-5.0
 20
14.0
 30
0.0
 11
-15.0
 21
4.0
 31
0.0
  0
LINE
  5
1F9
100
AcDbEntity
100
AcDbLine
  8
side_north_origin
 62
256
370
-1
  6
ByLayer
 10
15.0
 20
125.0
 30
0.0
 11
25.0
 21
115.0
 31
0.0
  0
LINE
  5
1FA
100
AcDbEntity
100
AcDbLine
  8
side_north_origin
 62
256
370
-1
  6
ByLayer
 10
25.0
 20
125.0
 30
0.0
 11
15.0
 21
115.0
 31
0.0
  0
LINE
  5
1FB
100
AcDbEntity
100
AcDbLine
  8
side_south_origin
 62
256
370
-1
  6
ByLayer
 10
15.0
 20
-5.0
 30
0.0
 11
25.0
 21
-15.0
 31
0.0
  0
LINE
  5
1FC
100
AcDbEntity
100
AcDbLine
  8
side_south_origin
 62
256
370
-1
  6
ByLayer
 10
25.0
 20
-5.0
 30
0.0
 11
15.0
 21
-15.0
 31
0.0
  0
DIMENSION
  5
1FD
100
AcDbEntity
  8
dims
 62
256
370
-1
  6
ByLayer
100
AcDbDimension
 10
180.0
 20
80.0
 30
0.0
 11
99.9999999999999716
 21
81.875
 31
0.0
 70
0
 71
5
 72
1
 41
1.0
 42
0.0
  1
width
  3
Standard
100
AcDbAlignedDimension
 13
19.9999999999999716
 23
73.0
 33
0.0
 14
180.0
 24
73.0
 34
0.0
 50
0.0
100
AcDbRotatedDimension
  0
DIMENSION
  5
1FE
100
AcDbEntity
  8
dims
 62
256
370
-1
  6
ByLayer
100
AcDbDimension
 10
160.0
 20
8.9999999999999929
 30
0.0
 11
158.125
 21
56.5000000000000142
 31
0.0
 70
0
 71
5
 72
1
 41
1.0
 42
0.0
  1
height
  3
Standard
100
AcDbAlignedDimension
 13
146.5
 23
104.0000000000000284
 33
0.0
 14
146.5
 24
8.9999999999999947
 34
0.0
 50
90.0
100
AcDbRotatedDimension
  0
DIMENSION
  5
1FF
100
AcDbEntity
  8
dims
 62
256
370
-1
  6
ByLayer
100
AcDbDimension
 10
-0.0000000000000036
 20
120.0
 30
0.0
 11
-1.8750000000000027
 21
135.0
 31
0.0
 70
0
 71
5
 72
1
 41
1.0
 42
0.0
  1
depth
  3
Standard
100
AcDbAlignedDimension
 13
16.0
 23
150.0
 33
0.0
 14
16.0
 24
120.0
 34
0.0
 50
90.0
100
AcDbRotatedDimension
  0
LINE
  5
200
100
AcDbEntity
100
AcDbLine
  8
top_origin
 62
256
370
-1
  6
ByLayer
 10
15.0
 20
171.0
 30
0.0
 11
25.0
 21
161.0
 31
0.0
  0
LINE
  5
201
100
AcDbEntity
100
AcDbLine
  8
top_origin
 62
256
370
-1
  6
ByLayer
 10
25.0
 20
171.0
 30
0.0
 11
15.0
 21
161.0
 31
0.0
  0
LINE
  5
202
100
AcDbEntity
100
AcDbLine
  8
side_cuts
 62
256
370
-1
  6
ByLayer
 10
180.0
 20
133.0
 30
0.0
 11
176.0
 21
133.0
 31
0.0
  0
LINE
  5
203
100
AcDbEntity
100
AcDbLine
  8
side_cuts
 62
256
370
-1
  6
ByLayer
 10
176.0
 20
133.0
 30
0.0
 11
176.0
 21
136.0
 31
0.0
  0
LINE
  5
204
100
AcDbEntity
100
AcDbLine
  8
side_cuts
 62
256
370
-1
  6
ByLayer
 10
24.0
 20
136.0
 30
0.0
 11
24.0
 21
133.0
 31
0.0
  0
LINE
  5
205
100
AcDbEntity
100
AcDbLine
  8
side_cuts
 62
256
370
-1
  6
ByLayer
 10
24.0
 20
133.0
 30
0.0
 11
20.0
 21
133.0
 31
0.0
  0
LINE
  5
206
100
AcDbEntity
100
AcDbLine
  8
side_cuts
 62
256
370
-1
  6
ByLayer
 10
24.0
 20
136.0
 30
0.0
 11
98.6000000000000085
 21
136.0
 31
0.0
  0
LINE
  5
207
100
AcDbEntity
100
AcDbLine
  8
side_cuts
 62
256
370
-1
  6
ByLayer
 10
110.6000000000000085
 20
136.0
 30
0.0
 11
176.0
 21
136.0
 31
0.0
  0
LINE
  5
208
100
AcDbEntity
100
AcDbLine
  8
side_cuts
 62
256
370
-1
  6
ByLayer
 10
-26.0000000000000036
 20
95.7000000000000028
 30
0.0
 11
-26.0
 21
104.0
 31
0.0
  0
LINE
  5
209
100
AcDbEntity
100
AcDbLine
  8
side_cuts
 62
256
370
-1
  6
ByLayer
 10
-26.0000000000000036
 20
65.9000000000000057
 30
0.0
 11
-26.0000000000000036
 21
81.3000000000000114
 31
0.0
  0
LINE
  5
20A
100
AcDbEntity
100
AcDbLine
  8
side_cuts
 62
256
370
-1
  6
ByLayer
 10
-26.0000000000000036
 20
46.6000000000000014
 30
0.0
 11
-26.0000000000000036
 21
50.6000000000000014
 31
0.0
  0
LINE
  5
20B
100
AcDbEntity
100
AcDbLine
  8
side_cuts
 62
256
370
-1
  6
ByLayer
 10
-26.0
 20
9.0
 30
0.0
 11
-26.0
 21
31.3000000000000007
 31
0.0
  0
LINE
  5
20C
100
AcDbEntity
100
AcDbLine
  8
side_cuts
 62
256
370
-1
  6
ByLayer
 10
-26.0
 20
104.0
 30
0.0
 11
-23.0
 21
104.0
 31
0.0
  0
LINE
  5
20D
100
AcDbEntity
100
AcDbLine
  8
side_cuts
 62
256
370
-1
  6
ByLayer
 10
-23.0
 20
9.0
 30
0.0
 11
-26.0
 21
9.0
 31
0.0
  0
LINE
  5
20E
100
AcDbEntity
100
AcDbLine
  8
side_cuts
 62
256
370
-1
  6
ByLayer
 10
-23.0
 20
0.0
 30
0.0
 11
-23.0
 21
9.0
 31
0.0
  0
LINE
  5
20F
100
AcDbEntity
100
AcDbLine
  8
side_cuts
 62
256
370
-1
  6
ByLayer
 10
-23.0
 20
113.0
 30
0.0
 11
-23.0
 21
104.0
 31
0.0
  0
LINE
  5
210
100
AcDbEntity
100
AcDbLine
  8
side_cuts
 62
256
370
-1
  6
ByLayer
 10
223.0
 20
104.0
 30
0.0
 11
226.0
 21
104.0
 31
0.0
  0
LINE
  5
211
100
AcDbEntity
100
AcDbLine
  8
side_cuts
 62
256
370
-1
  6
ByLayer
 10
226.0
 20
33.0
 30
0.0
 11
223.0
 21
33.0
 31
0.0
  0
LINE
  5
212
100
AcDbEntity
100
AcDbLine
  8
side_cuts
 62
256
370
-1
  6
ByLayer
 10
223.0
 20
113.0
 30
0.0
 11
223.0
 21
104.0
 31
0.0
  0
LINE
  5
213
100
AcDbEntity
100
AcDbLine
  8
side_cuts
 62
256
370
-1
  6
ByLayer
 10
20.0
 20
-23.0
 30
0.0
 11
24.0
 21
-23.0
 31
0.0
  0
LINE
  5
214
100
AcDbEntity
100
AcDbLine
  8
side_cuts
 62
256
370
-1
  6
ByLayer
 10
24.0
 20
-23.0
 30
0.0
 11
24.0
 21
-26.0
 31
0.0
  0
LINE
  5
215
100
AcDbEntity
100
AcDbLine
  8
side_cuts
 62
256
370
-1
  6
ByLayer
 10
180.0
 20
-23.0
 30
0.0
 11
176.0
 21
-23.0
 31
0.0
  0
LINE
  5
216
100
AcDbEntity
100
AcDbLine
  8
side_cuts
 62
256
370
-1
  6
ByLayer
 10
176.0
 20
-23.0
 30
0.0
 11
176.0
 21
-26.0
 31
0.0
  0
LINE
  5
217
100
AcDbEntity
100
AcDbLine
  8
top_inner_origin
 62
256
370
-1
  6
ByLayer
 10
15.0
 20
285.0
 30
0.0
 11
25.0
 21
275.0
 31
0.0
  0
LINE
  5
218
100
AcDbEntity
100
AcDbLine
  8
top_inner_origin
 62
256
370
-1
  6
ByLayer
 10
25.0
 20
285.0
 30
0.0
 11
15.0
 21
275.0
 31
0.0
  0
LINE
  5
219
100
AcDbEntity
100
AcDbLine
  8
support_1
 62
256
370
-1
  6
ByLayer
 10
-50.0
 20
20.0
 30
0.0
 11
-46.0
 21
20.0
 31
0.0
  0
LINE
  5
21A
100
AcDbEntity
100
AcDbLine
  8
support_1
 62
256
370
-1
  6
ByLayer
 10
-46.0
 20
20.0
 30
0.0
 11
-46.0
 21
24.0
 31
0.0
  0
LINE
  5
21B
100
AcDbEntity
100
AcDbLine
  8
support_1
 62
256
370
-1
  6
ByLayer
 10
-46.0
 20
24.0
 30
0.0
 11
-50.0
 21
24.0
 31
0.0
  0
LINE
  5
21C
100
AcDbEntity
100
AcDbLine
  8
support_1
 62
256
370
-1
  6
ByLayer
 10
-50.0
 20
94.0
 30
0.0
 11
-46.0
 21
94.0
 31
0.0
  0
LINE
  5
21D
100
AcDbEntity
100
AcDbLine
  8
support_1
 62
256
370
-1
  6
ByLayer
 10
-46.0
 20
94.0
 30
0.0
 11
-46.0
 21
90.0
 31
0.0
  0
LINE
  5
21E
100
AcDbEntity
100
AcDbLine
  8
support_1
 62
256
370
-1
  6
ByLayer
 10
-46.0
 20
90.0
 30
0.0
 11
-50.0
 21
90.0
 31
0.0
  0
LINE
  5
21F
100
AcDbEntity
100
AcDbLine
  8
support_1
 62
256
370
-1
  6
ByLayer
 10
-50.0
 20
24.0
 30
0.0
 11
-50.0
 21
90.0
 31
0.0
  0
LINE
  5
220
100
AcDbEntity
100
AcDbLine
  8
base
 62
256
370
-1
  6
ByLayer
 10
16.0
 20
97.0
 30
0.0
 11
20.0
 21
97.0
 31
0.0
  0
LINE
  5
221
100
AcDbEntity
100
AcDbLine
  8
base
 62
256
370
-1
  6
ByLayer
 10
20.0
 20
93.0
 30
0.0
 11
16.0
 21
93.0
 31
0.0
  0
LINE
  5
222
100
AcDbEntity
100
AcDbLine
  8
base
 62
256
370
-1
  6
ByLayer
 10
24.0
 20
20.0
 30
0.0
 11
28.0
 21
20.0
 31
0.0
  0
LINE
  5
223
100
AcDbEntity
100
AcDbLine
  8
base
 62
256
370
-1
  6
ByLayer
 10
28.0
 20
20.0
 30
0.0
 11
28.0
 21
24.0
 31
0.0
  0
LINE
  5
224
100
AcDbEntity
100
AcDbLine
  8
base
 62
256
370
-1
  6
ByLayer
 10
28.0
 20
24.0
 30
0.0
 11
24.0
 21
24.0
 31
0.0
  0
LINE
  5
225
100
AcDbEntity
100
AcDbLine
  8
base
 62
256
370
-1
  6
ByLayer
 10
24.0
 20
24.0
 30
0.0
 11
24.0
 21
20.0
 31
0.0
  0
LINE
  5
226
100
AcDbEntity
100
AcDbLine
  8
base
 62
256
370
-1
  6
ByLayer
 10
20.0
 20
97.0
 30
0.0
 11
20.0
 21
93.0
 31
0.0
  0
LINE
  5
227
100
AcDbEntity
100
AcDbLine
  8
base
 62
256
370
-1
  6
ByLayer
 10
24.0
 20
90.0
 30
0.0
 11
28.0
 21
90.0
 31
0.0
  0
LINE
  5
228
100
AcDbEntity
100
AcDbLine
  8
base
 62
256
370
-1
  6
ByLayer
 10
28.0
 20
90.0
 30
0.0
 11
28.0
 21
94.0
 31
0.0
  0
LINE
  5
229
100
AcDbEntity
100
AcDbLine
  8
base
 62
256
370
-1
  6
ByLayer
 10
28.0
 20
94.0
 30
0.0
 11
24.0
 21
94.0
 31
0.0
  0
LINE
  5
22A
100
AcDbEntity
100
AcDbLine
  8
base
 62
256
370
-1
  6
ByLayer
 10
24.0
 20
90.0
 30
0.0
 11
24.0
 21
94.0
 31
0.0
  0
LINE
  5
22B
100
AcDbEntity
100
AcDbLine
  8
support_1
 62
256
370
-1
  6
ByLayer
 10
-50.0
 20
5.0
 30
0.0
 11
-50.0
 21
20.0
 31
0.0
  0
LINE
  5
22C
100
AcDbEntity
100
AcDbLine
  8
support_1
 62
256
370
-1
  6
ByLayer
 10
-71.4000000000000057
 20
9.0000000000000018
 30
0.0
 11
-54.0
 21
9.0
 31
0.0
  0
LINE
  5
22D
100
AcDbEntity
100
AcDbLine
  8
support_1
 62
256
370
-1
  6
ByLayer
 10
-54.0
 20
9.0
 30
0.0
 11
-54.0
 21
5.0
 31
0.0
  0
LINE
  5
22E
100
AcDbEntity
100
AcDbLine
  8
support_1
 62
256
370
-1
  6
ByLayer
 10
-54.0
 20
5.0
 30
0.0
 11
-50.0
 21
5.0
 31
0.0
  0
LINE
  5
22F
100
AcDbEntity
100
AcDbLine
  8
support_1
 62
256
370
-1
  6
ByLayer
 10
-54.0
 20
104.0
 30
0.0
 11
-54.0
 21
108.0
 31
0.0
  0
LINE
  5
230
100
AcDbEntity
100
AcDbLine
  8
support_1
 62
256
370
-1
  6
ByLayer
 10
-54.0
 20
108.0
 30
0.0
 11
-50.0
 21
108.0
 31
0.0
  0
LINE
  5
231
100
AcDbEntity
100
AcDbLine
  8
support_1
 62
256
370
-1
  6
ByLayer
 10
-50.0
 20
94.0
 30
0.0
 11
-50.0
 21
108.0
 31
0.0
  0
LINE
  5
232
100
AcDbEntity
100
AcDbLine
  8
support_1
 62
256
370
-1
  6
ByLayer
 10
-54.0
 20
104.0
 30
0.0
 11
-71.3999999999999915
 21
104.0000000000000142
 31
0.0
  0
LINE
  5
233
100
AcDbEntity
100
AcDbLine
  8
side_north
 62
256
370
-1
  6
ByLayer
 10
28.0
 20
120.0
 30
0.0
 11
36.0
 21
120.0
 31
0.0
  0
LINE
  5
234
100
AcDbEntity
100
AcDbLine
  8
side_north
 62
256
370
-1
  6
ByLayer
 10
16.0
 20
120.0
 30
0.0
 11
24.0
 21
120.0
 31
0.0
  0
LINE
  5
235
100
AcDbEntity
100
AcDbLine
  8
side_south
 62
256
370
-1
  6
ByLayer
 10
24.0
 20
-10.0
 30
0.0
 11
16.0
 21
-10.0
 31
0.0
  0
LINE
  5
236
100
AcDbEntity
100
AcDbLine
  8
side_south
 62
256
370
-1
  6
ByLayer
 10
45.0
 20
-10.0
 30
0.0
 11
28.0
 21
-10.0
 31
0.0
  0
LINE
  5
237
100
AcDbEntity
100
AcDbLine
  8
support_1
 62
256
370
-1
  6
ByLayer
 10
-71.3999999999999915
 20
17.0
 30
0.0
 11
-66.9999999999999858
 21
17.0000000000000036
 31
0.0
  0
LINE
  5
238
100
AcDbEntity
100
AcDbLine
  8
support_1
 62
256
370
-1
  6
ByLayer
 10
-67.0000000000000142
 20
22.0
 30
0.0
 11
-71.3999999999999915
 21
22.0
 31
0.0
  0
LINE
  5
239
100
AcDbEntity
100
AcDbLine
  8
support_1
 62
256
370
-1
  6
ByLayer
 10
-66.9999999999999858
 20
17.0000000000000036
 30
0.0
 11
-67.0
 21
22.0
 31
0.0
  0
LINE
  5
23A
100
AcDbEntity
100
AcDbLine
  8
support_1
 62
256
370
-1
  6
ByLayer
 10
-71.3999999999999915
 20
25.0
 30
0.0
 11
-69.5
 21
25.0
 31
0.0
  0
LINE
  5
23B
100
AcDbEntity
100
AcDbLine
  8
support_1
 62
256
370
-1
  6
ByLayer
 10
-69.5
 20
25.0
 30
0.0
 11
-69.5
 21
30.5
 31
0.0
  0
LINE
  5
23C
100
AcDbEntity
100
AcDbLine
  8
support_1
 62
256
370
-1
  6
ByLayer
 10
-71.3999999999999915
 20
73.5
 30
0.0
 11
-69.4999999999999858
 21
73.5
 31
0.0
  0
LINE
  5
23D
100
AcDbEntity
100
AcDbLine
  8
support_1
 62
256
370
-1
  6
ByLayer
 10
-69.4999999999999858
 20
73.5
 30
0.0
 11
-69.5
 21
67.0000000000000142
 31
0.0
  0
LINE
  5
23E
100
AcDbEntity
100
AcDbLine
  8
support_1
 62
256
370
-1
  6
ByLayer
 10
-71.3999999999999915
 20
25.0
 30
0.0
 11
-71.3999999999999915
 21
21.9999999999999964
 31
0.0
  0
LINE
  5
23F
100
AcDbEntity
100
AcDbLine
  8
support_1
 62
256
370
-1
  6
ByLayer
 10
-71.3999999999999915
 20
16.9999999999999964
 30
0.0
 11
-71.4000000000000057
 21
9.0000000000000018
 31
0.0
  0
LINE
  5
240
100
AcDbEntity
100
AcDbLine
  8
support_1
 62
256
370
-1
  6
ByLayer
 10
-59.3999999999999986
 20
67.0
 30
0.0
 11
-69.5
 21
67.0
 31
0.0
  0
LINE
  5
241
100
AcDbEntity
100
AcDbLine
  8
support_1
 62
256
370
-1
  6
ByLayer
 10
-59.3999999999999986
 20
30.5
 30
0.0
 11
-59.3999999999999986
 21
67.0
 31
0.0
  0
LINE
  5
242
100
AcDbEntity
100
AcDbLine
  8
support_1
 62
256
370
-1
  6
ByLayer
 10
-69.5
 20
30.5
 30
0.0
 11
-59.3999999999999986
 21
30.5
 31
0.0
  0
LINE
  5
243
100
AcDbEntity
100
AcDbLine
  8
support_1
 62
256
370
-1
  6
ByLayer
 10
-71.4000000000000057
 20
79.5000000000000142
 30
0.0
 11
-62.9999999999999929
 21
79.5000000000000142
 31
0.0
  0
LINE
  5
244
100
AcDbEntity
100
AcDbLine
  8
support_1
 62
256
370
-1
  6
ByLayer
 10
-62.9999999999999929
 20
79.5000000000000142
 30
0.0
 11
-63.0
 21
97.0
 31
0.0
  0
LINE
  5
245
100
AcDbEntity
100
AcDbLine
  8
support_1
 62
256
370
-1
  6
ByLayer
 10
-63.0
 20
97.0
 30
0.0
 11
-71.4000000000000057
 21
97.0000000000000142
 31
0.0
  0
LINE
  5
246
100
AcDbEntity
100
AcDbLine
  8
support_1
 62
256
370
-1
  6
ByLayer
 10
-71.3999999999999915
 20
104.0000000000000142
 30
0.0
 11
-71.3999999999999915
 21
97.0000000000000142
 31
0.0
  0
LINE
  5
247
100
AcDbEntity
100
AcDbLine
  8
support_1
 62
256
370
-1
  6
ByLayer
 10
-71.4000000000000057
 20
79.5000000000000142
 30
0.0
 11
-71.4000000000000057
 21
73.5
 31
0.0
  0
LINE
  5
248
100
AcDbEntity
100
AcDbLine
  8
side_north
 62
256
370
-1
  6
ByLayer
 10
24.0
 20
120.0
 30
0.0
 11
24.0
 21
124.0
 31
0.0
  0
LINE
  5
249
100
AcDbEntity
100
AcDbLine
  8
side_north
 62
256
370
-1
  6
ByLayer
 10
24.0
 20
124.0
 30
0.0
 11
28.0
 21
124.0
 31
0.0
  0
LINE
  5
24A
100
AcDbEntity
100
AcDbLine
  8
side_north
 62
256
370
-1
  6
ByLayer
 10
28.0
 20
124.0
 30
0.0
 11
28.0
 21
120.0
 31
0.0
  0
LINE
  5
24B
100
AcDbEntity
100
AcDbLine
  8
side_south
 62
256
370
-1
  6
ByLayer
 10
24.0
 20
-10.0
 30
0.0
 11
24.0
 21
-14.0
 31
0.0
  0
LINE
  5
24C
100
AcDbEntity
100
AcDbLine
  8
side_south
 62
256
370
-1
  6
ByLayer
 10
24.0
 20
-14.0
 30
0.0
 11
28.0
 21
-14.0
 31
0.0
  0
LINE
  5
24D
100
AcDbEntity
100
AcDbLine
  8
side_south
 62
256
370
-1
  6
ByLayer
 10
28.0
 20
-14.0
 30
0.0
 11
28.0
 21
-10.0
 31
0.0
  0
LINE
  5
24E
100
AcDbEntity
100
AcDbLine
  8
support_3
 62
256
370
-1
  6
ByLayer
 10
254.0
 20
9.0
 30
0.0
 11
254.0
 21
5.0
 31
0.0
  0
LINE
  5
24F
100
AcDbEntity
100
AcDbLine
  8
support_3
 62
256
370
-1
  6
ByLayer
 10
254.0
 20
5.0
 30
0.0
 11
250.0
 21
5.0
 31
0.0
  0
LINE
  5
250
100
AcDbEntity
100
AcDbLine
  8
support_3
 62
256
370
-1
  6
ByLayer
 10
254.0
 20
104.0
 30
0.0
 11
254.0
 21
108.0
 31
0.0
  0
LINE
  5
251
100
AcDbEntity
100
AcDbLine
  8
support_3
 62
256
370
-1
  6
ByLayer
 10
254.0
 20
108.0
 30
0.0
 11
250.0
 21
108.0
 31
0.0
  0
LINE
  5
252
100
AcDbEntity
100
AcDbLine
  8
support_3
 62
256
370
-1
  6
ByLayer
 10
254.0
 20
9.0
 30
0.0
 11
271.3999999999999773
 21
9.0
 31
0.0
  0
LINE
  5
253
100
AcDbEntity
100
AcDbLine
  8
support_3
 62
256
370
-1
  6
ByLayer
 10
250.0
 20
30.0
 30
0.0
 11
246.0
 21
30.0
 31
0.0
  0
LINE
  5
254
100
AcDbEntity
100
AcDbLine
  8
support_3
 62
256
370
-1
  6
ByLayer
 10
246.0
 20
30.0
 30
0.0
 11
246.0
 21
34.0
 31
0.0
  0
LINE
  5
255
100
AcDbEntity
100
AcDbLine
  8
support_3
 62
256
370
-1
  6
ByLayer
 10
246.0
 20
34.0
 30
0.0
 11
250.0
 21
34.0
 31
0.0
  0
LINE
  5
256
100
AcDbEntity
100
AcDbLine
  8
support_3
 62
256
370
-1
  6
ByLayer
 10
250.0
 20
91.0
 30
0.0
 11
246.0
 21
91.0
 31
0.0
  0
LINE
  5
257
100
AcDbEntity
100
AcDbLine
  8
support_3
 62
256
370
-1
  6
ByLayer
 10
246.0
 20
91.0
 30
0.0
 11
246.0
 21
95.0
 31
0.0
  0
LINE
  5
258
100
AcDbEntity
100
AcDbLine
  8
support_3
 62
256
370
-1
  6
ByLayer
 10
246.0
 20
95.0
 30
0.0
 11
250.0
 21
95.0
 31
0.0
  0
LINE
  5
259
100
AcDbEntity
100
AcDbLine
  8
support_3
 62
256
370
-1
  6
ByLayer
 10
250.0
 20
108.0
 30
0.0
 11
250.0
 21
95.0
 31
0.0
  0
LINE
  5
25A
100
AcDbEntity
100
AcDbLine
  8
support_3
 62
256
370
-1
  6
ByLayer
 10
250.0
 20
91.0
 30
0.0
 11
250.0
 21
34.0
 31
0.0
  0
LINE
  5
25B
100
AcDbEntity
100
AcDbLine
  8
support_3
 62
256
370
-1
  6
ByLayer
 10
250.0
 20
30.0
 30
0.0
 11
250.0
 21
5.0
 31
0.0
  0
LINE
  5
25C
100
AcDbEntity
100
AcDbLine
  8
side_north
 62
256
370
-1
  6
ByLayer
 10
176.0
 20
120.0
 30
0.0
 11
176.0
 21
124.0
 31
0.0
  0
LINE
  5
25D
100
AcDbEntity
100
AcDbLine
  8
side_north
 62
256
370
-1
  6
ByLayer
 10
176.0
 20
124.0
 30
0.0
 11
172.0
 21
124.0
 31
0.0
  0
LINE
  5
25E
100
AcDbEntity
100
AcDbLine
  8
side_north
 62
256
370
-1
  6
ByLayer
 10
172.0
 20
124.0
 30
0.0
 11
172.0
 21
120.0
 31
0.0
  0
LINE
  5
25F
100
AcDbEntity
100
AcDbLine
  8
side_south
 62
256
370
-1
  6
ByLayer
 10
176.0
 20
-10.0
 30
0.0
 11
176.0
 21
-14.0
 31
0.0
  0
LINE
  5
260
100
AcDbEntity
100
AcDbLine
  8
side_south
 62
256
370
-1
  6
ByLayer
 10
176.0
 20
-14.0
 30
0.0
 11
172.0
 21
-14.0
 31
0.0
  0
LINE
  5
261
100
AcDbEntity
100
AcDbLine
  8
side_south
 62
256
370
-1
  6
ByLayer
 10
172.0
 20
-14.0
 30
0.0
 11
172.0
 21
-10.0
 31
0.0
  0
LINE
  5
262
100
AcDbEntity
100
AcDbLine
  8
side_south
 62
256
370
-1
  6
ByLayer
 10
172.0
 20
-10.0
 30
0.0
 11
146.5
 21
-10.0
 31
0.0
  0
LINE
  5
263
100
AcDbEntity
100
AcDbLine
  8
side_south
 62
256
370
-1
  6
ByLayer
 10
184.0
 20
-10.0
 30
0.0
 11
176.0
 21
-10.0
 31
0.0
  0
LINE
  5
264
100
AcDbEntity
100
AcDbLine
  8
side_north
 62
256
370
-1
  6
ByLayer
 10
146.5
 20
120.0
 30
0.0
 11
172.0
 21
120.0
 31
0.0
  0
LINE
  5
265
100
AcDbEntity
100
AcDbLine
  8
side_north
 62
256
370
-1
  6
ByLayer
 10
176.0
 20
120.0
 30
0.0
 11
184.0
 21
120.0
 31
0.0
  0
LINE
  5
266
100
AcDbEntity
100
AcDbLine
  8
base
 62
256
370
-1
  6
ByLayer
 10
176.0
 20
95.0
 30
0.0
 11
172.0
 21
95.0
 31
0.0
  0
LINE
  5
267
100
AcDbEntity
100
AcDbLine
  8
base
 62
256
370
-1
  6
ByLayer
 10
172.0
 20
95.0
 30
0.0
 11
172.0
 21
91.0
 31
0.0
  0
LINE
  5
268
100
AcDbEntity
100
AcDbLine
  8
base
 62
256
370
-1
  6
ByLayer
 10
172.0
 20
91.0
 30
0.0
 11
176.0
 21
91.0
 31
0.0
  0
LINE
  5
269
100
AcDbEntity
100
AcDbLine
  8
base
 62
256
370
-1
  6
ByLayer
 10
176.0
 20
91.0
 30
0.0
 11
176.0
 21
95.0
 31
0.0
  0
LINE
  5
26A
100
AcDbEntity
100
AcDbLine
  8
base
 62
256
370
-1
  6
ByLayer
 10
176.0
 20
30.0
 30
0.0
 11
172.0
 21
30.0
 31
0.0
  0
LINE
  5
26B
100
AcDbEntity
100
AcDbLine
  8
base
 62
256
370
-1
  6
ByLayer
 10
172.0
 20
30.0
 30
0.0
 11
172.0
 21
34.0
 31
0.0
  0
LINE
  5
26C
100
AcDbEntity
100
AcDbLine
  8
base
 62
256
370
-1
  6
ByLayer
 10
172.0
 20
34.0
 30
0.0
 11
176.0
 21
34.0
 31
0.0
  0
LINE
  5
26D
100
AcDbEntity
100
AcDbLine
  8
base
 62
256
370
-1
  6
ByLayer
 10
176.0
 20
34.0
 30
0.0
 11
176.0
 21
30.0
 31
0.0
  0
LINE
  5
26E
100
AcDbEntity
100
AcDbLine
  8
support_3
 62
256
370
-1
  6
ByLayer
 10
271.3999999999999773
 20
9.0
 30
0.0
 11
271.3999999999999773
 21
12.0000000000000018
 31
0.0
  0
LINE
  5
26F
100
AcDbEntity
100
AcDbLine
  8
support_3
 62
256
370
-1
  6
ByLayer
 10
268.9000000000000341
 20
49.0
 30
0.0
 11
268.8999999999999773
 21
55.0
 31
0.0
  0
LINE
  5
270
100
AcDbEntity
100
AcDbLine
  8
support_3
 62
256
370
-1
  6
ByLayer
 10
268.8999999999999773
 20
55.0
 30
0.0
 11
271.3999999999999773
 21
55.0
 31
0.0
  0
LINE
  5
271
100
AcDbEntity
100
AcDbLine
  8
support_3
 62
256
370
-1
  6
ByLayer
 10
271.3999999999999773
 20
71.5000000000000142
 30
0.0
 11
258.0
 21
71.5
 31
0.0
  0
LINE
  5
272
100
AcDbEntity
100
AcDbLine
  8
support_3
 62
256
370
-1
  6
ByLayer
 10
271.3999999999999773
 20
55.0
 30
0.0
 11
271.3999999999999773
 21
71.5
 31
0.0
  0
LINE
  5
273
100
AcDbEntity
100
AcDbLine
  8
support_3
 62
256
370
-1
  6
ByLayer
 10
258.0
 20
71.5
 30
0.0
 11
258.0
 21
104.0000000000000142
 31
0.0
  0
LINE
  5
274
100
AcDbEntity
100
AcDbLine
  8
support_3
 62
256
370
-1
  6
ByLayer
 10
258.0
 20
104.0000000000000142
 30
0.0
 11
254.0
 21
104.0
 31
0.0
  0
LINE
  5
275
100
AcDbEntity
100
AcDbLine
  8
support_2
 62
256
370
-1
  6
ByLayer
 10
276.0
 20
27.0
 30
0.0
 11
272.0
 21
27.0
 31
0.0
  0
LINE
  5
276
100
AcDbEntity
100
AcDbLine
  8
support_2
 62
256
370
-1
  6
ByLayer
 10
272.0
 20
27.0
 30
0.0
 11
272.0
 21
23.0
 31
0.0
  0
LINE
  5
277
100
AcDbEntity
100
AcDbLine
  8
support_2
 62
256
370
-1
  6
ByLayer
 10
272.0
 20
23.0
 30
0.0
 11
276.0
 21
23.0
 31
0.0
  0
LINE
  5
278
100
AcDbEntity
100
AcDbLine
  8
support_2
 62
256
370
-1
  6
ByLayer
 10
276.0
 20
90.0
 30
0.0
 11
272.0
 21
90.0
 31
0.0
  0
LINE
  5
279
100
AcDbEntity
100
AcDbLine
  8
support_2
 62
256
370
-1
  6
ByLayer
 10
272.0
 20
90.0
 30
0.0
 11
272.0
 21
86.0
 31
0.0
  0
LINE
  5
27A
100
AcDbEntity
100
AcDbLine
  8
support_2
 62
256
370
-1
  6
ByLayer
 10
272.0
 20
86.0
 30
0.0
 11
276.0
 21
86.0
 31
0.0
  0
LINE
  5
27B
100
AcDbEntity
100
AcDbLine
  8
support_2
 62
256
370
-1
  6
ByLayer
 10
276.0
 20
86.0
 30
0.0
 11
276.0
 21
27.0
 31
0.0
  0
LINE
  5
27C
100
AcDbEntity
100
AcDbLine
  8
support_2
 62
256
370
-1
  6
ByLayer
 10
294.9000000000000341
 20
14.0000000000000018
 30
0.0
 11
297.4000000000000341
 21
14.0000000000000018
 31
0.0
  0
LINE
  5
27D
100
AcDbEntity
100
AcDbLine
  8
support_2
 62
256
370
-1
  6
ByLayer
 10
297.3999999999999773
 20
11.5000000000000018
 30
0.0
 11
294.8999999999999773
 21
11.5000000000000018
 31
0.0
  0
LINE
  5
27E
100
AcDbEntity
100
AcDbLine
  8
support_2
 62
256
370
-1
  6
ByLayer
 10
294.8999999999999773
 20
11.5000000000000018
 30
0.0
 11
294.9000000000000341
 21
14.0000000000000018
 31
0.0
  0
LINE
  5
27F
100
AcDbEntity
100
AcDbLine
  8
support_2
 62
256
370
-1
  6
ByLayer
 10
297.3999999999999773
 20
26.0
 30
0.0
 11
294.8999999999999773
 21
26.0
 31
0.0
  0
LINE
  5
280
100
AcDbEntity
100
AcDbLine
  8
support_2
 62
256
370
-1
  6
ByLayer
 10
294.8999999999999773
 20
26.0
 30
0.0
 11
294.8999999999999773
 21
28.5
 31
0.0
  0
LINE
  5
281
100
AcDbEntity
100
AcDbLine
  8
support_2
 62
256
370
-1
  6
ByLayer
 10
294.8999999999999773
 20
28.5
 30
0.0
 11
297.3999999999999773
 21
28.5
 31
0.0
  0
LINE
  5
282
100
AcDbEntity
100
AcDbLine
  8
support_2
 62
256
370
-1
  6
ByLayer
 10
297.3999999999999773
 20
28.5
 30
0.0
 11
297.3999999999999773
 21
104.0000000000000142
 31
0.0
  0
LINE
  5
283
100
AcDbEntity
100
AcDbLine
  8
support_2
 62
256
370
-1
  6
ByLayer
 10
297.4000000000000341
 20
14.0000000000000018
 30
0.0
 11
297.3999999999999773
 21
26.0
 31
0.0
  0
LINE
  5
284
100
AcDbEntity
100
AcDbLine
  8
support_2
 62
256
370
-1
  6
ByLayer
 10
297.3999999999999773
 20
9.0
 30
0.0
 11
297.3999999999999773
 21
11.5000000000000018
 31
0.0
  0
LINE
  5
285
100
AcDbEntity
100
AcDbLine
  8
side_south
 62
256
370
-1
  6
ByLayer
 10
138.0
 20
-20.0
 30
0.0
 11
134.0
 21
-20.0
 31
0.0
  0
LINE
  5
286
100
AcDbEntity
100
AcDbLine
  8
side_south
 62
256
370
-1
  6
ByLayer
 10
134.0
 20
-20.0
 30
0.0
 11
134.0
 21
-23.0
 31
0.0
  0
LINE
  5
287
100
AcDbEntity
100
AcDbLine
  8
side_south
 62
256
370
-1
  6
ByLayer
 10
134.0
 20
-23.0
 30
0.0
 11
138.0
 21
-23.0
 31
0.0
  0
LINE
  5
288
100
AcDbEntity
100
AcDbLine
  8
side_south
 62
256
370
-1
  6
ByLayer
 10
138.0
 20
-23.0
 30
0.0
 11
138.0
 21
-20.0
 31
0.0
  0
LINE
  5
289
100
AcDbEntity
100
AcDbLine
  8
side_north
 62
256
370
-1
  6
ByLayer
 10
138.0
 20
130.0
 30
0.0
 11
134.0
 21
130.0
 31
0.0
  0
LINE
  5
28A
100
AcDbEntity
100
AcDbLine
  8
side_north
 62
256
370
-1
  6
ByLayer
 10
134.0
 20
130.0
 30
0.0
 11
134.0
 21
133.0
 31
0.0
  0
LINE
  5
28B
100
AcDbEntity
100
AcDbLine
  8
side_north
 62
256
370
-1
  6
ByLayer
 10
134.0
 20
133.0
 30
0.0
 11
138.0
 21
133.0
 31
0.0
  0
LINE
  5
28C
100
AcDbEntity
100
AcDbLine
  8
side_north
 62
256
370
-1
  6
ByLayer
 10
138.0
 20
133.0
 30
0.0
 11
138.0
 21
130.0
 31
0.0
  0
LINE
  5
28D
100
AcDbEntity
100
AcDbLine
  8
support_2
 62
256
370
-1
  6
ByLayer
 10
276.0
 20
23.0
 30
0.0
 11
276.0
 21
9.0
 31
0.0
  0
LINE
  5
28E
100
AcDbEntity
100
AcDbLine
  8
support_2
 62
256
370
-1
  6
ByLayer
 10
289.0
 20
9.0
 30
0.0
 11
297.3999999999999773
 21
9.0
 31
0.0
  0
LINE
  5
28F
100
AcDbEntity
100
AcDbLine
  8
support_2
 62
256
370
-1
  6
ByLayer
 10
289.0
 20
9.0
 30
0.0
 11
289.0
 21
5.0
 31
0.0
  0
LINE
  5
290
100
AcDbEntity
100
AcDbLine
  8
support_2
 62
256
370
-1
  6
ByLayer
 10
289.0
 20
5.0
 30
0.0
 11
286.0
 21
5.0
 31
0.0
  0
LINE
  5
291
100
AcDbEntity
100
AcDbLine
  8
support_2
 62
256
370
-1
  6
ByLayer
 10
286.0
 20
5.0
 30
0.0
 11
286.0
 21
9.0
 31
0.0
  0
LINE
  5
292
100
AcDbEntity
100
AcDbLine
  8
support_2
 62
256
370
-1
  6
ByLayer
 10
286.0
 20
9.0
 30
0.0
 11
276.0
 21
9.0
 31
0.0
  0
LINE
  5
293
100
AcDbEntity
100
AcDbLine
  8
support_2
 62
256
370
-1
  6
ByLayer
 10
297.3999999999999773
 20
104.0000000000000142
 30
0.0
 11
289.0
 21
104.0
 31
0.0
  0
LINE
  5
294
100
AcDbEntity
100
AcDbLine
  8
support_2
 62
256
370
-1
  6
ByLayer
 10
289.0
 20
104.0
 30
0.0
 11
289.0
 21
108.0
 31
0.0
  0
LINE
  5
295
100
AcDbEntity
100
AcDbLine
  8
support_2
 62
256
370
-1
  6
ByLayer
 10
286.0
 20
108.0
 30
0.0
 11
286.0
 21
104.0
 31
0.0
  0
LINE
  5
296
100
AcDbEntity
100
AcDbLine
  8
support_2
 62
256
370
-1
  6
ByLayer
 10
286.0
 20
104.0
 30
0.0
 11
286.0
 21
104.0
 31
0.0
  0
LINE
  5
297
100
AcDbEntity
100
AcDbLine
  8
support_2
 62
256
370
-1
  6
ByLayer
 10
286.0
 20
104.0
 30
0.0
 11
276.0
 21
104.0
 31
0.0
  0
LINE
  5
298
100
AcDbEntity
100
AcDbLine
  8
support_2
 62
256
370
-1
  6
ByLayer
 10
276.0
 20
104.0
 30
0.0
 11
276.0
 21
90.0
 31
0.0
  0
LINE
  5
299
100
AcDbEntity
100
AcDbLine
  8
support_2
 62
256
370
-1
  6
ByLayer
 10
289.0
 20
108.0
 30
0.0
 11
286.0
 21
108.0
 31
0.0
  0
LINE
  5
29A
100
AcDbEntity
100
AcDbLine
  8
base
 62
256
370
-1
  6
ByLayer
 10
138.0
 20
86.0
 30
0.0
 11
134.0
 21
86.0
 31
0.0
  0
LINE
  5
29B
100
AcDbEntity
100
AcDbLine
  8
base
 62
256
370
-1
  6
ByLayer
 10
134.0
 20
86.0
 30
0.0
 11
134.0
 21
90.0
 31
0.0
  0
LINE
  5
29C
100
AcDbEntity
100
AcDbLine
  8
base
 62
256
370
-1
  6
ByLayer
 10
134.0
 20
90.0
 30
0.0
 11
138.0
 21
90.0
 31
0.0
  0
LINE
  5
29D
100
AcDbEntity
100
AcDbLine
  8
base
 62
256
370
-1
  6
ByLayer
 10
138.0
 20
90.0
 30
0.0
 11
138.0
 21
86.0
 31
0.0
  0
LINE
  5
29E
100
AcDbEntity
100
AcDbLine
  8
base
 62
256
370
-1
  6
ByLayer
 10
138.0
 20
23.0
 30
0.0
 11
134.0
 21
23.0
 31
0.0
  0
LINE
  5
29F
100
AcDbEntity
100
AcDbLine
  8
base
 62
256
370
-1
  6
ByLayer
 10
134.0
 20
23.0
 30
0.0
 11
134.0
 21
27.0
 31
0.0
  0
LINE
  5
2A0
100
AcDbEntity
100
AcDbLine
  8
base
 62
256
370
-1
  6
ByLayer
 10
134.0
 20
27.0
 30
0.0
 11
138.0
 21
27.0
 31
0.0
  0
LINE
  5
2A1
100
AcDbEntity
100
AcDbLine
  8
base
 62
256
370
-1
  6
ByLayer
 10
138.0
 20
27.0
 30
0.0
 11
138.0
 21
23.0
 31
0.0
  0
LINE
  5
2A2
100
AcDbEntity
100
AcDbLine
  8
side_south
 62
256
370
-1
  6
ByLayer
 10
48.6000000000000014
 20
-31.4000000000000021
 30
0.0
 11
48.6000000000000014
 21
-23.9000000000000057
 31
0.0
  0
LINE
  5
2A3
100
AcDbEntity
100
AcDbLine
  8
side_south
 62
256
370
-1
  6
ByLayer
 10
39.2000000000000028
 20
-31.4000000000000021
 30
0.0
 11
48.6000000000000014
 21
-31.4000000000000021
 31
0.0
  0
LINE
  5
2A4
100
AcDbEntity
100
AcDbLine
  8
side_south
 62
256
370
-1
  6
ByLayer
 10
39.2000000000000028
 20
-23.9000000000000057
 30
0.0
 11
39.2000000000000028
 21
-31.4000000000000021
 31
0.0
  0
LINE
  5
2A5
100
AcDbEntity
100
AcDbLine
  8
side_south
 62
256
370
-1
  6
ByLayer
 10
48.6000000000000014
 20
-23.9000000000000057
 30
0.0
 11
39.2000000000000028
 21
-23.9000000000000057
 31
0.0
  0
LINE
  5
2A6
100
AcDbEntity
100
AcDbLine
  8
side_cuts
 62
256
370
-1
  6
ByLayer
 10
39.2000000000000028
 20
-26.0000000000000036
 30
0.0
 11
24.0
 21
-26.0
 31
0.0
  0
LINE
  5
2A7
100
AcDbEntity
100
AcDbLine
  8
side_south
 62
256
370
-1
  6
ByLayer
 10
89.0000000000000142
 20
-22.9000000000000021
 30
0.0
 11
89.0000000000000142
 21
-31.4000000000000021
 31
0.0
  0
LINE
  5
2A8
100
AcDbEntity
100
AcDbLine
  8
side_south
 62
256
370
-1
  6
ByLayer
 10
95.1000000000000085
 20
-22.9000000000000021
 30
0.0
 11
89.0000000000000142
 21
-22.9000000000000021
 31
0.0
  0
LINE
  5
2A9
100
AcDbEntity
100
AcDbLine
  8
side_south
 62
256
370
-1
  6
ByLayer
 10
104.4000000000000199
 20
-22.9000000000000021
 30
0.0
 11
96.7000000000000028
 21
-22.9000000000000021
 31
0.0
  0
LINE
  5
2AA
100
AcDbEntity
100
AcDbLine
  8
side_south
 62
256
370
-1
  6
ByLayer
 10
89.0000000000000142
 20
-31.4000000000000021
 30
0.0
 11
104.4000000000000199
 21
-31.4000000000000021
 31
0.0
  0
LINE
  5
2AB
100
AcDbEntity
100
AcDbLine
  8
side_south
 62
256
370
-1
  6
ByLayer
 10
104.4000000000000199
 20
-31.4000000000000021
 30
0.0
 11
104.4000000000000199
 21
-22.9000000000000021
 31
0.0
  0
LINE
  5
2AC
100
AcDbEntity
100
AcDbLine
  8
side_south
 62
256
370
-1
  6
ByLayer
 10
107.0000000000000142
 20
-22.9000000000000021
 30
0.0
 11
107.0000000000000142
 21
-31.4000000000000057
 31
0.0
  0
LINE
  5
2AD
100
AcDbEntity
100
AcDbLine
  8
side_south
 62
256
370
-1
  6
ByLayer
 10
113.1000000000000085
 20
-22.9000000000000021
 30
0.0
 11
107.0000000000000142
 21
-22.9000000000000021
 31
0.0
  0
LINE
  5
2AE
100
AcDbEntity
100
AcDbLine
  8
side_south
 62
256
370
-1
  6
ByLayer
 10
107.0000000000000142
 20
-31.4000000000000057
 30
0.0
 11
122.4000000000000199
 21
-31.3999999999999986
 31
0.0
  0
LINE
  5
2AF
100
AcDbEntity
100
AcDbLine
  8
side_south
 62
256
370
-1
  6
ByLayer
 10
122.4000000000000199
 20
-31.3999999999999986
 30
0.0
 11
122.4000000000000057
 21
-22.9000000000000021
 31
0.0
  0
LINE
  5
2B0
100
AcDbEntity
100
AcDbLine
  8
side_south
 62
256
370
-1
  6
ByLayer
 10
122.4000000000000057
 20
-22.9000000000000021
 30
0.0
 11
114.7000000000000171
 21
-22.9000000000000021
 31
0.0
  0
LINE
  5
2B1
100
AcDbEntity
100
AcDbLine
  8
side_south
 62
256
370
-1
  6
ByLayer
 10
53.0
 20
-22.9000000000000021
 30
0.0
 11
53.0
 21
-31.4000000000000057
 31
0.0
  0
LINE
  5
2B2
100
AcDbEntity
100
AcDbLine
  8
side_south
 62
256
370
-1
  6
ByLayer
 10
59.1000000000000014
 20
-22.9000000000000057
 30
0.0
 11
53.0
 21
-22.9000000000000021
 31
0.0
  0
LINE
  5
2B3
100
AcDbEntity
100
AcDbLine
  8
side_south
 62
256
370
-1
  6
ByLayer
 10
68.4000000000000057
 20
-22.9000000000000021
 30
0.0
 11
60.6999999999999957
 21
-22.9000000000000021
 31
0.0
  0
LINE
  5
2B4
100
AcDbEntity
100
AcDbLine
  8
side_south
 62
256
370
-1
  6
ByLayer
 10
53.0
 20
-31.4000000000000057
 30
0.0
 11
68.4000000000000057
 21
-31.4000000000000021
 31
0.0
  0
LINE
  5
2B5
100
AcDbEntity
100
AcDbLine
  8
side_south
 62
256
370
-1
  6
ByLayer
 10
68.4000000000000057
 20
-31.4000000000000021
 30
0.0
 11
68.4000000000000057
 21
-22.9000000000000021
 31
0.0
  0
LINE
  5
2B6
100
AcDbEntity
100
AcDbLine
  8
side_south
 62
256
370
-1
  6
ByLayer
 10
71.0
 20
-22.9000000000000021
 30
0.0
 11
71.0000000000000142
 21
-31.4000000000000021
 31
0.0
  0
LINE
  5
2B7
100
AcDbEntity
100
AcDbLine
  8
side_south
 62
256
370
-1
  6
ByLayer
 10
77.1000000000000085
 20
-22.9000000000000021
 30
0.0
 11
71.0
 21
-22.9000000000000021
 31
0.0
  0
LINE
  5
2B8
100
AcDbEntity
100
AcDbLine
  8
side_south
 62
256
370
-1
  6
ByLayer
 10
78.7000000000000028
 20
-22.9000000000000021
 30
0.0
 11
86.3999999999999915
 21
-22.9000000000000021
 31
0.0
  0
LINE
  5
2B9
100
AcDbEntity
100
AcDbLine
  8
side_south
 62
256
370
-1
  6
ByLayer
 10
71.0000000000000142
 20
-31.4000000000000021
 30
0.0
 11
86.4000000000000057
 21
-31.4000000000000057
 31
0.0
  0
LINE
  5
2BA
100
AcDbEntity
100
AcDbLine
  8
side_south
 62
256
370
-1
  6
ByLayer
 10
86.4000000000000057
 20
-31.4000000000000057
 30
0.0
 11
86.3999999999999915
 21
-22.9000000000000021
 31
0.0
  0
LINE
  5
2BB
100
AcDbEntity
100
AcDbLine
  8
side_cuts
 62
256
370
-1
  6
ByLayer
 10
176.0
 20
-26.0
 30
0.0
 11
122.4000000000000199
 21
-26.0
 31
0.0
  0
LINE
  5
2BC
100
AcDbEntity
100
AcDbLine
  8
side_cuts
 62
256
370
-1
  6
ByLayer
 10
53.0
 20
-27.0000000000000071
 30
0.0
 11
48.6000000000000014
 21
-27.0000000000000071
 31
0.0
  0
LINE
  5
2BD
100
AcDbEntity
100
AcDbLine
  8
side_cuts
 62
256
370
-1
  6
ByLayer
 10
71.0
 20
-27.0000000000000036
 30
0.0
 11
68.4000000000000057
 21
-27.0000000000000071
 31
0.0
  0
LINE
  5
2BE
100
AcDbEntity
100
AcDbLine
  8
side_cuts
 62
256
370
-1
  6
ByLayer
 10
89.0000000000000142
 20
-27.0000000000000071
 30
0.0
 11
86.4000000000000199
 21
-27.0000000000000071
 31
0.0
  0
LINE
  5
2BF
100
AcDbEntity
100
AcDbLine
  8
side_cuts
 62
256
370
-1
  6
ByLayer
 10
107.0000000000000142
 20
-27.0000000000000036
 30
0.0
 11
104.4000000000000057
 21
-27.0000000000000036
 31
0.0
  0
LINE
  5
2C0
100
AcDbEntity
100
AcDbLine
  8
support_3
 62
256
370
-1
  6
ByLayer
 10
256.0
 20
49.0
 30
0.0
 11
268.9000000000000341
 21
49.0
 31
0.0
  0
LINE
  5
2C1
100
AcDbEntity
100
AcDbLine
  8
support_3
 62
256
370
-1
  6
ByLayer
 10
271.3999999999999773
 20
12.0000000000000018
 30
0.0
 11
256.0
 21
12.0000000000000018
 31
0.0
  0
LINE
  5
2C2
100
AcDbEntity
100
AcDbLine
  8
support_3
 62
256
370
-1
  6
ByLayer
 10
256.0
 20
12.0000000000000018
 30
0.0
 11
256.0
 21
49.0
 31
0.0
  0
LINE
  5
2C3
100
AcDbEntity
100
AcDbLine
  8
side_east
 62
256
370
-1
  6
ByLayer
 10
216.9000000000000341
 20
21.4999999999999964
 30
0.0
 11
216.9000000000000057
 21
27.7000000000000028
 31
0.0
  0
LINE
  5
2C4
100
AcDbEntity
100
AcDbLine
  8
side_east
 62
256
370
-1
  6
ByLayer
 10
216.9000000000000057
 20
27.7000000000000028
 30
0.0
 11
231.4000000000000341
 21
27.7000000000000028
 31
0.0
  0
LINE
  5
2C5
100
AcDbEntity
100
AcDbLine
  8
side_east
 62
256
370
-1
  6
ByLayer
 10
216.9000000000000341
 20
11.8000000000000007
 30
0.0
 11
216.9000000000000341
 21
19.4999999999999964
 31
0.0
  0
LINE
  5
2C6
100
AcDbEntity
100
AcDbLine
  8
side_east
 62
256
370
-1
  6
ByLayer
 10
231.4000000000000057
 20
11.8000000000000007
 30
0.0
 11
216.9000000000000341
 21
11.8000000000000007
 31
0.0
  0
LINE
  5
2C7
100
AcDbEntity
100
AcDbLine
  8
side_east
 62
256
370
-1
  6
ByLayer
 10
231.4000000000000341
 20
27.7000000000000028
 30
0.0
 11
231.4000000000000057
 21
11.8000000000000007
 31
0.0
  0
LINE
  5
2C8
100
AcDbEntity
100
AcDbLine
  8
side_cuts
 62
256
370
-1
  6
ByLayer
 10
223.0
 20
11.8000000000000025
 30
0.0
 11
223.0
 21
0.0
 31
0.0
  0
LINE
  5
2C9
100
AcDbEntity
100
AcDbLine
  8
side_cuts
 62
256
370
-1
  6
ByLayer
 10
223.0000000000000284
 20
33.0
 30
0.0
 11
223.0
 21
27.6999999999999993
 31
0.0
  0
LINE
  5
2CA
100
AcDbEntity
100
AcDbLine
  8
top_inner
 62
256
370
-1
  6
ByLayer
 10
31.9999999999999964
 20
282.75
 30
0.0
 11
40.25
 21
282.7500000000000568
 31
0.0
  0
LINE
  5
2CB
100
AcDbEntity
100
AcDbLine
  8
top_inner
 62
256
370
-1
  6
ByLayer
 10
32.0
 20
280.0
 30
0.0
 11
46.0
 21
280.0
 31
0.0
  0
LINE
  5
2CC
100
AcDbEntity
100
AcDbLine
  8
top_inner
 62
256
370
-1
  6
ByLayer
 10
130.0
 20
280.0
 30
0.0
 11
148.0
 21
280.0
 31
0.0
  0
LINE
  5
2CD
100
AcDbEntity
100
AcDbLine
  8
top_inner
 62
256
370
-1
  6
ByLayer
 10
152.0
 20
280.0
 30
0.0
 11
180.0
 21
280.0
 31
0.0
  0
LINE
  5
2CE
100
AcDbEntity
100
AcDbLine
  8
top_inner
 62
256
370
-1
  6
ByLayer
 10
148.0
 20
375.0
 30
0.0
 11
130.0
 21
375.0
 31
0.0
  0
LINE
  5
2CF
100
AcDbEntity
100
AcDbLine
  8
top_inner
 62
256
370
-1
  6
ByLayer
 10
180.0
 20
375.0
 30
0.0
 11
152.0
 21
375.0
 31
0.0
  0
LINE
  5
2D0
100
AcDbEntity
100
AcDbLine
  8
top_inner
 62
256
370
-1
  6
ByLayer
 10
28.0
 20
375.0
 30
0.0
 11
20.0
 21
375.0
 31
0.0
  0
LINE
  5
2D1
100
AcDbEntity
100
AcDbLine
  8
top_inner
 62
256
370
-1
  6
ByLayer
 10
60.0
 20
375.0
 30
0.0
 11
32.0
 21
375.0
 31
0.0
  0
LINE
  5
2D2
100
AcDbEntity
100
AcDbLine
  8
top_inner
 62
256
370
-1
  6
ByLayer
 10
20.0
 20
364.0
 30
0.0
 11
20.0
 21
346.5
 31
0.0
  0
LINE
  5
2D3
100
AcDbEntity
100
AcDbLine
  8
top_inner
 62
256
370
-1
  6
ByLayer
 10
20.0
 20
342.5
 30
0.0
 11
20.0
 21
321.0
 31
0.0
  0
LINE
  5
2D4
100
AcDbEntity
100
AcDbLine
  8
top_inner
 62
256
370
-1
  6
ByLayer
 10
21.5
 20
342.5
 30
0.0
 11
21.5
 21
341.25
 31
0.0
  0
LINE
  5
2D5
100
AcDbEntity
100
AcDbLine
  8
top_inner
 62
256
370
-1
  6
ByLayer
 10
21.5
 20
349.25
 30
0.0
 11
21.5
 21
346.5
 31
0.0
  0
LINE
  5
2D6
100
AcDbEntity
100
AcDbLine
  8
top_inner
 62
256
370
-1
  6
ByLayer
 10
24.25
 20
298.75
 30
0.0
 11
24.25
 21
294.0
 31
0.0
  0
LINE
  5
2D7
100
AcDbEntity
100
AcDbLine
  8
top_inner
 62
256
370
-1
  6
ByLayer
 10
20.0
 20
317.0
 30
0.0
 11
20.0
 21
294.0
 31
0.0
  0
LINE
  5
2D8
100
AcDbEntity
100
AcDbLine
  8
top_inner
 62
256
370
-1
  6
ByLayer
 10
180.0
 20
306.0
 30
0.0
 11
180.0
 21
322.0
 31
0.0
  0
LINE
  5
2D9
100
AcDbEntity
100
AcDbLine
  8
top_inner
 62
256
370
-1
  6
ByLayer
 10
180.0
 20
280.0
 30
0.0
 11
180.0
 21
302.0
 31
0.0
  0
LINE
  5
2DA
100
AcDbEntity
100
AcDbLine
  8
top_inner
 62
256
370
-1
  6
ByLayer
 10
180.0
 20
346.5
 30
0.0
 11
180.0
 21
365.0
 31
0.0
  0
LINE
  5
2DB
100
AcDbEntity
100
AcDbLine
  8
top_inner
 62
256
370
-1
  6
ByLayer
 10
180.0
 20
326.0
 30
0.0
 11
180.0
 21
342.5
 31
0.0
  0
LINE
  5
2DC
100
AcDbEntity
100
AcDbLine
  8
top_inner
 62
256
370
-1
  6
ByLayer
 10
148.0
 20
375.0
 30
0.0
 11
148.0
 21
373.0
 31
0.0
  0
LINE
  5
2DD
100
AcDbEntity
100
AcDbLine
  8
top_inner
 62
256
370
-1
  6
ByLayer
 10
148.0
 20
373.0
 30
0.0
 11
152.0
 21
373.0
 31
0.0
  0
LINE
  5
2DE
100
AcDbEntity
100
AcDbLine
  8
top_inner
 62
256
370
-1
  6
ByLayer
 10
152.0
 20
373.0
 30
0.0
 11
152.0
 21
375.0
 31
0.0
  0
LINE
  5
2DF
100
AcDbEntity
100
AcDbLine
  8
top_inner
 62
256
370
-1
  6
ByLayer
 10
28.0
 20
375.0
 30
0.0
 11
28.0
 21
373.0
 31
0.0
  0
LINE
  5
2E0
100
AcDbEntity
100
AcDbLine
  8
top_inner
 62
256
370
-1
  6
ByLayer
 10
28.0
 20
373.0
 30
0.0
 11
32.0
 21
373.0
 31
0.0
  0
LINE
  5
2E1
100
AcDbEntity
100
AcDbLine
  8
top_inner
 62
256
370
-1
  6
ByLayer
 10
32.0
 20
373.0
 30
0.0
 11
32.0
 21
375.0
 31
0.0
  0
LINE
  5
2E2
100
AcDbEntity
100
AcDbLine
  8
top_inner
 62
256
370
-1
  6
ByLayer
 10
148.0
 20
280.0
 30
0.0
 11
148.0
 21
282.0
 31
0.0
  0
LINE
  5
2E3
100
AcDbEntity
100
AcDbLine
  8
top_inner
 62
256
370
-1
  6
ByLayer
 10
148.0
 20
282.0
 30
0.0
 11
152.0
 21
282.0
 31
0.0
  0
LINE
  5
2E4
100
AcDbEntity
100
AcDbLine
  8
top_inner
 62
256
370
-1
  6
ByLayer
 10
152.0
 20
282.0
 30
0.0
 11
152.0
 21
280.0
 31
0.0
  0
LINE
  5
2E5
100
AcDbEntity
100
AcDbLine
  8
top_inner
 62
256
370
-1
  6
ByLayer
 10
32.0
 20
280.0
 30
0.0
 11
32.0
 21
282.75
 31
0.0
  0
LINE
  5
2E6
100
AcDbEntity
100
AcDbLine
  8
top_inner
 62
256
370
-1
  6
ByLayer
 10
20.0
 20
342.5
 30
0.0
 11
21.5
 21
342.5
 31
0.0
  0
LINE
  5
2E7
100
AcDbEntity
100
AcDbLine
  8
top_inner
 62
256
370
-1
  6
ByLayer
 10
21.5
 20
346.5
 30
0.0
 11
20.0
 21
346.5
 31
0.0
  0
LINE
  5
2E8
100
AcDbEntity
100
AcDbLine
  8
top_inner
 62
256
370
-1
  6
ByLayer
 10
24.25
 20
294.0000000000000568
 30
0.0
 11
20.0
 21
294.0
 31
0.0
  0
LINE
  5
2E9
100
AcDbEntity
100
AcDbLine
  8
top_inner
 62
256
370
-1
  6
ByLayer
 10
180.0
 20
302.0
 30
0.0
 11
178.0
 21
302.0
 31
0.0
  0
LINE
  5
2EA
100
AcDbEntity
100
AcDbLine
  8
top_inner
 62
256
370
-1
  6
ByLayer
 10
178.0
 20
302.0
 30
0.0
 11
178.0
 21
306.0
 31
0.0
  0
LINE
  5
2EB
100
AcDbEntity
100
AcDbLine
  8
top_inner
 62
256
370
-1
  6
ByLayer
 10
178.0
 20
306.0
 30
0.0
 11
180.0
 21
306.0
 31
0.0
  0
LINE
  5
2EC
100
AcDbEntity
100
AcDbLine
  8
top_inner
 62
256
370
-1
  6
ByLayer
 10
180.0000000000000284
 20
342.5
 30
0.0
 11
178.0000000000000284
 21
342.5
 31
0.0
  0
LINE
  5
2ED
100
AcDbEntity
100
AcDbLine
  8
top_inner
 62
256
370
-1
  6
ByLayer
 10
178.0000000000000284
 20
342.5
 30
0.0
 11
178.0000000000000284
 21
346.5
 31
0.0
  0
LINE
  5
2EE
100
AcDbEntity
100
AcDbLine
  8
top_inner
 62
256
370
-1
  6
ByLayer
 10
178.0000000000000284
 20
346.5
 30
0.0
 11
180.0000000000000284
 21
346.5
 31
0.0
  0
LINE
  5
2EF
100
AcDbEntity
100
AcDbLine
  8
top
 62
256
370
-1
  6
ByLayer
 10
154.7000000000000171
 20
185.9000000000000057
 30
0.0
 11
174.3000000000000114
 21
185.9000000000000341
 31
0.0
  0
LINE
  5
2F0
100
AcDbEntity
100
AcDbLine
  8
top
 62
256
370
-1
  6
ByLayer
 10
174.3000000000000114
 20
185.9000000000000341
 30
0.0
 11
174.3000000000000114
 21
191.5
 31
0.0
  0
LINE
  5
2F1
100
AcDbEntity
100
AcDbLine
  8
top
 62
256
370
-1
  6
ByLayer
 10
174.3000000000000114
 20
191.5
 30
0.0
 11
154.7000000000000171
 21
191.5
 31
0.0
  0
LINE
  5
2F2
100
AcDbEntity
100
AcDbLine
  8
top
 62
256
370
-1
  6
ByLayer
 10
154.7000000000000171
 20
191.5
 30
0.0
 11
154.7000000000000171
 21
185.9000000000000057
 31
0.0
  0
LINE
  5
2F3
100
AcDbEntity
100
AcDbLine
  8
side_cuts
 62
256
370
-1
  6
ByLayer
 10
51.0
 20
136.0
 30
0.0
 11
51.0
 21
131.0
 31
0.0
  0
LINE
  5
2F4
100
AcDbEntity
100
AcDbLine
  8
side_cuts
 62
256
370
-1
  6
ByLayer
 10
51.0
 20
131.0
 30
0.0
 11
86.0
 21
131.0
 31
0.0
  0
LINE
  5
2F5
100
AcDbEntity
100
AcDbLine
  8
side_cuts
 62
256
370
-1
  6
ByLayer
 10
86.0
 20
131.0
 30
0.0
 11
86.0
 21
136.0
 31
0.0
  0
LINE
  5
2F6
100
AcDbEntity
100
AcDbLine
  8
top_inner
 62
256
370
-1
  6
ByLayer
 10
154.7000000000000171
 20
299.9000000000000341
 30
0.0
 11
174.3000000000000114
 21
299.9000000000000909
 31
0.0
  0
LINE
  5
2F7
100
AcDbEntity
100
AcDbLine
  8
top_inner
 62
256
370
-1
  6
ByLayer
 10
174.3000000000000114
 20
299.9000000000000909
 30
0.0
 11
174.3000000000000114
 21
305.5
 31
0.0
  0
LINE
  5
2F8
100
AcDbEntity
100
AcDbLine
  8
top_inner
 62
256
370
-1
  6
ByLayer
 10
174.3000000000000114
 20
305.5
 30
0.0
 11
154.7000000000000171
 21
305.5
 31
0.0
  0
LINE
  5
2F9
100
AcDbEntity
100
AcDbLine
  8
top_inner
 62
256
370
-1
  6
ByLayer
 10
154.7000000000000171
 20
305.5
 30
0.0
 11
154.7000000000000171
 21
299.9000000000000341
 31
0.0
  0
CIRCLE
  5
2FA
100
AcDbEntity
100
AcDbCircle
  8
top
 62
256
370
-1
  6
ByLayer
 10
137.25
 20
176.75
 30
0.0
 40
8.5
  0
CIRCLE
  5
2FB
100
AcDbEntity
100
AcDbCircle
  8
top
 62
256
370
-1
  6
ByLayer
 10
32.25
 20
176.75
 30
0.0
 40
8.5
  0
CIRCLE
  5
2FC
100
AcDbEntity
100
AcDbCircle
  8
top
 62
256
370
-1
  6
ByLayer
 10
144.0
 20
211.0
 30
0.0
 40
2.2999999999999998
  0
CIRCLE
  5
2FD
100
AcDbEntity
100
AcDbCircle
  8
top
 62
256
370
-1
  6
ByLayer
 10
144.0
 20
200.0
 30
0.0
 40
2.2999999999999998
  0
CIRCLE
  5
2FE
100
AcDbEntity
100
AcDbCircle
  8
top
 62
256
370
-1
  6
ByLayer
 10
25.5
 20
231.25
 30
0.0
 40
2.2999999999999998
  0
LINE
  5
2FF
100
AcDbEntity
100
AcDbLine
  8
support_2
 62
256
370
-1
  6
ByLayer
 10
226.0
 20
104.0
 30
0.0
 11
226.0
 21
33.0
 31
0.0
  0
ENDSEC
  0
SECTION
  2
OBJECTS
  0
DICTIONARY
  5
C
100
AcDbDictionary
280
0
281
1
  3
ACAD_GROUP
350
D
  3
ACAD_LAYOUT
350
1A
  3
ACAD_MLINESTYLE
350
17
  3
ACAD_PLOTSETTINGS
350
19
  3
ACAD_PLOTSTYLENAME
350
E
  3
AcDbVariableDictionary
350
300
  0
DICTIONARY
  5
D
100
AcDbDictionary
280
0
281
1
  0
ACDBDICTIONARYWDFLT
  5
E
100
AcDbDictionary
281
1
  3
Normal
350
F
100
AcDbDictionaryWithDefault
340
F
  0
ACDBPLACEHOLDER
  5
F
  0
DICTIONARY
  5
17
100
AcDbDictionary
280
0
281
1
  3
Standard
350
18
  0
MLINESTYLE
  5
18
100
AcDbMlineStyle
  2
STANDARD
 70
0
  3

 62
256
 51
90.0
 52
90.0
 71
2
 49
0.5
 62
256
  6
BYLAYER
 49
-0.5
 62
256
  6
BYLAYER
  0
DICTIONARY
  5
19
100
AcDbDictionary
280
0
281
1
  0
DICTIONARY
  5
1A
100
AcDbDictionary
281
1
  3
Layout1
350
1E
  3
Layout2
350
26
  3
Model
350
22
  0
LAYOUT
  5
1E
100
AcDbPlotSettings
  1

  2
C:\Program Files\AutoCAD 2002\plotters\DWF ePlot (optimized for plotting).pc3
  4

  6

 40
0.0
 41
0.0
 42
0.0
 43
0.0
 44
0.0
 45
0.0
 46
0.0
 47
0.0
 48
0.0
 49
0.0
140
0.0
141
0.0
142
1.0
143
1.0
 70
688
 72
0
 73
0
 74
5
  7

 75
16
147
1.0
148
0.0
149
0.0
100
AcDbLayout
  1
Layout1
 70
1
 71
1
 10
0.0
 20
0.0
 11
420.0
 21
297.0
 12
0.0
 22
0.0
 32
0.0
 14
100000000000000000000.0
 24
100000000000000000000.0
 34
100000000000000000000.0
 15
-100000000000000000000.0
 25
-100000000000000000000.0
 35
-100000000000000000000.0
146
0.0
 13
0.0
 23
0.0
 33
0.0
 16
1.0
 26
0.0
 36
0.0
 17
0.0
 27
1.0
 37
0.0
 76
0
330
1B
  0
LAYOUT
  5
22
100
AcDbPlotSettings
  1

  2
C:\Program Files\AutoCAD 2002\plotters\DWF ePlot (optimized for plotting).pc3
  4

  6

 40
0.0
 41
0.0
 42
0.0
 43
0.0
 44
0.0
 45
0.0
 46
0.0
 47
0.0
 48
0.0
 49
0.0
140
0.0
141
0.0
142
1.0
143
1.0
 70
1712
 72
0
 73
0
 74
0
  7

 75
0
147
1.0
148
0.0
149
0.0
100
AcDbLayout
  1
Model
 70
1
 71
0
 10
0.0
 20
0.0
 11
12.0
 21
9.0
 12
0.0
 22
0.0
 32
0.0
 14
0.0
 24
0.0
 34
0.0
 15
0.0
 25
0.0
 35
0.0
146
0.0
 13
0.0
 23
0.0
 33
0.0
 16
1.0
 26
0.0
 36
0.0
 17
0.0
 27
1.0
 37
0.0
 76
0
330
1F
  0
LAYOUT
  5
26
100
AcDbPlotSettings
  1

  2
C:\Program Files\AutoCAD 2002\plotters\DWF ePlot (optimized for plotting).pc3
  4

  6

 40
0.0
 41
0.0
 42
0.0
 43
0.0
 44
0.0
 45
0.0
 46
0.0
 47
0.0
 48
0.0
 49
0.0
140
0.0
141
0.0
142
1.0
143
1.0
 70
688
 72
0
 73
0
 74
5
  7

 75
16
147
1.0
148
0.0
149
0.0
100
AcDbLayout
  1
Layout2
 70
1
 71
2
 10
0.0
 20
0.0
 11
12.0
 21
9.0
 12
0.0
 22
0.0
 32
0.0
 14
0.0
 24
0.0
 34
0.0
 15
0.0
 25
0.0
 35
0.0
146
0.0
 13
0.0
 23
0.0
 33
0.0
 16
1.0
 26
0.0
 36
0.0
 17
0.0
 27
1.0
 37
0.0
 76
0
330
23
  0
DICTIONARY
  5
300
100
AcDbDictionary
281
1
  3
DIMASSOC
350
302
  3
HIDETEXT
350
301
  0
DICTIONARYVAR
  5
301
100
DictionaryVariables
280
0
  1
2
  0
DICTIONARYVAR
  5
302
100
DictionaryVariables
280
0
  1
1
  0
ENDSEC
  0
EOF
