M48
INCH
T11C0.020
T18C0.060
T57C0.040
T58C0.026
T66C0.035
T67C0.038
T74C0.067
T75C0.039
T76C0.098
T77C0.118
T78C0.138
T79C0.091
T80C0.047
%
T11
X017913Y013307
X023464Y013307
X023110Y013779
X021259Y013504
X017283Y013582
X015826Y013385
X019330Y012795
X018031Y010826
X021220Y010826
X014606Y010472
X015669Y010551
X028110Y012047
X026850Y012047
X027755Y012441
X025590Y012441
X027283Y011614
X027322Y012834
X026771Y013189
X027362Y014606
X027834Y015354
X027283Y008464
X025000Y014921
X025905Y015590
X023307Y016574
X024015Y017283
X022716Y018582
X023543Y019409
X023110Y019015
X024842Y018110
X027007Y017204
X025354Y018858
X021181Y017007
X022480Y015748
X022007Y017874
X021614Y017480
X020315Y016063
X018976Y017598
X015787Y018661
X017086Y018661
X015787Y017362
X017086Y017322
X018976Y016968
X017086Y016063
X015433Y015472
X016417Y014409
X015039Y014173
X022047Y014488
X020708Y014055
X022047Y007322
X024645Y008464
X020275Y008779
X020039Y007834
X018582Y007834
X017283Y007834
X017283Y008700
X007913Y017007
X004488Y016614
X006417Y016614
X004566Y014291
X002165Y014330
X007559Y013858
X007126Y023346
X005315Y022362
X010039Y017362
X009133Y019881
X009803Y019370
X002126Y008858
X003070Y009291
X008818Y018385
X009803Y020511
X009803Y021732
X008700Y011378
X008700Y009645
X008740Y013189
X008740Y012637
X009409Y010629
X012007Y016338
X012913Y009881
X015551Y012795
X015787Y020078
X010629Y009921
X013818Y026614
X014645Y028307
X013070Y028385
X014015Y029094
X012677Y027165
X011929Y026614
X011968Y029133
X009409Y028976
X003385Y028661
X009409Y029842
X002519Y029960
X009409Y030708
X014606Y030944
X004409Y024173
X006299Y024173
X003425Y024370
X029685Y024015
X028149Y024252
X030315Y024842
X013543Y025118
X005196Y024881
X002480Y026259
X002480Y027441
X003779Y027441
X003779Y026259
X017637Y034567
X018189Y034567
X019015Y034842
X019527Y034842
X006023Y034685
X008543Y031929
X007992Y036023
X009291Y036023
X010590Y036023
X011850Y036023
X013346Y036023
X003937Y032322
X005433Y036023
X006732Y036023
X002519Y032795
X026496Y032204
X002519Y033937
X003346Y033700
X021102Y026614
X019133Y027716
X024921Y028937
X019527Y030590
X019015Y031535
X017637Y031535
X018189Y031141
X016850Y032086
X023779Y031378
X020708Y030196
X016850Y030000
X015905Y028661
X017834Y028385
X019960Y035236
X018976Y036181
X019881Y037165
X018622Y037165
X022874Y036338
X024960Y036338
X027126Y035590
X025708Y026929
X025708Y027401
X024094Y028464
X027874Y028307
X027952Y027401
X033149Y027126
X033149Y026653
X031889Y026692
X024960Y023661
X032322Y031299
X038661Y033740
X034763Y031023
X038661Y032322
X034606Y032441
X035196Y031811
X039881Y029488
X037598Y030000
X033425Y031023
X038661Y037047
X034566Y035196
X029960Y032755
X027952Y031850
X027480Y031850
X030944Y031771
X030472Y032086
X029960Y034527
X030944Y034527
X030472Y034527
X033228Y030433
X032007Y028661
X032441Y028779
X034921Y030315
X034685Y028779
X031417Y030433
X031574Y028779
X028818Y028700
X028622Y035472
X036496Y035196
X040787Y026929
X039881Y028464
X029173Y026063
X027952Y026063
X026732Y026063
X036417Y026220
X036850Y028425
X036259Y027244
X036850Y027952
X036771Y027244
X038070Y027834
X035118Y028110
X035118Y027283
X033622Y026889
X034488Y027755
X032322Y029567
X033346Y027952
X032677Y024527
X033504Y025354
X032519Y023819
X035708Y025590
X034842Y025905
X036456Y028779
X038504Y025866
X038976Y025866
X037204Y024330
X036082Y023799
X039881Y021338
X039881Y022007
X041456Y021338
X040669Y020708
X039881Y022677
X041456Y022677
X041456Y022007
X040669Y023110
X010984Y005984
X012401Y006220
X015748Y006338
X015748Y005590
X012126Y003897
X010669Y001574
X011850Y001574
X014606Y007834
X014606Y008700
X013464Y007165
X013464Y006220
X015748Y007086
X011929Y007992
X008385Y003779
X008385Y002677
X008385Y001574
X009566Y001574
X004724Y003740
X005866Y004527
X012992Y001574
X007165Y001574
X005984Y001574
X004881Y001574
X010157Y005669
X005826Y005905
X003346Y006692
X011378Y008740
X012637Y008740
X008189Y007992
X009409Y007992
X009409Y009291
X010787Y007992
X008110Y006456
X009291Y006456
X009370Y005275
X032086Y013425
X030905Y015669
X032716Y013543
X032716Y013976
X028976Y013858
X030511Y014055
X029763Y015984
X028307Y016338
X031535Y017165
X030315Y018346
X033070Y012598
X034488Y012047
X035157Y012519
X037755Y011889
X037362Y012165
X038504Y012716
X037244Y012716
X038149Y013149
X037795Y013504
X037441Y013858
X037086Y014252
X036732Y014606
X036378Y014960
X036023Y015275
X032519Y008897
X033189Y008070
X033661Y007519
X034448Y007519
X029606Y007913
X024803Y020669
X025629Y021496
X026338Y022204
X025236Y021102
X026102Y019370
X026929Y020236
X029055Y019370
X027637Y020905
X027165Y023031
X028464Y021771
X026732Y022637
X029685Y023504
X031338Y022441
X022401Y021811
X035472Y015944
X035649Y018956
X037952Y022204
X037952Y021496
X037952Y020826
X037952Y020118
X037322Y020472
X039527Y016850
X040433Y016850
X034232Y020413
X034881Y020413
X034291Y022500
X034252Y023031
X032637Y022027
X032795Y023110
X033622Y023110
X050531Y007204
X050137Y007204
X047126Y006771
X047874Y006771
X048582Y006771
X050137Y007598
X050531Y007598
X050531Y007992
X050137Y007992
X050137Y008385
X050531Y008385
X029881Y005354
X031102Y007322
X046850Y007362
X041574Y007637
X042874Y007637
X044055Y007637
X044291Y008425
X045708Y007559
X050137Y008779
X050531Y008779
X050531Y009173
X050137Y009173
X050531Y009567
X050137Y009567
X050531Y009960
X050137Y009960
X050531Y010354
X050925Y009960
X050925Y010354
X047598Y009252
X045196Y009212
X053681Y010354
X053287Y010354
X051318Y009960
X051712Y009960
X052106Y009960
X051318Y010354
X051712Y010354
X052106Y010354
X052500Y010354
X052893Y010354
X048976Y010590
X052500Y009960
X052893Y009960
X053287Y009960
X053681Y009960
X045866Y010630
X053681Y010748
X053287Y010748
X052893Y010748
X052500Y010748
X052106Y010748
X051712Y010748
X051318Y010748
X052795Y012716
X052795Y012322
X052401Y012322
X052795Y011929
X052795Y011535
X052401Y011929
X052401Y011535
X053267Y015590
X053267Y015118
X053267Y014645
X052598Y014921
X054645Y016338
X056417Y014803
X056535Y015236
X056574Y013700
X043267Y013779
X046653Y014763
X044842Y018740
X046417Y016535
X045826Y018779
X045826Y017716
X047834Y012874
X049173Y014763
X049173Y017834
X033385Y013543
X042775Y014094
X042736Y016397
X041850Y016850
X040905Y017303
X039133Y017539
X037204Y017893
X029291Y011023
X034763Y011456
X039291Y010354
X041653Y010551
X042283Y011496
X042637Y011141
X042952Y010826
X041968Y010196
X042283Y009842
X060196Y006220
X060196Y005826
X060196Y005433
X059803Y005826
X059803Y005433
X059803Y005039
X060196Y005039
X060196Y004645
X059803Y004645
X059409Y004803
X059173Y005118
X059409Y005433
X061456Y005334
X061850Y005728
X061850Y005334
X061456Y005728
X061456Y006122
X061850Y006122
X061456Y006535
X060669Y006693
X061456Y006929
X061456Y007322
X061063Y007086
X061063Y006693
X061850Y006535
X061850Y006929
X062283Y006732
X062677Y006732
X062677Y007126
X061850Y007322
X061850Y007716
X062283Y007126
X062283Y007519
X062677Y007519
X063622Y003563
X063622Y002775
X063622Y002382
X063622Y001988
X063622Y001594
X063622Y003169
X059881Y001594
X059881Y001988
X059881Y002382
X059881Y002775
X059881Y003169
X059881Y003563
X059488Y002775
X059488Y002382
X059488Y003563
X059488Y003169
X059488Y001594
X059488Y001988
X059094Y001988
X059094Y001594
X058700Y001594
X058700Y001988
X059094Y002382
X058700Y002382
X059094Y002775
X058700Y002775
X058700Y003169
X059094Y003169
X059094Y003563
X062283Y007913
X062677Y007913
X062992Y009763
X047992Y036771
X047992Y035866
X047992Y033976
X047992Y034960
X045984Y036771
X045984Y037716
X047007Y036771
X047007Y035866
X047007Y037716
X044960Y037716
X045826Y028622
X043818Y027834
X041417Y027874
X043110Y027795
X039881Y028976
X043346Y029094
X040354Y029488
X043503Y023110
X045826Y023149
X045826Y022086
X043503Y020708
X045826Y021063
X045826Y020000
X044685Y023858
X044685Y022913
X044685Y021063
X044685Y020551
X047598Y022165
X048937Y026279
X050472Y020078
X051338Y022519
X048503Y026181
X054173Y020354
X047007Y021535
X047992Y030236
X047992Y031181
X049055Y030236
X049055Y031181
X047992Y032126
X047992Y033070
X049055Y032126
X049055Y033070
X049055Y033976
X049055Y034960
X049055Y035866
X049055Y036771
X049055Y037716
X047992Y037716
T58
X038177Y010851
X038177Y010351
X033677Y009101
X034177Y009101
X034677Y009101
X033677Y010851
X033677Y010351
X034177Y010851
X034177Y010351
X035177Y009101
X035677Y009101
X036177Y009101
X036677Y009101
X035177Y008601
X035677Y008601
X036177Y008601
X036677Y008601
X037177Y009101
X037677Y009101
X038177Y009101
X037177Y008601
X037677Y008601
X038177Y008601
X034677Y010851
X034677Y010351
X035177Y010351
X035677Y010351
X035177Y010851
X035677Y010851
X036177Y010851
X036677Y010851
X037177Y010851
X037677Y010851
X036177Y010351
X036677Y010351
X037177Y010351
X037677Y010351
X033677Y008601
X034177Y008601
X034677Y008601
T66
X005319Y014071
X005319Y012071
X005319Y013071
X005319Y011071
X006319Y014571
X006319Y012571
X006319Y011571
X006319Y013571
X005319Y021665
X005319Y019665
X005319Y020665
X005319Y018665
X006319Y022165
X006319Y020165
X006319Y019165
X006319Y021165
X060669Y004763
X061299Y004763
X062637Y004744
X061948Y004744
T67
X008346Y019362
X008346Y020362
X008346Y021362
X008346Y022362
T75
X057748Y022165
X055748Y022165
X047381Y008188
X048366Y008188
X046397Y008188
X048366Y002480
X046397Y002480
X006043Y008189
X007027Y008189
X005059Y008189
X007027Y002480
X005059Y002480
X012141Y015421
X011141Y015421
X011141Y014421
X011141Y013421
X012141Y014421
X012141Y013421
X012141Y012421
X012141Y011421
X012141Y010421
X012141Y009421
X011141Y012421
X011141Y011421
X011141Y010421
X011141Y009421
T57
X026777Y009151
X027777Y009151
X028777Y009151
X029777Y009151
X030777Y009151
X031777Y009151
X028777Y010151
X029777Y010151
X030777Y010151
X031777Y010151
X018777Y010151
X019777Y010151
X020777Y010151
X019777Y009151
X020777Y009151
X021777Y009151
X022777Y009151
X023777Y009151
X024777Y009151
X025777Y009151
X025777Y010151
X026777Y010151
X027777Y010151
X018777Y009151
X021777Y010151
X022777Y010151
X023777Y010151
X024777Y010151
T80
X011378Y002716
X009878Y002716
T18
X055035Y006736
X058035Y006736
X055035Y003736
X058035Y003736
X032913Y003484
X029960Y003484
X037047Y003484
X039999Y003484
X025827Y003484
X022874Y003484
X018740Y003484
X015787Y003484
T74
X052527Y021673
X054086Y021673
T79
X049586Y005236
X045177Y005236
X008248Y005236
X003838Y005236
X003818Y029696
X003818Y034870
T76
X058897Y017933
X057322Y017933
X055354Y017933
X060866Y017933
X060866Y009960
X058897Y009960
X057322Y009960
X055354Y009960
T77
X062637Y014643
X061437Y012714
T78
X060275Y014643
M30
