G04 start of page 9 for group -4079 idx -4079 *
G04 Title: Power Board, topsilk *
G04 Creator: pcb 1.99z *
G04 CreationDate: Thu 09 Sep 2010 23:06:34 GMT UTC *
G04 For: rbarlow *
G04 Format: Gerber/RS-274X *
G04 PCB-Dimensions: 653543 393701 *
G04 PCB-Coordinate-Origin: lower left *
%MOIN*%
%FSLAX25Y25*%
%LNFRONTSILK*%
%ADD11C,0.0200*%
%ADD12C,0.0100*%
%ADD16C,0.0079*%
%ADD125C,0.0088*%
%ADD126C,0.0080*%
%ADD127C,0.0098*%
%ADD128C,0.0090*%
%ADD129C,0.0085*%
G54D12*X293307Y296063D02*Y298032D01*
X292126Y299213D01*
Y306693D01*
X290945Y307874D01*
G54D16*X313780Y284252D02*X294094D01*
G54D12*X269291Y299607D02*X271260D01*
X276378Y304725D01*
Y305512D01*
X377558Y297244D02*X378346Y298032D01*
X373228Y297244D02*X377558D01*
X317323Y238977D02*X315354D01*
G54D16*X313780Y253544D02*Y284252D01*
X294094Y253544D02*X313780D01*
X294094Y284252D02*Y253544D01*
X290157Y273229D02*Y247638D01*
G54D12*X291339Y268898D02*X292913Y270472D01*
G54D16*X268898Y273229D02*X290157D01*
Y247638D02*X268898D01*
Y273229D01*
G54D12*X258661Y271654D02*X252756D01*
G54D16*X240551Y60236D02*Y81496D01*
X252362D02*Y60236D01*
X240551D01*
Y81496D02*X252362D01*
X235432Y57874D02*X251574D01*
Y38977D01*
X235432D01*
X235433D02*X235432Y57874D01*
G54D12*X245669Y58662D02*Y59449D01*
G54D16*X455905Y155118D02*X445276D01*
G54D12*X538582Y148425D02*X542126D01*
X450394Y167323D02*Y168110D01*
G54D16*X459055Y183465D02*Y169292D01*
X442913D01*
X445276Y155118D02*Y166142D01*
X455905D01*
Y155118D01*
X442913Y183465D02*X459055D01*
X442913Y169292D02*Y183465D01*
G54D12*X535039Y144882D02*X538582Y148425D01*
X32283Y97638D02*X36220Y101575D01*
X36614D01*
X14961Y96851D02*Y112205D01*
X17717Y114961D01*
X21654Y112599D02*X24016D01*
X26772Y115355D01*
X35827Y144882D02*Y160630D01*
X21260Y243701D02*X25591D01*
X16535Y209055D02*Y208269D01*
X17323Y207481D01*
X25591Y243701D02*X30315Y238977D01*
X122047Y283465D02*X125984D01*
X127165Y282284D01*
X139370Y295276D02*X140551Y296457D01*
Y298819D01*
X56693Y182284D02*X55906D01*
X53543Y179921D01*
G54D16*X47638Y181496D02*Y192126D01*
G54D12*X55906Y191733D02*X48819D01*
X44094Y208662D02*Y207087D01*
G54D16*X35039Y192126D02*Y181496D01*
X47638D01*
Y192126D02*X35039D01*
X66929Y189764D02*X80315D01*
Y206299D01*
X66929D01*
Y189764D01*
G54D12*X65748Y197244D02*X61417D01*
X55906Y191733D01*
G54D125*X582676Y208101D02*X583781Y209206D01*
X585991D01*
X587096Y208101D01*
Y201471D01*
X585991Y200366D02*X587096Y201471D01*
X583781Y200366D02*X585991D01*
X582676Y201471D02*X583781Y200366D01*
Y204786D02*X587096D01*
X589750Y209206D02*Y202576D01*
X591960Y200366D01*
X594170Y202576D01*
Y209206D02*Y202576D01*
X596824Y208101D02*X597929Y209206D01*
X600139D01*
X601244Y208101D01*
Y201471D01*
X600139Y200366D02*X601244Y201471D01*
X597929Y200366D02*X600139D01*
X596824Y201471D02*X597929Y200366D01*
Y204786D02*X601244D01*
X588584Y228105D02*X593004D01*
X588584D02*Y223685D01*
X589689Y224790D01*
X591899D01*
X593004Y223685D01*
Y220370D01*
X591899Y219265D02*X593004Y220370D01*
X589689Y219265D02*X591899D01*
X588584Y220370D02*X589689Y219265D01*
X595658Y228105D02*Y221475D01*
X597868Y219265D01*
X600078Y221475D01*
Y228105D02*Y221475D01*
X557010Y238163D02*X560325D01*
X555905Y239268D02*X557010Y238163D01*
X555905Y245898D02*Y239268D01*
Y245898D02*X557010Y247003D01*
X560325D01*
X562979D02*Y238163D01*
X568504Y247003D02*Y238163D01*
X562979Y242583D02*X568504D01*
X571158Y245898D02*Y238163D01*
Y245898D02*X572263Y247003D01*
X575578D01*
X576683Y245898D01*
Y238163D01*
X571158Y242583D02*X576683D01*
X579337Y247003D02*X583757D01*
X584862Y245898D01*
Y243688D01*
X583757Y242583D02*X584862Y243688D01*
X580442Y242583D02*X583757D01*
X580442Y247003D02*Y238163D01*
Y242583D02*X584862Y238163D01*
X591936Y247003D02*X593041Y245898D01*
X588621Y247003D02*X591936D01*
X587516Y245898D02*X588621Y247003D01*
X587516Y245898D02*Y239268D01*
X588621Y238163D01*
X591936D01*
X593041Y239268D01*
Y241478D02*Y239268D01*
X591936Y242583D02*X593041Y241478D01*
X589726Y242583D02*X591936D01*
X595696D02*X599011D01*
X595696Y238163D02*X600116D01*
X595696Y247003D02*Y238163D01*
Y247003D02*X600116D01*
G54D16*X441012Y161185D02*Y159611D01*
X444028Y161185D02*Y159611D01*
X449768Y156367D02*X451342D01*
X449768Y159383D02*X451342D01*
G54D12*X212954Y122811D02*Y113411D01*
Y122811D02*X224854D01*
Y113411D01*
X212954D02*X224854D01*
X431789Y120123D02*X444589D01*
Y106223D01*
X431789D02*X444589D01*
X431789Y120123D02*Y106223D01*
G54D126*X452363Y120078D02*X453149D01*
X452363Y114568D02*X453149D01*
G54D16*X461484Y97012D02*Y95438D01*
X464500Y97012D02*Y95438D01*
X229593Y118665D02*Y117091D01*
X232609Y118665D02*Y117091D01*
G54D12*X307443Y83834D02*Y74434D01*
Y83834D02*X319343D01*
Y74434D01*
X307443D02*X319343D01*
G54D16*X323689Y79921D02*Y78347D01*
X326705Y79921D02*Y78347D01*
G54D12*X481079Y103682D02*Y90882D01*
X467179D02*X481079D01*
X467179Y103682D02*Y90882D01*
Y103682D02*X481079D01*
X467347Y119430D02*Y106630D01*
Y119430D02*X481247D01*
Y106630D01*
X467347D02*X481247D01*
G54D16*X464500Y138816D02*Y137242D01*
X461484Y138816D02*Y137242D01*
X483925Y112760D02*Y111186D01*
X486941Y112760D02*Y111186D01*
X483925Y100949D02*Y99375D01*
X486941Y100949D02*Y99375D01*
G54D126*X309449Y374607D02*X314173D01*
X309449Y367127D02*X314173D01*
G54D12*X307912Y362181D02*Y352781D01*
X296012D02*X307912D01*
X296012Y362181D02*Y352781D01*
Y362181D02*X307912D01*
G54D16*X320012Y310630D02*Y309056D01*
X316996Y310630D02*Y309056D01*
X329461Y299213D02*Y297639D01*
X326445Y299213D02*Y297639D01*
X329461Y310630D02*Y309056D01*
X326445Y310630D02*Y309056D01*
X320012Y299213D02*Y297639D01*
X316996Y299213D02*Y297639D01*
G54D127*X350395Y373230D02*X356301Y381104D01*
X362207Y373230D02*X356301Y381104D01*
X350395Y373230D02*X362207D01*
X388584Y381891D02*Y317325D01*
X324018D02*X388584D01*
X324018Y381891D02*Y317325D01*
Y381891D02*X388584D01*
G54D16*X423949Y292359D02*Y290785D01*
X420933Y292359D02*Y290785D01*
X424870Y281729D02*Y280155D01*
X427886Y281729D02*Y280155D01*
X375264Y292287D02*Y290713D01*
X378280Y292287D02*Y290713D01*
G54D126*X358661Y307086D02*Y306300D01*
X353151Y307086D02*Y306300D01*
G54D16*X361484Y305673D02*Y304099D01*
X364500Y305673D02*Y304099D01*
G54D12*X231065Y266118D02*Y256718D01*
Y266118D02*X242965D01*
Y256718D01*
X231065D02*X242965D01*
G54D16*X293030Y202315D02*X294143Y203428D01*
X290897Y204448D02*X292010Y205561D01*
G54D12*X296855Y215880D02*X285249Y227486D01*
X270108Y242627D02*X281714Y231022D01*
X262591Y181617D02*X296855Y215880D01*
X235844Y208364D02*X262591Y181617D01*
X270108Y242627D02*X235844Y208364D01*
X281713Y231022D02*G75*G03X285248Y227486I1767J-1767D01*G01*
X227583Y269154D02*X241483D01*
Y281954D02*Y269154D01*
X227583Y281954D02*X241483D01*
X227583D02*Y269154D01*
G54D16*X281036Y254331D02*Y252757D01*
X278020Y254331D02*Y252757D01*
X292847Y358268D02*Y356694D01*
X289831Y358268D02*Y356694D01*
X274870Y326610D02*Y325036D01*
X277886Y326610D02*Y325036D01*
X272374Y309216D02*Y307642D01*
X269358Y309216D02*Y307642D01*
X284486Y320934D02*X286060D01*
X284486Y323950D02*X286060D01*
X374249Y236682D02*X375823D01*
X374249Y239698D02*X375823D01*
X246618Y270540D02*X248192D01*
X246618Y273556D02*X248192D01*
G54D126*X252362Y262598D02*Y261812D01*
X246852Y262598D02*Y261812D01*
X248819Y275986D02*X249605D01*
X248819Y281496D02*X249605D01*
X366267Y288774D02*X369167Y285874D01*
X330597Y288774D02*X366267D01*
X330597D02*Y250204D01*
X369167D01*
Y285874D02*Y250204D01*
X366267Y286874D02*G75*G03X366267Y286874I0J-1000D01*G01*
G54D16*X207020Y354564D02*Y352990D01*
X204004Y354564D02*Y352990D01*
X212022Y154679D02*X213135Y153566D01*
X209889Y152546D02*X211002Y151433D01*
G54D12*X260510Y179536D02*X248905Y191142D01*
X233763Y206283D02*X245369Y194677D01*
X226247Y145272D02*X260510Y179536D01*
X199500Y172019D02*X226247Y145272D01*
X233763Y206283D02*X199500Y172019D01*
X245369Y194677D02*G75*G03X248904Y191141I1767J-1767D01*G01*
G54D126*X176773Y153544D02*Y152758D01*
X182283Y153544D02*Y152758D01*
X191340Y136616D02*X192126D01*
X191340Y142126D02*X192126D01*
G54D16*X191965Y162272D02*X193539D01*
X191965Y165288D02*X193539D01*
G54D12*X185832Y145626D02*X197632D01*
X185832Y159526D02*Y145626D01*
Y159526D02*X197632D01*
Y145626D01*
G54D16*X273949Y255906D02*Y254332D01*
X270933Y255906D02*Y254332D01*
Y266929D02*Y265355D01*
X273949Y266929D02*Y265355D01*
X138351Y277626D02*X139925D01*
X138351Y280642D02*X139925D01*
X127005D02*X128579D01*
X127005Y277626D02*X128579D01*
G54D128*X123230Y272834D02*Y237205D01*
Y272834D02*X225984D01*
Y237205D02*X123230D01*
X225984D02*Y272834D01*
G54D16*X284414Y303477D02*X285988D01*
X284414Y300461D02*X285988D01*
X277886Y311972D02*Y310398D01*
X274870Y311972D02*Y310398D01*
X284486Y313060D02*X286060D01*
X284486Y316076D02*X286060D01*
X284486Y327233D02*X286060D01*
X284486Y330249D02*X286060D01*
X285106Y255906D02*Y254332D01*
X288122Y255906D02*Y254332D01*
X285106Y266929D02*Y265355D01*
X288122Y266929D02*Y265355D01*
X278020Y268110D02*Y266536D01*
X281036Y268110D02*Y266536D01*
G54D129*X88584Y283071D02*Y255710D01*
Y283071D02*X118898D01*
Y255710D02*X88584D01*
X118898D02*Y283071D01*
G54D12*X124040Y285476D02*X129440D01*
X132540D02*X137940D01*
Y297276D02*Y285476D01*
X124040Y297276D02*X137940D01*
X124040D02*Y285476D01*
X132440D02*G75*G03X129440Y285476I-1500J0D01*G01*
X27168Y314924D02*X29168Y316924D01*
X40548D02*X29168D01*
X40548Y305124D02*Y316924D01*
X27168Y305124D02*X40548D01*
X27168Y314924D02*Y305124D01*
X29858Y311024D02*G75*G03X29858Y311024I4000J0D01*G01*
G54D127*X21653Y279134D02*X46063D01*
Y254724D01*
X21653D02*X46063D01*
X21653Y279134D02*Y254724D01*
X26968Y266929D02*G75*G03X26968Y266929I6890J0D01*G01*
G54D12*X13591Y370866D02*G75*G03X13591Y370866I12000J0D01*G01*
X18791D02*G75*G03X18791Y370866I6800J0D01*G01*
X37358Y239865D02*Y227065D01*
Y239865D02*X51258D01*
Y227065D01*
X37358D02*X51258D01*
X68942Y239865D02*Y227065D01*
X55042D02*X68942D01*
X55042Y239865D02*Y227065D01*
Y239865D02*X68942D01*
G54D16*X42981Y187634D02*Y186060D01*
X45997Y187634D02*Y186060D01*
X36681Y187634D02*Y186060D01*
X39697Y187634D02*Y186060D01*
G54D12*X38146Y180810D02*Y168010D01*
Y180810D02*X52046D01*
Y168010D01*
X38146D02*X52046D01*
X70517Y180810D02*Y168010D01*
X56617D02*X70517D01*
X56617Y180810D02*Y168010D01*
Y180810D02*X70517D01*
G54D16*X38910Y213153D02*Y211579D01*
X35894Y213153D02*Y211579D01*
G54D12*X18947Y200232D02*Y190832D01*
Y200232D02*X30847D01*
Y190832D01*
X18947D02*X30847D01*
G54D16*X31658Y205839D02*X33232D01*
X31658Y202823D02*X33232D01*
X40713Y196784D02*X42287D01*
X40713Y193768D02*X42287D01*
X43075Y202823D02*X44649D01*
X43075Y205839D02*X44649D01*
X19453D02*X21027D01*
X19453Y202823D02*X21027D01*
X21980Y236775D02*Y235201D01*
X18964Y236775D02*Y235201D01*
X30154Y236221D02*X31728D01*
X30154Y235040D01*
X31728Y236221D02*X30154Y237402D01*
Y235040D01*
X27886Y213153D02*Y211579D01*
X24870Y213153D02*Y211579D01*
X207020Y367323D02*Y365749D01*
X204004Y367323D02*Y365749D01*
X48359Y311811D02*Y310237D01*
X45343Y311811D02*Y310237D01*
G54D12*X103436Y310612D02*X100036Y309512D01*
X121036Y310612D02*X103436D01*
X121036Y300412D02*Y310612D01*
X103436Y300412D02*X121036D01*
X100036Y301512D02*X103436Y300412D01*
G54D11*X100036Y309512D02*Y301512D01*
G54D126*X129726Y310039D02*X132480D01*
X129726Y300985D02*X132480D01*
X108663Y291340D02*X109449D01*
X108663Y296850D02*X109449D01*
X148032Y292521D02*X148818D01*
X148032Y298031D02*X148818D01*
G54D12*X507084Y161061D02*X505084Y159061D01*
X493704D02*X505084D01*
X493704Y170861D02*Y159061D01*
Y170861D02*X507084D01*
Y161061D01*
X504394Y164961D02*G75*G03X504394Y164961I-4000J0D01*G01*
G54D16*X488516Y165748D02*Y164174D01*
X485500Y165748D02*Y164174D01*
G54D12*X490362Y118504D02*G75*G03X490362Y118504I12000J0D01*G01*
X495562D02*G75*G03X495562Y118504I6800J0D01*G01*
G54D127*X488189Y156103D02*Y131693D01*
Y156103D02*X512599D01*
Y131693D01*
X488189D02*X512599D01*
X500394Y137008D02*G75*G03X500394Y137008I0J6890D01*G01*
G54D16*X536024Y138517D02*X537598D01*
X536024Y135501D02*X537598D01*
G54D12*X550670Y148872D02*X552170D01*
X544170Y142372D02*X552170D01*
X544170Y154272D02*Y142372D01*
Y154272D02*X552170D01*
Y142372D01*
G54D127*X463591Y46454D02*X484047D01*
X499016Y79132D02*Y25588D01*
X448622Y79132D02*X499016D01*
X448622D02*Y25588D01*
X499016D01*
X484047Y46455D02*G75*G03X463590Y46454I-10228J5905D01*G01*
X508859Y47855D02*Y97068D01*
X537205Y47855D02*X508859D01*
X537205Y97068D02*Y47855D01*
X508859Y97068D02*X537205D01*
G54D16*X612138Y225591D02*Y224017D01*
X609122Y225591D02*Y224017D01*
X612138Y207874D02*Y206300D01*
X609122Y207874D02*Y206300D01*
G54D127*X630709Y65729D02*Y16516D01*
X602363Y65729D02*X630709D01*
X602363D02*Y16516D01*
X630709D01*
G54D16*X591894Y120800D02*X593468D01*
X591894Y117784D02*X593468D01*
X557678Y135501D02*X559252D01*
X557678Y138517D02*X559252D01*
X558501Y148359D02*X560075D01*
X558501Y145343D02*X560075D01*
X580315Y119292D02*X581889D01*
X580315D02*X581889Y120473D01*
X580315Y119292D02*X581889Y118111D01*
Y120473D02*Y118111D01*
X542716Y111418D02*Y87796D01*
X619488Y111418D02*Y87796D01*
X542716D02*X619488D01*
X542716Y111418D02*X619488D01*
G54D126*X540060Y129132D02*X557382D01*
X540060Y115358D02*X557382D01*
G54D12*X630706Y220904D02*X628706Y218904D01*
X617326D02*X628706D01*
X617326Y230704D02*Y218904D01*
Y230704D02*X630706D01*
Y220904D01*
X628016Y224804D02*G75*G03X628016Y224804I-4000J0D01*G01*
X630706Y203187D02*X628706Y201187D01*
X617326D02*X628706D01*
X617326Y212987D02*Y201187D01*
Y212987D02*X630706D01*
Y203187D01*
X628016Y207087D02*G75*G03X628016Y207087I-4000J0D01*G01*
G54D16*X542716Y191142D02*Y167520D01*
X619488Y191142D02*Y167520D01*
X542716D02*X619488D01*
X542716Y191142D02*X619488D01*
X547800Y156170D02*X549374D01*
X547800Y159186D02*X549374D01*
G54D12*X565797Y146098D02*Y136698D01*
Y146098D02*X577697D01*
Y136698D01*
X565797D02*X577697D01*
G54D16*X576705Y155476D02*Y153902D01*
X573689Y155476D02*Y153902D01*
G54D12*X556694Y166143D02*Y152243D01*
X568494D01*
Y166143D02*Y152243D01*
X556694Y166143D02*X568494D01*
X142482Y123205D02*Y113805D01*
Y123205D02*X154382D01*
Y113805D01*
X142482D02*X154382D01*
G54D16*X165028Y118898D02*Y117324D01*
X168044Y118898D02*Y117324D01*
G54D12*X172010Y70470D02*X174010Y68470D01*
Y57090D01*
X162210D02*X174010D01*
X162210Y70470D02*Y57090D01*
Y70470D02*X172010D01*
X168110Y67780D02*G75*G03X168110Y67780I0J-4000D01*G01*
X151144Y70470D02*X153144Y68470D01*
Y57090D01*
X141344D02*X153144D01*
X141344Y70470D02*Y57090D01*
Y70470D02*X151144D01*
X147244Y67780D02*G75*G03X147244Y67780I0J-4000D01*G01*
X192877Y70470D02*X194877Y68470D01*
Y57090D01*
X183077D02*X194877D01*
X183077Y70470D02*Y57090D01*
Y70470D02*X192877D01*
X188977Y67780D02*G75*G03X188977Y67780I0J-4000D01*G01*
G54D16*X289580Y232238D02*X290693Y231125D01*
X287448Y230106D02*X288561Y228993D01*
X145831Y288910D02*X147405D01*
X145831Y285894D02*X147405D01*
X284486Y306761D02*X286060D01*
X284486Y309777D02*X286060D01*
X258595Y262366D02*Y260792D01*
X255579Y262366D02*Y260792D01*
X222442Y55185D02*X224016D01*
X222442Y58201D02*X224016D01*
G54D12*X225715Y80347D02*X238715D01*
X207715D02*X220715D01*
X238715D02*Y61347D01*
X207715D02*X238715D01*
X207715Y80347D02*Y61347D01*
X220715Y80347D02*G75*G03X225715Y80347I2500J0D01*G01*
G54D16*X208988Y118898D02*Y117324D01*
X205972Y118898D02*Y117324D01*
X183698Y126445D02*X185272D01*
X183698Y129461D02*X185272D01*
X245831Y64894D02*X247405D01*
X245831Y61878D02*X247405D01*
X245831Y79855D02*X247405D01*
X245831Y76839D02*X247405D01*
X245831Y72374D02*X247405D01*
X245831Y69358D02*X247405D01*
X263059Y60630D02*Y59056D01*
X266075Y60630D02*Y59056D01*
X287796Y244028D02*X289370D01*
X287796Y241012D02*X289370D01*
X309056Y245997D02*X310630D01*
X309056Y242981D02*X310630D01*
X309056Y237075D02*X310630D01*
X309056Y240091D02*X310630D01*
X309056Y231170D02*X310630D01*
X309056Y234186D02*X310630D01*
G54D126*X381104Y248425D02*X381890D01*
X381104Y242915D02*X381890D01*
G54D16*X383792Y286453D02*Y284879D01*
X380776Y286453D02*Y284879D01*
X368965Y298193D02*Y296619D01*
X371981Y298193D02*Y296619D01*
X294162Y305673D02*Y304099D01*
X297178Y305673D02*Y304099D01*
X449768Y161485D02*X451342D01*
X449768Y164501D02*X451342D01*
X460004Y159383D02*X461578D01*
X460004Y156367D02*X461578D01*
X435500Y146296D02*Y144722D01*
X438516Y146296D02*Y144722D01*
Y131657D02*Y130083D01*
X435500Y131657D02*Y130083D01*
G54D12*X440520Y153676D02*Y140676D01*
Y135676D02*Y122676D01*
Y153676D02*X459520D01*
Y122676D01*
X440520D02*X459520D01*
X440520Y135676D02*G75*G03X440520Y140676I0J2500D01*G01*
G54D127*X488189Y199410D02*Y175000D01*
Y199410D02*X512599D01*
Y175000D01*
X488189D02*X512599D01*
X500394Y180315D02*G75*G03X500394Y180315I0J6890D01*G01*
G54D16*X546815Y135501D02*X548389D01*
X546815Y138517D02*X548389D01*
G54D12*X507038Y204367D02*X505038Y202367D01*
X493658D02*X505038D01*
X493658Y214167D02*Y202367D01*
Y214167D02*X507038D01*
Y204367D01*
X504348Y208267D02*G75*G03X504348Y208267I-4000J0D01*G01*
G54D16*X488516Y209055D02*Y207481D01*
X485500Y209055D02*Y207481D01*
X421193Y281729D02*Y280155D01*
X418177Y281729D02*Y280155D01*
X409776Y292359D02*Y290785D01*
X406760Y292359D02*Y290785D01*
X413847Y292359D02*Y290785D01*
X416863Y292359D02*Y290785D01*
G54D126*X437796Y287401D02*X438582D01*
X437796Y281891D02*X438582D01*
G54D16*X453083Y284091D02*Y282517D01*
X450067Y284091D02*Y282517D01*
G54D12*X456775Y333294D02*X428275D01*
X456775Y291894D02*Y333294D01*
X428275Y291894D02*X456775D01*
X428275Y333294D02*Y291894D01*
X630706Y238620D02*X628706Y236620D01*
X617326D02*X628706D01*
X617326Y248420D02*Y236620D01*
Y248420D02*X630706D01*
Y238620D01*
X628016Y242520D02*G75*G03X628016Y242520I-4000J0D01*G01*
G54D16*X612138Y243307D02*Y241733D01*
X609122Y243307D02*Y241733D01*
X515122Y228020D02*X516696D01*
X515122Y231036D02*X516696D01*
G54D126*X528901Y232283D02*X529687D01*
X528901Y226773D02*X529687D01*
G54D12*X473039Y283858D02*G75*G03X473039Y283858I12000J0D01*G01*
X478239D02*G75*G03X478239Y283858I6800J0D01*G01*
X70517Y163881D02*Y151081D01*
X56617D02*X70517D01*
X56617Y163881D02*Y151081D01*
Y163881D02*X70517D01*
X38145D02*Y151081D01*
Y163881D02*X52045D01*
Y151081D01*
X38145D02*X52045D01*
X99090Y150451D02*Y137385D01*
Y168517D02*Y155451D01*
X77878Y137385D02*X99090D01*
X77878Y168517D02*Y137385D01*
Y168517D02*X99090D01*
Y155451D02*G75*G03X99090Y150451I0J-2500D01*G01*
G54D16*X31497Y120013D02*X33071D01*
X31497Y116997D02*X33071D01*
X19525Y120013D02*X21099D01*
X19525Y116997D02*X21099D01*
G54D126*X22638Y133464D02*Y128740D01*
X30118Y133464D02*Y128740D01*
X34056Y133464D02*Y128740D01*
X41536Y133464D02*Y128740D01*
G54D16*X43075Y116997D02*X44649D01*
X43075Y120013D02*X44649D01*
G54D126*X43701Y94686D02*X48425D01*
X43701Y87206D02*X48425D01*
G54D16*X37335Y166929D02*Y165355D01*
X34319Y166929D02*Y165355D01*
G54D12*X29873Y162242D02*X27873Y160242D01*
X16493D02*X27873D01*
X16493Y172042D02*Y160242D01*
Y172042D02*X29873D01*
Y162242D01*
X27183Y166142D02*G75*G03X27183Y166142I-4000J0D01*G01*
G54D126*X43701Y105315D02*X48425D01*
X43701Y97835D02*X48425D01*
G54D12*X85140Y121305D02*X72340D01*
X85140Y107405D02*Y121305D01*
X72340Y107405D02*X85140D01*
X72340Y121305D02*Y107405D01*
G54D16*X93934Y130382D02*X95508D01*
X93934Y133398D02*X95508D01*
X93934Y124477D02*X95508D01*
X93934Y127493D02*X95508D01*
G54D12*X72340Y89327D02*X85140D01*
X72340Y103227D02*Y89327D01*
Y103227D02*X85140D01*
Y89327D01*
G54D16*X106300Y172115D02*X107874D01*
X106300Y175131D02*X107874D01*
X147012Y126445D02*X148586D01*
X147012Y129461D02*X148586D01*
G54D12*X197260Y123698D02*X186949D01*
X171638D02*X181949D01*
X197260Y112722D02*Y123698D01*
X171638Y112722D02*X197260D01*
X171638Y123698D02*Y112722D01*
X181949Y123698D02*G75*G03X186949Y123698I2500J0D01*G01*
G54D16*X158335Y118898D02*Y117324D01*
X161351Y118898D02*Y117324D01*
X188190Y48886D02*X189764D01*
X188190Y51902D02*X189764D01*
X167323Y48886D02*X168897D01*
X167323Y51902D02*X168897D01*
X146457Y48886D02*X148031D01*
X146457Y51902D02*X148031D01*
G54D12*X285476Y55943D02*X283476Y53943D01*
X272096D02*X283476D01*
X272096Y65743D02*Y53943D01*
Y65743D02*X285476D01*
Y55943D01*
X282786Y59843D02*G75*G03X282786Y59843I-4000J0D01*G01*
G54D127*X50207Y46457D02*X70663D01*
X85632Y79135D02*Y25591D01*
X35238Y79135D02*X85632D01*
X35238D02*Y25591D01*
X85632D01*
X70663Y46458D02*G75*G03X50206Y46457I-10228J5905D01*G01*
G54D12*X13591Y23229D02*G75*G03X13591Y23229I12000J0D01*G01*
X18791D02*G75*G03X18791Y23229I6800J0D01*G01*
X98843Y44351D02*X112743D01*
Y57151D02*Y44351D01*
X98843Y57151D02*X112743D01*
X98843D02*Y44351D01*
G54D16*X111973Y40485D02*X113547D01*
X111973Y37469D02*X113547D01*
G54D12*X115210Y57151D02*X129110D01*
X115210D02*Y44351D01*
X129110D01*
Y57151D02*Y44351D01*
G54D16*X135760Y39603D02*Y38029D01*
X132744Y39603D02*Y38029D01*
X135760Y50555D02*Y48981D01*
X132744Y50555D02*Y48981D01*
G54D126*X129921Y30117D02*X133857D01*
X129921Y19489D02*X133857D01*
G54D16*X236846Y44669D02*X238846D01*
X239346Y44169D01*
Y43169D01*
X238846Y42669D02*X239346Y43169D01*
X237346Y42669D02*X238846D01*
X237346Y44669D02*Y40669D01*
Y42669D02*X239346Y40669D01*
X240547Y44169D02*X241047Y44669D01*
X242547D01*
X243047Y44169D01*
Y43169D01*
X240547Y40669D02*X243047Y43169D01*
X240547Y40669D02*X243047D01*
X244248Y44169D02*X244748Y44669D01*
X246248D01*
X246748Y44169D01*
Y43169D01*
X244248Y40669D02*X246748Y43169D01*
X244248Y40669D02*X246748D01*
X247949Y41169D02*X248449Y40669D01*
X247949Y42169D02*Y41169D01*
Y42169D02*X248449Y42669D01*
X249449D01*
X249949Y42169D01*
Y41169D01*
X249449Y40669D02*X249949Y41169D01*
X248449Y40669D02*X249449D01*
X247949Y43169D02*X248449Y42669D01*
X247949Y44169D02*Y43169D01*
Y44169D02*X248449Y44669D01*
X249449D01*
X249949Y44169D01*
Y43169D01*
X249449Y42669D02*X249949Y43169D01*
X218218Y49724D02*X219718D01*
X217718Y50224D02*X218218Y49724D01*
X217718Y53224D02*Y50224D01*
Y53224D02*X218218Y53724D01*
X219718D01*
X220919Y53224D02*X221419Y53724D01*
X222919D01*
X223419Y53224D01*
Y52224D01*
X220919Y49724D02*X223419Y52224D01*
X220919Y49724D02*X223419D01*
X225120D02*X226120D01*
X225620Y53724D02*Y49724D01*
X224620Y52724D02*X225620Y53724D01*
X227821Y49724D02*X228821D01*
X228321Y53724D02*Y49724D01*
X227321Y52724D02*X228321Y53724D01*
X236845Y56085D02*X238845D01*
X239345Y55585D01*
Y54585D01*
X238845Y54085D02*X239345Y54585D01*
X237345Y54085D02*X238845D01*
X237345Y56085D02*Y52085D01*
Y54085D02*X239345Y52085D01*
X240546Y55585D02*X241046Y56085D01*
X242546D01*
X243046Y55585D01*
Y54585D01*
X240546Y52085D02*X243046Y54585D01*
X240546Y52085D02*X243046D01*
X244247Y55585D02*X244747Y56085D01*
X245747D01*
X246247Y55585D01*
Y52585D01*
X245747Y52085D02*X246247Y52585D01*
X244747Y52085D02*X245747D01*
X244247Y52585D02*X244747Y52085D01*
Y54085D02*X246247D01*
X247448Y52585D02*X247948Y52085D01*
X247448Y55585D02*Y52585D01*
Y55585D02*X247948Y56085D01*
X248948D01*
X249448Y55585D01*
Y52585D01*
X248948Y52085D02*X249448Y52585D01*
X247948Y52085D02*X248948D01*
X247448Y53085D02*X249448Y55085D01*
X236848Y50183D02*X238848D01*
X239348Y49683D01*
Y48683D01*
X238848Y48183D02*X239348Y48683D01*
X237348Y48183D02*X238848D01*
X237348Y50183D02*Y46183D01*
Y48183D02*X239348Y46183D01*
X240549Y49683D02*X241049Y50183D01*
X242549D01*
X243049Y49683D01*
Y48683D01*
X240549Y46183D02*X243049Y48683D01*
X240549Y46183D02*X243049D01*
X244250Y49683D02*X244750Y50183D01*
X246250D01*
X246750Y49683D01*
Y48683D01*
X244250Y46183D02*X246750Y48683D01*
X244250Y46183D02*X246750D01*
X247951D02*X249951Y48183D01*
Y49683D02*Y48183D01*
X249451Y50183D02*X249951Y49683D01*
X248451Y50183D02*X249451D01*
X247951Y49683D02*X248451Y50183D01*
X247951Y49683D02*Y48683D01*
X248451Y48183D01*
X249951D01*
X264961Y85221D02*X266961D01*
X265961D02*Y81221D01*
X268662Y85221D02*Y81221D01*
X268162Y85221D02*X270162D01*
X270662Y84721D01*
Y83721D01*
X270162Y83221D02*X270662Y83721D01*
X268662Y83221D02*X270162D01*
X271863Y84721D02*X272363Y85221D01*
X273863D01*
X274363Y84721D01*
Y83721D01*
X271863Y81221D02*X274363Y83721D01*
X271863Y81221D02*X274363D01*
X275564Y81721D02*X276064Y81221D01*
X275564Y84721D02*Y81721D01*
Y84721D02*X276064Y85221D01*
X277064D01*
X277564Y84721D01*
Y81721D01*
X277064Y81221D02*X277564Y81721D01*
X276064Y81221D02*X277064D01*
X275564Y82221D02*X277564Y84221D01*
X278765Y81721D02*X279265Y81221D01*
X278765Y84721D02*Y81721D01*
Y84721D02*X279265Y85221D01*
X280265D01*
X280765Y84721D01*
Y81721D01*
X280265Y81221D02*X280765Y81721D01*
X279265Y81221D02*X280265D01*
X278765Y82221D02*X280765Y84221D01*
X307049Y72129D02*Y69129D01*
Y72129D02*X307549Y72629D01*
X308549D01*
X309049Y72129D01*
Y69129D01*
X308549Y68629D02*X309049Y69129D01*
X307549Y68629D02*X308549D01*
X307049Y69129D02*X307549Y68629D01*
X308049Y69629D02*X309049Y68629D01*
X310250Y72129D02*X310750Y72629D01*
X312250D01*
X312750Y72129D01*
Y71129D01*
X310250Y68629D02*X312750Y71129D01*
X310250Y68629D02*X312750D01*
X313951Y69129D02*X314451Y68629D01*
X313951Y72129D02*Y69129D01*
Y72129D02*X314451Y72629D01*
X315451D01*
X315951Y72129D01*
Y69129D01*
X315451Y68629D02*X315951Y69129D01*
X314451Y68629D02*X315451D01*
X313951Y69629D02*X315951Y71629D01*
X317152Y70629D02*X319152Y72629D01*
X317152Y70629D02*X319652D01*
X319152Y72629D02*Y68629D01*
X328559Y75228D02*Y73228D01*
Y75228D02*X329059Y75728D01*
X330059D01*
X330559Y75228D02*X330059Y75728D01*
X330559Y75228D02*Y73728D01*
X328559D02*X332559D01*
X330559D02*X332559Y75728D01*
X329059Y76929D02*X328559Y77429D01*
Y78929D02*Y77429D01*
Y78929D02*X329059Y79429D01*
X330059D01*
X332559Y76929D02*X330059Y79429D01*
X332559D02*Y76929D01*
X329059Y80630D02*X328559Y81130D01*
Y82130D02*Y81130D01*
Y82130D02*X329059Y82630D01*
X332059D01*
X332559Y82130D02*X332059Y82630D01*
X332559Y82130D02*Y81130D01*
X332059Y80630D02*X332559Y81130D01*
X330559Y82630D02*Y81130D01*
X332559Y85331D02*Y84331D01*
X328559Y84831D02*X332559D01*
X329559Y83831D02*X328559Y84831D01*
X181890Y47031D02*X183890D01*
X184390Y46531D01*
Y45531D01*
X183890Y45031D02*X184390Y45531D01*
X182390Y45031D02*X183890D01*
X182390Y47031D02*Y43031D01*
Y45031D02*X184390Y43031D01*
X185591Y46531D02*X186091Y47031D01*
X187591D01*
X188091Y46531D01*
Y45531D01*
X185591Y43031D02*X188091Y45531D01*
X185591Y43031D02*X188091D01*
X189292Y46531D02*X189792Y47031D01*
X191292D01*
X191792Y46531D01*
Y45531D01*
X189292Y43031D02*X191792Y45531D01*
X189292Y43031D02*X191792D01*
X192993Y46531D02*X193493Y47031D01*
X194993D01*
X195493Y46531D01*
Y45531D01*
X192993Y43031D02*X195493Y45531D01*
X192993Y43031D02*X195493D01*
X161417Y47032D02*X163417D01*
X163917Y46532D01*
Y45532D01*
X163417Y45032D02*X163917Y45532D01*
X161917Y45032D02*X163417D01*
X161917Y47032D02*Y43032D01*
Y45032D02*X163917Y43032D01*
X165118Y46532D02*X165618Y47032D01*
X167118D01*
X167618Y46532D01*
Y45532D01*
X165118Y43032D02*X167618Y45532D01*
X165118Y43032D02*X167618D01*
X168819Y46532D02*X169319Y47032D01*
X170819D01*
X171319Y46532D01*
Y45532D01*
X168819Y43032D02*X171319Y45532D01*
X168819Y43032D02*X171319D01*
X172520D02*X175020Y45532D01*
Y47032D02*Y45532D01*
X172520Y47032D02*X175020D01*
X140551Y47425D02*X142551D01*
X143051Y46925D01*
Y45925D01*
X142551Y45425D02*X143051Y45925D01*
X141051Y45425D02*X142551D01*
X141051Y47425D02*Y43425D01*
Y45425D02*X143051Y43425D01*
X144252Y46925D02*X144752Y47425D01*
X146252D01*
X146752Y46925D01*
Y45925D01*
X144252Y43425D02*X146752Y45925D01*
X144252Y43425D02*X146752D01*
X147953Y45425D02*X149953Y47425D01*
X147953Y45425D02*X150453D01*
X149953Y47425D02*Y43425D01*
X151654Y46925D02*X152154Y47425D01*
X153154D01*
X153654Y46925D01*
Y43925D01*
X153154Y43425D02*X153654Y43925D01*
X152154Y43425D02*X153154D01*
X151654Y43925D02*X152154Y43425D01*
Y45425D02*X153654D01*
X182284Y78187D02*Y74187D01*
X184284D01*
X185485Y76187D02*X186985D01*
X185485Y74187D02*X187485D01*
X185485Y78187D02*Y74187D01*
Y78187D02*X187485D01*
X189186D02*Y74187D01*
X190686Y78187D02*X191186Y77687D01*
Y74687D01*
X190686Y74187D02*X191186Y74687D01*
X188686Y74187D02*X190686D01*
X188686Y78187D02*X190686D01*
X192387Y77687D02*X192887Y78187D01*
X194387D01*
X194887Y77687D01*
Y76687D01*
X192387Y74187D02*X194887Y76687D01*
X192387Y74187D02*X194887D01*
X196088Y74687D02*X196588Y74187D01*
X196088Y77687D02*Y74687D01*
Y77687D02*X196588Y78187D01*
X197588D01*
X198088Y77687D01*
Y74687D01*
X197588Y74187D02*X198088Y74687D01*
X196588Y74187D02*X197588D01*
X196088Y75187D02*X198088Y77187D01*
X199289Y77687D02*X199789Y78187D01*
X201289D01*
X201789Y77687D01*
Y76687D01*
X199289Y74187D02*X201789Y76687D01*
X199289Y74187D02*X201789D01*
X257299Y56331D02*Y54331D01*
Y56331D02*X257799Y56831D01*
X258799D01*
X259299Y56331D02*X258799Y56831D01*
X259299Y56331D02*Y54831D01*
X257299D02*X261299D01*
X259299D02*X261299Y56831D01*
X257799Y58032D02*X257299Y58532D01*
Y59532D02*Y58532D01*
Y59532D02*X257799Y60032D01*
X260799D01*
X261299Y59532D02*X260799Y60032D01*
X261299Y59532D02*Y58532D01*
X260799Y58032D02*X261299Y58532D01*
X259299Y60032D02*Y58532D01*
X261299Y62733D02*Y61733D01*
X257299Y62233D02*X261299D01*
X258299Y61233D02*X257299Y62233D01*
X261299Y63934D02*X259299Y65934D01*
X257799D02*X259299D01*
X257299Y65434D02*X257799Y65934D01*
X257299Y65434D02*Y64434D01*
X257799Y63934D02*X257299Y64434D01*
X257799Y63934D02*X258799D01*
X259299Y64434D01*
Y65934D02*Y64434D01*
X269685Y52157D02*Y48157D01*
X271685D01*
X272886Y50157D02*X274386D01*
X272886Y48157D02*X274886D01*
X272886Y52157D02*Y48157D01*
Y52157D02*X274886D01*
X276587D02*Y48157D01*
X278087Y52157D02*X278587Y51657D01*
Y48657D01*
X278087Y48157D02*X278587Y48657D01*
X276087Y48157D02*X278087D01*
X276087Y52157D02*X278087D01*
X279788Y51657D02*X280288Y52157D01*
X281288D01*
X281788Y51657D01*
Y48657D01*
X281288Y48157D02*X281788Y48657D01*
X280288Y48157D02*X281288D01*
X279788Y48657D02*X280288Y48157D01*
Y50157D02*X281788D01*
X282989Y48657D02*X283489Y48157D01*
X282989Y51657D02*Y48657D01*
Y51657D02*X283489Y52157D01*
X284489D01*
X284989Y51657D01*
Y48657D01*
X284489Y48157D02*X284989Y48657D01*
X283489Y48157D02*X284489D01*
X282989Y49157D02*X284989Y51157D01*
X286690Y48157D02*X287690D01*
X287190Y52157D02*Y48157D01*
X286190Y51157D02*X287190Y52157D01*
X137319Y112561D02*X140319D01*
X137319D02*X136819Y113061D01*
Y114061D02*Y113061D01*
Y114061D02*X137319Y114561D01*
X140319D01*
X140819Y114061D02*X140319Y114561D01*
X140819Y114061D02*Y113061D01*
X140319Y112561D02*X140819Y113061D01*
X139819Y113561D02*X140819Y114561D01*
X137319Y115762D02*X136819Y116262D01*
Y117762D02*Y116262D01*
Y117762D02*X137319Y118262D01*
X138319D01*
X140819Y115762D02*X138319Y118262D01*
X140819D02*Y115762D01*
X140319Y119463D02*X140819Y119963D01*
X137319Y119463D02*X140319D01*
X137319D02*X136819Y119963D01*
Y120963D02*Y119963D01*
Y120963D02*X137319Y121463D01*
X140319D01*
X140819Y120963D02*X140319Y121463D01*
X140819Y120963D02*Y119963D01*
X139819Y119463D02*X137819Y121463D01*
X140819Y124164D02*Y123164D01*
X136819Y123664D02*X140819D01*
X137819Y122664D02*X136819Y123664D01*
X157873Y78187D02*Y74187D01*
X159873D01*
X161074Y76187D02*X162574D01*
X161074Y74187D02*X163074D01*
X161074Y78187D02*Y74187D01*
Y78187D02*X163074D01*
X164775D02*Y74187D01*
X166275Y78187D02*X166775Y77687D01*
Y74687D01*
X166275Y74187D02*X166775Y74687D01*
X164275Y74187D02*X166275D01*
X164275Y78187D02*X166275D01*
X167976Y77687D02*X168476Y78187D01*
X169976D01*
X170476Y77687D01*
Y76687D01*
X167976Y74187D02*X170476Y76687D01*
X167976Y74187D02*X170476D01*
X171677Y74687D02*X172177Y74187D01*
X171677Y77687D02*Y74687D01*
Y77687D02*X172177Y78187D01*
X173177D01*
X173677Y77687D01*
Y74687D01*
X173177Y74187D02*X173677Y74687D01*
X172177Y74187D02*X173177D01*
X171677Y75187D02*X173677Y77187D01*
X174878Y76187D02*X176878Y78187D01*
X174878Y76187D02*X177378D01*
X176878Y78187D02*Y74187D01*
X134251Y78187D02*Y74187D01*
X136251D01*
X137452Y76187D02*X138952D01*
X137452Y74187D02*X139452D01*
X137452Y78187D02*Y74187D01*
Y78187D02*X139452D01*
X141153D02*Y74187D01*
X142653Y78187D02*X143153Y77687D01*
Y74687D01*
X142653Y74187D02*X143153Y74687D01*
X140653Y74187D02*X142653D01*
X140653Y78187D02*X142653D01*
X144354Y77687D02*X144854Y78187D01*
X146354D01*
X146854Y77687D01*
Y76687D01*
X144354Y74187D02*X146854Y76687D01*
X144354Y74187D02*X146854D01*
X148055Y74687D02*X148555Y74187D01*
X148055Y77687D02*Y74687D01*
Y77687D02*X148555Y78187D01*
X149555D01*
X150055Y77687D01*
Y74687D01*
X149555Y74187D02*X150055Y74687D01*
X148555Y74187D02*X149555D01*
X148055Y75187D02*X150055Y77187D01*
X151256Y74687D02*X151756Y74187D01*
X151256Y75687D02*Y74687D01*
Y75687D02*X151756Y76187D01*
X152756D01*
X153256Y75687D01*
Y74687D01*
X152756Y74187D02*X153256Y74687D01*
X151756Y74187D02*X152756D01*
X151256Y76687D02*X151756Y76187D01*
X151256Y77687D02*Y76687D01*
Y77687D02*X151756Y78187D01*
X152756D01*
X153256Y77687D01*
Y76687D01*
X152756Y76187D02*X153256Y76687D01*
X105000Y132154D02*Y130654D01*
X104500Y130154D02*X105000Y130654D01*
X101500Y130154D02*X104500D01*
X101500D02*X101000Y130654D01*
Y132154D02*Y130654D01*
X101500Y133355D02*X101000Y133855D01*
Y135355D02*Y133855D01*
Y135355D02*X101500Y135855D01*
X102500D01*
X105000Y133355D02*X102500Y135855D01*
X105000D02*Y133355D01*
X104500Y137056D02*X105000Y137556D01*
X101500Y137056D02*X104500D01*
X101500D02*X101000Y137556D01*
Y138556D02*Y137556D01*
Y138556D02*X101500Y139056D01*
X104500D01*
X105000Y138556D02*X104500Y139056D01*
X105000Y138556D02*Y137556D01*
X104000Y137056D02*X102000Y139056D01*
X105000Y141757D02*Y140757D01*
X101000Y141257D02*X105000D01*
X102000Y140257D02*X101000Y141257D01*
X158085Y125623D02*Y123623D01*
Y125623D02*X158585Y126123D01*
X159585D01*
X160085Y125623D02*X159585Y126123D01*
X160085Y125623D02*Y124123D01*
X158085D02*X162085D01*
X160085D02*X162085Y126123D01*
X158585Y127324D02*X158085Y127824D01*
Y129324D02*Y127824D01*
Y129324D02*X158585Y129824D01*
X159585D01*
X162085Y127324D02*X159585Y129824D01*
X162085D02*Y127324D01*
Y132525D02*Y131525D01*
X158085Y132025D02*X162085D01*
X159085Y131025D02*X158085Y132025D01*
Y135226D02*X158585Y135726D01*
X158085Y135226D02*Y134226D01*
X158585Y133726D02*X158085Y134226D01*
X158585Y133726D02*X161585D01*
X162085Y134226D01*
X160085Y135226D02*X160585Y135726D01*
X160085Y135226D02*Y133726D01*
X162085Y135226D02*Y134226D01*
Y135226D02*X161585Y135726D01*
X160585D02*X161585D01*
X100787Y180891D02*X102787D01*
X103287Y180391D01*
Y179391D01*
X102787Y178891D02*X103287Y179391D01*
X101287Y178891D02*X102787D01*
X101287Y180891D02*Y176891D01*
Y178891D02*X103287Y176891D01*
X104488Y180391D02*X104988Y180891D01*
X106488D01*
X106988Y180391D01*
Y179391D01*
X104488Y176891D02*X106988Y179391D01*
X104488Y176891D02*X106988D01*
X108689D02*X109689D01*
X109189Y180891D02*Y176891D01*
X108189Y179891D02*X109189Y180891D01*
X110890Y177391D02*X111390Y176891D01*
X110890Y180391D02*Y177391D01*
Y180391D02*X111390Y180891D01*
X112390D01*
X112890Y180391D01*
Y177391D01*
X112390Y176891D02*X112890Y177391D01*
X111390Y176891D02*X112390D01*
X110890Y177891D02*X112890Y179891D01*
X212954Y128036D02*Y125036D01*
Y128036D02*X213454Y128536D01*
X214454D01*
X214954Y128036D01*
Y125036D01*
X214454Y124536D02*X214954Y125036D01*
X213454Y124536D02*X214454D01*
X212954Y125036D02*X213454Y124536D01*
X213954Y125536D02*X214954Y124536D01*
X216155Y128036D02*X216655Y128536D01*
X218155D01*
X218655Y128036D01*
Y127036D01*
X216155Y124536D02*X218655Y127036D01*
X216155Y124536D02*X218655D01*
X219856Y125036D02*X220356Y124536D01*
X219856Y128036D02*Y125036D01*
Y128036D02*X220356Y128536D01*
X221356D01*
X221856Y128036D01*
Y125036D01*
X221356Y124536D02*X221856Y125036D01*
X220356Y124536D02*X221356D01*
X219856Y125536D02*X221856Y127536D01*
X223057Y128036D02*X223557Y128536D01*
X224557D01*
X225057Y128036D01*
Y125036D01*
X224557Y124536D02*X225057Y125036D01*
X223557Y124536D02*X224557D01*
X223057Y125036D02*X223557Y124536D01*
Y126536D02*X225057D01*
X205330Y125623D02*Y123623D01*
Y125623D02*X205830Y126123D01*
X206830D01*
X207330Y125623D02*X206830Y126123D01*
X207330Y125623D02*Y124123D01*
X205330D02*X209330D01*
X207330D02*X209330Y126123D01*
X205830Y127324D02*X205330Y127824D01*
Y129324D02*Y127824D01*
Y129324D02*X205830Y129824D01*
X206830D01*
X209330Y127324D02*X206830Y129824D01*
X209330D02*Y127324D01*
X205830Y131025D02*X205330Y131525D01*
Y133025D02*Y131525D01*
Y133025D02*X205830Y133525D01*
X206830D01*
X209330Y131025D02*X206830Y133525D01*
X209330D02*Y131025D01*
X205330Y136726D02*Y134726D01*
X207330D01*
X206830Y135226D01*
Y136226D02*Y135226D01*
Y136226D02*X207330Y136726D01*
X208830D01*
X209330Y136226D02*X208830Y136726D01*
X209330Y136226D02*Y135226D01*
X208830Y134726D02*X209330Y135226D01*
X208045Y143358D02*X209545D01*
X207545Y143858D02*X208045Y143358D01*
X207545Y146858D02*Y143858D01*
Y146858D02*X208045Y147358D01*
X209545D01*
X211246Y143358D02*X212246D01*
X211746Y147358D02*Y143358D01*
X210746Y146358D02*X211746Y147358D01*
X213447Y143858D02*X213947Y143358D01*
X213447Y146858D02*Y143858D01*
Y146858D02*X213947Y147358D01*
X214947D01*
X215447Y146858D01*
Y143858D01*
X214947Y143358D02*X215447Y143858D01*
X213947Y143358D02*X214947D01*
X213447Y144358D02*X215447Y146358D01*
X216648Y143858D02*X217148Y143358D01*
X216648Y144858D02*Y143858D01*
Y144858D02*X217148Y145358D01*
X218148D01*
X218648Y144858D01*
Y143858D01*
X218148Y143358D02*X218648Y143858D01*
X217148Y143358D02*X218148D01*
X216648Y145858D02*X217148Y145358D01*
X216648Y146858D02*Y145858D01*
Y146858D02*X217148Y147358D01*
X218148D01*
X218648Y146858D01*
Y145858D01*
X218148Y145358D02*X218648Y145858D01*
X175078Y149636D02*Y148136D01*
X174578Y147636D02*X175078Y148136D01*
X171578Y147636D02*X174578D01*
X171578D02*X171078Y148136D01*
Y149636D02*Y148136D01*
X175078Y152337D02*Y151337D01*
X171078Y151837D02*X175078D01*
X172078Y150837D02*X171078Y151837D01*
X174578Y153538D02*X175078Y154038D01*
X171578Y153538D02*X174578D01*
X171578D02*X171078Y154038D01*
Y155038D02*Y154038D01*
Y155038D02*X171578Y155538D01*
X174578D01*
X175078Y155038D02*X174578Y155538D01*
X175078Y155038D02*Y154038D01*
X174078Y153538D02*X172078Y155538D01*
X171578Y156739D02*X171078Y157239D01*
Y158239D02*Y157239D01*
Y158239D02*X171578Y158739D01*
X174578D01*
X175078Y158239D02*X174578Y158739D01*
X175078Y158239D02*Y157239D01*
X174578Y156739D02*X175078Y157239D01*
X173078Y158739D02*Y157239D01*
X173729Y137522D02*X175229D01*
X173229Y138022D02*X173729Y137522D01*
X173229Y141022D02*Y138022D01*
Y141022D02*X173729Y141522D01*
X175229D01*
X176930Y137522D02*X177930D01*
X177430Y141522D02*Y137522D01*
X176430Y140522D02*X177430Y141522D01*
X179131Y138022D02*X179631Y137522D01*
X179131Y141022D02*Y138022D01*
Y141022D02*X179631Y141522D01*
X180631D01*
X181131Y141022D01*
Y138022D01*
X180631Y137522D02*X181131Y138022D01*
X179631Y137522D02*X180631D01*
X179131Y138522D02*X181131Y140522D01*
X182332Y141522D02*X184332D01*
X182332D02*Y139522D01*
X182832Y140022D01*
X183832D01*
X184332Y139522D01*
Y138022D01*
X183832Y137522D02*X184332Y138022D01*
X182832Y137522D02*X183832D01*
X182332Y138022D02*X182832Y137522D01*
X176717Y161930D02*X178217D01*
X176217Y162430D02*X176717Y161930D01*
X176217Y165430D02*Y162430D01*
Y165430D02*X176717Y165930D01*
X178217D01*
X179918Y161930D02*X180918D01*
X180418Y165930D02*Y161930D01*
X179418Y164930D02*X180418Y165930D01*
X182119Y162430D02*X182619Y161930D01*
X182119Y165430D02*Y162430D01*
Y165430D02*X182619Y165930D01*
X183619D01*
X184119Y165430D01*
Y162430D01*
X183619Y161930D02*X184119Y162430D01*
X182619Y161930D02*X183619D01*
X182119Y162930D02*X184119Y164930D01*
X186820Y165930D02*X187320Y165430D01*
X185820Y165930D02*X186820D01*
X185320Y165430D02*X185820Y165930D01*
X185320Y165430D02*Y162430D01*
X185820Y161930D01*
X186820Y163930D02*X187320Y163430D01*
X185320Y163930D02*X186820D01*
X185820Y161930D02*X186820D01*
X187320Y162430D01*
Y163430D02*Y162430D01*
X199362Y147200D02*X202862D01*
X203362Y147700D01*
Y148700D02*Y147700D01*
Y148700D02*X202862Y149200D01*
X199362D02*X202862D01*
X203362Y151901D02*Y150901D01*
X199362Y151401D02*X203362D01*
X200362Y150401D02*X199362Y151401D01*
X202862Y153102D02*X203362Y153602D01*
X199862Y153102D02*X202862D01*
X199862D02*X199362Y153602D01*
Y154602D02*Y153602D01*
Y154602D02*X199862Y155102D01*
X202862D01*
X203362Y154602D02*X202862Y155102D01*
X203362Y154602D02*Y153602D01*
X202362Y153102D02*X200362Y155102D01*
X203362Y157803D02*Y156803D01*
X199362Y157303D02*X203362D01*
X200362Y156303D02*X199362Y157303D01*
X207830Y86083D02*Y82583D01*
X208330Y82083D01*
X209330D01*
X209830Y82583D01*
Y86083D02*Y82583D01*
X211031Y85583D02*X211531Y86083D01*
X213031D01*
X213531Y85583D01*
Y84583D01*
X211031Y82083D02*X213531Y84583D01*
X211031Y82083D02*X213531D01*
X214732Y82583D02*X215232Y82083D01*
X214732Y85583D02*Y82583D01*
Y85583D02*X215232Y86083D01*
X216232D01*
X216732Y85583D01*
Y82583D01*
X216232Y82083D02*X216732Y82583D01*
X215232Y82083D02*X216232D01*
X214732Y83083D02*X216732Y85083D01*
X217933Y84083D02*X219933Y86083D01*
X217933Y84083D02*X220433D01*
X219933Y86083D02*Y82083D01*
X168778Y126014D02*Y124514D01*
X168278Y124014D02*X168778Y124514D01*
X165278Y124014D02*X168278D01*
X165278D02*X164778Y124514D01*
Y126014D02*Y124514D01*
X165278Y127215D02*X164778Y127715D01*
Y129215D02*Y127715D01*
Y129215D02*X165278Y129715D01*
X166278D01*
X168778Y127215D02*X166278Y129715D01*
X168778D02*Y127215D01*
X168278Y130916D02*X168778Y131416D01*
X165278Y130916D02*X168278D01*
X165278D02*X164778Y131416D01*
Y132416D02*Y131416D01*
Y132416D02*X165278Y132916D01*
X168278D01*
X168778Y132416D02*X168278Y132916D01*
X168778Y132416D02*Y131416D01*
X167778Y130916D02*X165778Y132916D01*
X168778Y134117D02*X166778Y136117D01*
X165278D02*X166778D01*
X164778Y135617D02*X165278Y136117D01*
X164778Y135617D02*Y134617D01*
X165278Y134117D02*X164778Y134617D01*
X165278Y134117D02*X166278D01*
X166778Y134617D01*
Y136117D02*Y134617D01*
X182623Y130826D02*X184123D01*
X182123Y131326D02*X182623Y130826D01*
X182123Y134326D02*Y131326D01*
Y134326D02*X182623Y134826D01*
X184123D01*
X185324Y134326D02*X185824Y134826D01*
X187324D01*
X187824Y134326D01*
Y133326D01*
X185324Y130826D02*X187824Y133326D01*
X185324Y130826D02*X187824D01*
X189525D02*X190525D01*
X190025Y134826D02*Y130826D01*
X189025Y133826D02*X190025Y134826D01*
X191726Y131326D02*X192226Y130826D01*
X191726Y134326D02*Y131326D01*
Y134326D02*X192226Y134826D01*
X193226D01*
X193726Y134326D01*
Y131326D01*
X193226Y130826D02*X193726Y131326D01*
X192226Y130826D02*X193226D01*
X191726Y131826D02*X193726Y133826D01*
X141500Y134827D02*X143500D01*
X144000Y134327D01*
Y133327D01*
X143500Y132827D02*X144000Y133327D01*
X142000Y132827D02*X143500D01*
X142000Y134827D02*Y130827D01*
Y132827D02*X144000Y130827D01*
X145201Y134327D02*X145701Y134827D01*
X147201D01*
X147701Y134327D01*
Y133327D01*
X145201Y130827D02*X147701Y133327D01*
X145201Y130827D02*X147701D01*
X149402D02*X150402D01*
X149902Y134827D02*Y130827D01*
X148902Y133827D02*X149902Y134827D01*
X151603Y130827D02*X154103Y133327D01*
Y134827D02*Y133327D01*
X151603Y134827D02*X154103D01*
X171819Y111006D02*Y107506D01*
X172319Y107006D01*
X173319D01*
X173819Y107506D01*
Y111006D02*Y107506D01*
X175020Y110506D02*X175520Y111006D01*
X177020D01*
X177520Y110506D01*
Y109506D01*
X175020Y107006D02*X177520Y109506D01*
X175020Y107006D02*X177520D01*
X178721Y107506D02*X179221Y107006D01*
X178721Y110506D02*Y107506D01*
Y110506D02*X179221Y111006D01*
X180221D01*
X180721Y110506D01*
Y107506D01*
X180221Y107006D02*X180721Y107506D01*
X179221Y107006D02*X180221D01*
X178721Y108006D02*X180721Y110006D01*
X181922Y110506D02*X182422Y111006D01*
X183422D01*
X183922Y110506D01*
Y107506D01*
X183422Y107006D02*X183922Y107506D01*
X182422Y107006D02*X183422D01*
X181922Y107506D02*X182422Y107006D01*
Y109006D02*X183922D01*
X228955Y125068D02*Y123068D01*
Y125068D02*X229455Y125568D01*
X230455D01*
X230955Y125068D02*X230455Y125568D01*
X230955Y125068D02*Y123568D01*
X228955D02*X232955D01*
X230955D02*X232955Y125568D01*
X229455Y126769D02*X228955Y127269D01*
Y128769D02*Y127269D01*
Y128769D02*X229455Y129269D01*
X230455D01*
X232955Y126769D02*X230455Y129269D01*
X232955D02*Y126769D01*
X229455Y130470D02*X228955Y130970D01*
Y132470D02*Y130970D01*
Y132470D02*X229455Y132970D01*
X230455D01*
X232955Y130470D02*X230455Y132970D01*
X232955D02*Y130470D01*
X230955Y134171D02*X228955Y136171D01*
X230955Y136671D02*Y134171D01*
X228955Y136171D02*X232955D01*
X104998Y117586D02*Y116086D01*
X104498Y115586D02*X104998Y116086D01*
X101498Y115586D02*X104498D01*
X101498D02*X100998Y116086D01*
Y117586D02*Y116086D01*
X101498Y118787D02*X100998Y119287D01*
Y120787D02*Y119287D01*
Y120787D02*X101498Y121287D01*
X102498D01*
X104998Y118787D02*X102498Y121287D01*
X104998D02*Y118787D01*
X104498Y122488D02*X104998Y122988D01*
X101498Y122488D02*X104498D01*
X101498D02*X100998Y122988D01*
Y123988D02*Y122988D01*
Y123988D02*X101498Y124488D01*
X104498D01*
X104998Y123988D02*X104498Y124488D01*
X104998Y123988D02*Y122988D01*
X103998Y122488D02*X101998Y124488D01*
X104498Y125689D02*X104998Y126189D01*
X101498Y125689D02*X104498D01*
X101498D02*X100998Y126189D01*
Y127189D02*Y126189D01*
Y127189D02*X101498Y127689D01*
X104498D01*
X104998Y127189D02*X104498Y127689D01*
X104998Y127189D02*Y126189D01*
X103998Y125689D02*X101998Y127689D01*
X93530Y44512D02*X96530D01*
X93530D02*X93030Y45012D01*
Y46012D02*Y45012D01*
Y46012D02*X93530Y46512D01*
X96530D01*
X97030Y46012D02*X96530Y46512D01*
X97030Y46012D02*Y45012D01*
X96530Y44512D02*X97030Y45012D01*
X96030Y45512D02*X97030Y46512D01*
X93530Y47713D02*X93030Y48213D01*
Y49713D02*Y48213D01*
Y49713D02*X93530Y50213D01*
X94530D01*
X97030Y47713D02*X94530Y50213D01*
X97030D02*Y47713D01*
X96530Y51414D02*X97030Y51914D01*
X93530Y51414D02*X96530D01*
X93530D02*X93030Y51914D01*
Y52914D02*Y51914D01*
Y52914D02*X93530Y53414D01*
X96530D01*
X97030Y52914D02*X96530Y53414D01*
X97030Y52914D02*Y51914D01*
X96030Y51414D02*X94030Y53414D01*
X93030Y56615D02*Y54615D01*
X95030D01*
X94530Y55115D01*
Y56115D02*Y55115D01*
Y56115D02*X95030Y56615D01*
X96530D01*
X97030Y56115D02*X96530Y56615D01*
X97030Y56115D02*Y55115D01*
X96530Y54615D02*X97030Y55115D01*
X94256Y40733D02*X96256D01*
X96756Y40233D01*
Y39233D01*
X96256Y38733D02*X96756Y39233D01*
X94756Y38733D02*X96256D01*
X94756Y40733D02*Y36733D01*
Y38733D02*X96756Y36733D01*
X97957Y40233D02*X98457Y40733D01*
X99957D01*
X100457Y40233D01*
Y39233D01*
X97957Y36733D02*X100457Y39233D01*
X97957Y36733D02*X100457D01*
X101658Y38733D02*X103658Y40733D01*
X101658Y38733D02*X104158D01*
X103658Y40733D02*Y36733D01*
X105359Y37233D02*X105859Y36733D01*
X105359Y38233D02*Y37233D01*
Y38233D02*X105859Y38733D01*
X106859D01*
X107359Y38233D01*
Y37233D01*
X106859Y36733D02*X107359Y37233D01*
X105859Y36733D02*X106859D01*
X105359Y39233D02*X105859Y38733D01*
X105359Y40233D02*Y39233D01*
Y40233D02*X105859Y40733D01*
X106859D01*
X107359Y40233D01*
Y39233D01*
X106859Y38733D02*X107359Y39233D01*
X116271Y62949D02*Y58949D01*
X117771Y62949D02*X118271Y62449D01*
Y59449D01*
X117771Y58949D02*X118271Y59449D01*
X115771Y58949D02*X117771D01*
X115771Y62949D02*X117771D01*
X119472Y62449D02*X119972Y62949D01*
X121472D01*
X121972Y62449D01*
Y61449D01*
X119472Y58949D02*X121972Y61449D01*
X119472Y58949D02*X121972D01*
X123173Y59449D02*X123673Y58949D01*
X123173Y62449D02*Y59449D01*
Y62449D02*X123673Y62949D01*
X124673D01*
X125173Y62449D01*
Y59449D01*
X124673Y58949D02*X125173Y59449D01*
X123673Y58949D02*X124673D01*
X123173Y59949D02*X125173Y61949D01*
X126374Y59449D02*X126874Y58949D01*
X126374Y60449D02*Y59449D01*
Y60449D02*X126874Y60949D01*
X127874D01*
X128374Y60449D01*
Y59449D01*
X127874Y58949D02*X128374Y59449D01*
X126874Y58949D02*X127874D01*
X126374Y61449D02*X126874Y60949D01*
X126374Y62449D02*Y61449D01*
Y62449D02*X126874Y62949D01*
X127874D01*
X128374Y62449D01*
Y61449D01*
X127874Y60949D02*X128374Y61449D01*
X137562Y38763D02*X139562D01*
X140062Y38263D01*
Y37263D01*
X139562Y36763D02*X140062Y37263D01*
X138062Y36763D02*X139562D01*
X138062Y38763D02*Y34763D01*
Y36763D02*X140062Y34763D01*
X141263Y38263D02*X141763Y38763D01*
X143263D01*
X143763Y38263D01*
Y37263D01*
X141263Y34763D02*X143763Y37263D01*
X141263Y34763D02*X143763D01*
X144964Y36763D02*X146964Y38763D01*
X144964Y36763D02*X147464D01*
X146964Y38763D02*Y34763D01*
X148665D02*X150665Y36763D01*
Y38263D02*Y36763D01*
X150165Y38763D02*X150665Y38263D01*
X149165Y38763D02*X150165D01*
X148665Y38263D02*X149165Y38763D01*
X148665Y38263D02*Y37263D01*
X149165Y36763D01*
X150665D01*
X132102Y57351D02*Y55351D01*
Y57351D02*X132602Y57851D01*
X133602D01*
X134102Y57351D02*X133602Y57851D01*
X134102Y57351D02*Y55851D01*
X132102D02*X136102D01*
X134102D02*X136102Y57851D01*
X132602Y59052D02*X132102Y59552D01*
Y61052D02*Y59552D01*
Y61052D02*X132602Y61552D01*
X133602D01*
X136102Y59052D02*X133602Y61552D01*
X136102D02*Y59052D01*
X132102Y64753D02*Y62753D01*
X134102D01*
X133602Y63253D01*
Y64253D02*Y63253D01*
Y64253D02*X134102Y64753D01*
X135602D01*
X136102Y64253D02*X135602Y64753D01*
X136102Y64253D02*Y63253D01*
X135602Y62753D02*X136102Y63253D01*
X135602Y65954D02*X136102Y66454D01*
X132602Y65954D02*X135602D01*
X132602D02*X132102Y66454D01*
Y67454D02*Y66454D01*
Y67454D02*X132602Y67954D01*
X135602D01*
X136102Y67454D02*X135602Y67954D01*
X136102Y67454D02*Y66454D01*
X135102Y65954D02*X133102Y67954D01*
X145551Y21291D02*Y19791D01*
X145051Y19291D02*X145551Y19791D01*
X142051Y19291D02*X145051D01*
X142051D02*X141551Y19791D01*
Y21291D02*Y19791D01*
X142051Y22492D02*X141551Y22992D01*
Y24492D02*Y22992D01*
Y24492D02*X142051Y24992D01*
X143051D01*
X145551Y22492D02*X143051Y24992D01*
X145551D02*Y22492D01*
Y27693D02*Y26693D01*
X141551Y27193D02*X145551D01*
X142551Y26193D02*X141551Y27193D01*
X145551Y28894D02*X143551Y30894D01*
X142051D02*X143551D01*
X141551Y30394D02*X142051Y30894D01*
X141551Y30394D02*Y29394D01*
X142051Y28894D02*X141551Y29394D01*
X142051Y28894D02*X143051D01*
X143551Y29394D01*
Y30894D02*Y29394D01*
X275429Y298998D02*X277429D01*
X277929Y298498D01*
Y297498D01*
X277429Y296998D02*X277929Y297498D01*
X275929Y296998D02*X277429D01*
X275929Y298998D02*Y294998D01*
Y296998D02*X277929Y294998D01*
X279130Y298498D02*X279630Y298998D01*
X281130D01*
X281630Y298498D01*
Y297498D01*
X279130Y294998D02*X281630Y297498D01*
X279130Y294998D02*X281630D01*
X282831Y296998D02*X284831Y298998D01*
X282831Y296998D02*X285331D01*
X284831Y298998D02*Y294998D01*
X288032Y298998D02*X288532Y298498D01*
X287032Y298998D02*X288032D01*
X286532Y298498D02*X287032Y298998D01*
X286532Y298498D02*Y295498D01*
X287032Y294998D01*
X288032Y296998D02*X288532Y296498D01*
X286532Y296998D02*X288032D01*
X287032Y294998D02*X288032D01*
X288532Y295498D01*
Y296498D02*Y295498D01*
X263599Y289170D02*Y287170D01*
Y289170D02*X264099Y289670D01*
X265099D01*
X265599Y289170D02*X265099Y289670D01*
X265599Y289170D02*Y287670D01*
X263599D02*X267599D01*
X265599D02*X267599Y289670D01*
X264099Y290871D02*X263599Y291371D01*
Y292871D02*Y291371D01*
Y292871D02*X264099Y293371D01*
X265099D01*
X267599Y290871D02*X265099Y293371D01*
X267599D02*Y290871D01*
X264099Y294572D02*X263599Y295072D01*
Y296072D02*Y295072D01*
Y296072D02*X264099Y296572D01*
X267099D01*
X267599Y296072D02*X267099Y296572D01*
X267599Y296072D02*Y295072D01*
X267099Y294572D02*X267599Y295072D01*
X265599Y296572D02*Y295072D01*
X264099Y297773D02*X263599Y298273D01*
Y299773D02*Y298273D01*
Y299773D02*X264099Y300273D01*
X265099D01*
X267599Y297773D02*X265099Y300273D01*
X267599D02*Y297773D01*
X269111Y323814D02*Y321814D01*
Y323814D02*X269611Y324314D01*
X270611D01*
X271111Y323814D02*X270611Y324314D01*
X271111Y323814D02*Y322314D01*
X269111D02*X273111D01*
X271111D02*X273111Y324314D01*
X269611Y325515D02*X269111Y326015D01*
Y327515D02*Y326015D01*
Y327515D02*X269611Y328015D01*
X270611D01*
X273111Y325515D02*X270611Y328015D01*
X273111D02*Y325515D01*
X269611Y329216D02*X269111Y329716D01*
Y330716D02*Y329716D01*
Y330716D02*X269611Y331216D01*
X272611D01*
X273111Y330716D02*X272611Y331216D01*
X273111Y330716D02*Y329716D01*
X272611Y329216D02*X273111Y329716D01*
X271111Y331216D02*Y329716D01*
X269611Y332417D02*X269111Y332917D01*
Y333917D02*Y332917D01*
Y333917D02*X269611Y334417D01*
X272611D01*
X273111Y333917D02*X272611Y334417D01*
X273111Y333917D02*Y332917D01*
X272611Y332417D02*X273111Y332917D01*
X271111Y334417D02*Y332917D01*
X227583Y287179D02*Y284179D01*
Y287179D02*X228083Y287679D01*
X229083D01*
X229583Y287179D01*
Y284179D01*
X229083Y283679D02*X229583Y284179D01*
X228083Y283679D02*X229083D01*
X227583Y284179D02*X228083Y283679D01*
X228583Y284679D02*X229583Y283679D01*
X231284D02*X232284D01*
X231784Y287679D02*Y283679D01*
X230784Y286679D02*X231784Y287679D01*
X233485Y284179D02*X233985Y283679D01*
X233485Y287179D02*Y284179D01*
Y287179D02*X233985Y287679D01*
X234985D01*
X235485Y287179D01*
Y284179D01*
X234985Y283679D02*X235485Y284179D01*
X233985Y283679D02*X234985D01*
X233485Y284679D02*X235485Y286679D01*
X236686Y284179D02*X237186Y283679D01*
X236686Y287179D02*Y284179D01*
Y287179D02*X237186Y287679D01*
X238186D01*
X238686Y287179D01*
Y284179D01*
X238186Y283679D02*X238686Y284179D01*
X237186Y283679D02*X238186D01*
X236686Y284679D02*X238686Y286679D01*
X215553Y278232D02*X217053D01*
Y274732D01*
X216553Y274232D02*X217053Y274732D01*
X216053Y274232D02*X216553D01*
X215553Y274732D02*X216053Y274232D01*
X218754D02*X219754D01*
X219254Y278232D02*Y274232D01*
X218254Y277232D02*X219254Y278232D01*
X220955Y274732D02*X221455Y274232D01*
X220955Y277732D02*Y274732D01*
Y277732D02*X221455Y278232D01*
X222455D01*
X222955Y277732D01*
Y274732D01*
X222455Y274232D02*X222955Y274732D01*
X221455Y274232D02*X222455D01*
X220955Y275232D02*X222955Y277232D01*
X224656Y274232D02*X225656D01*
X225156Y278232D02*Y274232D01*
X224156Y277232D02*X225156Y278232D01*
X305117Y380495D02*X307117D01*
X307617Y379995D01*
Y378995D01*
X307117Y378495D02*X307617Y378995D01*
X305617Y378495D02*X307117D01*
X305617Y380495D02*Y376495D01*
Y378495D02*X307617Y376495D01*
X308818Y379995D02*X309318Y380495D01*
X310818D01*
X311318Y379995D01*
Y378995D01*
X308818Y376495D02*X311318Y378995D01*
X308818Y376495D02*X311318D01*
X312519Y376995D02*X313019Y376495D01*
X312519Y379995D02*Y376995D01*
Y379995D02*X313019Y380495D01*
X314019D01*
X314519Y379995D01*
Y376995D01*
X314019Y376495D02*X314519Y376995D01*
X313019Y376495D02*X314019D01*
X312519Y377495D02*X314519Y379495D01*
X317220Y380495D02*X317720Y379995D01*
X316220Y380495D02*X317220D01*
X315720Y379995D02*X316220Y380495D01*
X315720Y379995D02*Y376995D01*
X316220Y376495D01*
X317220Y378495D02*X317720Y377995D01*
X315720Y378495D02*X317220D01*
X316220Y376495D02*X317220D01*
X317720Y376995D01*
Y377995D02*Y376995D01*
X291678Y312718D02*X293178D01*
X291178Y313218D02*X291678Y312718D01*
X291178Y316218D02*Y313218D01*
Y316218D02*X291678Y316718D01*
X293178D01*
X294379Y316218D02*X294879Y316718D01*
X296379D01*
X296879Y316218D01*
Y315218D01*
X294379Y312718D02*X296879Y315218D01*
X294379Y312718D02*X296879D01*
X298580D02*X299580D01*
X299080Y316718D02*Y312718D01*
X298080Y315718D02*X299080Y316718D01*
X300781Y316218D02*X301281Y316718D01*
X302781D01*
X303281Y316218D01*
Y315218D01*
X300781Y312718D02*X303281Y315218D01*
X300781Y312718D02*X303281D01*
X280942Y335615D02*X282942D01*
X283442Y335115D01*
Y334115D01*
X282942Y333615D02*X283442Y334115D01*
X281442Y333615D02*X282942D01*
X281442Y335615D02*Y331615D01*
Y333615D02*X283442Y331615D01*
X284643Y335115D02*X285143Y335615D01*
X286643D01*
X287143Y335115D01*
Y334115D01*
X284643Y331615D02*X287143Y334115D01*
X284643Y331615D02*X287143D01*
X288344Y335115D02*X288844Y335615D01*
X289844D01*
X290344Y335115D01*
Y332115D01*
X289844Y331615D02*X290344Y332115D01*
X288844Y331615D02*X289844D01*
X288344Y332115D02*X288844Y331615D01*
Y333615D02*X290344D01*
X293045Y335615D02*X293545Y335115D01*
X292045Y335615D02*X293045D01*
X291545Y335115D02*X292045Y335615D01*
X291545Y335115D02*Y332115D01*
X292045Y331615D01*
X293045Y333615D02*X293545Y333115D01*
X291545Y333615D02*X293045D01*
X292045Y331615D02*X293045D01*
X293545Y332115D01*
Y333115D02*Y332115D01*
X296417Y351263D02*Y348263D01*
Y351263D02*X296917Y351763D01*
X297917D01*
X298417Y351263D01*
Y348263D01*
X297917Y347763D02*X298417Y348263D01*
X296917Y347763D02*X297917D01*
X296417Y348263D02*X296917Y347763D01*
X297417Y348763D02*X298417Y347763D01*
X299618Y351263D02*X300118Y351763D01*
X301618D01*
X302118Y351263D01*
Y350263D01*
X299618Y347763D02*X302118Y350263D01*
X299618Y347763D02*X302118D01*
X303319Y348263D02*X303819Y347763D01*
X303319Y351263D02*Y348263D01*
Y351263D02*X303819Y351763D01*
X304819D01*
X305319Y351263D01*
Y348263D01*
X304819Y347763D02*X305319Y348263D01*
X303819Y347763D02*X304819D01*
X303319Y348763D02*X305319Y350763D01*
X306520Y348263D02*X307020Y347763D01*
X306520Y351263D02*Y348263D01*
Y351263D02*X307020Y351763D01*
X308020D01*
X308520Y351263D01*
Y348263D01*
X308020Y347763D02*X308520Y348263D01*
X307020Y347763D02*X308020D01*
X306520Y348763D02*X308520Y350763D01*
X291678Y320592D02*X293178D01*
X291178Y321092D02*X291678Y320592D01*
X291178Y324092D02*Y321092D01*
Y324092D02*X291678Y324592D01*
X293178D01*
X294379Y324092D02*X294879Y324592D01*
X296379D01*
X296879Y324092D01*
Y323092D01*
X294379Y320592D02*X296879Y323092D01*
X294379Y320592D02*X296879D01*
X298580D02*X299580D01*
X299080Y324592D02*Y320592D01*
X298080Y323592D02*X299080Y324592D01*
X300781Y324092D02*X301281Y324592D01*
X302281D01*
X302781Y324092D01*
Y321092D01*
X302281Y320592D02*X302781Y321092D01*
X301281Y320592D02*X302281D01*
X300781Y321092D02*X301281Y320592D01*
Y322592D02*X302781D01*
X295883Y257119D02*Y255119D01*
Y257119D02*X296383Y257619D01*
X297383D01*
X297883Y257119D02*X297383Y257619D01*
X297883Y257119D02*Y255619D01*
X295883D02*X299883D01*
X297883D02*X299883Y257619D01*
X296383Y258820D02*X295883Y259320D01*
Y260820D02*Y259320D01*
Y260820D02*X296383Y261320D01*
X297383D01*
X299883Y258820D02*X297383Y261320D01*
X299883D02*Y258820D01*
X296383Y262521D02*X295883Y263021D01*
Y264021D02*Y263021D01*
Y264021D02*X296383Y264521D01*
X299383D01*
X299883Y264021D02*X299383Y264521D01*
X299883Y264021D02*Y263021D01*
X299383Y262521D02*X299883Y263021D01*
X297883Y264521D02*Y263021D01*
X299883Y265722D02*X297883Y267722D01*
X296383D02*X297883D01*
X295883Y267222D02*X296383Y267722D01*
X295883Y267222D02*Y266222D01*
X296383Y265722D02*X295883Y266222D01*
X296383Y265722D02*X297383D01*
X297883Y266222D01*
Y267722D02*Y266222D01*
X311630Y308300D02*Y306300D01*
Y308300D02*X312130Y308800D01*
X313130D01*
X313630Y308300D02*X313130Y308800D01*
X313630Y308300D02*Y306800D01*
X311630D02*X315630D01*
X313630D02*X315630Y308800D01*
X312130Y310001D02*X311630Y310501D01*
Y312001D02*Y310501D01*
Y312001D02*X312130Y312501D01*
X313130D01*
X315630Y310001D02*X313130Y312501D01*
X315630D02*Y310001D01*
X315130Y313702D02*X315630Y314202D01*
X312130Y313702D02*X315130D01*
X312130D02*X311630Y314202D01*
Y315202D02*Y314202D01*
Y315202D02*X312130Y315702D01*
X315130D01*
X315630Y315202D02*X315130Y315702D01*
X315630Y315202D02*Y314202D01*
X314630Y313702D02*X312630Y315702D01*
X312130Y316903D02*X311630Y317403D01*
Y318903D02*Y317403D01*
Y318903D02*X312130Y319403D01*
X313130D01*
X315630Y316903D02*X313130Y319403D01*
X315630D02*Y316903D01*
Y291370D02*Y289870D01*
X315130Y289370D02*X315630Y289870D01*
X312130Y289370D02*X315130D01*
X312130D02*X311630Y289870D01*
Y291370D02*Y289870D01*
X312130Y292571D02*X311630Y293071D01*
Y294571D02*Y293071D01*
Y294571D02*X312130Y295071D01*
X313130D01*
X315630Y292571D02*X313130Y295071D01*
X315630D02*Y292571D01*
X315130Y296272D02*X315630Y296772D01*
X312130Y296272D02*X315130D01*
X312130D02*X311630Y296772D01*
Y297772D02*Y296772D01*
Y297772D02*X312130Y298272D01*
X315130D01*
X315630Y297772D02*X315130Y298272D01*
X315630Y297772D02*Y296772D01*
X314630Y296272D02*X312630Y298272D01*
X313630Y299473D02*X311630Y301473D01*
X313630Y301973D02*Y299473D01*
X311630Y301473D02*X315630D01*
X384878Y289551D02*X386878D01*
X387378Y289051D01*
Y288051D01*
X386878Y287551D02*X387378Y288051D01*
X385378Y287551D02*X386878D01*
X385378Y289551D02*Y285551D01*
Y287551D02*X387378Y285551D01*
X388579Y289051D02*X389079Y289551D01*
X390579D01*
X391079Y289051D01*
Y288051D01*
X388579Y285551D02*X391079Y288051D01*
X388579Y285551D02*X391079D01*
X392280Y286051D02*X392780Y285551D01*
X392280Y289051D02*Y286051D01*
Y289051D02*X392780Y289551D01*
X393780D01*
X394280Y289051D01*
Y286051D01*
X393780Y285551D02*X394280Y286051D01*
X392780Y285551D02*X393780D01*
X392280Y286551D02*X394280Y288551D01*
X395481Y286051D02*X395981Y285551D01*
X395481Y287051D02*Y286051D01*
Y287051D02*X395981Y287551D01*
X396981D01*
X397481Y287051D01*
Y286051D01*
X396981Y285551D02*X397481Y286051D01*
X395981Y285551D02*X396981D01*
X395481Y288051D02*X395981Y287551D01*
X395481Y289051D02*Y288051D01*
Y289051D02*X395981Y289551D01*
X396981D01*
X397481Y289051D01*
Y288051D01*
X396981Y287551D02*X397481Y288051D01*
X380654Y291065D02*X382154D01*
X380154Y291565D02*X380654Y291065D01*
X380154Y294565D02*Y291565D01*
Y294565D02*X380654Y295065D01*
X382154D01*
X383355Y294565D02*X383855Y295065D01*
X385355D01*
X385855Y294565D01*
Y293565D01*
X383355Y291065D02*X385855Y293565D01*
X383355Y291065D02*X385855D01*
X387056Y291565D02*X387556Y291065D01*
X387056Y294565D02*Y291565D01*
Y294565D02*X387556Y295065D01*
X388556D01*
X389056Y294565D01*
Y291565D01*
X388556Y291065D02*X389056Y291565D01*
X387556Y291065D02*X388556D01*
X387056Y292065D02*X389056Y294065D01*
X391757Y295065D02*X392257Y294565D01*
X390757Y295065D02*X391757D01*
X390257Y294565D02*X390757Y295065D01*
X390257Y294565D02*Y291565D01*
X390757Y291065D01*
X391757Y293065D02*X392257Y292565D01*
X390257Y293065D02*X391757D01*
X390757Y291065D02*X391757D01*
X392257Y291565D01*
Y292565D02*Y291565D01*
X380653Y297364D02*X382153D01*
X380153Y297864D02*X380653Y297364D01*
X380153Y300864D02*Y297864D01*
Y300864D02*X380653Y301364D01*
X382153D01*
X383354Y300864D02*X383854Y301364D01*
X385354D01*
X385854Y300864D01*
Y299864D01*
X383354Y297364D02*X385854Y299864D01*
X383354Y297364D02*X385854D01*
X387055Y297864D02*X387555Y297364D01*
X387055Y300864D02*Y297864D01*
Y300864D02*X387555Y301364D01*
X388555D01*
X389055Y300864D01*
Y297864D01*
X388555Y297364D02*X389055Y297864D01*
X387555Y297364D02*X388555D01*
X387055Y298364D02*X389055Y300364D01*
X390256Y301364D02*X392256D01*
X390256D02*Y299364D01*
X390756Y299864D01*
X391756D01*
X392256Y299364D01*
Y297864D01*
X391756Y297364D02*X392256Y297864D01*
X390756Y297364D02*X391756D01*
X390256Y297864D02*X390756Y297364D01*
X375982Y315928D02*Y315428D01*
X378482Y312928D01*
Y311928D01*
X375982Y312928D02*Y311928D01*
Y312928D02*X378482Y315428D01*
Y315928D02*Y315428D01*
X379683D02*X380183Y315928D01*
X381683D01*
X382183Y315428D01*
Y314428D01*
X379683Y311928D02*X382183Y314428D01*
X379683Y311928D02*X382183D01*
X383384Y312428D02*X383884Y311928D01*
X383384Y315428D02*Y312428D01*
Y315428D02*X383884Y315928D01*
X384884D01*
X385384Y315428D01*
Y312428D01*
X384884Y311928D02*X385384Y312428D01*
X383884Y311928D02*X384884D01*
X383384Y312928D02*X385384Y314928D01*
X386585Y312428D02*X387085Y311928D01*
X386585Y315428D02*Y312428D01*
Y315428D02*X387085Y315928D01*
X388085D01*
X388585Y315428D01*
Y312428D01*
X388085Y311928D02*X388585Y312428D01*
X387085Y311928D02*X388085D01*
X386585Y312928D02*X388585Y314928D01*
X406119Y299084D02*Y297084D01*
Y299084D02*X406619Y299584D01*
X407619D01*
X408119Y299084D02*X407619Y299584D01*
X408119Y299084D02*Y297584D01*
X406119D02*X410119D01*
X408119D02*X410119Y299584D01*
X406619Y300785D02*X406119Y301285D01*
Y302285D02*Y301285D01*
Y302285D02*X406619Y302785D01*
X409619D01*
X410119Y302285D02*X409619Y302785D01*
X410119Y302285D02*Y301285D01*
X409619Y300785D02*X410119Y301285D01*
X408119Y302785D02*Y301285D01*
X409619Y303986D02*X410119Y304486D01*
X406619Y303986D02*X409619D01*
X406619D02*X406119Y304486D01*
Y305486D02*Y304486D01*
Y305486D02*X406619Y305986D01*
X409619D01*
X410119Y305486D02*X409619Y305986D01*
X410119Y305486D02*Y304486D01*
X409119Y303986D02*X407119Y305986D01*
X406619Y307187D02*X406119Y307687D01*
Y308687D02*Y307687D01*
Y308687D02*X406619Y309187D01*
X409619D01*
X410119Y308687D02*X409619Y309187D01*
X410119Y308687D02*Y307687D01*
X409619Y307187D02*X410119Y307687D01*
X408119Y309187D02*Y307687D01*
X428517Y339271D02*Y335771D01*
X429017Y335271D01*
X430017D01*
X430517Y335771D01*
Y339271D02*Y335771D01*
X431718Y338771D02*X432218Y339271D01*
X433218D01*
X433718Y338771D01*
Y335771D01*
X433218Y335271D02*X433718Y335771D01*
X432218Y335271D02*X433218D01*
X431718Y335771D02*X432218Y335271D01*
Y337271D02*X433718D01*
X434919Y335771D02*X435419Y335271D01*
X434919Y338771D02*Y335771D01*
Y338771D02*X435419Y339271D01*
X436419D01*
X436919Y338771D01*
Y335771D01*
X436419Y335271D02*X436919Y335771D01*
X435419Y335271D02*X436419D01*
X434919Y336271D02*X436919Y338271D01*
X438120Y338771D02*X438620Y339271D01*
X439620D01*
X440120Y338771D01*
Y335771D01*
X439620Y335271D02*X440120Y335771D01*
X438620Y335271D02*X439620D01*
X438120Y335771D02*X438620Y335271D01*
Y337271D02*X440120D01*
X413205Y299012D02*Y297012D01*
Y299012D02*X413705Y299512D01*
X414705D01*
X415205Y299012D02*X414705Y299512D01*
X415205Y299012D02*Y297512D01*
X413205D02*X417205D01*
X415205D02*X417205Y299512D01*
X413705Y300713D02*X413205Y301213D01*
Y302213D02*Y301213D01*
Y302213D02*X413705Y302713D01*
X416705D01*
X417205Y302213D02*X416705Y302713D01*
X417205Y302213D02*Y301213D01*
X416705Y300713D02*X417205Y301213D01*
X415205Y302713D02*Y301213D01*
X413705Y303914D02*X413205Y304414D01*
Y305914D02*Y304414D01*
Y305914D02*X413705Y306414D01*
X414705D01*
X417205Y303914D02*X414705Y306414D01*
X417205D02*Y303914D01*
X413705Y307615D02*X413205Y308115D01*
Y309615D02*Y308115D01*
Y309615D02*X413705Y310115D01*
X414705D01*
X417205Y307615D02*X414705Y310115D01*
X417205D02*Y307615D01*
X424291Y299478D02*Y297978D01*
X423791Y297478D02*X424291Y297978D01*
X420791Y297478D02*X423791D01*
X420791D02*X420291Y297978D01*
Y299478D02*Y297978D01*
X420791Y300679D02*X420291Y301179D01*
Y302179D02*Y301179D01*
Y302179D02*X420791Y302679D01*
X423791D01*
X424291Y302179D02*X423791Y302679D01*
X424291Y302179D02*Y301179D01*
X423791Y300679D02*X424291Y301179D01*
X422291Y302679D02*Y301179D01*
X423791Y303880D02*X424291Y304380D01*
X420791Y303880D02*X423791D01*
X420791D02*X420291Y304380D01*
Y305380D02*Y304380D01*
Y305380D02*X420791Y305880D01*
X423791D01*
X424291Y305380D02*X423791Y305880D01*
X424291Y305380D02*Y304380D01*
X423291Y303880D02*X421291Y305880D01*
X420291Y309081D02*Y307081D01*
X422291D01*
X421791Y307581D01*
Y308581D02*Y307581D01*
Y308581D02*X422291Y309081D01*
X423791D01*
X424291Y308581D02*X423791Y309081D01*
X424291Y308581D02*Y307581D01*
X423791Y307081D02*X424291Y307581D01*
X331210Y297756D02*X332710D01*
X330710Y298256D02*X331210Y297756D01*
X330710Y301256D02*Y298256D01*
Y301256D02*X331210Y301756D01*
X332710D01*
X333911Y301256D02*X334411Y301756D01*
X335911D01*
X336411Y301256D01*
Y300256D01*
X333911Y297756D02*X336411Y300256D01*
X333911Y297756D02*X336411D01*
X337612Y298256D02*X338112Y297756D01*
X337612Y301256D02*Y298256D01*
Y301256D02*X338112Y301756D01*
X339112D01*
X339612Y301256D01*
Y298256D01*
X339112Y297756D02*X339612Y298256D01*
X338112Y297756D02*X339112D01*
X337612Y298756D02*X339612Y300756D01*
X340813Y301256D02*X341313Y301756D01*
X342313D01*
X342813Y301256D01*
Y298256D01*
X342313Y297756D02*X342813Y298256D01*
X341313Y297756D02*X342313D01*
X340813Y298256D02*X341313Y297756D01*
Y299756D02*X342813D01*
X330708Y312385D02*X332708D01*
X333208Y311885D01*
Y310885D01*
X332708Y310385D02*X333208Y310885D01*
X331208Y310385D02*X332708D01*
X331208Y312385D02*Y308385D01*
Y310385D02*X333208Y308385D01*
X334409Y311885D02*X334909Y312385D01*
X336409D01*
X336909Y311885D01*
Y310885D01*
X334409Y308385D02*X336909Y310885D01*
X334409Y308385D02*X336909D01*
X338110Y308885D02*X338610Y308385D01*
X338110Y311885D02*Y308885D01*
Y311885D02*X338610Y312385D01*
X339610D01*
X340110Y311885D01*
Y308885D01*
X339610Y308385D02*X340110Y308885D01*
X338610Y308385D02*X339610D01*
X338110Y309385D02*X340110Y311385D01*
X341811Y308385D02*X342811D01*
X342311Y312385D02*Y308385D01*
X341311Y311385D02*X342311Y312385D01*
X360342Y311536D02*X361842D01*
X359842Y312036D02*X360342Y311536D01*
X359842Y315036D02*Y312036D01*
Y315036D02*X360342Y315536D01*
X361842D01*
X363043Y315036D02*X363543Y315536D01*
X365043D01*
X365543Y315036D01*
Y314036D01*
X363043Y311536D02*X365543Y314036D01*
X363043Y311536D02*X365543D01*
X366744Y312036D02*X367244Y311536D01*
X366744Y315036D02*Y312036D01*
Y315036D02*X367244Y315536D01*
X368244D01*
X368744Y315036D01*
Y312036D01*
X368244Y311536D02*X368744Y312036D01*
X367244Y311536D02*X368244D01*
X366744Y312536D02*X368744Y314536D01*
X369945Y312036D02*X370445Y311536D01*
X369945Y313036D02*Y312036D01*
Y313036D02*X370445Y313536D01*
X371445D01*
X371945Y313036D01*
Y312036D01*
X371445Y311536D02*X371945Y312036D01*
X370445Y311536D02*X371445D01*
X369945Y314036D02*X370445Y313536D01*
X369945Y315036D02*Y314036D01*
Y315036D02*X370445Y315536D01*
X371445D01*
X371945Y315036D01*
Y314036D01*
X371445Y313536D02*X371945Y314036D01*
X424622Y266334D02*Y264334D01*
Y266334D02*X425122Y266834D01*
X426122D01*
X426622Y266334D02*X426122Y266834D01*
X426622Y266334D02*Y264834D01*
X424622D02*X428622D01*
X426622D02*X428622Y266834D01*
X425122Y268035D02*X424622Y268535D01*
Y269535D02*Y268535D01*
Y269535D02*X425122Y270035D01*
X428122D01*
X428622Y269535D02*X428122Y270035D01*
X428622Y269535D02*Y268535D01*
X428122Y268035D02*X428622Y268535D01*
X426622Y270035D02*Y268535D01*
X428622Y272736D02*Y271736D01*
X424622Y272236D02*X428622D01*
X425622Y271236D02*X424622Y272236D01*
X428622Y275437D02*Y274437D01*
X424622Y274937D02*X428622D01*
X425622Y273937D02*X424622Y274937D01*
X366480Y304843D02*X367980D01*
X365980Y305343D02*X366480Y304843D01*
X365980Y308343D02*Y305343D01*
Y308343D02*X366480Y308843D01*
X367980D01*
X369181Y308343D02*X369681Y308843D01*
X371181D01*
X371681Y308343D01*
Y307343D01*
X369181Y304843D02*X371681Y307343D01*
X369181Y304843D02*X371681D01*
X372882Y305343D02*X373382Y304843D01*
X372882Y308343D02*Y305343D01*
Y308343D02*X373382Y308843D01*
X374382D01*
X374882Y308343D01*
Y305343D01*
X374382Y304843D02*X374882Y305343D01*
X373382Y304843D02*X374382D01*
X372882Y305843D02*X374882Y307843D01*
X376083Y304843D02*X378583Y307343D01*
Y308843D02*Y307343D01*
X376083Y308843D02*X378583D01*
X283679Y360662D02*Y358662D01*
Y360662D02*X284179Y361162D01*
X285179D01*
X285679Y360662D02*X285179Y361162D01*
X285679Y360662D02*Y359162D01*
X283679D02*X287679D01*
X285679D02*X287679Y361162D01*
X284179Y362363D02*X283679Y362863D01*
Y364363D02*Y362863D01*
Y364363D02*X284179Y364863D01*
X285179D01*
X287679Y362363D02*X285179Y364863D01*
X287679D02*Y362363D01*
Y367564D02*Y366564D01*
X283679Y367064D02*X287679D01*
X284679Y366064D02*X283679Y367064D01*
X285679Y368765D02*X283679Y370765D01*
X285679Y371265D02*Y368765D01*
X283679Y370765D02*X287679D01*
X208662Y368685D02*X210662D01*
X211162Y368185D01*
Y367185D01*
X210662Y366685D02*X211162Y367185D01*
X209162Y366685D02*X210662D01*
X209162Y368685D02*Y364685D01*
Y366685D02*X211162Y364685D01*
X212363Y368185D02*X212863Y368685D01*
X214363D01*
X214863Y368185D01*
Y367185D01*
X212363Y364685D02*X214863Y367185D01*
X212363Y364685D02*X214863D01*
X216064Y365185D02*X216564Y364685D01*
X216064Y368185D02*Y365185D01*
Y368185D02*X216564Y368685D01*
X217564D01*
X218064Y368185D01*
Y365185D01*
X217564Y364685D02*X218064Y365185D01*
X216564Y364685D02*X217564D01*
X216064Y365685D02*X218064Y367685D01*
X219265Y365185D02*X219765Y364685D01*
X219265Y368185D02*Y365185D01*
Y368185D02*X219765Y368685D01*
X220765D01*
X221265Y368185D01*
Y365185D01*
X220765Y364685D02*X221265Y365185D01*
X219765Y364685D02*X220765D01*
X219265Y365685D02*X221265Y367685D01*
X209395Y352086D02*X210895D01*
X208895Y352586D02*X209395Y352086D01*
X208895Y355586D02*Y352586D01*
Y355586D02*X209395Y356086D01*
X210895D01*
X212096Y355586D02*X212596Y356086D01*
X214096D01*
X214596Y355586D01*
Y354586D01*
X212096Y352086D02*X214596Y354586D01*
X212096Y352086D02*X214596D01*
X215797Y352586D02*X216297Y352086D01*
X215797Y355586D02*Y352586D01*
Y355586D02*X216297Y356086D01*
X217297D01*
X217797Y355586D01*
Y352586D01*
X217297Y352086D02*X217797Y352586D01*
X216297Y352086D02*X217297D01*
X215797Y353086D02*X217797Y355086D01*
X218998Y355586D02*X219498Y356086D01*
X220998D01*
X221498Y355586D01*
Y354586D01*
X218998Y352086D02*X221498Y354586D01*
X218998Y352086D02*X221498D01*
X49820Y307118D02*Y305118D01*
Y307118D02*X50320Y307618D01*
X51320D01*
X51820Y307118D02*X51320Y307618D01*
X51820Y307118D02*Y305618D01*
X49820D02*X53820D01*
X51820D02*X53820Y307618D01*
X50320Y308819D02*X49820Y309319D01*
Y310819D02*Y309319D01*
Y310819D02*X50320Y311319D01*
X51320D01*
X53820Y308819D02*X51320Y311319D01*
X53820D02*Y308819D01*
X50320Y312520D02*X49820Y313020D01*
Y314520D02*Y313020D01*
Y314520D02*X50320Y315020D01*
X51320D01*
X53820Y312520D02*X51320Y315020D01*
X53820D02*Y312520D01*
Y317721D02*Y316721D01*
X49820Y317221D02*X53820D01*
X50820Y316221D02*X49820Y317221D01*
X100500Y316131D02*Y312131D01*
X102000Y316131D02*X102500Y315631D01*
Y312631D01*
X102000Y312131D02*X102500Y312631D01*
X100000Y312131D02*X102000D01*
X100000Y316131D02*X102000D01*
X104201Y312131D02*X105201D01*
X104701Y316131D02*Y312131D01*
X103701Y315131D02*X104701Y316131D01*
X106402Y312631D02*X106902Y312131D01*
X106402Y315631D02*Y312631D01*
Y315631D02*X106902Y316131D01*
X107902D01*
X108402Y315631D01*
Y312631D01*
X107902Y312131D02*X108402Y312631D01*
X106902Y312131D02*X107902D01*
X106402Y313131D02*X108402Y315131D01*
X109603Y312631D02*X110103Y312131D01*
X109603Y315631D02*Y312631D01*
Y315631D02*X110103Y316131D01*
X111103D01*
X111603Y315631D01*
Y312631D01*
X111103Y312131D02*X111603Y312631D01*
X110103Y312131D02*X111103D01*
X109603Y313131D02*X111603Y315131D01*
X91446Y292245D02*X92946D01*
X90946Y292745D02*X91446Y292245D01*
X90946Y295745D02*Y292745D01*
Y295745D02*X91446Y296245D01*
X92946D01*
X94647Y292245D02*X95647D01*
X95147Y296245D02*Y292245D01*
X94147Y295245D02*X95147Y296245D01*
X96848Y292745D02*X97348Y292245D01*
X96848Y295745D02*Y292745D01*
Y295745D02*X97348Y296245D01*
X98348D01*
X98848Y295745D01*
Y292745D01*
X98348Y292245D02*X98848Y292745D01*
X97348Y292245D02*X98348D01*
X96848Y293245D02*X98848Y295245D01*
X100049Y292745D02*X100549Y292245D01*
X100049Y295745D02*Y292745D01*
Y295745D02*X100549Y296245D01*
X101549D01*
X102049Y295745D01*
Y292745D01*
X101549Y292245D02*X102049Y292745D01*
X100549Y292245D02*X101549D01*
X100049Y293245D02*X102049Y295245D01*
X156405Y293427D02*X157905D01*
X155905Y293927D02*X156405Y293427D01*
X155905Y296927D02*Y293927D01*
Y296927D02*X156405Y297427D01*
X157905D01*
X159606Y293427D02*X160606D01*
X160106Y297427D02*Y293427D01*
X159106Y296427D02*X160106Y297427D01*
X161807Y293927D02*X162307Y293427D01*
X161807Y296927D02*Y293927D01*
Y296927D02*X162307Y297427D01*
X163307D01*
X163807Y296927D01*
Y293927D01*
X163307Y293427D02*X163807Y293927D01*
X162307Y293427D02*X163307D01*
X161807Y294427D02*X163807Y296427D01*
X165508Y293427D02*X166508D01*
X166008Y297427D02*Y293427D01*
X165008Y296427D02*X166008Y297427D01*
X88386Y288175D02*X89886D01*
Y284675D01*
X89386Y284175D02*X89886Y284675D01*
X88886Y284175D02*X89386D01*
X88386Y284675D02*X88886Y284175D01*
X91587D02*X92587D01*
X92087Y288175D02*Y284175D01*
X91087Y287175D02*X92087Y288175D01*
X93788Y284675D02*X94288Y284175D01*
X93788Y287675D02*Y284675D01*
Y287675D02*X94288Y288175D01*
X95288D01*
X95788Y287675D01*
Y284675D01*
X95288Y284175D02*X95788Y284675D01*
X94288Y284175D02*X95288D01*
X93788Y285175D02*X95788Y287175D01*
X96989Y284675D02*X97489Y284175D01*
X96989Y287675D02*Y284675D01*
Y287675D02*X97489Y288175D01*
X98489D01*
X98989Y287675D01*
Y284675D01*
X98489Y284175D02*X98989Y284675D01*
X97489Y284175D02*X98489D01*
X96989Y285175D02*X98989Y287175D01*
X140576Y304181D02*Y300681D01*
X141076Y300181D01*
X142076D01*
X142576Y300681D01*
Y304181D02*Y300681D01*
X144277Y300181D02*X145277D01*
X144777Y304181D02*Y300181D01*
X143777Y303181D02*X144777Y304181D01*
X146478Y300681D02*X146978Y300181D01*
X146478Y303681D02*Y300681D01*
Y303681D02*X146978Y304181D01*
X147978D01*
X148478Y303681D01*
Y300681D01*
X147978Y300181D02*X148478Y300681D01*
X146978Y300181D02*X147978D01*
X146478Y301181D02*X148478Y303181D01*
X149679Y300681D02*X150179Y300181D01*
X149679Y303681D02*Y300681D01*
Y303681D02*X150179Y304181D01*
X151179D01*
X151679Y303681D01*
Y300681D01*
X151179Y300181D02*X151679Y300681D01*
X150179Y300181D02*X151179D01*
X149679Y301181D02*X151679Y303181D01*
X435253Y157743D02*Y155743D01*
Y157743D02*X435753Y158243D01*
X436753D01*
X437253Y157743D02*X436753Y158243D01*
X437253Y157743D02*Y156243D01*
X435253D02*X439253D01*
X437253D02*X439253Y158243D01*
X435753Y159444D02*X435253Y159944D01*
Y160944D02*Y159944D01*
Y160944D02*X435753Y161444D01*
X438753D01*
X439253Y160944D02*X438753Y161444D01*
X439253Y160944D02*Y159944D01*
X438753Y159444D02*X439253Y159944D01*
X437253Y161444D02*Y159944D01*
X438753Y162645D02*X439253Y163145D01*
X435753Y162645D02*X438753D01*
X435753D02*X435253Y163145D01*
Y164145D02*Y163145D01*
Y164145D02*X435753Y164645D01*
X438753D01*
X439253Y164145D02*X438753Y164645D01*
X439253Y164145D02*Y163145D01*
X438253Y162645D02*X436253Y164645D01*
X439253Y165846D02*X436753Y168346D01*
X435253D02*X436753D01*
X435253D02*Y165846D01*
X455724Y92391D02*Y90391D01*
Y92391D02*X456224Y92891D01*
X457224D01*
X457724Y92391D02*X457224Y92891D01*
X457724Y92391D02*Y90891D01*
X455724D02*X459724D01*
X457724D02*X459724Y92891D01*
X456224Y94092D02*X455724Y94592D01*
Y95592D02*Y94592D01*
Y95592D02*X456224Y96092D01*
X459224D01*
X459724Y95592D02*X459224Y96092D01*
X459724Y95592D02*Y94592D01*
X459224Y94092D02*X459724Y94592D01*
X457724Y96092D02*Y94592D01*
X459224Y97293D02*X459724Y97793D01*
X456224Y97293D02*X459224D01*
X456224D02*X455724Y97793D01*
Y98793D02*Y97793D01*
Y98793D02*X456224Y99293D01*
X459224D01*
X459724Y98793D02*X459224Y99293D01*
X459724Y98793D02*Y97793D01*
X458724Y97293D02*X456724Y99293D01*
X459724Y100494D02*X457724Y102494D01*
X456224D02*X457724D01*
X455724Y101994D02*X456224Y102494D01*
X455724Y101994D02*Y100994D01*
X456224Y100494D02*X455724Y100994D01*
X456224Y100494D02*X457224D01*
X457724Y100994D01*
Y102494D02*Y100994D01*
X468132Y89147D02*Y86147D01*
Y89147D02*X468632Y89647D01*
X469632D01*
X470132Y89147D01*
Y86147D01*
X469632Y85647D02*X470132Y86147D01*
X468632Y85647D02*X469632D01*
X468132Y86147D02*X468632Y85647D01*
X469132Y86647D02*X470132Y85647D01*
X471333Y89147D02*X471833Y89647D01*
X472833D01*
X473333Y89147D01*
Y86147D01*
X472833Y85647D02*X473333Y86147D01*
X471833Y85647D02*X472833D01*
X471333Y86147D02*X471833Y85647D01*
Y87647D02*X473333D01*
X474534Y86147D02*X475034Y85647D01*
X474534Y89147D02*Y86147D01*
Y89147D02*X475034Y89647D01*
X476034D01*
X476534Y89147D01*
Y86147D01*
X476034Y85647D02*X476534Y86147D01*
X475034Y85647D02*X476034D01*
X474534Y86647D02*X476534Y88647D01*
X477735Y89147D02*X478235Y89647D01*
X479735D01*
X480235Y89147D01*
Y88147D01*
X477735Y85647D02*X480235Y88147D01*
X477735Y85647D02*X480235D01*
X460768Y119247D02*X464268D01*
X464768Y119747D01*
Y120747D02*Y119747D01*
Y120747D02*X464268Y121247D01*
X460768D02*X464268D01*
X461268Y122448D02*X460768Y122948D01*
Y123948D02*Y122948D01*
Y123948D02*X461268Y124448D01*
X464268D01*
X464768Y123948D02*X464268Y124448D01*
X464768Y123948D02*Y122948D01*
X464268Y122448D02*X464768Y122948D01*
X462768Y124448D02*Y122948D01*
X464268Y125649D02*X464768Y126149D01*
X461268Y125649D02*X464268D01*
X461268D02*X460768Y126149D01*
Y127149D02*Y126149D01*
Y127149D02*X461268Y127649D01*
X464268D01*
X464768Y127149D02*X464268Y127649D01*
X464768Y127149D02*Y126149D01*
X463768Y125649D02*X461768Y127649D01*
X464268Y128850D02*X464768Y129350D01*
X461268Y128850D02*X464268D01*
X461268D02*X460768Y129350D01*
Y130350D02*Y129350D01*
Y130350D02*X461268Y130850D01*
X464268D01*
X464768Y130350D02*X464268Y130850D01*
X464768Y130350D02*Y129350D01*
X463768Y128850D02*X461768Y130850D01*
X442729Y27788D02*X443229Y28288D01*
X442729Y27788D02*Y26288D01*
X443229Y25788D02*X442729Y26288D01*
X443229Y25788D02*X444229D01*
X444729Y26288D01*
Y27788D02*Y26288D01*
Y27788D02*X445229Y28288D01*
X446229D01*
X446729Y27788D02*X446229Y28288D01*
X446729Y27788D02*Y26288D01*
X446229Y25788D02*X446729Y26288D01*
X443229Y29489D02*X442729Y29989D01*
Y31489D02*Y29989D01*
Y31489D02*X443229Y31989D01*
X444229D01*
X446729Y29489D02*X444229Y31989D01*
X446729D02*Y29489D01*
X446229Y33190D02*X446729Y33690D01*
X443229Y33190D02*X446229D01*
X443229D02*X442729Y33690D01*
Y34690D02*Y33690D01*
Y34690D02*X443229Y35190D01*
X446229D01*
X446729Y34690D02*X446229Y35190D01*
X446729Y34690D02*Y33690D01*
X445729Y33190D02*X443729Y35190D01*
X444729Y36391D02*X442729Y38391D01*
X444729Y38891D02*Y36391D01*
X442729Y38391D02*X446729D01*
X468135Y124261D02*Y121261D01*
Y124261D02*X468635Y124761D01*
X469635D01*
X470135Y124261D01*
Y121261D01*
X469635Y120761D02*X470135Y121261D01*
X468635Y120761D02*X469635D01*
X468135Y121261D02*X468635Y120761D01*
X469135Y121761D02*X470135Y120761D01*
X471336Y124261D02*X471836Y124761D01*
X472836D01*
X473336Y124261D01*
Y121261D01*
X472836Y120761D02*X473336Y121261D01*
X471836Y120761D02*X472836D01*
X471336Y121261D02*X471836Y120761D01*
Y122761D02*X473336D01*
X474537Y121261D02*X475037Y120761D01*
X474537Y124261D02*Y121261D01*
Y124261D02*X475037Y124761D01*
X476037D01*
X476537Y124261D01*
Y121261D01*
X476037Y120761D02*X476537Y121261D01*
X475037Y120761D02*X476037D01*
X474537Y121761D02*X476537Y123761D01*
X477738Y124261D02*X478238Y124761D01*
X479238D01*
X479738Y124261D01*
Y121261D01*
X479238Y120761D02*X479738Y121261D01*
X478238Y120761D02*X479238D01*
X477738Y121261D02*X478238Y120761D01*
Y122761D02*X479738D01*
X510237Y169919D02*Y165919D01*
X512237D01*
X513438Y167919D02*X514938D01*
X513438Y165919D02*X515438D01*
X513438Y169919D02*Y165919D01*
Y169919D02*X515438D01*
X517139D02*Y165919D01*
X518639Y169919D02*X519139Y169419D01*
Y166419D01*
X518639Y165919D02*X519139Y166419D01*
X516639Y165919D02*X518639D01*
X516639Y169919D02*X518639D01*
X520340Y169419D02*X520840Y169919D01*
X522340D01*
X522840Y169419D01*
Y168419D01*
X520340Y165919D02*X522840Y168419D01*
X520340Y165919D02*X522840D01*
X524041Y166419D02*X524541Y165919D01*
X524041Y169419D02*Y166419D01*
Y169419D02*X524541Y169919D01*
X525541D01*
X526041Y169419D01*
Y166419D01*
X525541Y165919D02*X526041Y166419D01*
X524541Y165919D02*X525541D01*
X524041Y166919D02*X526041Y168919D01*
X527242Y165919D02*X529742Y168419D01*
Y169919D02*Y168419D01*
X527242Y169919D02*X529742D01*
X513613Y161599D02*X514113Y161099D01*
X512113Y161599D02*X513613D01*
X511613Y161099D02*X512113Y161599D01*
X511613Y161099D02*Y160099D01*
X512113Y159599D01*
X513613D01*
X514113Y159099D01*
Y158099D01*
X513613Y157599D02*X514113Y158099D01*
X512113Y157599D02*X513613D01*
X511613Y158099D02*X512113Y157599D01*
X515314Y161099D02*X515814Y161599D01*
X517314D01*
X517814Y161099D01*
Y160099D01*
X515314Y157599D02*X517814Y160099D01*
X515314Y157599D02*X517814D01*
X519015Y158099D02*X519515Y157599D01*
X519015Y161099D02*Y158099D01*
Y161099D02*X519515Y161599D01*
X520515D01*
X521015Y161099D01*
Y158099D01*
X520515Y157599D02*X521015Y158099D01*
X519515Y157599D02*X520515D01*
X519015Y158599D02*X521015Y160599D01*
X522216Y161099D02*X522716Y161599D01*
X524216D01*
X524716Y161099D01*
Y160099D01*
X522216Y157599D02*X524716Y160099D01*
X522216Y157599D02*X524716D01*
X530513Y134542D02*X532293D01*
X532738Y134097D01*
Y133207D01*
X532293Y132762D02*X532738Y133207D01*
X530958Y132762D02*X532293D01*
X530958Y134542D02*Y130982D01*
Y132762D02*X532738Y130982D01*
X533806Y134097D02*X534251Y134542D01*
X535141D01*
X535586Y134097D01*
Y131427D01*
X535141Y130982D02*X535586Y131427D01*
X534251Y130982D02*X535141D01*
X533806Y131427D02*X534251Y130982D01*
Y132762D02*X535586D01*
X537100Y130982D02*X537990D01*
X537545Y134542D02*Y130982D01*
X536655Y133652D02*X537545Y134542D01*
X539059D02*X540839D01*
X539059D02*Y132762D01*
X539504Y133207D01*
X540394D01*
X540839Y132762D01*
Y131427D01*
X540394Y130982D02*X540839Y131427D01*
X539504Y130982D02*X540394D01*
X539059Y131427D02*X539504Y130982D01*
X523867Y143839D02*Y140339D01*
X524367Y139839D01*
X525367D01*
X525867Y140339D01*
Y143839D02*Y140339D01*
X527068Y143339D02*X527568Y143839D01*
X528568D01*
X529068Y143339D01*
Y140339D01*
X528568Y139839D02*X529068Y140339D01*
X527568Y139839D02*X528568D01*
X527068Y140339D02*X527568Y139839D01*
Y141839D02*X529068D01*
X530269Y140339D02*X530769Y139839D01*
X530269Y143339D02*Y140339D01*
Y143339D02*X530769Y143839D01*
X531769D01*
X532269Y143339D01*
Y140339D01*
X531769Y139839D02*X532269Y140339D01*
X530769Y139839D02*X531769D01*
X530269Y140839D02*X532269Y142839D01*
X533970Y139839D02*X534970D01*
X534470Y143839D02*Y139839D01*
X533470Y142839D02*X534470Y143839D01*
X542913Y86401D02*Y82401D01*
Y86401D02*X544913D01*
X542913Y84401D02*X544413D01*
X546114Y85901D02*X546614Y86401D01*
X547614D01*
X548114Y85901D01*
Y82901D01*
X547614Y82401D02*X548114Y82901D01*
X546614Y82401D02*X547614D01*
X546114Y82901D02*X546614Y82401D01*
Y84401D02*X548114D01*
X549315Y82901D02*X549815Y82401D01*
X549315Y85901D02*Y82901D01*
Y85901D02*X549815Y86401D01*
X550815D01*
X551315Y85901D01*
Y82901D01*
X550815Y82401D02*X551315Y82901D01*
X549815Y82401D02*X550815D01*
X549315Y83401D02*X551315Y85401D01*
X553016Y82401D02*X554016D01*
X553516Y86401D02*Y82401D01*
X552516Y85401D02*X553516Y86401D01*
X525000Y45568D02*Y42568D01*
Y45568D02*X525500Y46068D01*
X526500D01*
X527000Y45568D01*
Y42568D01*
X526500Y42068D02*X527000Y42568D01*
X525500Y42068D02*X526500D01*
X525000Y42568D02*X525500Y42068D01*
X526000Y43068D02*X527000Y42068D01*
X528201Y45568D02*X528701Y46068D01*
X529701D01*
X530201Y45568D01*
Y42568D01*
X529701Y42068D02*X530201Y42568D01*
X528701Y42068D02*X529701D01*
X528201Y42568D02*X528701Y42068D01*
Y44068D02*X530201D01*
X531402Y42568D02*X531902Y42068D01*
X531402Y45568D02*Y42568D01*
Y45568D02*X531902Y46068D01*
X532902D01*
X533402Y45568D01*
Y42568D01*
X532902Y42068D02*X533402Y42568D01*
X531902Y42068D02*X532902D01*
X531402Y43068D02*X533402Y45068D01*
X534603Y42568D02*X535103Y42068D01*
X534603Y45568D02*Y42568D01*
Y45568D02*X535103Y46068D01*
X536103D01*
X536603Y45568D01*
Y42568D01*
X536103Y42068D02*X536603Y42568D01*
X535103Y42068D02*X536103D01*
X534603Y43068D02*X536603Y45068D01*
X557284Y134544D02*X559064D01*
X559509Y134099D01*
Y133209D01*
X559064Y132764D02*X559509Y133209D01*
X557729Y132764D02*X559064D01*
X557729Y134544D02*Y130984D01*
Y132764D02*X559509Y130984D01*
X560577Y134099D02*X561022Y134544D01*
X561912D01*
X562357Y134099D01*
Y131429D01*
X561912Y130984D02*X562357Y131429D01*
X561022Y130984D02*X561912D01*
X560577Y131429D02*X561022Y130984D01*
Y132764D02*X562357D01*
X563871Y130984D02*X564761D01*
X564316Y134544D02*Y130984D01*
X563426Y133654D02*X564316Y134544D01*
X565830Y132764D02*X567610Y134544D01*
X565830Y132764D02*X568055D01*
X567610Y134544D02*Y130984D01*
X554615Y140432D02*X555950D01*
X554170Y140877D02*X554615Y140432D01*
X554170Y143547D02*Y140877D01*
Y143547D02*X554615Y143992D01*
X555950D01*
X557018Y143547D02*X557463Y143992D01*
X558353D01*
X558798Y143547D01*
Y140877D01*
X558353Y140432D02*X558798Y140877D01*
X557463Y140432D02*X558353D01*
X557018Y140877D02*X557463Y140432D01*
Y142212D02*X558798D01*
X560312Y140432D02*X561202D01*
X560757Y143992D02*Y140432D01*
X559867Y143102D02*X560757Y143992D01*
X562271Y140877D02*X562716Y140432D01*
X562271Y141767D02*Y140877D01*
Y141767D02*X562716Y142212D01*
X563606D01*
X564051Y141767D01*
Y140877D01*
X563606Y140432D02*X564051Y140877D01*
X562716Y140432D02*X563606D01*
X562271Y142657D02*X562716Y142212D01*
X562271Y143547D02*Y142657D01*
Y143547D02*X562716Y143992D01*
X563606D01*
X564051Y143547D01*
Y142657D01*
X563606Y142212D02*X564051Y142657D01*
X544111Y130984D02*X545446D01*
X543666Y131429D02*X544111Y130984D01*
X543666Y134099D02*Y131429D01*
Y134099D02*X544111Y134544D01*
X545446D01*
X546514Y134099D02*X546959Y134544D01*
X547849D01*
X548294Y134099D01*
Y131429D01*
X547849Y130984D02*X548294Y131429D01*
X546959Y130984D02*X547849D01*
X546514Y131429D02*X546959Y130984D01*
Y132764D02*X548294D01*
X549363Y131429D02*X549808Y130984D01*
X549363Y134099D02*Y131429D01*
Y134099D02*X549808Y134544D01*
X550698D01*
X551143Y134099D01*
Y131429D01*
X550698Y130984D02*X551143Y131429D01*
X549808Y130984D02*X550698D01*
X549363Y131874D02*X551143Y133654D01*
X552212Y134099D02*X552657Y134544D01*
X553547D01*
X553992Y134099D01*
Y131429D01*
X553547Y130984D02*X553992Y131429D01*
X552657Y130984D02*X553547D01*
X552212Y131429D02*X552657Y130984D01*
Y132764D02*X553992D01*
X19453Y301968D02*X23453D01*
Y303968D02*Y301968D01*
X21453Y306669D02*Y305169D01*
X23453Y307169D02*Y305169D01*
X19453D02*X23453D01*
X19453Y307169D02*Y305169D01*
Y308870D02*X23453D01*
X19453Y310370D02*X19953Y310870D01*
X22953D01*
X23453Y310370D02*X22953Y310870D01*
X23453Y310370D02*Y308370D01*
X19453Y310370D02*Y308370D01*
X19953Y312071D02*X19453Y312571D01*
Y314071D02*Y312571D01*
Y314071D02*X19953Y314571D01*
X20953D01*
X23453Y312071D02*X20953Y314571D01*
X23453D02*Y312071D01*
X22953Y315772D02*X23453Y316272D01*
X19953Y315772D02*X22953D01*
X19953D02*X19453Y316272D01*
Y317272D02*Y316272D01*
Y317272D02*X19953Y317772D01*
X22953D01*
X23453Y317272D02*X22953Y317772D01*
X23453Y317272D02*Y316272D01*
X22453Y315772D02*X20453Y317772D01*
X23453Y320473D02*Y319473D01*
X19453Y319973D02*X23453D01*
X20453Y318973D02*X19453Y319973D01*
X47850Y267748D02*X48350Y268248D01*
X47850Y267748D02*Y266248D01*
X48350Y265748D02*X47850Y266248D01*
X48350Y265748D02*X49350D01*
X49850Y266248D01*
Y267748D02*Y266248D01*
Y267748D02*X50350Y268248D01*
X51350D01*
X51850Y267748D02*X51350Y268248D01*
X51850Y267748D02*Y266248D01*
X51350Y265748D02*X51850Y266248D01*
X48350Y269449D02*X47850Y269949D01*
Y271449D02*Y269949D01*
Y271449D02*X48350Y271949D01*
X49350D01*
X51850Y269449D02*X49350Y271949D01*
X51850D02*Y269449D01*
X51350Y273150D02*X51850Y273650D01*
X48350Y273150D02*X51350D01*
X48350D02*X47850Y273650D01*
Y274650D02*Y273650D01*
Y274650D02*X48350Y275150D01*
X51350D01*
X51850Y274650D02*X51350Y275150D01*
X51850Y274650D02*Y273650D01*
X50850Y273150D02*X48850Y275150D01*
X51350Y276351D02*X51850Y276851D01*
X48350Y276351D02*X51350D01*
X48350D02*X47850Y276851D01*
Y277851D02*Y276851D01*
Y277851D02*X48350Y278351D01*
X51350D01*
X51850Y277851D02*X51350Y278351D01*
X51850Y277851D02*Y276851D01*
X50850Y276351D02*X48850Y278351D01*
X15566Y243469D02*X19566D01*
Y245469D02*Y243469D01*
X17566Y248170D02*Y246670D01*
X19566Y248670D02*Y246670D01*
X15566D02*X19566D01*
X15566Y248670D02*Y246670D01*
Y250371D02*X19566D01*
X15566Y251871D02*X16066Y252371D01*
X19066D01*
X19566Y251871D02*X19066Y252371D01*
X19566Y251871D02*Y249871D01*
X15566Y251871D02*Y249871D01*
X16066Y253572D02*X15566Y254072D01*
Y255572D02*Y254072D01*
Y255572D02*X16066Y256072D01*
X17066D01*
X19566Y253572D02*X17066Y256072D01*
X19566D02*Y253572D01*
X19066Y257273D02*X19566Y257773D01*
X16066Y257273D02*X19066D01*
X16066D02*X15566Y257773D01*
Y258773D02*Y257773D01*
Y258773D02*X16066Y259273D01*
X19066D01*
X19566Y258773D02*X19066Y259273D01*
X19566Y258773D02*Y257773D01*
X18566Y257273D02*X16566Y259273D01*
X15566Y262474D02*Y260474D01*
X17566D01*
X17066Y260974D01*
Y261974D02*Y260974D01*
Y261974D02*X17566Y262474D01*
X19066D01*
X19566Y261974D02*X19066Y262474D01*
X19566Y261974D02*Y260974D01*
X19066Y260474D02*X19566Y260974D01*
X38319Y225547D02*Y221547D01*
X39819Y225547D02*X40319Y225047D01*
Y222047D01*
X39819Y221547D02*X40319Y222047D01*
X37819Y221547D02*X39819D01*
X37819Y225547D02*X39819D01*
X41520Y225047D02*X42020Y225547D01*
X43520D01*
X44020Y225047D01*
Y224047D01*
X41520Y221547D02*X44020Y224047D01*
X41520Y221547D02*X44020D01*
X45221Y222047D02*X45721Y221547D01*
X45221Y225047D02*Y222047D01*
Y225047D02*X45721Y225547D01*
X46721D01*
X47221Y225047D01*
Y222047D01*
X46721Y221547D02*X47221Y222047D01*
X45721Y221547D02*X46721D01*
X45221Y222547D02*X47221Y224547D01*
X48422Y225047D02*X48922Y225547D01*
X50422D01*
X50922Y225047D01*
Y224047D01*
X48422Y221547D02*X50922Y224047D01*
X48422Y221547D02*X50922D01*
X30812Y209814D02*Y208034D01*
Y209814D02*X31257Y210259D01*
X32147D01*
X32592Y209814D02*X32147Y210259D01*
X32592Y209814D02*Y208479D01*
X30812D02*X34372D01*
X32592D02*X34372Y210259D01*
X31257Y211327D02*X30812Y211772D01*
Y213107D02*Y211772D01*
Y213107D02*X31257Y213552D01*
X32147D01*
X34372Y211327D02*X32147Y213552D01*
X34372D02*Y211327D01*
Y215956D02*Y215066D01*
X30812Y215511D02*X34372D01*
X31702Y214621D02*X30812Y215511D01*
X31257Y217025D02*X30812Y217470D01*
Y218360D02*Y217470D01*
Y218360D02*X31257Y218805D01*
X33927D01*
X34372Y218360D02*X33927Y218805D01*
X34372Y218360D02*Y217470D01*
X33927Y217025D02*X34372Y217470D01*
X32592Y218805D02*Y217470D01*
X55198Y241795D02*X59198D01*
X55198Y243295D02*X55698Y243795D01*
X58698D01*
X59198Y243295D02*X58698Y243795D01*
X59198Y243295D02*Y241295D01*
X55198Y243295D02*Y241295D01*
X55698Y244996D02*X55198Y245496D01*
Y246996D02*Y245496D01*
Y246996D02*X55698Y247496D01*
X56698D01*
X59198Y244996D02*X56698Y247496D01*
X59198D02*Y244996D01*
X58698Y248697D02*X59198Y249197D01*
X55698Y248697D02*X58698D01*
X55698D02*X55198Y249197D01*
Y250197D02*Y249197D01*
Y250197D02*X55698Y250697D01*
X58698D01*
X59198Y250197D02*X58698Y250697D01*
X59198Y250197D02*Y249197D01*
X58198Y248697D02*X56198Y250697D01*
X55698Y251898D02*X55198Y252398D01*
Y253398D02*Y252398D01*
Y253398D02*X55698Y253898D01*
X58698D01*
X59198Y253398D02*X58698Y253898D01*
X59198Y253398D02*Y252398D01*
X58698Y251898D02*X59198Y252398D01*
X57198Y253898D02*Y252398D01*
X41107Y213001D02*X42667D01*
X43057Y212611D01*
Y211831D01*
X42667Y211441D02*X43057Y211831D01*
X41497Y211441D02*X42667D01*
X41497Y213001D02*Y209881D01*
Y211441D02*X43057Y209881D01*
X43993Y212611D02*X44383Y213001D01*
X45553D01*
X45943Y212611D01*
Y211831D01*
X43993Y209881D02*X45943Y211831D01*
X43993Y209881D02*X45943D01*
X47270D02*X48050D01*
X47660Y213001D02*Y209881D01*
X46880Y212221D02*X47660Y213001D01*
X48987Y212611D02*X49377Y213001D01*
X50547D01*
X50937Y212611D01*
Y211831D01*
X48987Y209881D02*X50937Y211831D01*
X48987Y209881D02*X50937D01*
X14456Y189025D02*X17126D01*
X14456D02*X14011Y189470D01*
Y190360D02*Y189470D01*
Y190360D02*X14456Y190805D01*
X17126D01*
X17571Y190360D02*X17126Y190805D01*
X17571Y190360D02*Y189470D01*
X17126Y189025D02*X17571Y189470D01*
X16681Y189915D02*X17571Y190805D01*
X14456Y191873D02*X14011Y192318D01*
Y193653D02*Y192318D01*
Y193653D02*X14456Y194098D01*
X15346D01*
X17571Y191873D02*X15346Y194098D01*
X17571D02*Y191873D01*
X17126Y195167D02*X17571Y195612D01*
X14456Y195167D02*X17126D01*
X14456D02*X14011Y195612D01*
Y196502D02*Y195612D01*
Y196502D02*X14456Y196947D01*
X17126D01*
X17571Y196502D02*X17126Y196947D01*
X17571Y196502D02*Y195612D01*
X16681Y195167D02*X14901Y196947D01*
X14456Y198016D02*X14011Y198461D01*
Y199796D02*Y198461D01*
Y199796D02*X14456Y200241D01*
X15346D01*
X17571Y198016D02*X15346Y200241D01*
X17571D02*Y198016D01*
X32668Y194314D02*Y192754D01*
Y194314D02*X33058Y194704D01*
X33838D01*
X34228Y194314D02*X33838Y194704D01*
X34228Y194314D02*Y193144D01*
X32668D02*X35788D01*
X34228D02*X35788Y194704D01*
X33058Y195640D02*X32668Y196030D01*
Y197200D02*Y196030D01*
Y197200D02*X33058Y197590D01*
X33838D01*
X35788Y195640D02*X33838Y197590D01*
X35788D02*Y195640D01*
Y199697D02*Y198917D01*
X32668Y199307D02*X35788D01*
X33448Y198527D02*X32668Y199307D01*
X35788Y201804D02*Y201024D01*
X32668Y201414D02*X35788D01*
X33448Y200634D02*X32668Y201414D01*
X40390Y201188D02*X41950D01*
X42340Y200798D01*
Y200018D01*
X41950Y199628D02*X42340Y200018D01*
X40780Y199628D02*X41950D01*
X40780Y201188D02*Y198068D01*
Y199628D02*X42340Y198068D01*
X43276Y200798D02*X43666Y201188D01*
X44836D01*
X45226Y200798D01*
Y200018D01*
X43276Y198068D02*X45226Y200018D01*
X43276Y198068D02*X45226D01*
X46553D02*X47333D01*
X46943Y201188D02*Y198068D01*
X46163Y200408D02*X46943Y201188D01*
X48270Y198068D02*X49830Y199628D01*
Y200798D02*Y199628D01*
X49440Y201188D02*X49830Y200798D01*
X48660Y201188D02*X49440D01*
X48270Y200798D02*X48660Y201188D01*
X48270Y200798D02*Y200018D01*
X48660Y199628D01*
X49830D01*
X74622Y193500D02*Y191500D01*
Y193500D02*X75122Y194000D01*
X76122D01*
X76622Y193500D02*X76122Y194000D01*
X76622Y193500D02*Y192000D01*
X74622D02*X78622D01*
X76622D02*X78622Y194000D01*
X75122Y195201D02*X74622Y195701D01*
Y197201D02*Y195701D01*
Y197201D02*X75122Y197701D01*
X76122D01*
X78622Y195201D02*X76122Y197701D01*
X78622D02*Y195201D01*
X75122Y198902D02*X74622Y199402D01*
Y200902D02*Y199402D01*
Y200902D02*X75122Y201402D01*
X76122D01*
X78622Y198902D02*X76122Y201402D01*
X78622D02*Y198902D01*
X78122Y202603D02*X78622Y203103D01*
X75122Y202603D02*X78122D01*
X75122D02*X74622Y203103D01*
Y204103D02*Y203103D01*
Y204103D02*X75122Y204603D01*
X78122D01*
X78622Y204103D02*X78122Y204603D01*
X78622Y204103D02*Y203103D01*
X77622Y202603D02*X75622Y204603D01*
X14276Y211858D02*Y210078D01*
Y211858D02*X14721Y212303D01*
X15611D01*
X16056Y211858D02*X15611Y212303D01*
X16056Y211858D02*Y210523D01*
X14276D02*X17836D01*
X16056D02*X17836Y212303D01*
X14721Y213371D02*X14276Y213816D01*
Y215151D02*Y213816D01*
Y215151D02*X14721Y215596D01*
X15611D01*
X17836Y213371D02*X15611Y215596D01*
X17836D02*Y213371D01*
X17391Y216665D02*X17836Y217110D01*
X14721Y216665D02*X17391D01*
X14721D02*X14276Y217110D01*
Y218000D02*Y217110D01*
Y218000D02*X14721Y218445D01*
X17391D01*
X17836Y218000D02*X17391Y218445D01*
X17836Y218000D02*Y217110D01*
X16946Y216665D02*X15166Y218445D01*
X17836Y219514D02*X15611Y221739D01*
X14276D02*X15611D01*
X14276D02*Y219514D01*
X19786Y209816D02*Y208036D01*
Y209816D02*X20231Y210261D01*
X21121D01*
X21566Y209816D02*X21121Y210261D01*
X21566Y209816D02*Y208481D01*
X19786D02*X23346D01*
X21566D02*X23346Y210261D01*
X20231Y211329D02*X19786Y211774D01*
Y213109D02*Y211774D01*
Y213109D02*X20231Y213554D01*
X21121D01*
X23346Y211329D02*X21121Y213554D01*
X23346D02*Y211329D01*
X22901Y214623D02*X23346Y215068D01*
X20231Y214623D02*X22901D01*
X20231D02*X19786Y215068D01*
Y215958D02*Y215068D01*
Y215958D02*X20231Y216403D01*
X22901D01*
X23346Y215958D02*X22901Y216403D01*
X23346Y215958D02*Y215068D01*
X22456Y214623D02*X20676Y216403D01*
X23346Y217472D02*X21566Y219252D01*
X20231D02*X21566D01*
X19786Y218807D02*X20231Y219252D01*
X19786Y218807D02*Y217917D01*
X20231Y217472D02*X19786Y217917D01*
X20231Y217472D02*X21121D01*
X21566Y217917D01*
Y219252D02*Y217917D01*
X14165Y232035D02*Y230475D01*
Y232035D02*X14555Y232425D01*
X15335D01*
X15725Y232035D02*X15335Y232425D01*
X15725Y232035D02*Y230865D01*
X14165D02*X17285D01*
X15725D02*X17285Y232425D01*
X14555Y233361D02*X14165Y233751D01*
Y234921D02*Y233751D01*
Y234921D02*X14555Y235311D01*
X15335D01*
X17285Y233361D02*X15335Y235311D01*
X17285D02*Y233361D01*
X15725Y236248D02*X14165Y237808D01*
X15725Y238198D02*Y236248D01*
X14165Y237808D02*X17285D01*
X16895Y239135D02*X17285Y239525D01*
X14555Y239135D02*X16895D01*
X14555D02*X14165Y239525D01*
Y240305D02*Y239525D01*
Y240305D02*X14555Y240695D01*
X16895D01*
X17285Y240305D02*X16895Y240695D01*
X17285Y240305D02*Y239525D01*
X16505Y239135D02*X14945Y240695D01*
X68715Y193500D02*Y191500D01*
Y193500D02*X69215Y194000D01*
X70215D01*
X70715Y193500D02*X70215Y194000D01*
X70715Y193500D02*Y192000D01*
X68715D02*X72715D01*
X70715D02*X72715Y194000D01*
X69215Y195201D02*X68715Y195701D01*
Y197201D02*Y195701D01*
Y197201D02*X69215Y197701D01*
X70215D01*
X72715Y195201D02*X70215Y197701D01*
X72715D02*Y195201D01*
Y200402D02*Y199402D01*
X68715Y199902D02*X72715D01*
X69715Y198902D02*X68715Y199902D01*
X72215Y201603D02*X72715Y202103D01*
X71215Y201603D02*X72215D01*
X71215D02*X70715Y202103D01*
Y203103D02*Y202103D01*
Y203103D02*X71215Y203603D01*
X72215D01*
X72715Y203103D02*X72215Y203603D01*
X72715Y203103D02*Y202103D01*
X70215Y201603D02*X70715Y202103D01*
X69215Y201603D02*X70215D01*
X69215D02*X68715Y202103D01*
Y203103D02*Y202103D01*
Y203103D02*X69215Y203603D01*
X70215D01*
X70715Y203103D02*X70215Y203603D01*
X66221Y90221D02*X70221D01*
X66221Y91721D02*X66721Y92221D01*
X69721D01*
X70221Y91721D02*X69721Y92221D01*
X70221Y91721D02*Y89721D01*
X66221Y91721D02*Y89721D01*
X66721Y93422D02*X66221Y93922D01*
Y95422D02*Y93922D01*
Y95422D02*X66721Y95922D01*
X67721D01*
X70221Y93422D02*X67721Y95922D01*
X70221D02*Y93422D01*
X69721Y97123D02*X70221Y97623D01*
X66721Y97123D02*X69721D01*
X66721D02*X66221Y97623D01*
Y98623D02*Y97623D01*
Y98623D02*X66721Y99123D01*
X69721D01*
X70221Y98623D02*X69721Y99123D01*
X70221Y98623D02*Y97623D01*
X69221Y97123D02*X67221Y99123D01*
X66221Y102324D02*Y100324D01*
X68221D01*
X67721Y100824D01*
Y101824D02*Y100824D01*
Y101824D02*X68221Y102324D01*
X69721D01*
X70221Y101824D02*X69721Y102324D01*
X70221Y101824D02*Y100824D01*
X69721Y100324D02*X70221Y100824D01*
X66618Y108328D02*X70618D01*
X66618Y109828D02*X67118Y110328D01*
X70118D01*
X70618Y109828D02*X70118Y110328D01*
X70618Y109828D02*Y107828D01*
X66618Y109828D02*Y107828D01*
X67118Y111529D02*X66618Y112029D01*
Y113529D02*Y112029D01*
Y113529D02*X67118Y114029D01*
X68118D01*
X70618Y111529D02*X68118Y114029D01*
X70618D02*Y111529D01*
X70118Y115230D02*X70618Y115730D01*
X67118Y115230D02*X70118D01*
X67118D02*X66618Y115730D01*
Y116730D02*Y115730D01*
Y116730D02*X67118Y117230D01*
X70118D01*
X70618Y116730D02*X70118Y117230D01*
X70618Y116730D02*Y115730D01*
X69618Y115230D02*X67618Y117230D01*
X68618Y118431D02*X66618Y120431D01*
X68618Y120931D02*Y118431D01*
X66618Y120431D02*X70618D01*
X43125Y125590D02*X47125D01*
X43125Y127590D02*Y125590D01*
X45125Y127090D02*Y125590D01*
X43625Y128791D02*X43125Y129291D01*
Y130791D02*Y129291D01*
Y130791D02*X43625Y131291D01*
X44625D01*
X47125Y128791D02*X44625Y131291D01*
X47125D02*Y128791D01*
X46625Y132492D02*X47125Y132992D01*
X43625Y132492D02*X46625D01*
X43625D02*X43125Y132992D01*
Y133992D02*Y132992D01*
Y133992D02*X43625Y134492D01*
X46625D01*
X47125Y133992D02*X46625Y134492D01*
X47125Y133992D02*Y132992D01*
X46125Y132492D02*X44125Y134492D01*
X47125Y137193D02*Y136193D01*
X43125Y136693D02*X47125D01*
X44125Y135693D02*X43125Y136693D01*
X36381Y115536D02*X38381D01*
X38881Y115036D01*
Y114036D01*
X38381Y113536D02*X38881Y114036D01*
X36881Y113536D02*X38381D01*
X36881Y115536D02*Y111536D01*
Y113536D02*X38881Y111536D01*
X40082Y115036D02*X40582Y115536D01*
X42082D01*
X42582Y115036D01*
Y114036D01*
X40082Y111536D02*X42582Y114036D01*
X40082Y111536D02*X42582D01*
X43783Y112036D02*X44283Y111536D01*
X43783Y115036D02*Y112036D01*
Y115036D02*X44283Y115536D01*
X45283D01*
X45783Y115036D01*
Y112036D01*
X45283Y111536D02*X45783Y112036D01*
X44283Y111536D02*X45283D01*
X43783Y112536D02*X45783Y114536D01*
X46984Y115536D02*X48984D01*
X46984D02*Y113536D01*
X47484Y114036D01*
X48484D01*
X48984Y113536D01*
Y112036D01*
X48484Y111536D02*X48984Y112036D01*
X47484Y111536D02*X48484D01*
X46984Y112036D02*X47484Y111536D01*
X39433Y149527D02*Y145527D01*
X40933Y149527D02*X41433Y149027D01*
Y146027D01*
X40933Y145527D02*X41433Y146027D01*
X38933Y145527D02*X40933D01*
X38933Y149527D02*X40933D01*
X42634Y149027D02*X43134Y149527D01*
X44634D01*
X45134Y149027D01*
Y148027D01*
X42634Y145527D02*X45134Y148027D01*
X42634Y145527D02*X45134D01*
X46335Y146027D02*X46835Y145527D01*
X46335Y149027D02*Y146027D01*
Y149027D02*X46835Y149527D01*
X47835D01*
X48335Y149027D01*
Y146027D01*
X47835Y145527D02*X48335Y146027D01*
X46835Y145527D02*X47835D01*
X46335Y146527D02*X48335Y148527D01*
X49536Y146027D02*X50036Y145527D01*
X49536Y149027D02*Y146027D01*
Y149027D02*X50036Y149527D01*
X51036D01*
X51536Y149027D01*
Y146027D01*
X51036Y145527D02*X51536Y146027D01*
X50036Y145527D02*X51036D01*
X49536Y146527D02*X51536Y148527D01*
X33072Y143708D02*X34632D01*
X35022Y143318D01*
Y142538D01*
X34632Y142148D02*X35022Y142538D01*
X33462Y142148D02*X34632D01*
X33462Y143708D02*Y140588D01*
Y142148D02*X35022Y140588D01*
X35958Y143318D02*X36348Y143708D01*
X37518D01*
X37908Y143318D01*
Y142538D01*
X35958Y140588D02*X37908Y142538D01*
X35958Y140588D02*X37908D01*
X38845Y143318D02*X39235Y143708D01*
X40405D01*
X40795Y143318D01*
Y142538D01*
X38845Y140588D02*X40795Y142538D01*
X38845Y140588D02*X40795D01*
X41732Y143318D02*X42122Y143708D01*
X42902D01*
X43292Y143318D01*
Y140978D01*
X42902Y140588D02*X43292Y140978D01*
X42122Y140588D02*X42902D01*
X41732Y140978D02*X42122Y140588D01*
Y142148D02*X43292D01*
X15075Y139371D02*X19075D01*
Y141371D02*Y139371D01*
X17075Y144072D02*Y142572D01*
X19075Y144572D02*Y142572D01*
X15075D02*X19075D01*
X15075Y144572D02*Y142572D01*
Y146273D02*X19075D01*
X15075Y147773D02*X15575Y148273D01*
X18575D01*
X19075Y147773D02*X18575Y148273D01*
X19075Y147773D02*Y145773D01*
X15075Y147773D02*Y145773D01*
X15575Y149474D02*X15075Y149974D01*
Y151474D02*Y149974D01*
Y151474D02*X15575Y151974D01*
X16575D01*
X19075Y149474D02*X16575Y151974D01*
X19075D02*Y149474D01*
X18575Y153175D02*X19075Y153675D01*
X15575Y153175D02*X18575D01*
X15575D02*X15075Y153675D01*
Y154675D02*Y153675D01*
Y154675D02*X15575Y155175D01*
X18575D01*
X19075Y154675D02*X18575Y155175D01*
X19075Y154675D02*Y153675D01*
X18075Y153175D02*X16075Y155175D01*
X18575Y156376D02*X19075Y156876D01*
X15575Y156376D02*X18575D01*
X15575D02*X15075Y156876D01*
Y157876D02*Y156876D01*
Y157876D02*X15575Y158376D01*
X18575D01*
X19075Y157876D02*X18575Y158376D01*
X19075Y157876D02*Y156876D01*
X18075Y156376D02*X16075Y158376D01*
X72128Y151636D02*X76128D01*
X72128Y153136D02*X72628Y153636D01*
X75628D01*
X76128Y153136D02*X75628Y153636D01*
X76128Y153136D02*Y151136D01*
X72128Y153136D02*Y151136D01*
X72628Y154837D02*X72128Y155337D01*
Y156837D02*Y155337D01*
Y156837D02*X72628Y157337D01*
X73628D01*
X76128Y154837D02*X73628Y157337D01*
X76128D02*Y154837D01*
X75628Y158538D02*X76128Y159038D01*
X72628Y158538D02*X75628D01*
X72628D02*X72128Y159038D01*
Y160038D02*Y159038D01*
Y160038D02*X72628Y160538D01*
X75628D01*
X76128Y160038D02*X75628Y160538D01*
X76128Y160038D02*Y159038D01*
X75128Y158538D02*X73128Y160538D01*
X76128Y163239D02*Y162239D01*
X72128Y162739D02*X76128D01*
X73128Y161739D02*X72128Y162739D01*
X58331Y186928D02*Y182928D01*
X59831Y186928D02*X60331Y186428D01*
Y183428D01*
X59831Y182928D02*X60331Y183428D01*
X57831Y182928D02*X59831D01*
X57831Y186928D02*X59831D01*
X61532Y186428D02*X62032Y186928D01*
X63532D01*
X64032Y186428D01*
Y185428D01*
X61532Y182928D02*X64032Y185428D01*
X61532Y182928D02*X64032D01*
X65233Y183428D02*X65733Y182928D01*
X65233Y186428D02*Y183428D01*
Y186428D02*X65733Y186928D01*
X66733D01*
X67233Y186428D01*
Y183428D01*
X66733Y182928D02*X67233Y183428D01*
X65733Y182928D02*X66733D01*
X65233Y183928D02*X67233Y185928D01*
X68434Y182928D02*X70934Y185428D01*
Y186928D02*Y185428D01*
X68434Y186928D02*X70934D01*
X72128Y168960D02*X76128D01*
X72128Y170460D02*X72628Y170960D01*
X75628D01*
X76128Y170460D02*X75628Y170960D01*
X76128Y170460D02*Y168460D01*
X72128Y170460D02*Y168460D01*
X72628Y172161D02*X72128Y172661D01*
Y174161D02*Y172661D01*
Y174161D02*X72628Y174661D01*
X73628D01*
X76128Y172161D02*X73628Y174661D01*
X76128D02*Y172161D01*
X75628Y175862D02*X76128Y176362D01*
X72628Y175862D02*X75628D01*
X72628D02*X72128Y176362D01*
Y177362D02*Y176362D01*
Y177362D02*X72628Y177862D01*
X75628D01*
X76128Y177362D02*X75628Y177862D01*
X76128Y177362D02*Y176362D01*
X75128Y175862D02*X73128Y177862D01*
X72128Y180563D02*X72628Y181063D01*
X72128Y180563D02*Y179563D01*
X72628Y179063D02*X72128Y179563D01*
X72628Y179063D02*X75628D01*
X76128Y179563D01*
X74128Y180563D02*X74628Y181063D01*
X74128Y180563D02*Y179063D01*
X76128Y180563D02*Y179563D01*
Y180563D02*X75628Y181063D01*
X74628D02*X75628D01*
X81664Y174193D02*Y170693D01*
X82164Y170193D01*
X83164D01*
X83664Y170693D01*
Y174193D02*Y170693D01*
X84865Y173693D02*X85365Y174193D01*
X86865D01*
X87365Y173693D01*
Y172693D01*
X84865Y170193D02*X87365Y172693D01*
X84865Y170193D02*X87365D01*
X88566Y170693D02*X89066Y170193D01*
X88566Y173693D02*Y170693D01*
Y173693D02*X89066Y174193D01*
X90066D01*
X90566Y173693D01*
Y170693D01*
X90066Y170193D02*X90566Y170693D01*
X89066Y170193D02*X90066D01*
X88566Y171193D02*X90566Y173193D01*
X91767Y170693D02*X92267Y170193D01*
X91767Y173693D02*Y170693D01*
Y173693D02*X92267Y174193D01*
X93267D01*
X93767Y173693D01*
Y170693D01*
X93267Y170193D02*X93767Y170693D01*
X92267Y170193D02*X93267D01*
X91767Y171193D02*X93767Y173193D01*
X312086Y272472D02*Y270972D01*
X311586Y270472D02*X312086Y270972D01*
X308586Y270472D02*X311586D01*
X308586D02*X308086Y270972D01*
Y272472D02*Y270972D01*
X308586Y273673D02*X308086Y274173D01*
Y275673D02*Y274173D01*
Y275673D02*X308586Y276173D01*
X309586D01*
X312086Y273673D02*X309586Y276173D01*
X312086D02*Y273673D01*
Y278874D02*Y277874D01*
X308086Y278374D02*X312086D01*
X309086Y277374D02*X308086Y278374D01*
X312086Y280075D02*X309586Y282575D01*
X308086D02*X309586D01*
X308086D02*Y280075D01*
X306299Y251362D02*X308299D01*
X308799Y250862D01*
Y249862D01*
X308299Y249362D02*X308799Y249862D01*
X306799Y249362D02*X308299D01*
X306799Y251362D02*Y247362D01*
Y249362D02*X308799Y247362D01*
X310000Y250862D02*X310500Y251362D01*
X312000D01*
X312500Y250862D01*
Y249862D01*
X310000Y247362D02*X312500Y249862D01*
X310000Y247362D02*X312500D01*
X313701Y249362D02*X315701Y251362D01*
X313701Y249362D02*X316201D01*
X315701Y251362D02*Y247362D01*
X317402Y251362D02*X319402D01*
X317402D02*Y249362D01*
X317902Y249862D01*
X318902D01*
X319402Y249362D01*
Y247862D01*
X318902Y247362D02*X319402Y247862D01*
X317902Y247362D02*X318902D01*
X317402Y247862D02*X317902Y247362D01*
X318322Y234284D02*Y232284D01*
Y234284D02*X318822Y234784D01*
X319822D01*
X320322Y234284D02*X319822Y234784D01*
X320322Y234284D02*Y232784D01*
X318322D02*X322322D01*
X320322D02*X322322Y234784D01*
X318822Y235985D02*X318322Y236485D01*
Y237985D02*Y236485D01*
Y237985D02*X318822Y238485D01*
X319822D01*
X322322Y235985D02*X319822Y238485D01*
X322322D02*Y235985D01*
X318822Y239686D02*X318322Y240186D01*
Y241186D02*Y240186D01*
Y241186D02*X318822Y241686D01*
X321822D01*
X322322Y241186D02*X321822Y241686D01*
X322322Y241186D02*Y240186D01*
X321822Y239686D02*X322322Y240186D01*
X320322Y241686D02*Y240186D01*
X318322Y244887D02*Y242887D01*
X320322D01*
X319822Y243387D01*
Y244387D02*Y243387D01*
Y244387D02*X320322Y244887D01*
X321822D01*
X322322Y244387D02*X321822Y244887D01*
X322322Y244387D02*Y243387D01*
X321822Y242887D02*X322322Y243387D01*
X306299Y229710D02*X308299D01*
X308799Y229210D01*
Y228210D01*
X308299Y227710D02*X308799Y228210D01*
X306799Y227710D02*X308299D01*
X306799Y229710D02*Y225710D01*
Y227710D02*X308799Y225710D01*
X310000Y229210D02*X310500Y229710D01*
X312000D01*
X312500Y229210D01*
Y228210D01*
X310000Y225710D02*X312500Y228210D01*
X310000Y225710D02*X312500D01*
X313701Y229210D02*X314201Y229710D01*
X315201D01*
X315701Y229210D01*
Y226210D01*
X315201Y225710D02*X315701Y226210D01*
X314201Y225710D02*X315201D01*
X313701Y226210D02*X314201Y225710D01*
Y227710D02*X315701D01*
X316902D02*X318902Y229710D01*
X316902Y227710D02*X319402D01*
X318902Y229710D02*Y225710D01*
X299883Y272472D02*Y270972D01*
X299383Y270472D02*X299883Y270972D01*
X296383Y270472D02*X299383D01*
X296383D02*X295883Y270972D01*
Y272472D02*Y270972D01*
X296383Y273673D02*X295883Y274173D01*
Y275673D02*Y274173D01*
Y275673D02*X296383Y276173D01*
X297383D01*
X299883Y273673D02*X297383Y276173D01*
X299883D02*Y273673D01*
Y278874D02*Y277874D01*
X295883Y278374D02*X299883D01*
X296883Y277374D02*X295883Y278374D01*
X297883Y280075D02*X295883Y282075D01*
X297883Y282575D02*Y280075D01*
X295883Y282075D02*X299883D01*
X145150Y276496D02*X146650D01*
X144650Y276996D02*X145150Y276496D01*
X144650Y279996D02*Y276996D01*
Y279996D02*X145150Y280496D01*
X146650D01*
X148351Y276496D02*X149351D01*
X148851Y280496D02*Y276496D01*
X147851Y279496D02*X148851Y280496D01*
X150552Y276996D02*X151052Y276496D01*
X150552Y279996D02*Y276996D01*
Y279996D02*X151052Y280496D01*
X152052D01*
X152552Y279996D01*
Y276996D01*
X152052Y276496D02*X152552Y276996D01*
X151052Y276496D02*X152052D01*
X150552Y277496D02*X152552Y279496D01*
X153753Y278496D02*X155753Y280496D01*
X153753Y278496D02*X156253D01*
X155753Y280496D02*Y276496D01*
X260056Y271845D02*Y269845D01*
Y271845D02*X260556Y272345D01*
X261556D01*
X262056Y271845D02*X261556Y272345D01*
X262056Y271845D02*Y270345D01*
X260056D02*X264056D01*
X262056D02*X264056Y272345D01*
Y275046D02*Y274046D01*
X260056Y274546D02*X264056D01*
X261056Y273546D02*X260056Y274546D01*
X263556Y276247D02*X264056Y276747D01*
X260556Y276247D02*X263556D01*
X260556D02*X260056Y276747D01*
Y277747D02*Y276747D01*
Y277747D02*X260556Y278247D01*
X263556D01*
X264056Y277747D02*X263556Y278247D01*
X264056Y277747D02*Y276747D01*
X263056Y276247D02*X261056Y278247D01*
X260556Y279448D02*X260056Y279948D01*
Y281448D02*Y279948D01*
Y281448D02*X260556Y281948D01*
X261556D01*
X264056Y279448D02*X261556Y281948D01*
X264056D02*Y279448D01*
X244199Y283191D02*X245699D01*
X243699Y283691D02*X244199Y283191D01*
X243699Y286691D02*Y283691D01*
Y286691D02*X244199Y287191D01*
X245699D01*
X247400Y283191D02*X248400D01*
X247900Y287191D02*Y283191D01*
X246900Y286191D02*X247900Y287191D01*
X249601Y283691D02*X250101Y283191D01*
X249601Y286691D02*Y283691D01*
Y286691D02*X250101Y287191D01*
X251101D01*
X251601Y286691D01*
Y283691D01*
X251101Y283191D02*X251601Y283691D01*
X250101Y283191D02*X251101D01*
X249601Y284191D02*X251601Y286191D01*
X252802Y286691D02*X253302Y287191D01*
X254802D01*
X255302Y286691D01*
Y285691D01*
X252802Y283191D02*X255302Y285691D01*
X252802Y283191D02*X255302D01*
X152201Y289944D02*X154201D01*
X154701Y289444D01*
Y288444D01*
X154201Y287944D02*X154701Y288444D01*
X152701Y287944D02*X154201D01*
X152701Y289944D02*Y285944D01*
Y287944D02*X154701Y285944D01*
X156402D02*X157402D01*
X156902Y289944D02*Y285944D01*
X155902Y288944D02*X156902Y289944D01*
X158603Y286444D02*X159103Y285944D01*
X158603Y289444D02*Y286444D01*
Y289444D02*X159103Y289944D01*
X160103D01*
X160603Y289444D01*
Y286444D01*
X160103Y285944D02*X160603Y286444D01*
X159103Y285944D02*X160103D01*
X158603Y286944D02*X160603Y288944D01*
X162304Y285944D02*X163304D01*
X162804Y289944D02*Y285944D01*
X161804Y288944D02*X162804Y289944D01*
X109609Y288370D02*X111609D01*
X112109Y287870D01*
Y286870D01*
X111609Y286370D02*X112109Y286870D01*
X110109Y286370D02*X111609D01*
X110109Y288370D02*Y284370D01*
Y286370D02*X112109Y284370D01*
X113810D02*X114810D01*
X114310Y288370D02*Y284370D01*
X113310Y287370D02*X114310Y288370D01*
X116011Y284870D02*X116511Y284370D01*
X116011Y287870D02*Y284870D01*
Y287870D02*X116511Y288370D01*
X117511D01*
X118011Y287870D01*
Y284870D01*
X117511Y284370D02*X118011Y284870D01*
X116511Y284370D02*X117511D01*
X116011Y285370D02*X118011Y287370D01*
X119212Y284870D02*X119712Y284370D01*
X119212Y287870D02*Y284870D01*
Y287870D02*X119712Y288370D01*
X120712D01*
X121212Y287870D01*
Y284870D01*
X120712Y284370D02*X121212Y284870D01*
X119712Y284370D02*X120712D01*
X119212Y285370D02*X121212Y287370D01*
X305788Y272474D02*Y270974D01*
X305288Y270474D02*X305788Y270974D01*
X302288Y270474D02*X305288D01*
X302288D02*X301788Y270974D01*
Y272474D02*Y270974D01*
X302288Y273675D02*X301788Y274175D01*
Y275675D02*Y274175D01*
Y275675D02*X302288Y276175D01*
X303288D01*
X305788Y273675D02*X303288Y276175D01*
X305788D02*Y273675D01*
Y278876D02*Y277876D01*
X301788Y278376D02*X305788D01*
X302788Y277376D02*X301788Y278376D01*
Y282077D02*Y280077D01*
X303788D01*
X303288Y280577D01*
Y281577D02*Y280577D01*
Y281577D02*X303788Y282077D01*
X305288D01*
X305788Y281577D02*X305288Y282077D01*
X305788Y281577D02*Y280577D01*
X305288Y280077D02*X305788Y280577D01*
X295182Y201757D02*X297182D01*
X297682Y201257D01*
Y200257D01*
X297182Y199757D02*X297682Y200257D01*
X295682Y199757D02*X297182D01*
X295682Y201757D02*Y197757D01*
Y199757D02*X297682Y197757D01*
X299383D02*X300383D01*
X299883Y201757D02*Y197757D01*
X298883Y200757D02*X299883Y201757D01*
X301584Y198257D02*X302084Y197757D01*
X301584Y201257D02*Y198257D01*
Y201257D02*X302084Y201757D01*
X303084D01*
X303584Y201257D01*
Y198257D01*
X303084Y197757D02*X303584Y198257D01*
X302084Y197757D02*X303084D01*
X301584Y198757D02*X303584Y200757D01*
X304785Y199757D02*X306785Y201757D01*
X304785Y199757D02*X307285D01*
X306785Y201757D02*Y197757D01*
X292532Y222488D02*X294032D01*
X292032Y222988D02*X292532Y222488D01*
X292032Y225988D02*Y222988D01*
Y225988D02*X292532Y226488D01*
X294032D01*
X295733Y222488D02*X296733D01*
X296233Y226488D02*Y222488D01*
X295233Y225488D02*X296233Y226488D01*
X298434Y222488D02*X299434D01*
X298934Y226488D02*Y222488D01*
X297934Y225488D02*X298934Y226488D01*
X300635Y222988D02*X301135Y222488D01*
X300635Y225988D02*Y222988D01*
Y225988D02*X301135Y226488D01*
X302135D01*
X302635Y225988D01*
Y222988D01*
X302135Y222488D02*X302635Y222988D01*
X301135Y222488D02*X302135D01*
X300635Y223488D02*X302635Y225488D01*
X292754Y294670D02*X294754D01*
X295254Y294170D01*
Y293170D01*
X294754Y292670D02*X295254Y293170D01*
X293254Y292670D02*X294754D01*
X293254Y294670D02*Y290670D01*
Y292670D02*X295254Y290670D01*
X296455Y294170D02*X296955Y294670D01*
X298455D01*
X298955Y294170D01*
Y293170D01*
X296455Y290670D02*X298955Y293170D01*
X296455Y290670D02*X298955D01*
X300156Y294170D02*X300656Y294670D01*
X301656D01*
X302156Y294170D01*
Y291170D01*
X301656Y290670D02*X302156Y291170D01*
X300656Y290670D02*X301656D01*
X300156Y291170D02*X300656Y290670D01*
Y292670D02*X302156D01*
X303357Y291170D02*X303857Y290670D01*
X303357Y292170D02*Y291170D01*
Y292170D02*X303857Y292670D01*
X304857D01*
X305357Y292170D01*
Y291170D01*
X304857Y290670D02*X305357Y291170D01*
X303857Y290670D02*X304857D01*
X303357Y293170D02*X303857Y292670D01*
X303357Y294170D02*Y293170D01*
Y294170D02*X303857Y294670D01*
X304857D01*
X305357Y294170D01*
Y293170D01*
X304857Y292670D02*X305357Y293170D01*
X253719Y244996D02*Y241496D01*
X254219Y240996D01*
X255219D01*
X255719Y241496D01*
Y244996D02*Y241496D01*
X257420Y240996D02*X258420D01*
X257920Y244996D02*Y240996D01*
X256920Y243996D02*X257920Y244996D01*
X259621Y241496D02*X260121Y240996D01*
X259621Y244496D02*Y241496D01*
Y244496D02*X260121Y244996D01*
X261121D01*
X261621Y244496D01*
Y241496D01*
X261121Y240996D02*X261621Y241496D01*
X260121Y240996D02*X261121D01*
X259621Y241996D02*X261621Y243996D01*
X262822Y244496D02*X263322Y244996D01*
X264822D01*
X265322Y244496D01*
Y243496D01*
X262822Y240996D02*X265322Y243496D01*
X262822Y240996D02*X265322D01*
X231459Y254414D02*Y251414D01*
Y254414D02*X231959Y254914D01*
X232959D01*
X233459Y254414D01*
Y251414D01*
X232959Y250914D02*X233459Y251414D01*
X231959Y250914D02*X232959D01*
X231459Y251414D02*X231959Y250914D01*
X232459Y251914D02*X233459Y250914D01*
X235160D02*X236160D01*
X235660Y254914D02*Y250914D01*
X234660Y253914D02*X235660Y254914D01*
X237361Y251414D02*X237861Y250914D01*
X237361Y254414D02*Y251414D01*
Y254414D02*X237861Y254914D01*
X238861D01*
X239361Y254414D01*
Y251414D01*
X238861Y250914D02*X239361Y251414D01*
X237861Y250914D02*X238861D01*
X237361Y251914D02*X239361Y253914D01*
X241062Y250914D02*X242062D01*
X241562Y254914D02*Y250914D01*
X240562Y253914D02*X241562Y254914D01*
X251064Y244913D02*Y243413D01*
X250564Y242913D02*X251064Y243413D01*
X247564Y242913D02*X250564D01*
X247564D02*X247064Y243413D01*
Y244913D02*Y243413D01*
X251064Y247614D02*Y246614D01*
X247064Y247114D02*X251064D01*
X248064Y246114D02*X247064Y247114D01*
X250564Y248815D02*X251064Y249315D01*
X247564Y248815D02*X250564D01*
X247564D02*X247064Y249315D01*
Y250315D02*Y249315D01*
Y250315D02*X247564Y250815D01*
X250564D01*
X251064Y250315D02*X250564Y250815D01*
X251064Y250315D02*Y249315D01*
X250064Y248815D02*X248064Y250815D01*
X251064Y252016D02*X248564Y254516D01*
X247064D02*X248564D01*
X247064D02*Y252016D01*
X260056Y257280D02*Y255280D01*
Y257280D02*X260556Y257780D01*
X261556D01*
X262056Y257280D02*X261556Y257780D01*
X262056Y257280D02*Y255780D01*
X260056D02*X264056D01*
X262056D02*X264056Y257780D01*
Y260481D02*Y259481D01*
X260056Y259981D02*X264056D01*
X261056Y258981D02*X260056Y259981D01*
X263556Y261682D02*X264056Y262182D01*
X260556Y261682D02*X263556D01*
X260556D02*X260056Y262182D01*
Y263182D02*Y262182D01*
Y263182D02*X260556Y263682D01*
X263556D01*
X264056Y263182D02*X263556Y263682D01*
X264056Y263182D02*Y262182D01*
X263056Y261682D02*X261056Y263682D01*
X260556Y264883D02*X260056Y265383D01*
Y266383D02*Y265383D01*
Y266383D02*X260556Y266883D01*
X263556D01*
X264056Y266383D02*X263556Y266883D01*
X264056Y266383D02*Y265383D01*
X263556Y264883D02*X264056Y265383D01*
X262056Y266883D02*Y265383D01*
X218819Y209020D02*Y205520D01*
X219319Y205020D01*
X220319D01*
X220819Y205520D01*
Y209020D02*Y205520D01*
X222520Y205020D02*X223520D01*
X223020Y209020D02*Y205020D01*
X222020Y208020D02*X223020Y209020D01*
X224721Y205520D02*X225221Y205020D01*
X224721Y208520D02*Y205520D01*
Y208520D02*X225221Y209020D01*
X226221D01*
X226721Y208520D01*
Y205520D01*
X226221Y205020D02*X226721Y205520D01*
X225221Y205020D02*X226221D01*
X224721Y206020D02*X226721Y208020D01*
X227922Y207020D02*X229922Y209020D01*
X227922Y207020D02*X230422D01*
X229922Y209020D02*Y205020D01*
X263598Y306097D02*Y304097D01*
Y306097D02*X264098Y306597D01*
X265098D01*
X265598Y306097D02*X265098Y306597D01*
X265598Y306097D02*Y304597D01*
X263598D02*X267598D01*
X265598D02*X267598Y306597D01*
X264098Y307798D02*X263598Y308298D01*
Y309798D02*Y308298D01*
Y309798D02*X264098Y310298D01*
X265098D01*
X267598Y307798D02*X265098Y310298D01*
X267598D02*Y307798D01*
X265598Y311499D02*X263598Y313499D01*
X265598Y313999D02*Y311499D01*
X263598Y313499D02*X267598D01*
X265598Y315200D02*X263598Y317200D01*
X265598Y317700D02*Y315200D01*
X263598Y317200D02*X267598D01*
X125590Y315142D02*Y311142D01*
X127590D01*
X129291D02*X130291D01*
X129791Y315142D02*Y311142D01*
X128791Y314142D02*X129791Y315142D01*
X131492Y311642D02*X131992Y311142D01*
X131492Y314642D02*Y311642D01*
Y314642D02*X131992Y315142D01*
X132992D01*
X133492Y314642D01*
Y311642D01*
X132992Y311142D02*X133492Y311642D01*
X131992Y311142D02*X132992D01*
X131492Y312142D02*X133492Y314142D01*
X134693Y311642D02*X135193Y311142D01*
X134693Y314642D02*Y311642D01*
Y314642D02*X135193Y315142D01*
X136193D01*
X136693Y314642D01*
Y311642D01*
X136193Y311142D02*X136693Y311642D01*
X135193Y311142D02*X136193D01*
X134693Y312142D02*X136693Y314142D01*
X303031Y300263D02*Y298763D01*
X302531Y298263D02*X303031Y298763D01*
X299531Y298263D02*X302531D01*
X299531D02*X299031Y298763D01*
Y300263D02*Y298763D01*
X299531Y301464D02*X299031Y301964D01*
Y303464D02*Y301964D01*
Y303464D02*X299531Y303964D01*
X300531D01*
X303031Y301464D02*X300531Y303964D01*
X303031D02*Y301464D01*
Y306665D02*Y305665D01*
X299031Y306165D02*X303031D01*
X300031Y305165D02*X299031Y306165D01*
Y309366D02*X299531Y309866D01*
X299031Y309366D02*Y308366D01*
X299531Y307866D02*X299031Y308366D01*
X299531Y307866D02*X302531D01*
X303031Y308366D01*
X301031Y309366D02*X301531Y309866D01*
X301031Y309366D02*Y307866D01*
X303031Y309366D02*Y308366D01*
Y309366D02*X302531Y309866D01*
X301531D02*X302531D01*
X16750Y100424D02*Y98424D01*
Y100424D02*X17250Y100924D01*
X18250D01*
X18750Y100424D02*X18250Y100924D01*
X18750Y100424D02*Y98924D01*
X16750D02*X20750D01*
X18750D02*X20750Y100924D01*
X17250Y102125D02*X16750Y102625D01*
Y104125D02*Y102625D01*
Y104125D02*X17250Y104625D01*
X18250D01*
X20750Y102125D02*X18250Y104625D01*
X20750D02*Y102125D01*
X20250Y105826D02*X20750Y106326D01*
X17250Y105826D02*X20250D01*
X17250D02*X16750Y106326D01*
Y107326D02*Y106326D01*
Y107326D02*X17250Y107826D01*
X20250D01*
X20750Y107326D02*X20250Y107826D01*
X20750Y107326D02*Y106326D01*
X19750Y105826D02*X17750Y107826D01*
X18750Y109027D02*X16750Y111027D01*
X18750Y111527D02*Y109027D01*
X16750Y111027D02*X20750D01*
X17141Y124802D02*X21141D01*
X17141Y126802D02*Y124802D01*
X19141Y126302D02*Y124802D01*
X17641Y128003D02*X17141Y128503D01*
Y130003D02*Y128503D01*
Y130003D02*X17641Y130503D01*
X18641D01*
X21141Y128003D02*X18641Y130503D01*
X21141D02*Y128003D01*
X20641Y131704D02*X21141Y132204D01*
X17641Y131704D02*X20641D01*
X17641D02*X17141Y132204D01*
Y133204D02*Y132204D01*
Y133204D02*X17641Y133704D01*
X20641D01*
X21141Y133204D02*X20641Y133704D01*
X21141Y133204D02*Y132204D01*
X20141Y131704D02*X18141Y133704D01*
X20641Y134905D02*X21141Y135405D01*
X17641Y134905D02*X20641D01*
X17641D02*X17141Y135405D01*
Y136405D02*Y135405D01*
Y136405D02*X17641Y136905D01*
X20641D01*
X21141Y136405D02*X20641Y136905D01*
X21141Y136405D02*Y135405D01*
X20141Y134905D02*X18141Y136905D01*
X87615Y68337D02*X88115Y68837D01*
X87615Y68337D02*Y66837D01*
X88115Y66337D02*X87615Y66837D01*
X88115Y66337D02*X89115D01*
X89615Y66837D01*
Y68337D02*Y66837D01*
Y68337D02*X90115Y68837D01*
X91115D01*
X91615Y68337D02*X91115Y68837D01*
X91615Y68337D02*Y66837D01*
X91115Y66337D02*X91615Y66837D01*
X88115Y70038D02*X87615Y70538D01*
Y72038D02*Y70538D01*
Y72038D02*X88115Y72538D01*
X89115D01*
X91615Y70038D02*X89115Y72538D01*
X91615D02*Y70038D01*
X91115Y73739D02*X91615Y74239D01*
X88115Y73739D02*X91115D01*
X88115D02*X87615Y74239D01*
Y75239D02*Y74239D01*
Y75239D02*X88115Y75739D01*
X91115D01*
X91615Y75239D02*X91115Y75739D01*
X91615Y75239D02*Y74239D01*
X90615Y73739D02*X88615Y75739D01*
X88115Y76940D02*X87615Y77440D01*
Y78440D02*Y77440D01*
Y78440D02*X88115Y78940D01*
X91115D01*
X91615Y78440D02*X91115Y78940D01*
X91615Y78440D02*Y77440D01*
X91115Y76940D02*X91615Y77440D01*
X89615Y78940D02*Y77440D01*
X22835Y96639D02*Y92639D01*
Y96639D02*X24835D01*
X22835Y94639D02*X24335D01*
X26036Y96139D02*X26536Y96639D01*
X28036D01*
X28536Y96139D01*
Y95139D01*
X26036Y92639D02*X28536Y95139D01*
X26036Y92639D02*X28536D01*
X29737Y93139D02*X30237Y92639D01*
X29737Y96139D02*Y93139D01*
Y96139D02*X30237Y96639D01*
X31237D01*
X31737Y96139D01*
Y93139D01*
X31237Y92639D02*X31737Y93139D01*
X30237Y92639D02*X31237D01*
X29737Y93639D02*X31737Y95639D01*
X32938Y96139D02*X33438Y96639D01*
X34438D01*
X34938Y96139D01*
Y93139D01*
X34438Y92639D02*X34938Y93139D01*
X33438Y92639D02*X34438D01*
X32938Y93139D02*X33438Y92639D01*
Y94639D02*X34938D01*
X14385Y84838D02*Y82838D01*
Y84838D02*X14885Y85338D01*
X15885D01*
X16385Y84838D02*X15885Y85338D01*
X16385Y84838D02*Y83338D01*
X14385D02*X18385D01*
X16385D02*X18385Y85338D01*
X14885Y86539D02*X14385Y87039D01*
Y88539D02*Y87039D01*
Y88539D02*X14885Y89039D01*
X15885D01*
X18385Y86539D02*X15885Y89039D01*
X18385D02*Y86539D01*
X17885Y90240D02*X18385Y90740D01*
X14885Y90240D02*X17885D01*
X14885D02*X14385Y90740D01*
Y91740D02*Y90740D01*
Y91740D02*X14885Y92240D01*
X17885D01*
X18385Y91740D02*X17885Y92240D01*
X18385Y91740D02*Y90740D01*
X17385Y90240D02*X15385Y92240D01*
X14885Y93441D02*X14385Y93941D01*
Y94941D02*Y93941D01*
Y94941D02*X14885Y95441D01*
X17885D01*
X18385Y94941D02*X17885Y95441D01*
X18385Y94941D02*Y93941D01*
X17885Y93441D02*X18385Y93941D01*
X16385Y95441D02*Y93941D01*
X22835Y90731D02*Y86731D01*
Y90731D02*X24835D01*
X22835Y88731D02*X24335D01*
X26036Y90231D02*X26536Y90731D01*
X28036D01*
X28536Y90231D01*
Y89231D01*
X26036Y86731D02*X28536Y89231D01*
X26036Y86731D02*X28536D01*
X29737Y87231D02*X30237Y86731D01*
X29737Y90231D02*Y87231D01*
Y90231D02*X30237Y90731D01*
X31237D01*
X31737Y90231D01*
Y87231D01*
X31237Y86731D02*X31737Y87231D01*
X30237Y86731D02*X31237D01*
X29737Y87731D02*X31737Y89731D01*
X32938Y90231D02*X33438Y90731D01*
X34938D01*
X35438Y90231D01*
Y89231D01*
X32938Y86731D02*X35438Y89231D01*
X32938Y86731D02*X35438D01*
X279527Y239945D02*X281527D01*
X282027Y239445D01*
Y238445D01*
X281527Y237945D02*X282027Y238445D01*
X280027Y237945D02*X281527D01*
X280027Y239945D02*Y235945D01*
Y237945D02*X282027Y235945D01*
X283228Y239445D02*X283728Y239945D01*
X285228D01*
X285728Y239445D01*
Y238445D01*
X283228Y235945D02*X285728Y238445D01*
X283228Y235945D02*X285728D01*
X287429D02*X288429D01*
X287929Y239945D02*Y235945D01*
X286929Y238945D02*X287929Y239945D01*
X289630D02*X291630D01*
X289630D02*Y237945D01*
X290130Y238445D01*
X291130D01*
X291630Y237945D01*
Y236445D01*
X291130Y235945D02*X291630Y236445D01*
X290130Y235945D02*X291130D01*
X289630Y236445D02*X290130Y235945D01*
X603362Y237827D02*Y235827D01*
Y237827D02*X603862Y238327D01*
X604862D01*
X605362Y237827D02*X604862Y238327D01*
X605362Y237827D02*Y236327D01*
X603362D02*X607362D01*
X605362D02*X607362Y238327D01*
X603862Y239528D02*X603362Y240028D01*
Y241528D02*Y240028D01*
Y241528D02*X603862Y242028D01*
X604862D01*
X607362Y239528D02*X604862Y242028D01*
X607362D02*Y239528D01*
X603862Y243229D02*X603362Y243729D01*
Y245229D02*Y243729D01*
Y245229D02*X603862Y245729D01*
X604862D01*
X607362Y243229D02*X604862Y245729D01*
X607362D02*Y243229D01*
X603362Y248430D02*X603862Y248930D01*
X603362Y248430D02*Y247430D01*
X603862Y246930D02*X603362Y247430D01*
X603862Y246930D02*X606862D01*
X607362Y247430D01*
X605362Y248430D02*X605862Y248930D01*
X605362Y248430D02*Y246930D01*
X607362Y248430D02*Y247430D01*
Y248430D02*X606862Y248930D01*
X605862D02*X606862D01*
X634019Y235435D02*X638019D01*
Y237435D02*Y235435D01*
X636019Y240136D02*Y238636D01*
X638019Y240636D02*Y238636D01*
X634019D02*X638019D01*
X634019Y240636D02*Y238636D01*
Y242337D02*X638019D01*
X634019Y243837D02*X634519Y244337D01*
X637519D01*
X638019Y243837D02*X637519Y244337D01*
X638019Y243837D02*Y241837D01*
X634019Y243837D02*Y241837D01*
X634519Y245538D02*X634019Y246038D01*
Y247538D02*Y246038D01*
Y247538D02*X634519Y248038D01*
X635519D01*
X638019Y245538D02*X635519Y248038D01*
X638019D02*Y245538D01*
X637519Y249239D02*X638019Y249739D01*
X634519Y249239D02*X637519D01*
X634519D02*X634019Y249739D01*
Y250739D02*Y249739D01*
Y250739D02*X634519Y251239D01*
X637519D01*
X638019Y250739D02*X637519Y251239D01*
X638019Y250739D02*Y249739D01*
X637019Y249239D02*X635019Y251239D01*
X634519Y252440D02*X634019Y252940D01*
Y253940D02*Y252940D01*
Y253940D02*X634519Y254440D01*
X637519D01*
X638019Y253940D02*X637519Y254440D01*
X638019Y253940D02*Y252940D01*
X637519Y252440D02*X638019Y252940D01*
X636019Y254440D02*Y252940D01*
X507642Y236403D02*X509642D01*
X510142Y235903D01*
Y234903D01*
X509642Y234403D02*X510142Y234903D01*
X508142Y234403D02*X509642D01*
X508142Y236403D02*Y232403D01*
Y234403D02*X510142Y232403D01*
X511343Y235903D02*X511843Y236403D01*
X512843D01*
X513343Y235903D01*
Y232903D01*
X512843Y232403D02*X513343Y232903D01*
X511843Y232403D02*X512843D01*
X511343Y232903D02*X511843Y232403D01*
Y234403D02*X513343D01*
X514544Y232903D02*X515044Y232403D01*
X514544Y235903D02*Y232903D01*
Y235903D02*X515044Y236403D01*
X516044D01*
X516544Y235903D01*
Y232903D01*
X516044Y232403D02*X516544Y232903D01*
X515044Y232403D02*X516044D01*
X514544Y233403D02*X516544Y235403D01*
X517745Y236403D02*X519745D01*
X517745D02*Y234403D01*
X518245Y234903D01*
X519245D01*
X519745Y234403D01*
Y232903D01*
X519245Y232403D02*X519745Y232903D01*
X518245Y232403D02*X519245D01*
X517745Y232903D02*X518245Y232403D01*
X523463Y237582D02*X525463D01*
X525963Y237082D01*
Y236082D01*
X525463Y235582D02*X525963Y236082D01*
X523963Y235582D02*X525463D01*
X523963Y237582D02*Y233582D01*
Y235582D02*X525963Y233582D01*
X527164Y237082D02*X527664Y237582D01*
X528664D01*
X529164Y237082D01*
Y234082D01*
X528664Y233582D02*X529164Y234082D01*
X527664Y233582D02*X528664D01*
X527164Y234082D02*X527664Y233582D01*
Y235582D02*X529164D01*
X530365Y234082D02*X530865Y233582D01*
X530365Y237082D02*Y234082D01*
Y237082D02*X530865Y237582D01*
X531865D01*
X532365Y237082D01*
Y234082D01*
X531865Y233582D02*X532365Y234082D01*
X530865Y233582D02*X531865D01*
X530365Y234582D02*X532365Y236582D01*
X534066Y233582D02*X535066D01*
X534566Y237582D02*Y233582D01*
X533566Y236582D02*X534566Y237582D01*
X432740Y104645D02*Y100645D01*
X434240Y104645D02*X434740Y104145D01*
Y101145D01*
X434240Y100645D02*X434740Y101145D01*
X432240Y100645D02*X434240D01*
X432240Y104645D02*X434240D01*
X435941Y104145D02*X436441Y104645D01*
X437441D01*
X437941Y104145D01*
Y101145D01*
X437441Y100645D02*X437941Y101145D01*
X436441Y100645D02*X437441D01*
X435941Y101145D02*X436441Y100645D01*
Y102645D02*X437941D01*
X439142Y101145D02*X439642Y100645D01*
X439142Y104145D02*Y101145D01*
Y104145D02*X439642Y104645D01*
X440642D01*
X441142Y104145D01*
Y101145D01*
X440642Y100645D02*X441142Y101145D01*
X439642Y100645D02*X440642D01*
X439142Y101645D02*X441142Y103645D01*
X442343Y101145D02*X442843Y100645D01*
X442343Y104145D02*Y101145D01*
Y104145D02*X442843Y104645D01*
X443843D01*
X444343Y104145D01*
Y101145D01*
X443843Y100645D02*X444343Y101145D01*
X442843Y100645D02*X443843D01*
X442343Y101645D02*X444343Y103645D01*
X447744Y109175D02*X449244D01*
X447244Y109675D02*X447744Y109175D01*
X447244Y112675D02*Y109675D01*
Y112675D02*X447744Y113175D01*
X449244D01*
X450445Y112675D02*X450945Y113175D01*
X451945D01*
X452445Y112675D01*
Y109675D01*
X451945Y109175D02*X452445Y109675D01*
X450945Y109175D02*X451945D01*
X450445Y109675D02*X450945Y109175D01*
Y111175D02*X452445D01*
X453646Y109675D02*X454146Y109175D01*
X453646Y112675D02*Y109675D01*
Y112675D02*X454146Y113175D01*
X455146D01*
X455646Y112675D01*
Y109675D01*
X455146Y109175D02*X455646Y109675D01*
X454146Y109175D02*X455146D01*
X453646Y110175D02*X455646Y112175D01*
X457347Y109175D02*X458347D01*
X457847Y113175D02*Y109175D01*
X456847Y112175D02*X457847Y113175D01*
X434135Y143178D02*Y141678D01*
X433635Y141178D02*X434135Y141678D01*
X430635Y141178D02*X433635D01*
X430635D02*X430135Y141678D01*
Y143178D02*Y141678D01*
X430635Y144379D02*X430135Y144879D01*
Y145879D02*Y144879D01*
Y145879D02*X430635Y146379D01*
X433635D01*
X434135Y145879D02*X433635Y146379D01*
X434135Y145879D02*Y144879D01*
X433635Y144379D02*X434135Y144879D01*
X432135Y146379D02*Y144879D01*
X434135Y149080D02*Y148080D01*
X430135Y148580D02*X434135D01*
X431135Y147580D02*X430135Y148580D01*
Y152281D02*Y150281D01*
X432135D01*
X431635Y150781D01*
Y151781D02*Y150781D01*
Y151781D02*X432135Y152281D01*
X433635D01*
X434135Y151781D02*X433635Y152281D01*
X434135Y151781D02*Y150781D01*
X433635Y150281D02*X434135Y150781D01*
X434134Y124995D02*Y123495D01*
X433634Y122995D02*X434134Y123495D01*
X430634Y122995D02*X433634D01*
X430634D02*X430134Y123495D01*
Y124995D02*Y123495D01*
X430634Y126196D02*X430134Y126696D01*
Y127696D02*Y126696D01*
Y127696D02*X430634Y128196D01*
X433634D01*
X434134Y127696D02*X433634Y128196D01*
X434134Y127696D02*Y126696D01*
X433634Y126196D02*X434134Y126696D01*
X432134Y128196D02*Y126696D01*
X433634Y129397D02*X434134Y129897D01*
X430634Y129397D02*X433634D01*
X430634D02*X430134Y129897D01*
Y130897D02*Y129897D01*
Y130897D02*X430634Y131397D01*
X433634D01*
X434134Y130897D02*X433634Y131397D01*
X434134Y130897D02*Y129897D01*
X433134Y129397D02*X431134Y131397D01*
X433634Y132598D02*X434134Y133098D01*
X430634Y132598D02*X433634D01*
X430634D02*X430134Y133098D01*
Y134098D02*Y133098D01*
Y134098D02*X430634Y134598D01*
X433634D01*
X434134Y134098D02*X433634Y134598D01*
X434134Y134098D02*Y133098D01*
X433134Y132598D02*X431134Y134598D01*
X465961Y134123D02*Y132123D01*
Y134123D02*X466461Y134623D01*
X467461D01*
X467961Y134123D02*X467461Y134623D01*
X467961Y134123D02*Y132623D01*
X465961D02*X469961D01*
X467961D02*X469961Y134623D01*
X466461Y135824D02*X465961Y136324D01*
Y137324D02*Y136324D01*
Y137324D02*X466461Y137824D01*
X469461D01*
X469961Y137324D02*X469461Y137824D01*
X469961Y137324D02*Y136324D01*
X469461Y135824D02*X469961Y136324D01*
X467961Y137824D02*Y136324D01*
X469961Y140525D02*Y139525D01*
X465961Y140025D02*X469961D01*
X466961Y139025D02*X465961Y140025D01*
X469961Y141726D02*X467461Y144226D01*
X465961D02*X467461D01*
X465961D02*Y141726D01*
X532622Y158976D02*X534122D01*
X532122Y159476D02*X532622Y158976D01*
X532122Y162476D02*Y159476D01*
Y162476D02*X532622Y162976D01*
X534122D01*
X535323Y162476D02*X535823Y162976D01*
X536823D01*
X537323Y162476D01*
Y159476D01*
X536823Y158976D02*X537323Y159476D01*
X535823Y158976D02*X536823D01*
X535323Y159476D02*X535823Y158976D01*
Y160976D02*X537323D01*
X539024Y158976D02*X540024D01*
X539524Y162976D02*Y158976D01*
X538524Y161976D02*X539524Y162976D01*
X542725D02*X543225Y162476D01*
X541725Y162976D02*X542725D01*
X541225Y162476D02*X541725Y162976D01*
X541225Y162476D02*Y159476D01*
X541725Y158976D01*
X542725Y160976D02*X543225Y160476D01*
X541225Y160976D02*X542725D01*
X541725Y158976D02*X542725D01*
X543225Y159476D01*
Y160476D02*Y159476D01*
X530412Y114267D02*X532192D01*
X532637Y113822D01*
Y112932D01*
X532192Y112487D02*X532637Y112932D01*
X530857Y112487D02*X532192D01*
X530857Y114267D02*Y110707D01*
Y112487D02*X532637Y110707D01*
X533705Y113822D02*X534150Y114267D01*
X535040D01*
X535485Y113822D01*
Y111152D01*
X535040Y110707D02*X535485Y111152D01*
X534150Y110707D02*X535040D01*
X533705Y111152D02*X534150Y110707D01*
Y112487D02*X535485D01*
X536999Y110707D02*X537889D01*
X537444Y114267D02*Y110707D01*
X536554Y113377D02*X537444Y114267D01*
X538958Y113822D02*X539403Y114267D01*
X540738D01*
X541183Y113822D01*
Y112932D01*
X538958Y110707D02*X541183Y112932D01*
X538958Y110707D02*X541183D01*
X483678Y119555D02*Y117555D01*
Y119555D02*X484178Y120055D01*
X485178D01*
X485678Y119555D02*X485178Y120055D01*
X485678Y119555D02*Y118055D01*
X483678D02*X487678D01*
X485678D02*X487678Y120055D01*
X484178Y121256D02*X483678Y121756D01*
Y122756D02*Y121756D01*
Y122756D02*X484178Y123256D01*
X487178D01*
X487678Y122756D02*X487178Y123256D01*
X487678Y122756D02*Y121756D01*
X487178Y121256D02*X487678Y121756D01*
X485678Y123256D02*Y121756D01*
X484178Y124457D02*X483678Y124957D01*
Y126457D02*Y124957D01*
Y126457D02*X484178Y126957D01*
X485178D01*
X487678Y124457D02*X485178Y126957D01*
X487678D02*Y124457D01*
Y129658D02*Y128658D01*
X483678Y129158D02*X487678D01*
X484678Y128158D02*X483678Y129158D01*
X488794Y93177D02*Y91177D01*
Y93177D02*X489294Y93677D01*
X490294D01*
X490794Y93177D02*X490294Y93677D01*
X490794Y93177D02*Y91677D01*
X488794D02*X492794D01*
X490794D02*X492794Y93677D01*
X489294Y94878D02*X488794Y95378D01*
Y96378D02*Y95378D01*
Y96378D02*X489294Y96878D01*
X492294D01*
X492794Y96378D02*X492294Y96878D01*
X492794Y96378D02*Y95378D01*
X492294Y94878D02*X492794Y95378D01*
X490794Y96878D02*Y95378D01*
X492794Y99579D02*Y98579D01*
X488794Y99079D02*X492794D01*
X489794Y98079D02*X488794Y99079D01*
X492294Y100780D02*X492794Y101280D01*
X491294Y100780D02*X492294D01*
X491294D02*X490794Y101280D01*
Y102280D02*Y101280D01*
Y102280D02*X491294Y102780D01*
X492294D01*
X492794Y102280D02*X492294Y102780D01*
X492794Y102280D02*Y101280D01*
X490294Y100780D02*X490794Y101280D01*
X489294Y100780D02*X490294D01*
X489294D02*X488794Y101280D01*
Y102280D02*Y101280D01*
Y102280D02*X489294Y102780D01*
X490294D01*
X490794Y102280D02*X490294Y102780D01*
X603362Y220505D02*Y218505D01*
Y220505D02*X603862Y221005D01*
X604862D01*
X605362Y220505D02*X604862Y221005D01*
X605362Y220505D02*Y219005D01*
X603362D02*X607362D01*
X605362D02*X607362Y221005D01*
X603862Y222206D02*X603362Y222706D01*
Y223706D02*Y222706D01*
Y223706D02*X603862Y224206D01*
X606862D01*
X607362Y223706D02*X606862Y224206D01*
X607362Y223706D02*Y222706D01*
X606862Y222206D02*X607362Y222706D01*
X605362Y224206D02*Y222706D01*
X603862Y225407D02*X603362Y225907D01*
Y227407D02*Y225907D01*
Y227407D02*X603862Y227907D01*
X604862D01*
X607362Y225407D02*X604862Y227907D01*
X607362D02*Y225407D01*
X603862Y229108D02*X603362Y229608D01*
Y230608D02*Y229608D01*
Y230608D02*X603862Y231108D01*
X606862D01*
X607362Y230608D02*X606862Y231108D01*
X607362Y230608D02*Y229608D01*
X606862Y229108D02*X607362Y229608D01*
X605362Y231108D02*Y229608D01*
X634019Y212599D02*X638019D01*
Y214599D02*Y212599D01*
X636019Y217300D02*Y215800D01*
X638019Y217800D02*Y215800D01*
X634019D02*X638019D01*
X634019Y217800D02*Y215800D01*
Y219501D02*X638019D01*
X634019Y221001D02*X634519Y221501D01*
X637519D01*
X638019Y221001D02*X637519Y221501D01*
X638019Y221001D02*Y219001D01*
X634019Y221001D02*Y219001D01*
X634519Y222702D02*X634019Y223202D01*
Y224202D02*Y223202D01*
Y224202D02*X634519Y224702D01*
X637519D01*
X638019Y224202D02*X637519Y224702D01*
X638019Y224202D02*Y223202D01*
X637519Y222702D02*X638019Y223202D01*
X636019Y224702D02*Y223202D01*
X637519Y225903D02*X638019Y226403D01*
X634519Y225903D02*X637519D01*
X634519D02*X634019Y226403D01*
Y227403D02*Y226403D01*
Y227403D02*X634519Y227903D01*
X637519D01*
X638019Y227403D02*X637519Y227903D01*
X638019Y227403D02*Y226403D01*
X637019Y225903D02*X635019Y227903D01*
X634519Y229104D02*X634019Y229604D01*
Y231104D02*Y229604D01*
Y231104D02*X634519Y231604D01*
X635519D01*
X638019Y229104D02*X635519Y231604D01*
X638019D02*Y229104D01*
X603362Y202788D02*Y200788D01*
Y202788D02*X603862Y203288D01*
X604862D01*
X605362Y202788D02*X604862Y203288D01*
X605362Y202788D02*Y201288D01*
X603362D02*X607362D01*
X605362D02*X607362Y203288D01*
X603862Y204489D02*X603362Y204989D01*
Y205989D02*Y204989D01*
Y205989D02*X603862Y206489D01*
X606862D01*
X607362Y205989D02*X606862Y206489D01*
X607362Y205989D02*Y204989D01*
X606862Y204489D02*X607362Y204989D01*
X605362Y206489D02*Y204989D01*
X603862Y207690D02*X603362Y208190D01*
Y209690D02*Y208190D01*
Y209690D02*X603862Y210190D01*
X604862D01*
X607362Y207690D02*X604862Y210190D01*
X607362D02*Y207690D01*
X606862Y211391D02*X607362Y211891D01*
X605862Y211391D02*X606862D01*
X605862D02*X605362Y211891D01*
Y212891D02*Y211891D01*
Y212891D02*X605862Y213391D01*
X606862D01*
X607362Y212891D02*X606862Y213391D01*
X607362Y212891D02*Y211891D01*
X604862Y211391D02*X605362Y211891D01*
X603862Y211391D02*X604862D01*
X603862D02*X603362Y211891D01*
Y212891D02*Y211891D01*
Y212891D02*X603862Y213391D01*
X604862D01*
X605362Y212891D02*X604862Y213391D01*
X567716Y126166D02*Y122166D01*
X569716D01*
X570917Y124166D02*X572417D01*
X570917Y122166D02*X572917D01*
X570917Y126166D02*Y122166D01*
Y126166D02*X572917D01*
X574618D02*Y122166D01*
X576118Y126166D02*X576618Y125666D01*
Y122666D01*
X576118Y122166D02*X576618Y122666D01*
X574118Y122166D02*X576118D01*
X574118Y126166D02*X576118D01*
X577819Y125666D02*X578319Y126166D01*
X579319D01*
X579819Y125666D01*
Y122666D01*
X579319Y122166D02*X579819Y122666D01*
X578319Y122166D02*X579319D01*
X577819Y122666D02*X578319Y122166D01*
Y124166D02*X579819D01*
X581020Y122666D02*X581520Y122166D01*
X581020Y125666D02*Y122666D01*
Y125666D02*X581520Y126166D01*
X582520D01*
X583020Y125666D01*
Y122666D01*
X582520Y122166D02*X583020Y122666D01*
X581520Y122166D02*X582520D01*
X581020Y123166D02*X583020Y125166D01*
X584221Y122666D02*X584721Y122166D01*
X584221Y125666D02*Y122666D01*
Y125666D02*X584721Y126166D01*
X585721D01*
X586221Y125666D01*
Y122666D01*
X585721Y122166D02*X586221Y122666D01*
X584721Y122166D02*X585721D01*
X584221Y123166D02*X586221Y125166D01*
X632977Y53543D02*X635977D01*
X632977D02*X632477Y54043D01*
Y55043D02*Y54043D01*
Y55043D02*X632977Y55543D01*
X635977D01*
X636477Y55043D02*X635977Y55543D01*
X636477Y55043D02*Y54043D01*
X635977Y53543D02*X636477Y54043D01*
X635477Y54543D02*X636477Y55543D01*
X632977Y56744D02*X632477Y57244D01*
Y58244D02*Y57244D01*
Y58244D02*X632977Y58744D01*
X635977D01*
X636477Y58244D02*X635977Y58744D01*
X636477Y58244D02*Y57244D01*
X635977Y56744D02*X636477Y57244D01*
X634477Y58744D02*Y57244D01*
X635977Y59945D02*X636477Y60445D01*
X632977Y59945D02*X635977D01*
X632977D02*X632477Y60445D01*
Y61445D02*Y60445D01*
Y61445D02*X632977Y61945D01*
X635977D01*
X636477Y61445D02*X635977Y61945D01*
X636477Y61445D02*Y60445D01*
X635477Y59945D02*X633477Y61945D01*
X634477Y63146D02*X632477Y65146D01*
X634477Y65646D02*Y63146D01*
X632477Y65146D02*X636477D01*
X574458Y134786D02*Y131786D01*
Y134786D02*X574958Y135286D01*
X575958D01*
X576458Y134786D01*
Y131786D01*
X575958Y131286D02*X576458Y131786D01*
X574958Y131286D02*X575958D01*
X574458Y131786D02*X574958Y131286D01*
X575458Y132286D02*X576458Y131286D01*
X577659Y134786D02*X578159Y135286D01*
X579159D01*
X579659Y134786D01*
Y131786D01*
X579159Y131286D02*X579659Y131786D01*
X578159Y131286D02*X579159D01*
X577659Y131786D02*X578159Y131286D01*
Y133286D02*X579659D01*
X580860Y131786D02*X581360Y131286D01*
X580860Y134786D02*Y131786D01*
Y134786D02*X581360Y135286D01*
X582360D01*
X582860Y134786D01*
Y131786D01*
X582360Y131286D02*X582860Y131786D01*
X581360Y131286D02*X582360D01*
X580860Y132286D02*X582860Y134286D01*
X584561Y131286D02*X585561D01*
X585061Y135286D02*Y131286D01*
X584061Y134286D02*X585061Y135286D01*
X588815Y126165D02*X590815D01*
X591315Y125665D01*
Y124665D01*
X590815Y124165D02*X591315Y124665D01*
X589315Y124165D02*X590815D01*
X589315Y126165D02*Y122165D01*
Y124165D02*X591315Y122165D01*
X592516Y125665D02*X593016Y126165D01*
X594016D01*
X594516Y125665D01*
Y122665D01*
X594016Y122165D02*X594516Y122665D01*
X593016Y122165D02*X594016D01*
X592516Y122665D02*X593016Y122165D01*
Y124165D02*X594516D01*
X596217Y122165D02*X597217D01*
X596717Y126165D02*Y122165D01*
X595717Y125165D02*X596717Y126165D01*
X598418Y122665D02*X598918Y122165D01*
X598418Y125665D02*Y122665D01*
Y125665D02*X598918Y126165D01*
X599918D01*
X600418Y125665D01*
Y122665D01*
X599918Y122165D02*X600418Y122665D01*
X598918Y122165D02*X599918D01*
X598418Y123165D02*X600418Y125165D01*
X634019Y189765D02*X638019D01*
Y191765D02*Y189765D01*
X636019Y194466D02*Y192966D01*
X638019Y194966D02*Y192966D01*
X634019D02*X638019D01*
X634019Y194966D02*Y192966D01*
Y196667D02*X638019D01*
X634019Y198167D02*X634519Y198667D01*
X637519D01*
X638019Y198167D02*X637519Y198667D01*
X638019Y198167D02*Y196167D01*
X634019Y198167D02*Y196167D01*
X634519Y199868D02*X634019Y200368D01*
Y201368D02*Y200368D01*
Y201368D02*X634519Y201868D01*
X637519D01*
X638019Y201368D02*X637519Y201868D01*
X638019Y201368D02*Y200368D01*
X637519Y199868D02*X638019Y200368D01*
X636019Y201868D02*Y200368D01*
X637519Y203069D02*X638019Y203569D01*
X634519Y203069D02*X637519D01*
X634519D02*X634019Y203569D01*
Y204569D02*Y203569D01*
Y204569D02*X634519Y205069D01*
X637519D01*
X638019Y204569D02*X637519Y205069D01*
X638019Y204569D02*Y203569D01*
X637019Y203069D02*X635019Y205069D01*
X634519Y206270D02*X634019Y206770D01*
Y207770D02*Y206770D01*
Y207770D02*X634519Y208270D01*
X637519D01*
X638019Y207770D02*X637519Y208270D01*
X638019Y207770D02*Y206770D01*
X637519Y206270D02*X638019Y206770D01*
X636019Y208270D02*Y206770D01*
X542913Y196441D02*Y192441D01*
Y196441D02*X544913D01*
X542913Y194441D02*X544413D01*
X546114Y195941D02*X546614Y196441D01*
X547614D01*
X548114Y195941D01*
Y192941D01*
X547614Y192441D02*X548114Y192941D01*
X546614Y192441D02*X547614D01*
X546114Y192941D02*X546614Y192441D01*
Y194441D02*X548114D01*
X549315Y192941D02*X549815Y192441D01*
X549315Y195941D02*Y192941D01*
Y195941D02*X549815Y196441D01*
X550815D01*
X551315Y195941D01*
Y192941D01*
X550815Y192441D02*X551315Y192941D01*
X549815Y192441D02*X550815D01*
X549315Y193441D02*X551315Y195441D01*
X552516Y192941D02*X553016Y192441D01*
X552516Y195941D02*Y192941D01*
Y195941D02*X553016Y196441D01*
X554016D01*
X554516Y195941D01*
Y192941D01*
X554016Y192441D02*X554516Y192941D01*
X553016Y192441D02*X554016D01*
X552516Y193441D02*X554516Y195441D01*
X578310Y156480D02*X580310D01*
X580810Y155980D01*
Y154980D01*
X580310Y154480D02*X580810Y154980D01*
X578810Y154480D02*X580310D01*
X578810Y156480D02*Y152480D01*
Y154480D02*X580810Y152480D01*
X582011Y155980D02*X582511Y156480D01*
X583511D01*
X584011Y155980D01*
Y152980D01*
X583511Y152480D02*X584011Y152980D01*
X582511Y152480D02*X583511D01*
X582011Y152980D02*X582511Y152480D01*
Y154480D02*X584011D01*
X585212Y152980D02*X585712Y152480D01*
X585212Y155980D02*Y152980D01*
Y155980D02*X585712Y156480D01*
X586712D01*
X587212Y155980D01*
Y152980D01*
X586712Y152480D02*X587212Y152980D01*
X585712Y152480D02*X586712D01*
X585212Y153480D02*X587212Y155480D01*
X588413Y154480D02*X590413Y156480D01*
X588413Y154480D02*X590913D01*
X590413Y156480D02*Y152480D01*
X570077Y165951D02*Y162451D01*
X570577Y161951D01*
X571577D01*
X572077Y162451D01*
Y165951D02*Y162451D01*
X573278Y165451D02*X573778Y165951D01*
X574778D01*
X575278Y165451D01*
Y162451D01*
X574778Y161951D02*X575278Y162451D01*
X573778Y161951D02*X574778D01*
X573278Y162451D02*X573778Y161951D01*
Y163951D02*X575278D01*
X576479Y162451D02*X576979Y161951D01*
X576479Y165451D02*Y162451D01*
Y165451D02*X576979Y165951D01*
X577979D01*
X578479Y165451D01*
Y162451D01*
X577979Y161951D02*X578479Y162451D01*
X576979Y161951D02*X577979D01*
X576479Y162951D02*X578479Y164951D01*
X579680Y163951D02*X581680Y165951D01*
X579680Y163951D02*X582180D01*
X581680Y165951D02*Y161951D01*
X308087Y256923D02*Y254923D01*
Y256923D02*X308587Y257423D01*
X309587D01*
X310087Y256923D02*X309587Y257423D01*
X310087Y256923D02*Y255423D01*
X308087D02*X312087D01*
X310087D02*X312087Y257423D01*
X308587Y258624D02*X308087Y259124D01*
Y260624D02*Y259124D01*
Y260624D02*X308587Y261124D01*
X309587D01*
X312087Y258624D02*X309587Y261124D01*
X312087D02*Y258624D01*
X310087Y262325D02*X308087Y264325D01*
X310087Y264825D02*Y262325D01*
X308087Y264325D02*X312087D01*
Y266026D02*X309587Y268526D01*
X308087D02*X309587D01*
X308087D02*Y266026D01*
X417535Y265225D02*Y263225D01*
Y265225D02*X418035Y265725D01*
X419035D01*
X419535Y265225D02*X419035Y265725D01*
X419535Y265225D02*Y263725D01*
X417535D02*X421535D01*
X419535D02*X421535Y265725D01*
X418035Y266926D02*X417535Y267426D01*
Y268426D02*Y267426D01*
Y268426D02*X418035Y268926D01*
X421035D01*
X421535Y268426D02*X421035Y268926D01*
X421535Y268426D02*Y267426D01*
X421035Y266926D02*X421535Y267426D01*
X419535Y268926D02*Y267426D01*
X421035Y270127D02*X421535Y270627D01*
X418035Y270127D02*X421035D01*
X418035D02*X417535Y270627D01*
Y271627D02*Y270627D01*
Y271627D02*X418035Y272127D01*
X421035D01*
X421535Y271627D02*X421035Y272127D01*
X421535Y271627D02*Y270627D01*
X420535Y270127D02*X418535Y272127D01*
X421035Y273328D02*X421535Y273828D01*
X420035Y273328D02*X421035D01*
X420035D02*X419535Y273828D01*
Y274828D02*Y273828D01*
Y274828D02*X420035Y275328D01*
X421035D01*
X421535Y274828D02*X421035Y275328D01*
X421535Y274828D02*Y273828D01*
X419035Y273328D02*X419535Y273828D01*
X418035Y273328D02*X419035D01*
X418035D02*X417535Y273828D01*
Y274828D02*Y273828D01*
Y274828D02*X418035Y275328D01*
X419035D01*
X419535Y274828D02*X419035Y275328D01*
X445157Y270898D02*Y269398D01*
X444657Y268898D02*X445157Y269398D01*
X441657Y268898D02*X444657D01*
X441657D02*X441157Y269398D01*
Y270898D02*Y269398D01*
X441657Y272099D02*X441157Y272599D01*
Y273599D02*Y272599D01*
Y273599D02*X441657Y274099D01*
X444657D01*
X445157Y273599D02*X444657Y274099D01*
X445157Y273599D02*Y272599D01*
X444657Y272099D02*X445157Y272599D01*
X443157Y274099D02*Y272599D01*
X445157Y276800D02*Y275800D01*
X441157Y276300D02*X445157D01*
X442157Y275300D02*X441157Y276300D01*
X441657Y278001D02*X441157Y278501D01*
Y280001D02*Y278501D01*
Y280001D02*X441657Y280501D01*
X442657D01*
X445157Y278001D02*X442657Y280501D01*
X445157D02*Y278001D01*
X301788Y256959D02*Y254959D01*
Y256959D02*X302288Y257459D01*
X303288D01*
X303788Y256959D02*X303288Y257459D01*
X303788Y256959D02*Y255459D01*
X301788D02*X305788D01*
X303788D02*X305788Y257459D01*
X302288Y258660D02*X301788Y259160D01*
Y260660D02*Y259160D01*
Y260660D02*X302288Y261160D01*
X303288D01*
X305788Y258660D02*X303288Y261160D01*
X305788D02*Y258660D01*
X302288Y262361D02*X301788Y262861D01*
Y263861D02*Y262861D01*
Y263861D02*X302288Y264361D01*
X305288D01*
X305788Y263861D02*X305288Y264361D01*
X305788Y263861D02*Y262861D01*
X305288Y262361D02*X305788Y262861D01*
X303788Y264361D02*Y262861D01*
X305788Y265562D02*X303288Y268062D01*
X301788D02*X303288D01*
X301788D02*Y265562D01*
X453821Y269557D02*Y268057D01*
X453321Y267557D02*X453821Y268057D01*
X450321Y267557D02*X453321D01*
X450321D02*X449821Y268057D01*
Y269557D02*Y268057D01*
X450321Y270758D02*X449821Y271258D01*
Y272258D02*Y271258D01*
Y272258D02*X450321Y272758D01*
X453321D01*
X453821Y272258D02*X453321Y272758D01*
X453821Y272258D02*Y271258D01*
X453321Y270758D02*X453821Y271258D01*
X451821Y272758D02*Y271258D01*
X453821Y275459D02*Y274459D01*
X449821Y274959D02*X453821D01*
X450821Y273959D02*X449821Y274959D01*
X453821Y278160D02*Y277160D01*
X449821Y277660D02*X453821D01*
X450821Y276660D02*X449821Y277660D01*
X388975Y247820D02*X390975D01*
X391475Y247320D01*
Y246320D01*
X390975Y245820D02*X391475Y246320D01*
X389475Y245820D02*X390975D01*
X389475Y247820D02*Y243820D01*
Y245820D02*X391475Y243820D01*
X392676Y247320D02*X393176Y247820D01*
X394176D01*
X394676Y247320D01*
Y244320D01*
X394176Y243820D02*X394676Y244320D01*
X393176Y243820D02*X394176D01*
X392676Y244320D02*X393176Y243820D01*
Y245820D02*X394676D01*
X395877Y244320D02*X396377Y243820D01*
X395877Y247320D02*Y244320D01*
Y247320D02*X396377Y247820D01*
X397377D01*
X397877Y247320D01*
Y244320D01*
X397377Y243820D02*X397877Y244320D01*
X396377Y243820D02*X397377D01*
X395877Y244820D02*X397877Y246820D01*
X399078Y244320D02*X399578Y243820D01*
X399078Y247320D02*Y244320D01*
Y247320D02*X399578Y247820D01*
X400578D01*
X401078Y247320D01*
Y244320D01*
X400578Y243820D02*X401078Y244320D01*
X399578Y243820D02*X400578D01*
X399078Y244820D02*X401078Y246820D01*
X380547Y240339D02*X382547D01*
X383047Y239839D01*
Y238839D01*
X382547Y238339D02*X383047Y238839D01*
X381047Y238339D02*X382547D01*
X381047Y240339D02*Y236339D01*
Y238339D02*X383047Y236339D01*
X384248Y239839D02*X384748Y240339D01*
X385748D01*
X386248Y239839D01*
Y236839D01*
X385748Y236339D02*X386248Y236839D01*
X384748Y236339D02*X385748D01*
X384248Y236839D02*X384748Y236339D01*
Y238339D02*X386248D01*
X387449Y236839D02*X387949Y236339D01*
X387449Y239839D02*Y236839D01*
Y239839D02*X387949Y240339D01*
X388949D01*
X389449Y239839D01*
Y236839D01*
X388949Y236339D02*X389449Y236839D01*
X387949Y236339D02*X388949D01*
X387449Y237339D02*X389449Y239339D01*
X390650Y239839D02*X391150Y240339D01*
X392650D01*
X393150Y239839D01*
Y238839D01*
X390650Y236339D02*X393150Y238839D01*
X390650Y236339D02*X393150D01*
X330873Y240315D02*Y236815D01*
X331373Y236315D01*
X332373D01*
X332873Y236815D01*
Y240315D02*Y236815D01*
X334074Y239815D02*X334574Y240315D01*
X336074D01*
X336574Y239815D01*
Y238815D01*
X334074Y236315D02*X336574Y238815D01*
X334074Y236315D02*X336574D01*
X337775Y236815D02*X338275Y236315D01*
X337775Y239815D02*Y236815D01*
Y239815D02*X338275Y240315D01*
X339275D01*
X339775Y239815D01*
Y236815D01*
X339275Y236315D02*X339775Y236815D01*
X338275Y236315D02*X339275D01*
X337775Y237315D02*X339775Y239315D01*
X341476Y236315D02*X342476D01*
X341976Y240315D02*Y236315D01*
X340976Y239315D02*X341976Y240315D01*
X490157Y219965D02*Y215965D01*
X492157D01*
X493358Y217965D02*X494858D01*
X493358Y215965D02*X495358D01*
X493358Y219965D02*Y215965D01*
Y219965D02*X495358D01*
X497059D02*Y215965D01*
X498559Y219965D02*X499059Y219465D01*
Y216465D01*
X498559Y215965D02*X499059Y216465D01*
X496559Y215965D02*X498559D01*
X496559Y219965D02*X498559D01*
X500260Y219465D02*X500760Y219965D01*
X502260D01*
X502760Y219465D01*
Y218465D01*
X500260Y215965D02*X502760Y218465D01*
X500260Y215965D02*X502760D01*
X503961Y216465D02*X504461Y215965D01*
X503961Y219465D02*Y216465D01*
Y219465D02*X504461Y219965D01*
X505461D01*
X505961Y219465D01*
Y216465D01*
X505461Y215965D02*X505961Y216465D01*
X504461Y215965D02*X505461D01*
X503961Y216965D02*X505961Y218965D01*
X508662Y219965D02*X509162Y219465D01*
X507662Y219965D02*X508662D01*
X507162Y219465D02*X507662Y219965D01*
X507162Y219465D02*Y216465D01*
X507662Y215965D01*
X508662Y217965D02*X509162Y217465D01*
X507162Y217965D02*X508662D01*
X507662Y215965D02*X508662D01*
X509162Y216465D01*
Y217465D02*Y216465D01*
X479741Y204756D02*Y202756D01*
Y204756D02*X480241Y205256D01*
X481241D01*
X481741Y204756D02*X481241Y205256D01*
X481741Y204756D02*Y203256D01*
X479741D02*X483741D01*
X481741D02*X483741Y205256D01*
X480241Y206457D02*X479741Y206957D01*
Y208457D02*Y206957D01*
Y208457D02*X480241Y208957D01*
X481241D01*
X483741Y206457D02*X481241Y208957D01*
X483741D02*Y206457D01*
X481741Y210158D02*X479741Y212158D01*
X481741Y212658D02*Y210158D01*
X479741Y212158D02*X483741D01*
Y215359D02*Y214359D01*
X479741Y214859D02*X483741D01*
X480741Y213859D02*X479741Y214859D01*
X512827Y204905D02*X513327Y204405D01*
X511327Y204905D02*X512827D01*
X510827Y204405D02*X511327Y204905D01*
X510827Y204405D02*Y203405D01*
X511327Y202905D01*
X512827D01*
X513327Y202405D01*
Y201405D01*
X512827Y200905D02*X513327Y201405D01*
X511327Y200905D02*X512827D01*
X510827Y201405D02*X511327Y200905D01*
X514528Y204405D02*X515028Y204905D01*
X516528D01*
X517028Y204405D01*
Y203405D01*
X514528Y200905D02*X517028Y203405D01*
X514528Y200905D02*X517028D01*
X518229Y201405D02*X518729Y200905D01*
X518229Y204405D02*Y201405D01*
Y204405D02*X518729Y204905D01*
X519729D01*
X520229Y204405D01*
Y201405D01*
X519729Y200905D02*X520229Y201405D01*
X518729Y200905D02*X519729D01*
X518229Y201905D02*X520229Y203905D01*
X521930Y200905D02*X522930D01*
X522430Y204905D02*Y200905D01*
X521430Y203905D02*X522430Y204905D01*
X445044Y181284D02*X447044D01*
X447544Y180784D01*
Y179784D01*
X447044Y179284D02*X447544Y179784D01*
X445544Y179284D02*X447044D01*
X445544Y181284D02*Y177284D01*
Y179284D02*X447544Y177284D01*
X448745Y180784D02*X449245Y181284D01*
X450245D01*
X450745Y180784D01*
Y177784D01*
X450245Y177284D02*X450745Y177784D01*
X449245Y177284D02*X450245D01*
X448745Y177784D02*X449245Y177284D01*
Y179284D02*X450745D01*
X452446Y177284D02*X453446D01*
X452946Y181284D02*Y177284D01*
X451946Y180284D02*X452946Y181284D01*
X454647Y180784D02*X455147Y181284D01*
X456147D01*
X456647Y180784D01*
Y177784D01*
X456147Y177284D02*X456647Y177784D01*
X455147Y177284D02*X456147D01*
X454647Y177784D02*X455147Y177284D01*
Y179284D02*X456647D01*
X466481Y155629D02*X467981D01*
X465981Y156129D02*X466481Y155629D01*
X465981Y159129D02*Y156129D01*
Y159129D02*X466481Y159629D01*
X467981D01*
X469182Y159129D02*X469682Y159629D01*
X470682D01*
X471182Y159129D01*
Y156129D01*
X470682Y155629D02*X471182Y156129D01*
X469682Y155629D02*X470682D01*
X469182Y156129D02*X469682Y155629D01*
Y157629D02*X471182D01*
X472383Y156129D02*X472883Y155629D01*
X472383Y159129D02*Y156129D01*
Y159129D02*X472883Y159629D01*
X473883D01*
X474383Y159129D01*
Y156129D01*
X473883Y155629D02*X474383Y156129D01*
X472883Y155629D02*X473883D01*
X472383Y156629D02*X474383Y158629D01*
X475584Y159129D02*X476084Y159629D01*
X477584D01*
X478084Y159129D01*
Y158129D01*
X475584Y155629D02*X478084Y158129D01*
X475584Y155629D02*X478084D01*
X445044Y175379D02*X447044D01*
X447544Y174879D01*
Y173879D01*
X447044Y173379D02*X447544Y173879D01*
X445544Y173379D02*X447044D01*
X445544Y175379D02*Y171379D01*
Y173379D02*X447544Y171379D01*
X448745Y174879D02*X449245Y175379D01*
X450245D01*
X450745Y174879D01*
Y171879D01*
X450245Y171379D02*X450745Y171879D01*
X449245Y171379D02*X450245D01*
X448745Y171879D02*X449245Y171379D01*
Y173379D02*X450745D01*
X451946Y171879D02*X452446Y171379D01*
X451946Y174879D02*Y171879D01*
Y174879D02*X452446Y175379D01*
X453446D01*
X453946Y174879D01*
Y171879D01*
X453446Y171379D02*X453946Y171879D01*
X452446Y171379D02*X453446D01*
X451946Y172379D02*X453946Y174379D01*
X456647Y175379D02*X457147Y174879D01*
X455647Y175379D02*X456647D01*
X455147Y174879D02*X455647Y175379D01*
X455147Y174879D02*Y171879D01*
X455647Y171379D01*
X456647Y173379D02*X457147Y172879D01*
X455147Y173379D02*X456647D01*
X455647Y171379D02*X456647D01*
X457147Y171879D01*
Y172879D02*Y171879D01*
X479740Y160268D02*Y158268D01*
Y160268D02*X480240Y160768D01*
X481240D01*
X481740Y160268D02*X481240Y160768D01*
X481740Y160268D02*Y158768D01*
X479740D02*X483740D01*
X481740D02*X483740Y160768D01*
X480240Y161969D02*X479740Y162469D01*
Y163969D02*Y162469D01*
Y163969D02*X480240Y164469D01*
X481240D01*
X483740Y161969D02*X481240Y164469D01*
X483740D02*Y161969D01*
X481740Y165670D02*X479740Y167670D01*
X481740Y168170D02*Y165670D01*
X479740Y167670D02*X483740D01*
X480240Y169371D02*X479740Y169871D01*
Y171371D02*Y169871D01*
Y171371D02*X480240Y171871D01*
X481240D01*
X483740Y169371D02*X481240Y171871D01*
X483740D02*Y169371D01*
M02*
