G04 start of page 10 for group -4078 idx -4078 *
G04 Title: Power Board, bottomsilk *
G04 Creator: pcb 1.99z *
G04 CreationDate: Thu 09 Sep 2010 23:06:34 GMT UTC *
G04 For: rbarlow *
G04 Format: Gerber/RS-274X *
G04 PCB-Dimensions: 653543 393701 *
G04 PCB-Coordinate-Origin: lower left *
%MOIN*%
%FSLAX25Y25*%
%LNBACKSILK*%
%ADD11C,0.0200*%
%ADD12C,0.0100*%
%ADD16C,0.0079*%
%ADD126C,0.0080*%
%ADD127C,0.0098*%
G54D16*X373425Y156299D02*X381299Y148425D01*
X351772Y156299D02*X373425D01*
X382677Y142520D02*X408071D01*
Y154331D01*
X382677D01*
Y142520D01*
X323819Y146063D02*X350591D01*
Y162008D01*
X323819D01*
Y146063D01*
X391012Y149374D02*Y147800D01*
X394028Y149374D02*Y147800D01*
X387728Y149374D02*Y147800D01*
X384712Y149374D02*Y147800D01*
G54D12*X407124Y164936D02*Y155536D01*
X395224Y164936D02*X407124D01*
X395224D02*Y155536D01*
X407124D01*
G54D16*X388256Y161023D02*Y159449D01*
X391272Y161023D02*Y159449D01*
X403216Y149374D02*Y147800D01*
X406232Y149374D02*Y147800D01*
X396917Y149374D02*Y147800D01*
X399933Y149374D02*Y147800D01*
X418043Y187169D02*Y185595D01*
X415027Y187169D02*Y185595D01*
G54D12*X452201Y159970D02*Y131470D01*
X410801Y159970D02*X452201D01*
X410801D02*Y131470D01*
X452201D01*
G54D16*X425524Y187169D02*Y185595D01*
X422508Y187169D02*Y185595D01*
G54D126*X440552Y173033D02*X444488D01*
X440552Y183661D02*X444488D01*
G54D16*X353807Y189406D02*Y187832D01*
X356823Y189406D02*Y187832D01*
X343343Y199343D02*X344917D01*
X343343Y196327D02*X344917D01*
X363256Y189603D02*Y188029D01*
X366272Y189603D02*Y188029D01*
X355972Y201020D02*Y199446D01*
X358988Y201020D02*Y199446D01*
X366272Y201020D02*Y199446D01*
X363256Y201020D02*Y199446D01*
X410563Y181335D02*Y179761D01*
X407547Y181335D02*Y179761D01*
G54D12*X376362Y179256D02*Y190232D01*
X401984D01*
Y179256D01*
X376362D02*X386673D01*
X401984D02*X391673D01*
G75*G03X386673Y179256I-2500J0D01*G01*
G54D11*X424311Y214692D02*Y223104D01*
G54D12*X431311Y224804D01*
X455611D01*
Y212992D01*
X431311D01*
X424311Y214692D02*X431311Y212992D01*
G54D126*X440552Y191143D02*X444488D01*
X440552Y201771D02*X444488D01*
G54D12*X412620Y207150D02*X426520D01*
Y194350D01*
X412620D02*X426520D01*
X412620Y207150D02*Y194350D01*
X407524Y141440D02*Y128640D01*
X393624Y141440D02*X407524D01*
X393624D02*Y128640D01*
X407524D01*
X331776Y98516D02*X386776D01*
Y113516D02*Y98516D01*
X331776Y113516D02*X386776D01*
X331776D02*Y98516D01*
Y81016D02*X386776D01*
Y96016D02*Y81016D01*
X331776Y96016D02*X386776D01*
X331776D02*Y81016D01*
X192776Y96516D02*Y86516D01*
X182776Y96516D02*X192776D01*
X182776Y86516D02*X322776D01*
Y106516D02*Y86516D01*
X182776Y106516D02*X322776D01*
X182776D02*Y86516D01*
X145276Y74016D02*X445276D01*
X145276Y384016D02*Y74016D01*
Y384016D02*X445276D01*
Y74016D01*
G54D126*X357086Y220865D02*Y216929D01*
X346458Y220865D02*Y216929D01*
G54D12*X337647Y193421D02*X349547D01*
Y184021D01*
X337647D02*X349547D01*
X337647Y193421D02*Y184021D01*
G54D126*X339566Y220865D02*Y216929D01*
X328938Y220865D02*Y216929D01*
G54D16*X201248Y184020D02*Y182446D01*
X204264Y184020D02*Y182446D01*
G54D127*X52835Y296851D02*Y348819D01*
X13465D02*X52835D01*
X13465Y296851D02*X52835D01*
G54D12*X21610Y261912D02*Y249112D01*
X35510D01*
Y261912D02*Y249112D01*
X21610Y261912D02*X35510D01*
G54D126*X53938Y289172D02*X57874D01*
X53938Y278544D02*X57874D01*
G54D12*X13415Y172155D02*X68190D01*
Y236155D02*Y172155D01*
X13415Y236155D02*X68190D01*
X78465Y188623D02*Y228623D01*
X88465D01*
Y188623D01*
X78465D01*
Y198623D02*X88465D01*
Y188623D01*
G54D16*X487992Y143701D02*X506496D01*
X487992Y164961D02*X506496D01*
G54D126*X543307Y158267D02*X544093D01*
X543307Y152757D02*X544093D01*
G54D16*X487992Y177560D02*X506496D01*
X487992Y198820D02*X506496D01*
G54D12*X355707Y42717D02*X414763D01*
Y11221D01*
X355707Y42717D02*Y11221D01*
X284843Y42718D02*X343899D01*
Y11222D01*
X284843Y42718D02*Y11222D01*
G54D127*X599607Y128328D02*X640946D01*
X599607Y164548D02*Y128328D01*
Y164548D02*X640946D01*
X542481Y22403D02*Y82325D01*
Y22403D02*X640906D01*
X542481Y82325D02*X640906D01*
G54D16*X557248Y164107D02*X558822D01*
X557248Y161091D02*X558822D01*
X557248Y157414D02*X558822D01*
X557248Y154398D02*X558822D01*
X243147Y222902D02*X244721D01*
X243147Y225918D02*X244721D01*
G54D127*X377165Y238583D02*X400787D01*
X377165D02*X369291Y230709D01*
Y207087D01*
X377165Y199213D01*
X400787D01*
X408661Y207087D01*
Y230709D02*Y207087D01*
Y230709D02*X400787Y238583D01*
X584016Y212993D02*Y230315D01*
X550946D02*X584016D01*
X550946Y212993D02*Y230315D01*
Y212993D02*X584016D01*
X540865Y222639D02*Y237914D01*
X525275Y222639D02*Y237914D01*
X542424Y256103D02*X548661D01*
X529952D02*X536188D01*
X517479D02*X523716D01*
X548661Y237914D02*Y290434D01*
X517479Y237914D02*Y290434D01*
Y237914D02*X548661D01*
X408268Y304824D02*X427954D01*
X408268D02*Y259154D01*
X427954D01*
Y304824D02*Y259154D01*
G54D12*X13415Y96211D02*X68190D01*
Y160211D02*Y96211D01*
X13415Y160211D02*X68190D01*
X18528Y87146D02*Y74346D01*
X32428D01*
Y87146D02*Y74346D01*
X18528Y87146D02*X32428D01*
G54D127*X129214Y132679D02*Y115749D01*
X133742D01*
X129214Y132679D02*X133742D01*
X99096Y74155D02*X133742D01*
X99096Y174273D02*X133742D01*
X99096D02*Y74155D01*
X133742Y174273D02*Y74155D01*
G54D12*X143112Y42719D02*X202168D01*
Y11223D01*
X143112Y42719D02*Y11223D01*
X213978Y42718D02*X273034D01*
Y11222D01*
X213978Y42718D02*Y11222D01*
G54D127*X88544Y31890D02*Y11418D01*
X124016Y31890D02*Y11418D01*
X88544Y31890D02*X124016D01*
G54D16*X213975Y44503D02*X215475D01*
Y48003D01*
X214975Y48503D02*X215475Y48003D01*
X214475Y48503D02*X214975D01*
X213975Y48003D02*X214475Y48503D01*
X216676Y45003D02*X217176Y44503D01*
X218176D01*
X218676Y45003D01*
Y48003D01*
X218176Y48503D02*X218676Y48003D01*
X217176Y48503D02*X218176D01*
X216676Y48003D02*X217176Y48503D01*
Y46503D02*X218676D01*
X219877Y48003D02*X220377Y48503D01*
X219877Y45003D02*Y48003D01*
Y45003D02*X220377Y44503D01*
X221377D01*
X221877Y45003D01*
Y48003D01*
X221377Y48503D02*X221877Y48003D01*
X220377Y48503D02*X221377D01*
X219877Y47503D02*X221877Y45503D01*
X223078Y45003D02*X223578Y44503D01*
X225078D01*
X225578Y45003D01*
Y46003D01*
X223078Y48503D02*X225578Y46003D01*
X223078Y48503D02*X225578D01*
X143108Y44503D02*X144608D01*
Y48003D01*
X144108Y48503D02*X144608Y48003D01*
X143608Y48503D02*X144108D01*
X143108Y48003D02*X143608Y48503D01*
X145809Y45003D02*X146309Y44503D01*
X147309D01*
X147809Y45003D01*
Y48003D01*
X147309Y48503D02*X147809Y48003D01*
X146309Y48503D02*X147309D01*
X145809Y48003D02*X146309Y48503D01*
Y46503D02*X147809D01*
X149010Y48003D02*X149510Y48503D01*
X149010Y45003D02*Y48003D01*
Y45003D02*X149510Y44503D01*
X150510D01*
X151010Y45003D01*
Y48003D01*
X150510Y48503D02*X151010Y48003D01*
X149510Y48503D02*X150510D01*
X149010Y47503D02*X151010Y45503D01*
X152211Y48003D02*X152711Y48503D01*
X152211Y45003D02*Y48003D01*
Y45003D02*X152711Y44503D01*
X153711D01*
X154211Y45003D01*
Y48003D01*
X153711Y48503D02*X154211Y48003D01*
X152711Y48503D02*X153711D01*
X152211Y47503D02*X154211Y45503D01*
X284842Y44503D02*X286342D01*
Y48003D01*
X285842Y48503D02*X286342Y48003D01*
X285342Y48503D02*X285842D01*
X284842Y48003D02*X285342Y48503D01*
X287543Y45003D02*X288043Y44503D01*
X289043D01*
X289543Y45003D01*
Y48003D01*
X289043Y48503D02*X289543Y48003D01*
X288043Y48503D02*X289043D01*
X287543Y48003D02*X288043Y48503D01*
Y46503D02*X289543D01*
X290744Y48003D02*X291244Y48503D01*
X290744Y45003D02*Y48003D01*
Y45003D02*X291244Y44503D01*
X292244D01*
X292744Y45003D01*
Y48003D01*
X292244Y48503D02*X292744Y48003D01*
X291244Y48503D02*X292244D01*
X290744Y47503D02*X292744Y45503D01*
X293945Y46503D02*X295945Y44503D01*
X293945Y46503D02*X296445D01*
X295945Y44503D02*Y48503D01*
X210119Y186420D02*Y187920D01*
X209619Y188420D02*X210119Y187920D01*
X206619Y188420D02*X209619D01*
X206619D02*X206119Y187920D01*
Y186420D02*Y187920D01*
X210119Y183719D02*Y184719D01*
X206119Y184219D02*X210119D01*
X207119Y185219D02*X206119Y184219D01*
X210119Y181018D02*Y182018D01*
X206119Y181518D02*X210119D01*
X207119Y182518D02*X206119Y181518D01*
X210119Y178317D02*Y179317D01*
X206119Y178817D02*X210119D01*
X207119Y179817D02*X206119Y178817D01*
X326001Y158202D02*Y160202D01*
Y158202D02*X326501Y157702D01*
X327501D01*
X328001Y158202D02*X327501Y157702D01*
X328001Y158202D02*Y159702D01*
X326001D02*X330001D01*
X328001D02*X330001Y157702D01*
X326501Y156501D02*X326001Y156001D01*
Y155001D02*Y156001D01*
Y155001D02*X326501Y154501D01*
X329501D01*
X330001Y155001D02*X329501Y154501D01*
X330001Y155001D02*Y156001D01*
X329501Y156501D02*X330001Y156001D01*
X328001Y154501D02*Y156001D01*
X326501Y153300D02*X326001Y152800D01*
Y151800D02*Y152800D01*
Y151800D02*X326501Y151300D01*
X329501D01*
X330001Y151800D02*X329501Y151300D01*
X330001Y151800D02*Y152800D01*
X329501Y153300D02*X330001Y152800D01*
X328001Y151300D02*Y152800D01*
X329501Y150099D02*X330001Y149599D01*
X326501Y150099D02*X329501D01*
X326501D02*X326001Y149599D01*
Y148599D02*Y149599D01*
Y148599D02*X326501Y148099D01*
X329501D01*
X330001Y148599D02*X329501Y148099D01*
X330001Y148599D02*Y149599D01*
X329001Y150099D02*X327001Y148099D01*
X99446Y62141D02*X100946D01*
Y65641D01*
X100446Y66141D02*X100946Y65641D01*
X99946Y66141D02*X100446D01*
X99446Y65641D02*X99946Y66141D01*
X102147Y62641D02*X102647Y62141D01*
X104147D01*
X104647Y62641D01*
Y63641D01*
X102147Y66141D02*X104647Y63641D01*
X102147Y66141D02*X104647D01*
X105848Y65641D02*X106348Y66141D01*
X105848Y62641D02*Y65641D01*
Y62641D02*X106348Y62141D01*
X107348D01*
X107848Y62641D01*
Y65641D01*
X107348Y66141D02*X107848Y65641D01*
X106348Y66141D02*X107348D01*
X105848Y65141D02*X107848Y63141D01*
X109049Y62641D02*X109549Y62141D01*
X111049D01*
X111549Y62641D01*
Y63641D01*
X109049Y66141D02*X111549Y63641D01*
X109049Y66141D02*X111549D01*
X88601Y33677D02*X90101D01*
Y37177D01*
X89601Y37677D02*X90101Y37177D01*
X89101Y37677D02*X89601D01*
X88601Y37177D02*X89101Y37677D01*
X91302Y34177D02*X91802Y33677D01*
X93302D01*
X93802Y34177D01*
Y35177D01*
X91302Y37677D02*X93802Y35177D01*
X91302Y37677D02*X93802D01*
X95003Y37177D02*X95503Y37677D01*
X95003Y34177D02*Y37177D01*
Y34177D02*X95503Y33677D01*
X96503D01*
X97003Y34177D01*
Y37177D01*
X96503Y37677D02*X97003Y37177D01*
X95503Y37677D02*X96503D01*
X95003Y36677D02*X97003Y34677D01*
X98204Y34177D02*X98704Y33677D01*
X99704D01*
X100204Y34177D01*
Y37177D01*
X99704Y37677D02*X100204Y37177D01*
X98704Y37677D02*X99704D01*
X98204Y37177D02*X98704Y37677D01*
Y35677D02*X100204D01*
X50893Y277047D02*X52393D01*
X50393Y276547D02*X50893Y277047D01*
X50393Y273547D02*Y276547D01*
Y273547D02*X50893Y273047D01*
X52393D01*
X53594Y273547D02*X54094Y273047D01*
X55594D01*
X56094Y273547D01*
Y274547D01*
X53594Y277047D02*X56094Y274547D01*
X53594Y277047D02*X56094D01*
X57795D02*X58795D01*
X58295Y273047D02*Y277047D01*
X57295Y274047D02*X58295Y273047D01*
X59996Y276547D02*X60496Y277047D01*
X59996Y275547D02*Y276547D01*
Y275547D02*X60496Y275047D01*
X61496D01*
X61996Y275547D01*
Y276547D01*
X61496Y277047D02*X61996Y276547D01*
X60496Y277047D02*X61496D01*
X59996Y274547D02*X60496Y275047D01*
X59996Y273547D02*Y274547D01*
Y273547D02*X60496Y273047D01*
X61496D01*
X61996Y273547D01*
Y274547D01*
X61496Y275047D02*X61996Y274547D01*
X332299Y158272D02*Y160272D01*
Y158272D02*X332799Y157772D01*
X333799D01*
X334299Y158272D02*X333799Y157772D01*
X334299Y158272D02*Y159772D01*
X332299D02*X336299D01*
X334299D02*X336299Y157772D01*
X332799Y156571D02*X332299Y156071D01*
Y155071D02*Y156071D01*
Y155071D02*X332799Y154571D01*
X335799D01*
X336299Y155071D02*X335799Y154571D01*
X336299Y155071D02*Y156071D01*
X335799Y156571D02*X336299Y156071D01*
X334299Y154571D02*Y156071D01*
X332799Y153370D02*X332299Y152870D01*
Y151370D02*Y152870D01*
Y151370D02*X332799Y150870D01*
X333799D01*
X336299Y153370D02*X333799Y150870D01*
X336299D02*Y153370D01*
X332299Y148169D02*X332799Y147669D01*
X332299Y148169D02*Y149169D01*
X332799Y149669D02*X332299Y149169D01*
X332799Y149669D02*X335799D01*
X336299Y149169D01*
X334299Y148169D02*X334799Y147669D01*
X334299Y148169D02*Y149669D01*
X336299Y148169D02*Y149169D01*
Y148169D02*X335799Y147669D01*
X334799D02*X335799D01*
X353167Y181178D02*Y183178D01*
Y181178D02*X353667Y180678D01*
X354667D01*
X355167Y181178D02*X354667Y180678D01*
X355167Y181178D02*Y182678D01*
X353167D02*X357167D01*
X355167D02*X357167Y180678D01*
X353667Y179477D02*X353167Y178977D01*
Y177977D02*Y178977D01*
Y177977D02*X353667Y177477D01*
X356667D01*
X357167Y177977D02*X356667Y177477D01*
X357167Y177977D02*Y178977D01*
X356667Y179477D02*X357167Y178977D01*
X355167Y177477D02*Y178977D01*
X353667Y176276D02*X353167Y175776D01*
Y174776D02*Y175776D01*
Y174776D02*X353667Y174276D01*
X356667D01*
X357167Y174776D02*X356667Y174276D01*
X357167Y174776D02*Y175776D01*
X356667Y176276D02*X357167Y175776D01*
X355167Y174276D02*Y175776D01*
X353667Y173075D02*X353167Y172575D01*
Y171075D02*Y172575D01*
Y171075D02*X353667Y170575D01*
X354667D01*
X357167Y173075D02*X354667Y170575D01*
X357167D02*Y173075D01*
X362614Y181232D02*Y183232D01*
Y181232D02*X363114Y180732D01*
X364114D01*
X364614Y181232D02*X364114Y180732D01*
X364614Y181232D02*Y182732D01*
X362614D02*X366614D01*
X364614D02*X366614Y180732D01*
X363114Y179531D02*X362614Y179031D01*
Y178031D02*Y179031D01*
Y178031D02*X363114Y177531D01*
X366114D01*
X366614Y178031D02*X366114Y177531D01*
X366614Y178031D02*Y179031D01*
X366114Y179531D02*X366614Y179031D01*
X364614Y177531D02*Y179031D01*
X363114Y176330D02*X362614Y175830D01*
Y174330D02*Y175830D01*
Y174330D02*X363114Y173830D01*
X364114D01*
X366614Y176330D02*X364114Y173830D01*
X366614D02*Y176330D01*
Y172629D02*X364614Y170629D01*
X363114D02*X364614D01*
X362614Y171129D02*X363114Y170629D01*
X362614Y171129D02*Y172129D01*
X363114Y172629D02*X362614Y172129D01*
X363114Y172629D02*X364114D01*
X364614Y172129D01*
Y170629D02*Y172129D01*
X348308Y157681D02*Y159181D01*
X347808Y159681D02*X348308Y159181D01*
X344808Y159681D02*X347808D01*
X344808D02*X344308Y159181D01*
Y157681D02*Y159181D01*
X344808Y156480D02*X344308Y155980D01*
Y154980D02*Y155980D01*
Y154980D02*X344808Y154480D01*
X347808D01*
X348308Y154980D02*X347808Y154480D01*
X348308Y154980D02*Y155980D01*
X347808Y156480D02*X348308Y155980D01*
X346308Y154480D02*Y155980D01*
X348308Y151779D02*Y152779D01*
X344308Y152279D02*X348308D01*
X345308Y153279D02*X344308Y152279D01*
X347808Y150578D02*X348308Y150078D01*
X344808Y150578D02*X347808D01*
X344808D02*X344308Y150078D01*
Y149078D02*Y150078D01*
Y149078D02*X344808Y148578D01*
X347808D01*
X348308Y149078D02*X347808Y148578D01*
X348308Y149078D02*Y150078D01*
X347308Y150578D02*X345308Y148578D01*
X338401Y158271D02*Y160271D01*
Y158271D02*X338901Y157771D01*
X339901D01*
X340401Y158271D02*X339901Y157771D01*
X340401Y158271D02*Y159771D01*
X338401D02*X342401D01*
X340401D02*X342401Y157771D01*
X338901Y156570D02*X338401Y156070D01*
Y155070D02*Y156070D01*
Y155070D02*X338901Y154570D01*
X341901D01*
X342401Y155070D02*X341901Y154570D01*
X342401Y155070D02*Y156070D01*
X341901Y156570D02*X342401Y156070D01*
X340401Y154570D02*Y156070D01*
X338901Y153369D02*X338401Y152869D01*
Y151869D02*Y152869D01*
Y151869D02*X338901Y151369D01*
X341901D01*
X342401Y151869D02*X341901Y151369D01*
X342401Y151869D02*Y152869D01*
X341901Y153369D02*X342401Y152869D01*
X340401Y151369D02*Y152869D01*
X342401Y148668D02*Y149668D01*
X338401Y149168D02*X342401D01*
X339401Y150168D02*X338401Y149168D01*
X337647Y178797D02*Y181797D01*
Y178797D02*X338147Y178297D01*
X339147D01*
X339647Y178797D01*
Y181797D01*
X339147Y182297D02*X339647Y181797D01*
X338147Y182297D02*X339147D01*
X337647Y181797D02*X338147Y182297D01*
X338647Y181297D02*X339647Y182297D01*
X340848Y178797D02*X341348Y178297D01*
X342348D01*
X342848Y178797D01*
Y181797D01*
X342348Y182297D02*X342848Y181797D01*
X341348Y182297D02*X342348D01*
X340848Y181797D02*X341348Y182297D01*
Y180297D02*X342848D01*
X344049Y181797D02*X344549Y182297D01*
X344049Y178797D02*Y181797D01*
Y178797D02*X344549Y178297D01*
X345549D01*
X346049Y178797D01*
Y181797D01*
X345549Y182297D02*X346049Y181797D01*
X344549Y182297D02*X345549D01*
X344049Y181297D02*X346049Y179297D01*
X347250Y181797D02*X347750Y182297D01*
X347250Y180797D02*Y181797D01*
Y180797D02*X347750Y180297D01*
X348750D01*
X349250Y180797D01*
Y181797D01*
X348750Y182297D02*X349250Y181797D01*
X347750Y182297D02*X348750D01*
X347250Y179797D02*X347750Y180297D01*
X347250Y178797D02*Y179797D01*
Y178797D02*X347750Y178297D01*
X348750D01*
X349250Y178797D01*
Y179797D01*
X348750Y180297D02*X349250Y179797D01*
X327827Y199883D02*X329327D01*
X327327Y199383D02*X327827Y199883D01*
X327327Y196383D02*Y199383D01*
Y196383D02*X327827Y195883D01*
X329327D01*
X330528Y196383D02*X331028Y195883D01*
X332028D01*
X332528Y196383D01*
Y199383D01*
X332028Y199883D02*X332528Y199383D01*
X331028Y199883D02*X332028D01*
X330528Y199383D02*X331028Y199883D01*
Y197883D02*X332528D01*
X334229Y199883D02*X335229D01*
X334729Y195883D02*Y199883D01*
X333729Y196883D02*X334729Y195883D01*
X336430Y199883D02*X338430Y197883D01*
Y196383D02*Y197883D01*
X337930Y195883D02*X338430Y196383D01*
X336930Y195883D02*X337930D01*
X336430Y196383D02*X336930Y195883D01*
X336430Y196383D02*Y197383D01*
X336930Y197883D01*
X338430D01*
X351283Y204092D02*Y205872D01*
Y204092D02*X351728Y203647D01*
X352618D01*
X353063Y204092D02*X352618Y203647D01*
X353063Y204092D02*Y205427D01*
X351283D02*X354843D01*
X353063D02*X354843Y203647D01*
X351728Y202579D02*X351283Y202134D01*
Y201244D02*Y202134D01*
Y201244D02*X351728Y200799D01*
X354398D01*
X354843Y201244D02*X354398Y200799D01*
X354843Y201244D02*Y202134D01*
X354398Y202579D02*X354843Y202134D01*
X353063Y200799D02*Y202134D01*
X351728Y199730D02*X351283Y199285D01*
Y197950D02*Y199285D01*
Y197950D02*X351728Y197505D01*
X352618D01*
X354843Y199730D02*X352618Y197505D01*
X354843D02*Y199730D01*
Y196436D02*X352618Y194211D01*
X351283D02*X352618D01*
X351283D02*Y196436D01*
X414779Y178870D02*Y180870D01*
Y178870D02*X415279Y178370D01*
X416279D01*
X416779Y178870D02*X416279Y178370D01*
X416779Y178870D02*Y180370D01*
X414779D02*X418779D01*
X416779D02*X418779Y178370D01*
X415279Y177169D02*X414779Y176669D01*
Y175669D02*Y176669D01*
Y175669D02*X415279Y175169D01*
X418279D01*
X418779Y175669D02*X418279Y175169D01*
X418779Y175669D02*Y176669D01*
X418279Y177169D02*X418779Y176669D01*
X416779Y175169D02*Y176669D01*
X415279Y173968D02*X414779Y173468D01*
Y171968D02*Y173468D01*
Y171968D02*X415279Y171468D01*
X416279D01*
X418779Y173968D02*X416279Y171468D01*
X418779D02*Y173968D01*
X414779Y168267D02*Y170267D01*
X416779D01*
X416279Y169767D01*
Y168767D02*Y169767D01*
Y168767D02*X416779Y168267D01*
X418279D01*
X418779Y168767D02*X418279Y168267D01*
X418779Y168767D02*Y169767D01*
X418279Y170267D02*X418779Y169767D01*
X426457Y178673D02*Y180173D01*
X425957Y180673D02*X426457Y180173D01*
X422957Y180673D02*X425957D01*
X422957D02*X422457Y180173D01*
Y178673D02*Y180173D01*
X422957Y177472D02*X422457Y176972D01*
Y175972D02*Y176972D01*
Y175972D02*X422957Y175472D01*
X425957D01*
X426457Y175972D02*X425957Y175472D01*
X426457Y175972D02*Y176972D01*
X425957Y177472D02*X426457Y176972D01*
X424457Y175472D02*Y176972D01*
X425957Y174271D02*X426457Y173771D01*
X422957Y174271D02*X425957D01*
X422957D02*X422457Y173771D01*
Y172771D02*Y173771D01*
Y172771D02*X422957Y172271D01*
X425957D01*
X426457Y172771D02*X425957Y172271D01*
X426457Y172771D02*Y173771D01*
X425457Y174271D02*X423457Y172271D01*
X425957Y171070D02*X426457Y170570D01*
X424957Y171070D02*X425957D01*
X424957D02*X424457Y170570D01*
Y169570D02*Y170570D01*
Y169570D02*X424957Y169070D01*
X425957D01*
X426457Y169570D02*X425957Y169070D01*
X426457Y169570D02*Y170570D01*
X423957Y171070D02*X424457Y170570D01*
X422957Y171070D02*X423957D01*
X422957D02*X422457Y170570D01*
Y169570D02*Y170570D01*
Y169570D02*X422957Y169070D01*
X423957D01*
X424457Y169570D02*X423957Y169070D01*
X395041Y167045D02*Y170045D01*
Y167045D02*X395541Y166545D01*
X396541D01*
X397041Y167045D01*
Y170045D01*
X396541Y170545D02*X397041Y170045D01*
X395541Y170545D02*X396541D01*
X395041Y170045D02*X395541Y170545D01*
X396041Y169545D02*X397041Y170545D01*
X398242Y167045D02*X398742Y166545D01*
X399742D01*
X400242Y167045D01*
Y170045D01*
X399742Y170545D02*X400242Y170045D01*
X398742Y170545D02*X399742D01*
X398242Y170045D02*X398742Y170545D01*
Y168545D02*X400242D01*
X401443Y170045D02*X401943Y170545D01*
X401443Y167045D02*Y170045D01*
Y167045D02*X401943Y166545D01*
X402943D01*
X403443Y167045D01*
Y170045D01*
X402943Y170545D02*X403443Y170045D01*
X401943Y170545D02*X402943D01*
X401443Y169545D02*X403443Y167545D01*
X404644Y166545D02*X406644D01*
X404644D02*Y168545D01*
X405144Y168045D01*
X406144D01*
X406644Y168545D01*
Y170045D01*
X406144Y170545D02*X406644Y170045D01*
X405144Y170545D02*X406144D01*
X404644Y170045D02*X405144Y170545D01*
X382298Y167292D02*Y169292D01*
Y167292D02*X382798Y166792D01*
X383798D01*
X384298Y167292D02*X383798Y166792D01*
X384298Y167292D02*Y168792D01*
X382298D02*X386298D01*
X384298D02*X386298Y166792D01*
X382798Y165591D02*X382298Y165091D01*
Y164091D02*Y165091D01*
Y164091D02*X382798Y163591D01*
X385798D01*
X386298Y164091D02*X385798Y163591D01*
X386298Y164091D02*Y165091D01*
X385798Y165591D02*X386298Y165091D01*
X384298Y163591D02*Y165091D01*
X382798Y162390D02*X382298Y161890D01*
Y160390D02*Y161890D01*
Y160390D02*X382798Y159890D01*
X383798D01*
X386298Y162390D02*X383798Y159890D01*
X386298D02*Y162390D01*
X384298Y158689D02*X382298Y156689D01*
X384298Y156189D02*Y158689D01*
X382298Y156689D02*X386298D01*
X410118Y195602D02*Y197102D01*
X409618Y197602D02*X410118Y197102D01*
X406618Y197602D02*X409618D01*
X406618D02*X406118Y197102D01*
Y195602D02*Y197102D01*
X406618Y194401D02*X406118Y193901D01*
Y192901D02*Y193901D01*
Y192901D02*X406618Y192401D01*
X409618D01*
X410118Y192901D02*X409618Y192401D01*
X410118Y192901D02*Y193901D01*
X409618Y194401D02*X410118Y193901D01*
X408118Y192401D02*Y193901D01*
X410118Y189700D02*Y190700D01*
X406118Y190200D02*X410118D01*
X407118Y191200D02*X406118Y190200D01*
X410118Y188499D02*X407618Y185999D01*
X406118D02*X407618D01*
X406118D02*Y188499D01*
X376346Y191752D02*Y195252D01*
X376846Y195752D01*
X377846D01*
X378346Y195252D01*
Y191752D02*Y195252D01*
X379547Y192252D02*X380047Y191752D01*
X381047D01*
X381547Y192252D01*
Y195252D01*
X381047Y195752D02*X381547Y195252D01*
X380047Y195752D02*X381047D01*
X379547Y195252D02*X380047Y195752D01*
Y193752D02*X381547D01*
X382748Y195252D02*X383248Y195752D01*
X382748Y192252D02*Y195252D01*
Y192252D02*X383248Y191752D01*
X384248D01*
X384748Y192252D01*
Y195252D01*
X384248Y195752D02*X384748Y195252D01*
X383248Y195752D02*X384248D01*
X382748Y194752D02*X384748Y192752D01*
X385949Y192252D02*X386449Y191752D01*
X387949D01*
X388449Y192252D01*
Y193252D01*
X385949Y195752D02*X388449Y193252D01*
X385949Y195752D02*X388449D01*
X370986Y202518D02*Y203853D01*
X370541Y204298D02*X370986Y203853D01*
X367871Y204298D02*X370541D01*
X367871D02*X367426Y203853D01*
Y202518D02*Y203853D01*
X367871Y201450D02*X367426Y201005D01*
Y200115D02*Y201005D01*
Y200115D02*X367871Y199670D01*
X370541D01*
X370986Y200115D02*X370541Y199670D01*
X370986Y200115D02*Y201005D01*
X370541Y201450D02*X370986Y201005D01*
X369206Y199670D02*Y201005D01*
X370541Y198601D02*X370986Y198156D01*
X367871Y198601D02*X370541D01*
X367871D02*X367426Y198156D01*
Y197266D02*Y198156D01*
Y197266D02*X367871Y196821D01*
X370541D01*
X370986Y197266D02*X370541Y196821D01*
X370986Y197266D02*Y198156D01*
X370096Y198601D02*X368316Y196821D01*
X370986Y195752D02*X369206Y193972D01*
X367871D02*X369206D01*
X367426Y194417D02*X367871Y193972D01*
X367426Y194417D02*Y195307D01*
X367871Y195752D02*X367426Y195307D01*
X367871Y195752D02*X368761D01*
X369206Y195307D01*
Y193972D02*Y195307D01*
X355710Y44504D02*X357210D01*
Y48004D01*
X356710Y48504D02*X357210Y48004D01*
X356210Y48504D02*X356710D01*
X355710Y48004D02*X356210Y48504D01*
X358411Y45004D02*X358911Y44504D01*
X359911D01*
X360411Y45004D01*
Y48004D01*
X359911Y48504D02*X360411Y48004D01*
X358911Y48504D02*X359911D01*
X358411Y48004D02*X358911Y48504D01*
Y46504D02*X360411D01*
X361612Y48004D02*X362112Y48504D01*
X361612Y45004D02*Y48004D01*
Y45004D02*X362112Y44504D01*
X363112D01*
X363612Y45004D01*
Y48004D01*
X363112Y48504D02*X363612Y48004D01*
X362112Y48504D02*X363112D01*
X361612Y47504D02*X363612Y45504D01*
X364813Y44504D02*X366813D01*
X364813D02*Y46504D01*
X365313Y46004D01*
X366313D01*
X366813Y46504D01*
Y48004D01*
X366313Y48504D02*X366813Y48004D01*
X365313Y48504D02*X366313D01*
X364813Y48004D02*X365313Y48504D01*
X433858Y68323D02*Y71823D01*
X434358Y72323D01*
X435358D01*
X435858Y71823D01*
Y68323D02*Y71823D01*
X437559Y72323D02*X438559D01*
X438059Y68323D02*Y72323D01*
X437059Y69323D02*X438059Y68323D01*
X439760Y71823D02*X440260Y72323D01*
X439760Y68823D02*Y71823D01*
Y68823D02*X440260Y68323D01*
X441260D01*
X441760Y68823D01*
Y71823D01*
X441260Y72323D02*X441760Y71823D01*
X440260Y72323D02*X441260D01*
X439760Y71323D02*X441760Y69323D01*
X442961Y68823D02*X443461Y68323D01*
X444461D01*
X444961Y68823D01*
Y71823D01*
X444461Y72323D02*X444961Y71823D01*
X443461Y72323D02*X444461D01*
X442961Y71823D02*X443461Y72323D01*
Y70323D02*X444961D01*
X394354Y123111D02*Y127111D01*
X395854Y123111D02*X396354Y123611D01*
Y126611D01*
X395854Y127111D02*X396354Y126611D01*
X393854Y127111D02*X395854D01*
X393854Y123111D02*X395854D01*
X397555Y123611D02*X398055Y123111D01*
X399055D01*
X399555Y123611D01*
Y126611D01*
X399055Y127111D02*X399555Y126611D01*
X398055Y127111D02*X399055D01*
X397555Y126611D02*X398055Y127111D01*
Y125111D02*X399555D01*
X400756Y126611D02*X401256Y127111D01*
X400756Y123611D02*Y126611D01*
Y123611D02*X401256Y123111D01*
X402256D01*
X402756Y123611D01*
Y126611D01*
X402256Y127111D02*X402756Y126611D01*
X401256Y127111D02*X402256D01*
X400756Y126111D02*X402756Y124111D01*
X403957Y123111D02*X405957D01*
X403957D02*Y125111D01*
X404457Y124611D01*
X405457D01*
X405957Y125111D01*
Y126611D01*
X405457Y127111D02*X405957Y126611D01*
X404457Y127111D02*X405457D01*
X403957Y126611D02*X404457Y127111D01*
X542912Y16749D02*X544412D01*
Y20249D01*
X543912Y20749D02*X544412Y20249D01*
X543412Y20749D02*X543912D01*
X542912Y20249D02*X543412Y20749D01*
X545613Y17249D02*X546113Y16749D01*
X547113D01*
X547613Y17249D01*
Y20249D01*
X547113Y20749D02*X547613Y20249D01*
X546113Y20749D02*X547113D01*
X545613Y20249D02*X546113Y20749D01*
Y18749D02*X547613D01*
X548814Y20249D02*X549314Y20749D01*
X548814Y17249D02*Y20249D01*
Y17249D02*X549314Y16749D01*
X550314D01*
X550814Y17249D01*
Y20249D01*
X550314Y20749D02*X550814Y20249D01*
X549314Y20749D02*X550314D01*
X548814Y19749D02*X550814Y17749D01*
X552015Y17249D02*X552515Y16749D01*
X553515D01*
X554015Y17249D01*
Y20249D01*
X553515Y20749D02*X554015Y20249D01*
X552515Y20749D02*X553515D01*
X552015Y20249D02*X552515Y20749D01*
Y18749D02*X554015D01*
X16537Y291158D02*X18037D01*
Y294658D01*
X17537Y295158D02*X18037Y294658D01*
X17037Y295158D02*X17537D01*
X16537Y294658D02*X17037Y295158D01*
X19238Y291658D02*X19738Y291158D01*
X21238D01*
X21738Y291658D01*
Y292658D01*
X19238Y295158D02*X21738Y292658D01*
X19238Y295158D02*X21738D01*
X22939Y294658D02*X23439Y295158D01*
X22939Y291658D02*Y294658D01*
Y291658D02*X23439Y291158D01*
X24439D01*
X24939Y291658D01*
Y294658D01*
X24439Y295158D02*X24939Y294658D01*
X23439Y295158D02*X24439D01*
X22939Y294158D02*X24939Y292158D01*
X26140Y291158D02*X28140D01*
X26140D02*Y293158D01*
X26640Y292658D01*
X27640D01*
X28140Y293158D01*
Y294658D01*
X27640Y295158D02*X28140Y294658D01*
X26640Y295158D02*X27640D01*
X26140Y294658D02*X26640Y295158D01*
X22897Y243781D02*Y247781D01*
X24397Y243781D02*X24897Y244281D01*
Y247281D01*
X24397Y247781D02*X24897Y247281D01*
X22397Y247781D02*X24397D01*
X22397Y243781D02*X24397D01*
X26098Y244281D02*X26598Y243781D01*
X27598D01*
X28098Y244281D01*
Y247281D01*
X27598Y247781D02*X28098Y247281D01*
X26598Y247781D02*X27598D01*
X26098Y247281D02*X26598Y247781D01*
Y245781D02*X28098D01*
X29299Y247281D02*X29799Y247781D01*
X29299Y244281D02*Y247281D01*
Y244281D02*X29799Y243781D01*
X30799D01*
X31299Y244281D01*
Y247281D01*
X30799Y247781D02*X31299Y247281D01*
X29799Y247781D02*X30799D01*
X29299Y246781D02*X31299Y244781D01*
X33000Y247781D02*X34000D01*
X33500Y243781D02*Y247781D01*
X32500Y244781D02*X33500Y243781D01*
X69979Y105427D02*Y106927D01*
Y105427D02*X73479D01*
X73979Y105927D02*X73479Y105427D01*
X73979Y105927D02*Y106427D01*
X73479Y106927D02*X73979Y106427D01*
X70479Y104226D02*X69979Y103726D01*
Y102226D02*Y103726D01*
Y102226D02*X70479Y101726D01*
X71479D01*
X73979Y104226D02*X71479Y101726D01*
X73979D02*Y104226D01*
X73479Y100525D02*X73979Y100025D01*
X70479Y100525D02*X73479D01*
X70479D02*X69979Y100025D01*
Y99025D02*Y100025D01*
Y99025D02*X70479Y98525D01*
X73479D01*
X73979Y99025D02*X73479Y98525D01*
X73979Y99025D02*Y100025D01*
X72979Y100525D02*X70979Y98525D01*
X73979Y95824D02*Y96824D01*
X69979Y96324D02*X73979D01*
X70979Y97324D02*X69979Y96324D01*
X69938Y182199D02*Y183699D01*
Y182199D02*X73438D01*
X73938Y182699D02*X73438Y182199D01*
X73938Y182699D02*Y183199D01*
X73438Y183699D02*X73938Y183199D01*
X70438Y180998D02*X69938Y180498D01*
Y178998D02*Y180498D01*
Y178998D02*X70438Y178498D01*
X71438D01*
X73938Y180998D02*X71438Y178498D01*
X73938D02*Y180998D01*
X73438Y177297D02*X73938Y176797D01*
X70438Y177297D02*X73438D01*
X70438D02*X69938Y176797D01*
Y175797D02*Y176797D01*
Y175797D02*X70438Y175297D01*
X73438D01*
X73938Y175797D02*X73438Y175297D01*
X73938Y175797D02*Y176797D01*
X72938Y177297D02*X70938Y175297D01*
X73438Y174096D02*X73938Y173596D01*
X70438Y174096D02*X73438D01*
X70438D02*X69938Y173596D01*
Y172596D02*Y173596D01*
Y172596D02*X70438Y172096D01*
X73438D01*
X73938Y172596D02*X73438Y172096D01*
X73938Y172596D02*Y173596D01*
X72938Y174096D02*X70938Y172096D01*
X78781Y182915D02*X80281D01*
Y186415D01*
X79781Y186915D02*X80281Y186415D01*
X79281Y186915D02*X79781D01*
X78781Y186415D02*X79281Y186915D01*
X81482Y183415D02*X81982Y182915D01*
X83482D01*
X83982Y183415D01*
Y184415D01*
X81482Y186915D02*X83982Y184415D01*
X81482Y186915D02*X83982D01*
X85183Y186415D02*X85683Y186915D01*
X85183Y183415D02*Y186415D01*
Y183415D02*X85683Y182915D01*
X86683D01*
X87183Y183415D01*
Y186415D01*
X86683Y186915D02*X87183Y186415D01*
X85683Y186915D02*X86683D01*
X85183Y185915D02*X87183Y183915D01*
X88384Y184915D02*X90384Y182915D01*
X88384Y184915D02*X90884D01*
X90384Y182915D02*Y186915D01*
X238849Y221142D02*X240349D01*
X238349Y220642D02*X238849Y221142D01*
X238349Y217642D02*Y220642D01*
Y217642D02*X238849Y217142D01*
X240349D01*
X242050Y221142D02*X243050D01*
X242550Y217142D02*Y221142D01*
X241550Y218142D02*X242550Y217142D01*
X244251Y220642D02*X244751Y221142D01*
X244251Y217642D02*Y220642D01*
Y217642D02*X244751Y217142D01*
X245751D01*
X246251Y217642D01*
Y220642D01*
X245751Y221142D02*X246251Y220642D01*
X244751Y221142D02*X245751D01*
X244251Y220142D02*X246251Y218142D01*
X247452Y221142D02*X249452Y219142D01*
Y217642D02*Y219142D01*
X248952Y217142D02*X249452Y217642D01*
X247952Y217142D02*X248952D01*
X247452Y217642D02*X247952Y217142D01*
X247452Y217642D02*Y218642D01*
X247952Y219142D01*
X249452D01*
X19816Y68621D02*Y72621D01*
X21316Y68621D02*X21816Y69121D01*
Y72121D01*
X21316Y72621D02*X21816Y72121D01*
X19316Y72621D02*X21316D01*
X19316Y68621D02*X21316D01*
X23017Y69121D02*X23517Y68621D01*
X24517D01*
X25017Y69121D01*
Y72121D01*
X24517Y72621D02*X25017Y72121D01*
X23517Y72621D02*X24517D01*
X23017Y72121D02*X23517Y72621D01*
Y70621D02*X25017D01*
X26218Y72121D02*X26718Y72621D01*
X26218Y69121D02*Y72121D01*
Y69121D02*X26718Y68621D01*
X27718D01*
X28218Y69121D01*
Y72121D01*
X27718Y72621D02*X28218Y72121D01*
X26718Y72621D02*X27718D01*
X26218Y71621D02*X28218Y69621D01*
X29419Y69121D02*X29919Y68621D01*
X30919D01*
X31419Y69121D01*
Y72121D01*
X30919Y72621D02*X31419Y72121D01*
X29919Y72621D02*X30919D01*
X29419Y72121D02*X29919Y72621D01*
Y70621D02*X31419D01*
X377364Y240371D02*Y244371D01*
X379364D01*
X380565Y240871D02*X381065Y240371D01*
X382065D01*
X382565Y240871D01*
Y243871D01*
X382065Y244371D02*X382565Y243871D01*
X381065Y244371D02*X382065D01*
X380565Y243871D02*X381065Y244371D01*
Y242371D02*X382565D01*
X383766Y243871D02*X384266Y244371D01*
X383766Y240871D02*Y243871D01*
Y240871D02*X384266Y240371D01*
X385266D01*
X385766Y240871D01*
Y243871D01*
X385266Y244371D02*X385766Y243871D01*
X384266Y244371D02*X385266D01*
X383766Y243371D02*X385766Y241371D01*
X386967Y243871D02*X387467Y244371D01*
X386967Y240871D02*Y243871D01*
Y240871D02*X387467Y240371D01*
X388467D01*
X388967Y240871D01*
Y243871D01*
X388467Y244371D02*X388967Y243871D01*
X387467Y244371D02*X388467D01*
X386967Y243371D02*X388967Y241371D01*
X550605Y247633D02*Y249133D01*
Y247633D02*X554105D01*
X554605Y248133D02*X554105Y247633D01*
X554605Y248133D02*Y248633D01*
X554105Y249133D02*X554605Y248633D01*
X551105Y246432D02*X550605Y245932D01*
Y244932D02*Y245932D01*
Y244932D02*X551105Y244432D01*
X554105D01*
X554605Y244932D02*X554105Y244432D01*
X554605Y244932D02*Y245932D01*
X554105Y246432D02*X554605Y245932D01*
X552605Y244432D02*Y245932D01*
X554105Y243231D02*X554605Y242731D01*
X551105Y243231D02*X554105D01*
X551105D02*X550605Y242731D01*
Y241731D02*Y242731D01*
Y241731D02*X551105Y241231D01*
X554105D01*
X554605Y241731D02*X554105Y241231D01*
X554605Y241731D02*Y242731D01*
X553605Y243231D02*X551605Y241231D01*
X550605Y238530D02*X551105Y238030D01*
X550605Y238530D02*Y239530D01*
X551105Y240030D02*X550605Y239530D01*
X551105Y240030D02*X554105D01*
X554605Y239530D01*
X552605Y238530D02*X553105Y238030D01*
X552605Y238530D02*Y240030D01*
X554605Y238530D02*Y239530D01*
Y238530D02*X554105Y238030D01*
X553105D02*X554105D01*
X454492Y159880D02*X457492D01*
X454492D02*X453992Y159380D01*
Y158380D02*Y159380D01*
Y158380D02*X454492Y157880D01*
X457492D01*
X457992Y158380D02*X457492Y157880D01*
X457992Y158380D02*Y159380D01*
X457492Y159880D02*X457992Y159380D01*
X456992Y158880D02*X457992Y157880D01*
X454492Y156679D02*X453992Y156179D01*
Y155179D02*Y156179D01*
Y155179D02*X454492Y154679D01*
X457492D01*
X457992Y155179D02*X457492Y154679D01*
X457992Y155179D02*Y156179D01*
X457492Y156679D02*X457992Y156179D01*
X455992Y154679D02*Y156179D01*
X457492Y153478D02*X457992Y152978D01*
X454492Y153478D02*X457492D01*
X454492D02*X453992Y152978D01*
Y151978D02*Y152978D01*
Y151978D02*X454492Y151478D01*
X457492D01*
X457992Y151978D02*X457492Y151478D01*
X457992Y151978D02*Y152978D01*
X456992Y153478D02*X454992Y151478D01*
X453992Y148777D02*X454492Y148277D01*
X453992Y148777D02*Y149777D01*
X454492Y150277D02*X453992Y149777D01*
X454492Y150277D02*X457492D01*
X457992Y149777D01*
X455992Y148777D02*X456492Y148277D01*
X455992Y148777D02*Y150277D01*
X457992Y148777D02*Y149777D01*
Y148777D02*X457492Y148277D01*
X456492D02*X457492D01*
X537795Y147458D02*X539795D01*
X540295Y147958D01*
Y148958D01*
X539795Y149458D02*X540295Y148958D01*
X538295Y149458D02*X539795D01*
X538295Y147458D02*Y151458D01*
Y149458D02*X540295Y151458D01*
X541496Y147958D02*X541996Y147458D01*
X542996D01*
X543496Y147958D01*
Y150958D01*
X542996Y151458D02*X543496Y150958D01*
X541996Y151458D02*X542996D01*
X541496Y150958D02*X541996Y151458D01*
Y149458D02*X543496D01*
X545197Y151458D02*X546197D01*
X545697Y147458D02*Y151458D01*
X544697Y148458D02*X545697Y147458D01*
X548898D02*X549398Y147958D01*
X547898Y147458D02*X548898D01*
X547398Y147958D02*X547898Y147458D01*
X547398Y147958D02*Y150958D01*
X547898Y151458D01*
X548898Y149458D02*X549398Y149958D01*
X547398Y149458D02*X548898D01*
X547898Y151458D02*X548898D01*
X549398Y150958D01*
Y149958D02*Y150958D01*
X571891Y207302D02*Y211302D01*
Y207302D02*X573891D01*
X571891Y209302D02*X573391D01*
X575092Y207802D02*X575592Y207302D01*
X576592D01*
X577092Y207802D01*
Y210802D01*
X576592Y211302D02*X577092Y210802D01*
X575592Y211302D02*X576592D01*
X575092Y210802D02*X575592Y211302D01*
Y209302D02*X577092D01*
X578293Y210802D02*X578793Y211302D01*
X578293Y207802D02*Y210802D01*
Y207802D02*X578793Y207302D01*
X579793D01*
X580293Y207802D01*
Y210802D01*
X579793Y211302D02*X580293Y210802D01*
X578793Y211302D02*X579793D01*
X578293Y210302D02*X580293Y208302D01*
X581494Y209302D02*X583494Y207302D01*
X581494Y209302D02*X583994D01*
X583494Y207302D02*Y211302D01*
X627163Y122674D02*X628663D01*
Y126174D01*
X628163Y126674D02*X628663Y126174D01*
X627663Y126674D02*X628163D01*
X627163Y126174D02*X627663Y126674D01*
X629864Y123174D02*X630364Y122674D01*
X631364D01*
X631864Y123174D01*
Y126174D01*
X631364Y126674D02*X631864Y126174D01*
X630364Y126674D02*X631364D01*
X629864Y126174D02*X630364Y126674D01*
Y124674D02*X631864D01*
X633065Y126174D02*X633565Y126674D01*
X633065Y123174D02*Y126174D01*
Y123174D02*X633565Y122674D01*
X634565D01*
X635065Y123174D01*
Y126174D01*
X634565Y126674D02*X635065Y126174D01*
X633565Y126674D02*X634565D01*
X633065Y125674D02*X635065Y123674D01*
X636766Y126674D02*X637766D01*
X637266Y122674D02*Y126674D01*
X636266Y123674D02*X637266Y122674D01*
X564013Y160771D02*X566013D01*
X566513Y161271D01*
Y162271D01*
X566013Y162771D02*X566513Y162271D01*
X564513Y162771D02*X566013D01*
X564513Y160771D02*Y164771D01*
Y162771D02*X566513Y164771D01*
X567714Y161271D02*X568214Y160771D01*
X569214D01*
X569714Y161271D01*
Y164271D01*
X569214Y164771D02*X569714Y164271D01*
X568214Y164771D02*X569214D01*
X567714Y164271D02*X568214Y164771D01*
Y162771D02*X569714D01*
X570915Y161271D02*X571415Y160771D01*
X572915D01*
X573415Y161271D01*
Y162271D01*
X570915Y164771D02*X573415Y162271D01*
X570915Y164771D02*X573415D01*
X574616Y164271D02*X575116Y164771D01*
X574616Y161271D02*Y164271D01*
Y161271D02*X575116Y160771D01*
X576116D01*
X576616Y161271D01*
Y164271D01*
X576116Y164771D02*X576616Y164271D01*
X575116Y164771D02*X576116D01*
X574616Y163771D02*X576616Y161771D01*
X564977Y158149D02*X566477D01*
X564477Y157649D02*X564977Y158149D01*
X564477Y154649D02*Y157649D01*
Y154649D02*X564977Y154149D01*
X566477D01*
X567678Y154649D02*X568178Y154149D01*
X569178D01*
X569678Y154649D01*
Y157649D01*
X569178Y158149D02*X569678Y157649D01*
X568178Y158149D02*X569178D01*
X567678Y157649D02*X568178Y158149D01*
Y156149D02*X569678D01*
X570879Y157649D02*X571379Y158149D01*
X570879Y154649D02*Y157649D01*
Y154649D02*X571379Y154149D01*
X572379D01*
X572879Y154649D01*
Y157649D01*
X572379Y158149D02*X572879Y157649D01*
X571379Y158149D02*X572379D01*
X570879Y157149D02*X572879Y155149D01*
X574080Y156149D02*X576080Y154149D01*
X574080Y156149D02*X576580D01*
X576080Y154149D02*Y158149D01*
X429741Y270966D02*X430241D01*
X432741Y268466D01*
X433741D01*
X432741Y270966D02*X433741D01*
X432741D02*X430241Y268466D01*
X429741D02*X430241D01*
Y267265D02*X429741Y266765D01*
Y265265D02*Y266765D01*
Y265265D02*X430241Y264765D01*
X431241D01*
X433741Y267265D02*X431241Y264765D01*
X433741D02*Y267265D01*
X433241Y263564D02*X433741Y263064D01*
X430241Y263564D02*X433241D01*
X430241D02*X429741Y263064D01*
Y262064D02*Y263064D01*
Y262064D02*X430241Y261564D01*
X433241D01*
X433741Y262064D02*X433241Y261564D01*
X433741Y262064D02*Y263064D01*
X432741Y263564D02*X430741Y261564D01*
X433741Y258863D02*Y259863D01*
X429741Y259363D02*X433741D01*
X430741Y260363D02*X429741Y259363D01*
X362283Y232056D02*Y233556D01*
X361783Y234056D02*X362283Y233556D01*
X358783Y234056D02*X361783D01*
X358783D02*X358283Y233556D01*
Y232056D02*Y233556D01*
X358783Y230855D02*X358283Y230355D01*
Y229355D02*Y230355D01*
Y229355D02*X358783Y228855D01*
X361783D01*
X362283Y229355D02*X361783Y228855D01*
X362283Y229355D02*Y230355D01*
X361783Y230855D02*X362283Y230355D01*
X360283Y228855D02*Y230355D01*
X362283Y226154D02*Y227154D01*
X358283Y226654D02*X362283D01*
X359283Y227654D02*X358283Y226654D01*
X360283Y224953D02*X358283Y222953D01*
X360283Y222453D02*Y224953D01*
X358283Y222953D02*X362283D01*
X327638Y232255D02*Y233755D01*
X327138Y234255D02*X327638Y233755D01*
X324138Y234255D02*X327138D01*
X324138D02*X323638Y233755D01*
Y232255D02*Y233755D01*
X324138Y231054D02*X323638Y230554D01*
Y229554D02*Y230554D01*
Y229554D02*X324138Y229054D01*
X327138D01*
X327638Y229554D02*X327138Y229054D01*
X327638Y229554D02*Y230554D01*
X327138Y231054D02*X327638Y230554D01*
X325638Y229054D02*Y230554D01*
X327638Y226353D02*Y227353D01*
X323638Y226853D02*X327638D01*
X324638Y227853D02*X323638Y226853D01*
X324138Y225152D02*X323638Y224652D01*
Y223652D02*Y224652D01*
Y223652D02*X324138Y223152D01*
X327138D01*
X327638Y223652D02*X327138Y223152D01*
X327638Y223652D02*Y224652D01*
X327138Y225152D02*X327638Y224652D01*
X325638Y223152D02*Y224652D01*
X490157Y200212D02*Y204212D01*
Y200212D02*X492157D01*
X490157Y202212D02*X491657D01*
X493358Y200712D02*X493858Y200212D01*
X494858D01*
X495358Y200712D01*
Y203712D01*
X494858Y204212D02*X495358Y203712D01*
X493858Y204212D02*X494858D01*
X493358Y203712D02*X493858Y204212D01*
Y202212D02*X495358D01*
X496559Y203712D02*X497059Y204212D01*
X496559Y200712D02*Y203712D01*
Y200712D02*X497059Y200212D01*
X498059D01*
X498559Y200712D01*
Y203712D01*
X498059Y204212D02*X498559Y203712D01*
X497059Y204212D02*X498059D01*
X496559Y203212D02*X498559Y201212D01*
X499760Y200712D02*X500260Y200212D01*
X501260D01*
X501760Y200712D01*
Y203712D01*
X501260Y204212D02*X501760Y203712D01*
X500260Y204212D02*X501260D01*
X499760Y203712D02*X500260Y204212D01*
Y202212D02*X501760D01*
X490158Y166354D02*Y170354D01*
Y166354D02*X492158D01*
X490158Y168354D02*X491658D01*
X493359Y166854D02*X493859Y166354D01*
X494859D01*
X495359Y166854D01*
Y169854D01*
X494859Y170354D02*X495359Y169854D01*
X493859Y170354D02*X494859D01*
X493359Y169854D02*X493859Y170354D01*
Y168354D02*X495359D01*
X496560Y169854D02*X497060Y170354D01*
X496560Y166854D02*Y169854D01*
Y166854D02*X497060Y166354D01*
X498060D01*
X498560Y166854D01*
Y169854D01*
X498060Y170354D02*X498560Y169854D01*
X497060Y170354D02*X498060D01*
X496560Y169354D02*X498560Y167354D01*
X499761Y166854D02*X500261Y166354D01*
X501761D01*
X502261Y166854D01*
Y167854D01*
X499761Y170354D02*X502261Y167854D01*
X499761Y170354D02*X502261D01*
X456182Y181465D02*Y182965D01*
X455682Y183465D02*X456182Y182965D01*
X452682Y183465D02*X455682D01*
X452682D02*X452182Y182965D01*
Y181465D02*Y182965D01*
X452682Y180264D02*X452182Y179764D01*
Y178764D02*Y179764D01*
Y178764D02*X452682Y178264D01*
X455682D01*
X456182Y178764D02*X455682Y178264D01*
X456182Y178764D02*Y179764D01*
X455682Y180264D02*X456182Y179764D01*
X454182Y178264D02*Y179764D01*
X455682Y177063D02*X456182Y176563D01*
X452682Y177063D02*X455682D01*
X452682D02*X452182Y176563D01*
Y175563D02*Y176563D01*
Y175563D02*X452682Y175063D01*
X455682D01*
X456182Y175563D02*X455682Y175063D01*
X456182Y175563D02*Y176563D01*
X455182Y177063D02*X453182Y175063D01*
X456182Y173862D02*X453682Y171362D01*
X452182D02*X453682D01*
X452182D02*Y173862D01*
X457442Y224501D02*X461442D01*
X457442Y223001D02*X457942Y222501D01*
X460942D01*
X461442Y223001D02*X460942Y222501D01*
X461442Y223001D02*Y225001D01*
X457442Y223001D02*Y225001D01*
X457942Y221300D02*X457442Y220800D01*
Y219800D02*Y220800D01*
Y219800D02*X457942Y219300D01*
X460942D01*
X461442Y219800D02*X460942Y219300D01*
X461442Y219800D02*Y220800D01*
X460942Y221300D02*X461442Y220800D01*
X459442Y219300D02*Y220800D01*
X460942Y218099D02*X461442Y217599D01*
X457942Y218099D02*X460942D01*
X457942D02*X457442Y217599D01*
Y216599D02*Y217599D01*
Y216599D02*X457942Y216099D01*
X460942D01*
X461442Y216599D02*X460942Y216099D01*
X461442Y216599D02*Y217599D01*
X460442Y218099D02*X458442Y216099D01*
X457942Y214898D02*X457442Y214398D01*
Y212898D02*Y214398D01*
Y212898D02*X457942Y212398D01*
X458942D01*
X461442Y214898D02*X458942Y212398D01*
X461442D02*Y214898D01*
X456181Y199378D02*Y200878D01*
X455681Y201378D02*X456181Y200878D01*
X452681Y201378D02*X455681D01*
X452681D02*X452181Y200878D01*
Y199378D02*Y200878D01*
X452681Y198177D02*X452181Y197677D01*
Y196677D02*Y197677D01*
Y196677D02*X452681Y196177D01*
X455681D01*
X456181Y196677D02*X455681Y196177D01*
X456181Y196677D02*Y197677D01*
X455681Y198177D02*X456181Y197677D01*
X454181Y196177D02*Y197677D01*
X455681Y194976D02*X456181Y194476D01*
X452681Y194976D02*X455681D01*
X452681D02*X452181Y194476D01*
Y193476D02*Y194476D01*
Y193476D02*X452681Y192976D01*
X455681D01*
X456181Y193476D02*X455681Y192976D01*
X456181Y193476D02*Y194476D01*
X455181Y194976D02*X453181Y192976D01*
X452181Y190275D02*X452681Y189775D01*
X452181Y190275D02*Y191275D01*
X452681Y191775D02*X452181Y191275D01*
X452681Y191775D02*X455681D01*
X456181Y191275D01*
X454181Y190275D02*X454681Y189775D01*
X454181Y190275D02*Y191775D01*
X456181Y190275D02*Y191275D01*
Y190275D02*X455681Y189775D01*
X454681D02*X455681D01*
X428496Y207263D02*X431496D01*
X428496D02*X427996Y206763D01*
Y205763D02*Y206763D01*
Y205763D02*X428496Y205263D01*
X431496D01*
X431996Y205763D02*X431496Y205263D01*
X431996Y205763D02*Y206763D01*
X431496Y207263D02*X431996Y206763D01*
X430996Y206263D02*X431996Y205263D01*
X428496Y204062D02*X427996Y203562D01*
Y202562D02*Y203562D01*
Y202562D02*X428496Y202062D01*
X431496D01*
X431996Y202562D02*X431496Y202062D01*
X431996Y202562D02*Y203562D01*
X431496Y204062D02*X431996Y203562D01*
X429996Y202062D02*Y203562D01*
X431496Y200861D02*X431996Y200361D01*
X428496Y200861D02*X431496D01*
X428496D02*X427996Y200361D01*
Y199361D02*Y200361D01*
Y199361D02*X428496Y198861D01*
X431496D01*
X431996Y199361D02*X431496Y198861D01*
X431996Y199361D02*Y200361D01*
X430996Y200861D02*X428996Y198861D01*
X431996Y197660D02*X429496Y195160D01*
X427996D02*X429496D01*
X427996D02*Y197660D01*
M02*
