*
%FSLAX26Y26*%
%MOIN*%
%ADD10R,0.024000X0.024000*%
%ADD11R,0.051200X0.051200*%
%ADD12R,0.011800X0.011800*%
%ADD13R,0.019700X0.019700*%
%ADD14R,0.043300X0.043300*%
%ADD15R,0.027600X0.027600*%
%ADD16R,0.028300X0.028300*%
%ADD17R,0.034000X0.034000*%
%ADD18R,0.060000X0.060000*%
%ADD19R,0.029000X0.029000*%
%ADD20R,0.020000X0.020000*%
%ADD21R,0.069000X0.069000*%
%ADD22R,0.013000X0.013000*%
%ADD23R,0.055100X0.055100*%
%ADD24R,0.015000X0.015000*%
%ADD25R,0.245300X0.245300*%
%ADD26R,0.070900X0.070900*%
%ADD27R,0.169300X0.169300*%
%ADD28R,0.056000X0.056000*%
%ADD29R,0.122000X0.122000*%
%ADD30R,0.031500X0.031500*%
%ADD31R,0.063000X0.063000*%
%ADD32R,0.011000X0.011000*%
%IPPOS*%
%LNcp.gbx*%
%LPD*%
G75*
G54D10*
X05586940Y01559430D02*
Y01543430D01*
X05664940Y01559430D02*
Y01543430D01*
Y01641430D02*
Y01625430D01*
X05625940Y01641430D02*
Y01625430D01*
X05586940Y01641430D02*
Y01625430D01*
X01342400Y02874760D02*
X01358400D01*
X01342400Y02913760D02*
X01358400D01*
X01342400Y02952760D02*
X01358400D01*
X01260400D02*
X01276400D01*
X01260400Y02913760D02*
X01276400D01*
X01260400Y02874760D02*
X01276400D01*
G54D11*
X01259840Y00275580D02*
Y00220480D01*
X01377940Y00275580D02*
Y00220480D01*
X00519680Y00921270D02*
Y00897650D01*
X00401580Y00921270D02*
Y00897650D01*
G54D12*
X01007880Y02851590D02*
Y02807100D01*
X01027570Y02851590D02*
Y02807100D01*
X01047250Y02851590D02*
Y02807100D01*
X01066940Y02851590D02*
Y02807100D01*
G54D13*
X00923630Y02811030D02*
X00980320D01*
G54D14*
X00907490Y02779540D02*
X00968510D01*
G54D15*
X00954730Y02744500D02*
X00976390D01*
G54D13*
X01094500Y02811030D02*
X01151580D01*
G54D14*
X01106310Y02779540D02*
X01167330D01*
G54D15*
X01098430Y02744500D02*
X01120090D01*
G54D16*
X01098430Y00394610D02*
Y00384930D01*
X01156770Y00394610D02*
Y00384930D01*
X01337680Y00526850D02*
X01347360D01*
X01337680Y00468510D02*
X01347360D01*
X01337680Y00417330D02*
X01347360D01*
X01337680Y00358990D02*
X01347360D01*
G54D17*
X01178100Y00546510D02*
X01184100D01*
X01178100Y00468510D02*
X01184100D01*
X01260100Y00507510D02*
X01266100D01*
X01095430Y00468510D02*
X01101430D01*
X01095430Y00546510D02*
X01101430D01*
X01013430Y00507510D02*
X01019430D01*
G54D11*
X03177160Y03720480D02*
Y03696860D01*
X03059060Y03720480D02*
Y03696860D01*
G54D18*
X05062080Y02103850D02*
Y02061490D01*
X04944880Y02103850D02*
Y02061490D01*
G54D16*
X02719570Y02522020D02*
X02729250D01*
X02719570Y02580360D02*
X02729250D01*
X03818000Y02827490D02*
X03827680D01*
X03818000Y02885830D02*
X03827680D01*
X02495350Y00638700D02*
Y00629020D01*
X02437010Y00638700D02*
Y00629020D01*
X03180200Y03069260D02*
X03189880D01*
X03180200Y03127600D02*
X03189880D01*
X02915000Y02430040D02*
Y02420360D01*
X02856660Y02430040D02*
Y02420360D01*
X02881180Y03024530D02*
Y03014850D01*
X02822840Y03024530D02*
Y03014850D01*
X04865240Y02053510D02*
X04874920D01*
X04865240Y02111850D02*
X04874920D01*
G54D19*
X01515820Y01159050D02*
X01521820D01*
X01515820Y01210050D02*
X01521820D01*
X01445820Y01185050D02*
X01451820D01*
G54D16*
X02203120Y00571770D02*
Y00562090D01*
X02261460Y00571770D02*
Y00562090D01*
X03274690Y02955090D02*
X03284370D01*
X03274690Y03013430D02*
X03284370D01*
X00463670Y03081070D02*
X00473350D01*
X00463670Y03139410D02*
X00473350D01*
X03274690Y03069260D02*
X03284370D01*
X03274690Y03127600D02*
X03284370D01*
X06101460Y02396030D02*
X06111140D01*
X06101460Y02454370D02*
X06111140D01*
G54D20*
X02097150Y00783470D02*
X02162150D01*
X02097150Y00733470D02*
X02162150D01*
X02097150Y00683470D02*
X02162150D01*
X02097150Y00633470D02*
X02162150D01*
X02302150D02*
X02367150D01*
X02302150Y00683470D02*
X02367150D01*
X02302150Y00733470D02*
X02367150D01*
X02302150Y00783470D02*
X02367150D01*
G54D16*
X02495350Y00788310D02*
Y00778630D01*
X02437010Y00788310D02*
Y00778630D01*
X02495350Y00713500D02*
Y00703820D01*
X02437010Y00713500D02*
Y00703820D01*
X02908550Y03545640D02*
X02918230D01*
X02908550Y03603980D02*
X02918230D01*
G54D18*
X05062540Y01670790D02*
Y01628430D01*
X04945340Y01670790D02*
Y01628430D01*
X00279980Y03131420D02*
Y03089060D01*
X00397180Y03131420D02*
Y03089060D01*
G54D16*
X03180200Y02955090D02*
X03189880D01*
X03180200Y03013430D02*
X03189880D01*
X02050280Y03636190D02*
X02059960D01*
X02050280Y03694530D02*
X02059960D01*
G54D17*
X00480580Y02295650D02*
X00486580D01*
X00480580Y02373650D02*
X00486580D01*
X00398580Y02334650D02*
X00404580D01*
G54D11*
X00519680Y01027560D02*
Y01003940D01*
X00401580Y01027560D02*
Y01003940D01*
G54D16*
X06101460Y02218870D02*
X06111140D01*
X06101460Y02277210D02*
X06111140D01*
X02758940Y03082680D02*
X02768620D01*
X02758940Y03141020D02*
X02768620D01*
G54D17*
X00592170Y01613810D02*
X00598170D01*
X00592170Y01535810D02*
X00598170D01*
X00674170Y01574810D02*
X00680170D01*
X00488450Y01535810D02*
X00494450D01*
X00488450Y01613810D02*
X00494450D01*
X00406450Y01574810D02*
X00412450D01*
X00826400Y01006270D02*
Y01000270D01*
X00748400Y01006270D02*
Y01000270D01*
X00787400Y00924270D02*
Y00918270D01*
G54D16*
X00369180Y02094490D02*
X00378860D01*
X00369180Y02152830D02*
X00378860D01*
G54D17*
X00748400Y01106050D02*
Y01100050D01*
X00826400Y01106050D02*
Y01100050D01*
X00787400Y01188050D02*
Y01182050D01*
G54D19*
X00280470Y01929320D02*
X00286470D01*
X00280470Y01980320D02*
X00286470D01*
X00210470Y01955320D02*
X00216470D01*
G54D21*
X01055360Y03061120D02*
Y03049120D01*
X01165360Y03061120D02*
Y03049120D01*
G54D16*
X01660520Y01210280D02*
X01670200D01*
X01660520Y01151940D02*
X01670200D01*
X00352010Y01189890D02*
Y01180210D01*
X00293670Y01189890D02*
Y01180210D01*
X02823560Y03150520D02*
Y03140840D01*
X02881900Y03150520D02*
Y03140840D01*
X00232290Y01189890D02*
Y01180210D01*
X00173950Y01189890D02*
Y01180210D01*
X00353620Y02048150D02*
Y02038470D01*
X00295280Y02048150D02*
Y02038470D01*
G54D17*
X00576420Y02373650D02*
X00582420D01*
X00576420Y02295650D02*
X00582420D01*
X00658420Y02334650D02*
X00664420D01*
G54D16*
X00444170Y01957600D02*
Y01947920D01*
X00385830Y01957600D02*
Y01947920D01*
G54D11*
X00251970Y01370070D02*
X00275590D01*
X00251970Y01251970D02*
X00275590D01*
X00366150Y01370070D02*
X00389770D01*
X00366150Y01251970D02*
X00389770D01*
G54D16*
X00918040Y01323740D02*
Y01314060D01*
X00976380Y01323740D02*
Y01314060D01*
X00918040Y01264690D02*
Y01255010D01*
X00976380Y01264690D02*
Y01255010D01*
X02823560Y03292250D02*
Y03282570D01*
X02881900Y03292250D02*
Y03282570D01*
X00353430Y01632250D02*
X00363110D01*
X00353430Y01690590D02*
X00363110D01*
G54D19*
X02220540Y01155110D02*
X02226540D01*
X02220540Y01206110D02*
X02226540D01*
X02150540Y01181110D02*
X02156540D01*
G54D16*
X02069960Y01151940D02*
X02079640D01*
X02069960Y01210280D02*
X02079640D01*
X03762880Y02944170D02*
X03772560D01*
X03762880Y02885830D02*
X03772560D01*
X03699890Y03003230D02*
X03709570D01*
X03699890Y02944890D02*
X03709570D01*
X02861300Y02580360D02*
X02870980D01*
X02861300Y02522020D02*
X02870980D01*
G54D19*
X03165430Y00765340D02*
X03171430D01*
X03165430Y00816340D02*
X03171430D01*
X03095430Y00791340D02*
X03101430D01*
G54D16*
X03247130Y00820510D02*
X03256810D01*
X03247130Y00762170D02*
X03256810D01*
G54D17*
X04342890Y01094230D02*
Y01088230D01*
X04420890Y01094230D02*
Y01088230D01*
X04381890Y01176230D02*
Y01170230D01*
G54D16*
X02861300Y02690590D02*
X02870980D01*
X02861300Y02632250D02*
X02870980D01*
X02719570Y02690590D02*
X02729250D01*
X02719570Y02632250D02*
X02729250D01*
G54D18*
X00290430Y01682600D02*
Y01640240D01*
X00173230Y01682600D02*
Y01640240D01*
G54D16*
X04192010Y02780250D02*
X04201690D01*
X04192010Y02838590D02*
X04201690D01*
G54D17*
X00488460Y01705100D02*
X00494460D01*
X00488460Y01783100D02*
X00494460D01*
X00406460Y01744100D02*
X00412460D01*
X00592170Y01783100D02*
X00598170D01*
X00592170Y01705100D02*
X00598170D01*
X00674170Y01744100D02*
X00680170D01*
G54D16*
X02790440Y02702400D02*
X02800120D01*
X02790440Y02644060D02*
X02800120D01*
G54D22*
X00974400Y01668680D02*
Y01622620D01*
X00948810Y01668680D02*
Y01622620D01*
X00923220Y01668680D02*
Y01622620D01*
X00897630Y01668680D02*
Y01622620D01*
X00872050Y01668680D02*
Y01622620D01*
X00846460Y01668680D02*
Y01622620D01*
X00820870Y01668680D02*
Y01622620D01*
X00795280Y01668680D02*
Y01622620D01*
Y01436400D02*
Y01390340D01*
X00820870Y01436400D02*
Y01390340D01*
X00846460Y01436400D02*
Y01390340D01*
X00872050Y01436400D02*
Y01390340D01*
X00897630Y01436400D02*
Y01390340D01*
X00923220Y01436400D02*
Y01390340D01*
X00948810Y01436400D02*
Y01390340D01*
X00974400Y01436400D02*
Y01390340D01*
G54D18*
X06298760Y02269220D02*
Y02226860D01*
X06181560Y02269220D02*
Y02226860D01*
G54D16*
X00440050Y01897640D02*
X00449730D01*
X00440050Y01839300D02*
X00449730D01*
X00231570Y02048150D02*
Y02038470D01*
X00173230Y02048150D02*
Y02038470D01*
X00409450Y02048150D02*
Y02038470D01*
X00467790Y02048150D02*
Y02038470D01*
G54D11*
X04562990Y01177160D02*
Y01169300D01*
X04492130Y01177160D02*
Y01169300D01*
G54D16*
X04476380Y01634770D02*
Y01625090D01*
X04534720Y01634770D02*
Y01625090D01*
G54D23*
X04811030Y01350400D02*
X04838590D01*
X04811030Y01527560D02*
X04838590D01*
X05169290Y01350400D02*
X05196850D01*
X05169290Y01527560D02*
X05196850D01*
G54D16*
X04637080Y01583590D02*
Y01573910D01*
X04578740Y01583590D02*
Y01573910D01*
X04077840Y02886550D02*
X04087520D01*
X04077840Y02944890D02*
X04087520D01*
X05555480Y01374930D02*
Y01365250D01*
X05613820Y01374930D02*
Y01365250D01*
G36*
X02701080Y02412130D02*
X02742830Y02370370D01*
X02734470Y02362020D01*
X02692720Y02403780D01*
X02701080Y02412130D01*
G37*
G36*
X02687160Y02398220D02*
X02728920Y02356450D01*
X02720560Y02348100D01*
X02678800Y02389870D01*
X02687160Y02398220D01*
G37*
G36*
X02673240Y02384290D02*
X02714990Y02342530D01*
X02706630Y02334180D01*
X02664880Y02375940D01*
X02673240Y02384290D01*
G37*
G36*
X02659310Y02370380D02*
X02701080Y02328630D01*
X02692730Y02320270D01*
X02650960Y02362020D01*
X02659310Y02370380D01*
G37*
G36*
X02645400Y02356460D02*
X02687150Y02314690D01*
X02678790Y02306340D01*
X02637040Y02348110D01*
X02645400Y02356460D01*
G37*
G36*
X02631470Y02342540D02*
X02673240Y02300790D01*
X02664890Y02292430D01*
X02623120Y02334180D01*
X02631470Y02342540D01*
G37*
G36*
X02617560Y02328620D02*
X02659320Y02286850D01*
X02650960Y02278500D01*
X02609200Y02320270D01*
X02617560Y02328620D01*
G37*
G36*
X02603650Y02314700D02*
X02645400Y02272940D01*
X02637040Y02264590D01*
X02595290Y02306350D01*
X02603650Y02314700D01*
G37*
G36*
X02589720Y02300780D02*
X02631480Y02259010D01*
X02623120Y02250660D01*
X02581360Y02292430D01*
X02589720Y02300780D01*
G37*
G36*
X02575810Y02286860D02*
X02617560Y02245100D01*
X02609200Y02236750D01*
X02567450Y02278510D01*
X02575810Y02286860D01*
G37*
G36*
X02561870Y02272940D02*
X02603640Y02231190D01*
X02595290Y02222830D01*
X02553520Y02264580D01*
X02561870Y02272940D01*
G37*
G36*
X02547970Y02259020D02*
X02589720Y02217260D01*
X02581360Y02208910D01*
X02539610Y02250670D01*
X02547970Y02259020D01*
G37*
G36*
X02534050Y02245110D02*
X02575810Y02203340D01*
X02567450Y02194990D01*
X02525690Y02236760D01*
X02534050Y02245110D01*
G37*
G36*
X02520140Y02231190D02*
X02561890Y02189430D01*
X02553530Y02181080D01*
X02511780Y02222840D01*
X02520140Y02231190D01*
G37*
G36*
X02506200Y02217270D02*
X02547970Y02175520D01*
X02539620Y02167160D01*
X02497850Y02208910D01*
X02506200Y02217270D01*
G37*
G36*
X02492300Y02203350D02*
X02534050Y02161590D01*
X02525690Y02153240D01*
X02483940Y02195000D01*
X02492300Y02203350D01*
G37*
G36*
X02478360Y02189430D02*
X02520130Y02147680D01*
X02511780Y02139320D01*
X02470010Y02181070D01*
X02478360Y02189430D01*
G37*
G36*
X02464460Y02175510D02*
X02506210Y02133750D01*
X02497850Y02125400D01*
X02456100Y02167160D01*
X02464460Y02175510D01*
G37*
G36*
X02450540Y02161590D02*
X02492290Y02119830D01*
X02483930Y02111480D01*
X02442180Y02153240D01*
X02450540Y02161590D01*
G37*
G36*
X02436620Y02147680D02*
X02478370Y02105910D01*
X02470010Y02097560D01*
X02428260Y02139330D01*
X02436620Y02147680D01*
G37*
G36*
X02422700Y02133750D02*
X02464450Y02091990D01*
X02456090Y02083640D01*
X02414340Y02125400D01*
X02422700Y02133750D01*
G37*
G36*
X02408780Y02119840D02*
X02450540Y02078070D01*
X02442180Y02069720D01*
X02400420Y02111490D01*
X02408780Y02119840D01*
G37*
G36*
X02394860Y02105910D02*
X02436610Y02064150D01*
X02428250Y02055800D01*
X02386500Y02097560D01*
X02394860Y02105910D01*
G37*
G36*
X02380940Y02092000D02*
X02422700Y02050230D01*
X02414340Y02041880D01*
X02372580Y02083650D01*
X02380940Y02092000D01*
G37*
G36*
X02592510Y01880430D02*
X02634260Y01838670D01*
X02625900Y01830320D01*
X02584150Y01872080D01*
X02592510Y01880430D01*
G37*
G36*
X02606420Y01894350D02*
X02648180Y01852580D01*
X02639820Y01844230D01*
X02598060Y01886000D01*
X02606420Y01894350D01*
G37*
G36*
X02620350Y01908270D02*
X02662100Y01866510D01*
X02653740Y01858160D01*
X02611990Y01899920D01*
X02620350Y01908270D01*
G37*
G36*
X02634260Y01922190D02*
X02676020Y01880420D01*
X02667660Y01872070D01*
X02625900Y01913840D01*
X02634260Y01922190D01*
G37*
G36*
X02648190Y01936110D02*
X02689940Y01894350D01*
X02681580Y01886000D01*
X02639830Y01927760D01*
X02648190Y01936110D01*
G37*
G36*
X02662100Y01950030D02*
X02703860Y01908260D01*
X02695500Y01899910D01*
X02653740Y01941680D01*
X02662100Y01950030D01*
G37*
G36*
X02676030Y01963950D02*
X02717780Y01922180D01*
X02709420Y01913830D01*
X02667670Y01955600D01*
X02676030Y01963950D01*
G37*
G36*
X02689940Y01977860D02*
X02731690Y01936100D01*
X02723330Y01927750D01*
X02681580Y01969510D01*
X02689940Y01977860D01*
G37*
G36*
X02703860Y01991790D02*
X02745620Y01950020D01*
X02737260Y01941670D01*
X02695500Y01983440D01*
X02703860Y01991790D01*
G37*
G36*
X02717780Y02005700D02*
X02759530Y01963940D01*
X02751170Y01955590D01*
X02709420Y01997350D01*
X02717780Y02005700D01*
G37*
G36*
X02731700Y02019630D02*
X02773460Y01977860D01*
X02765100Y01969510D01*
X02723340Y02011280D01*
X02731700Y02019630D01*
G37*
G36*
X02745620Y02033540D02*
X02787370Y01991780D01*
X02779010Y01983430D01*
X02737260Y02025190D01*
X02745620Y02033540D01*
G37*
G36*
X02759530Y02047460D02*
X02801290Y02005690D01*
X02792930Y01997340D01*
X02751170Y02039110D01*
X02759530Y02047460D01*
G37*
G36*
X02773450Y02061370D02*
X02815200Y02019610D01*
X02806840Y02011260D01*
X02765090Y02053020D01*
X02773450Y02061370D01*
G37*
G36*
X02787370Y02075300D02*
X02829130Y02033530D01*
X02820770Y02025180D01*
X02779010Y02066950D01*
X02787370Y02075300D01*
G37*
G36*
X02801290Y02089210D02*
X02843040Y02047450D01*
X02834680Y02039100D01*
X02792930Y02080860D01*
X02801290Y02089210D01*
G37*
G36*
X02815210Y02103140D02*
X02856970Y02061370D01*
X02848610Y02053020D01*
X02806850Y02094790D01*
X02815210Y02103140D01*
G37*
G36*
X02829130Y02117050D02*
X02870880Y02075290D01*
X02862520Y02066940D01*
X02820770Y02108700D01*
X02829130Y02117050D01*
G37*
G36*
X02843050Y02130970D02*
X02884800Y02089210D01*
X02876440Y02080860D01*
X02834690Y02122620D01*
X02843050Y02130970D01*
G37*
G36*
X02856970Y02144890D02*
X02898720Y02103130D01*
X02890360Y02094780D01*
X02848610Y02136540D01*
X02856970Y02144890D01*
G37*
G36*
X02870890Y02158810D02*
X02912640Y02117050D01*
X02904280Y02108700D01*
X02862530Y02150460D01*
X02870890Y02158810D01*
G37*
G36*
X02884810Y02172730D02*
X02926560Y02130960D01*
X02918200Y02122610D01*
X02876450Y02164380D01*
X02884810Y02172730D01*
G37*
G36*
X02898730Y02186650D02*
X02940480Y02144890D01*
X02932120Y02136540D01*
X02890370Y02178300D01*
X02898730Y02186650D01*
G37*
G36*
X02912640Y02200570D02*
X02954400Y02158800D01*
X02946040Y02150450D01*
X02904280Y02192220D01*
X02912640Y02200570D01*
G37*
G54D11*
X04417320Y02850390D02*
Y02842530D01*
X04346460Y02850390D02*
Y02842530D01*
G54D16*
X05397280Y01374930D02*
Y01365250D01*
X05338940Y01374930D02*
Y01365250D01*
G54D24*
X05507700Y01527720D02*
Y01507720D01*
X05481700Y01527720D02*
Y01507720D01*
X05456700Y01527720D02*
Y01507720D01*
Y01457720D02*
Y01437720D01*
X05481700Y01457720D02*
Y01437720D01*
X05507700Y01457720D02*
Y01437720D01*
G54D16*
X01362210Y02796180D02*
Y02786500D01*
X01420550Y02796180D02*
Y02786500D01*
X06101460Y02041700D02*
X06111140D01*
X06101460Y02100040D02*
X06111140D01*
X04625080Y00991420D02*
X04634760D01*
X04625080Y00933080D02*
X04634760D01*
X05563710Y01473350D02*
Y01463670D01*
X05622050Y01473350D02*
Y01463670D01*
G36*
X02112300Y01506530D02*
X02139180Y01533370D01*
X02159180Y01513340D01*
X02132300Y01486500D01*
X02112300Y01506530D01*
G37*
G36*
X02071050Y01547760D02*
X02097910Y01574630D01*
X02117930Y01554620D01*
X02091070Y01527750D01*
X02071050Y01547760D01*
G37*
G54D19*
X02401650Y02588180D02*
X02407650D01*
X02401650Y02639180D02*
X02407650D01*
X02331650Y02614180D02*
X02337650D01*
G54D16*
X02444880Y02725320D02*
Y02715640D01*
X02503220Y02725320D02*
Y02715640D01*
X01815680Y01284370D02*
Y01274690D01*
X01874020Y01284370D02*
Y01274690D01*
G54D11*
X02492140Y02586620D02*
X02500000D01*
X02492140Y02657480D02*
X02500000D01*
X02456690Y02791340D02*
Y02783480D01*
X02527550Y02791340D02*
Y02783480D01*
G36*
X02901150Y02042200D02*
X02928010Y02015330D01*
X02907990Y01995320D01*
X02881130Y02022190D01*
X02901150Y02042200D01*
G37*
G36*
X02942400Y02083450D02*
X02969260Y02056580D01*
X02949240Y02036570D01*
X02922380Y02063440D01*
X02942400Y02083450D01*
G37*
G36*
X02887890Y02282110D02*
X02914740Y02308970D01*
X02934760Y02288960D01*
X02907910Y02262100D01*
X02887890Y02282110D01*
G37*
G36*
X02846640Y02323360D02*
X02873490Y02350220D01*
X02893510Y02330210D01*
X02866660Y02303350D01*
X02846640Y02323360D01*
G37*
G54D11*
X01791350Y01566940D02*
X01799210D01*
X01791350Y01496080D02*
X01799210D01*
X01881900Y01397640D02*
Y01389780D01*
X01952760Y01397640D02*
Y01389780D01*
G54D16*
X01898350Y01642640D02*
Y01632960D01*
X01956690Y01642640D02*
Y01632960D01*
G54D10*
X01956320Y01574260D02*
Y01558260D01*
X01878320Y01574260D02*
Y01558260D01*
Y01492260D02*
Y01476260D01*
X01917320Y01492260D02*
Y01476260D01*
X01956320Y01492260D02*
Y01476260D01*
G54D18*
X01659920Y00696400D02*
X01702280D01*
X01659920Y00579200D02*
X01702280D01*
G54D17*
X04697790Y01011820D02*
X04703790D01*
X04697790Y00933820D02*
X04703790D01*
X04779790Y00972820D02*
X04785790D01*
G54D16*
X05781850Y01197760D02*
Y01188080D01*
X05840190Y01197760D02*
Y01188080D01*
G54D18*
X06255120Y00608310D02*
Y00548790D01*
X06075600Y00608310D02*
Y00548790D01*
G54D25*
X06155320Y00297250D02*
X06175400D01*
G54D23*
X00250000Y02862200D02*
Y02834640D01*
X00427160Y02862200D02*
Y02834640D01*
X00250000Y02503940D02*
Y02476380D01*
X00427160Y02503940D02*
Y02476380D01*
G54D18*
X01451260Y00696400D02*
X01493620D01*
X01451260Y00579200D02*
X01493620D01*
X06298760Y02092050D02*
Y02049690D01*
X06181560Y02092050D02*
Y02049690D01*
G54D16*
X05515040Y01581620D02*
Y01571940D01*
X05456700Y01581620D02*
Y01571940D01*
X01495350Y02878860D02*
Y02869180D01*
X01437010Y02878860D02*
Y02869180D01*
G54D26*
X05616150Y01257880D02*
Y01187020D01*
X05358270Y01257880D02*
Y01187020D01*
G54D16*
X02823560Y03087530D02*
Y03077850D01*
X02881900Y03087530D02*
Y03077850D01*
X03127600Y02449730D02*
Y02440050D01*
X03069260Y02449730D02*
Y02440050D01*
Y02390670D02*
Y02380990D01*
X03127600Y02390670D02*
Y02380990D01*
X02566030Y02586620D02*
X02575710D01*
X02566030Y02644960D02*
X02575710D01*
X04365240Y01425920D02*
X04374920D01*
X04365240Y01484260D02*
X04374920D01*
X04510910Y02803870D02*
X04520590D01*
X04510910Y02862210D02*
X04520590D01*
G36*
X02337620Y02048690D02*
X02379390Y02006940D01*
X02371040Y01998580D01*
X02329270Y02040330D01*
X02337620Y02048690D01*
G37*
G36*
X02323720Y02034770D02*
X02365470Y01993010D01*
X02357110Y01984660D01*
X02315360Y02026420D01*
X02323720Y02034770D01*
G37*
G36*
X02309800Y02020850D02*
X02351550Y01979090D01*
X02343190Y01970740D01*
X02301440Y02012500D01*
X02309800Y02020850D01*
G37*
G36*
X02295880Y02006930D02*
X02337630Y01965170D01*
X02329270Y01956820D01*
X02287520Y01998580D01*
X02295880Y02006930D01*
G37*
G36*
X02281960Y01993010D02*
X02323710Y01951250D01*
X02315350Y01942900D01*
X02273600Y01984660D01*
X02281960Y01993010D01*
G37*
G36*
X02268040Y01979100D02*
X02309790Y01937330D01*
X02301430Y01928980D01*
X02259680Y01970750D01*
X02268040Y01979100D01*
G37*
G36*
X02254120Y01965170D02*
X02295870Y01923410D01*
X02287510Y01915060D01*
X02245760Y01956820D01*
X02254120Y01965170D01*
G37*
G36*
X02240200Y01951260D02*
X02281960Y01909490D01*
X02273600Y01901140D01*
X02231840Y01942910D01*
X02240200Y01951260D01*
G37*
G36*
X02226280Y01937330D02*
X02268030Y01895570D01*
X02259670Y01887220D01*
X02217920Y01928980D01*
X02226280Y01937330D01*
G37*
G36*
X02212360Y01923420D02*
X02254120Y01881650D01*
X02245760Y01873300D01*
X02204000Y01915070D01*
X02212360Y01923420D01*
G37*
G36*
X02198440Y01909500D02*
X02240190Y01867730D01*
X02231830Y01859380D01*
X02190080Y01901150D01*
X02198440Y01909500D01*
G37*
G36*
X02184510Y01895580D02*
X02226280Y01853830D01*
X02217930Y01845470D01*
X02176160Y01887220D01*
X02184510Y01895580D01*
G37*
G36*
X02170610Y01881660D02*
X02212360Y01839900D01*
X02204000Y01831550D01*
X02162250Y01873310D01*
X02170610Y01881660D01*
G37*
G36*
X02156690Y01867750D02*
X02198450Y01825980D01*
X02190090Y01817630D01*
X02148330Y01859400D01*
X02156690Y01867750D01*
G37*
G36*
X02142770Y01853820D02*
X02184520Y01812060D01*
X02176160Y01803710D01*
X02134410Y01845470D01*
X02142770Y01853820D01*
G37*
G36*
X02128850Y01839910D02*
X02170610Y01798140D01*
X02162250Y01789790D01*
X02120490Y01831560D01*
X02128850Y01839910D01*
G37*
G36*
X02114930Y01825990D02*
X02156680Y01784220D01*
X02148320Y01775870D01*
X02106570Y01817640D01*
X02114930Y01825990D01*
G37*
G36*
X02101000Y01812070D02*
X02142770Y01770320D01*
X02134420Y01761960D01*
X02092650Y01803710D01*
X02101000Y01812070D01*
G37*
G36*
X02087090Y01798150D02*
X02128850Y01756380D01*
X02120490Y01748030D01*
X02078730Y01789800D01*
X02087090Y01798150D01*
G37*
G36*
X02073180Y01784230D02*
X02114930Y01742470D01*
X02106570Y01734120D01*
X02064820Y01775880D01*
X02073180Y01784230D01*
G37*
G36*
X02059250Y01770310D02*
X02101010Y01728540D01*
X02092650Y01720190D01*
X02050890Y01761960D01*
X02059250Y01770310D01*
G37*
G36*
X02045340Y01756390D02*
X02087090Y01714630D01*
X02078730Y01706280D01*
X02036980Y01748040D01*
X02045340Y01756390D01*
G37*
G36*
X02031400Y01742470D02*
X02073170Y01700720D01*
X02064820Y01692360D01*
X02023050Y01734110D01*
X02031400Y01742470D01*
G37*
G36*
X02017500Y01728550D02*
X02059250Y01686790D01*
X02050890Y01678440D01*
X02009140Y01720200D01*
X02017500Y01728550D01*
G37*
G36*
X02229060Y01516990D02*
X02270820Y01475220D01*
X02262460Y01466870D01*
X02220700Y01508640D01*
X02229060Y01516990D01*
G37*
G36*
X02242980Y01530900D02*
X02284730Y01489140D01*
X02276370Y01480790D01*
X02234620Y01522550D01*
X02242980Y01530900D01*
G37*
G36*
X02256900Y01544830D02*
X02298660Y01503060D01*
X02290300Y01494710D01*
X02248540Y01536480D01*
X02256900Y01544830D01*
G37*
G36*
X02270820Y01558740D02*
X02312570Y01516980D01*
X02304210Y01508630D01*
X02262460Y01550390D01*
X02270820Y01558740D01*
G37*
G36*
X02284730Y01572660D02*
X02326500Y01530910D01*
X02318150Y01522550D01*
X02276380Y01564300D01*
X02284730Y01572660D01*
G37*
G36*
X02298660Y01586580D02*
X02340410Y01544820D01*
X02332050Y01536470D01*
X02290300Y01578230D01*
X02298660Y01586580D01*
G37*
G36*
X02312580Y01600500D02*
X02354330Y01558740D01*
X02345970Y01550390D01*
X02304220Y01592150D01*
X02312580Y01600500D01*
G37*
G36*
X02326500Y01614420D02*
X02368250Y01572660D01*
X02359890Y01564310D01*
X02318140Y01606070D01*
X02326500Y01614420D01*
G37*
G36*
X02340420Y01628340D02*
X02382170Y01586580D01*
X02373810Y01578230D01*
X02332060Y01619990D01*
X02340420Y01628340D01*
G37*
G36*
X02354340Y01642260D02*
X02396090Y01600490D01*
X02387730Y01592140D01*
X02345980Y01633910D01*
X02354340Y01642260D01*
G37*
G36*
X02368260Y01656180D02*
X02410010Y01614420D01*
X02401650Y01606070D01*
X02359900Y01647830D01*
X02368260Y01656180D01*
G37*
G36*
X02382170Y01670100D02*
X02423930Y01628330D01*
X02415570Y01619980D01*
X02373810Y01661750D01*
X02382170Y01670100D01*
G37*
G36*
X02396090Y01684010D02*
X02437840Y01642250D01*
X02429480Y01633900D01*
X02387730Y01675660D01*
X02396090Y01684010D01*
G37*
G36*
X02410010Y01697930D02*
X02451760Y01656160D01*
X02443400Y01647810D01*
X02401650Y01689580D01*
X02410010Y01697930D01*
G37*
G36*
X02423930Y01711850D02*
X02465680Y01670090D01*
X02457320Y01661740D01*
X02415570Y01703500D01*
X02423930Y01711850D01*
G37*
G36*
X02437850Y01725770D02*
X02479600Y01684000D01*
X02471240Y01675650D01*
X02429490Y01717420D01*
X02437850Y01725770D01*
G37*
G36*
X02451770Y01739690D02*
X02493520Y01697930D01*
X02485160Y01689580D01*
X02443410Y01731340D01*
X02451770Y01739690D01*
G37*
G36*
X02465680Y01753610D02*
X02507440Y01711840D01*
X02499080Y01703490D01*
X02457320Y01745260D01*
X02465680Y01753610D01*
G37*
G36*
X02479610Y01767530D02*
X02521360Y01725770D01*
X02513000Y01717420D01*
X02471250Y01759180D01*
X02479610Y01767530D01*
G37*
G36*
X02493520Y01781450D02*
X02535280Y01739680D01*
X02526920Y01731330D01*
X02485160Y01773100D01*
X02493520Y01781450D01*
G37*
G36*
X02507450Y01795370D02*
X02549200Y01753600D01*
X02540840Y01745250D01*
X02499090Y01787020D01*
X02507450Y01795370D01*
G37*
G36*
X02521350Y01809280D02*
X02563120Y01767530D01*
X02554770Y01759170D01*
X02513000Y01800920D01*
X02521350Y01809280D01*
G37*
G36*
X02535280Y01823210D02*
X02577040Y01781440D01*
X02568680Y01773090D01*
X02526920Y01814860D01*
X02535280Y01823210D01*
G37*
G36*
X02549200Y01837120D02*
X02590950Y01795360D01*
X02582590Y01787010D01*
X02540840Y01828770D01*
X02549200Y01837120D01*
G37*
G54D16*
X04365240Y01279530D02*
X04374920D01*
X04365240Y01337870D02*
X04374920D01*
X01307090Y02796180D02*
Y02786500D01*
X01248750Y02796180D02*
Y02786500D01*
G54D23*
X04811030Y01783470D02*
X04838590D01*
X04811030Y01960630D02*
X04838590D01*
X05169290Y01783470D02*
X05196850D01*
X05169290Y01960630D02*
X05196850D01*
G54D20*
X04425200Y01311760D02*
Y01246760D01*
X04475200Y01311760D02*
Y01246760D01*
X04525200Y01311760D02*
Y01246760D01*
X04575200Y01311760D02*
Y01246760D01*
Y01516760D02*
Y01451760D01*
X04525200Y01516760D02*
Y01451760D01*
X04475200Y01516760D02*
Y01451760D01*
X04425200Y01516760D02*
Y01451760D01*
G54D16*
X01860600Y00508780D02*
Y00499100D01*
X01918940Y00508780D02*
Y00499100D01*
G54D18*
X01868590Y00696400D02*
X01910950D01*
X01868590Y00579200D02*
X01910950D01*
G54D16*
X03069260Y02331620D02*
Y02321940D01*
X03127600Y02331620D02*
Y02321940D01*
X02640830Y00627600D02*
X02650510D01*
X02640830Y00569260D02*
X02650510D01*
G54D18*
X02846460Y00619610D02*
Y00577250D01*
X02729260Y00619610D02*
Y00577250D01*
G54D27*
X03836630Y03496080D02*
X03891750D01*
X03234270D02*
X03289390D01*
G54D17*
X04780470Y01091300D02*
X04786470D01*
X04780470Y01169300D02*
X04786470D01*
X04698470Y01130300D02*
X04704470D01*
G54D16*
X04849490Y01148900D02*
X04859170D01*
X04849490Y01090560D02*
X04859170D01*
G54D11*
X03850400Y02460630D02*
Y02452770D01*
X03779540Y02460630D02*
Y02452770D01*
G54D28*
X04334750Y03036940D02*
Y02970940D01*
X04424750Y03036940D02*
Y02970940D01*
X04515750Y03036940D02*
Y02970940D01*
G54D29*
X04379750Y03247940D02*
X04469750D01*
G54D16*
X02758940Y03287400D02*
X02768620D01*
X02758940Y03229060D02*
X02768620D01*
X02703820Y03055120D02*
X02713500D01*
X02703820Y03113460D02*
X02713500D01*
X02951860Y03078030D02*
X02961540D01*
X02951860Y03019690D02*
X02961540D01*
X05446850Y01374930D02*
Y01365250D01*
X05505190Y01374930D02*
Y01365250D01*
X04148710Y02944890D02*
X04158390D01*
X04148710Y02886550D02*
X04158390D01*
X04219570D02*
X04229250D01*
X04219570Y02944890D02*
X04229250D01*
G54D14*
X01362210Y03078740D02*
Y03031500D01*
X01259850Y03078740D02*
Y03031500D01*
G54D16*
X00199880Y02330710D02*
X00209560D01*
X00199880Y02389050D02*
X00209560D01*
X00338580Y02367050D02*
Y02357370D01*
X00280240Y02367050D02*
Y02357370D01*
X01448820Y01284370D02*
Y01274690D01*
X01507160Y01284370D02*
Y01274690D01*
G54D11*
X01055130Y02944880D02*
Y02937020D01*
X01125990Y02944880D02*
Y02937020D01*
G54D16*
X04625080Y01351120D02*
X04634760D01*
X04625080Y01409460D02*
X04634760D01*
X04420360Y01633150D02*
X04430040D01*
X04420360Y01574810D02*
X04430040D01*
X04849490Y01030790D02*
X04859170D01*
X04849490Y00972450D02*
X04859170D01*
X01651930Y00508780D02*
Y00499100D01*
X01710270Y00508780D02*
Y00499100D01*
X01443270Y00508780D02*
Y00499100D01*
X01501610Y00508780D02*
Y00499100D01*
X03721190Y02386740D02*
Y02377060D01*
X03779530Y02386740D02*
Y02377060D01*
G54D19*
X05748970Y01387980D02*
X05754970D01*
X05748970Y01438980D02*
X05754970D01*
X05678970Y01413980D02*
X05684970D01*
G54D18*
X05140560Y00587050D02*
Y00527530D01*
X05320080Y00587050D02*
Y00527530D01*
G54D25*
X05220280Y00838590D02*
X05240360D01*
G54D19*
X02982120Y03600810D02*
X02988120D01*
X02982120Y03549810D02*
X02988120D01*
X03052120Y03574810D02*
X03058120D01*
G54D11*
X03555130Y03031500D02*
X03562990D01*
X03555130Y03102360D02*
X03562990D01*
G54D18*
X06298760Y02446380D02*
Y02404020D01*
X06181560Y02446380D02*
Y02404020D01*
G54D17*
X02382830Y02716540D02*
X02388830D01*
X02382830Y02794540D02*
X02388830D01*
X02300830Y02755540D02*
X02306830D01*
G54D12*
X01362210Y02735240D02*
Y02697840D01*
X01381900Y02735240D02*
Y02697840D01*
X01401580Y02735240D02*
Y02697840D01*
X01421270Y02735240D02*
Y02697840D01*
X01440950Y02735240D02*
Y02697840D01*
X01460640Y02735240D02*
Y02697840D01*
X01480320Y02735240D02*
Y02697840D01*
X01500010Y02735240D02*
Y02697840D01*
X01519690Y02735240D02*
Y02697840D01*
X01539380Y02735240D02*
Y02697840D01*
X01559060Y02735240D02*
Y02697840D01*
X01578750Y02735240D02*
Y02697840D01*
X01598430Y02735240D02*
Y02697840D01*
X01618120Y02735240D02*
Y02697840D01*
X01637800Y02735240D02*
Y02697840D01*
X01657490Y02735240D02*
Y02697840D01*
X01677170Y02735240D02*
Y02697840D01*
X01696860Y02735240D02*
Y02697840D01*
X01716540Y02735240D02*
Y02697840D01*
X01736230Y02735240D02*
Y02697840D01*
X01755910Y02735240D02*
Y02697840D01*
X01775600Y02735240D02*
Y02697840D01*
X01795280Y02735240D02*
Y02697840D01*
X01814970Y02735240D02*
Y02697840D01*
X01834650Y02735240D02*
Y02697840D01*
X01854340Y02735240D02*
Y02697840D01*
X01874020Y02735240D02*
Y02697840D01*
X01893710Y02735240D02*
Y02697840D01*
X01913390Y02735240D02*
Y02697840D01*
X01933080Y02735240D02*
Y02697840D01*
X01952760Y02735240D02*
Y02697840D01*
X01972450Y02735240D02*
Y02697840D01*
X01992130Y02735240D02*
Y02697840D01*
X02011820Y02735240D02*
Y02697840D01*
X02031500Y02735240D02*
Y02697840D01*
X02051190Y02735240D02*
Y02697840D01*
X02070870Y02735240D02*
Y02697840D01*
X02090560Y02735240D02*
Y02697840D01*
X02110240Y02735240D02*
Y02697840D01*
X02129930Y02735240D02*
Y02697840D01*
G54D30*
X01275600Y02640750D02*
X01309850D01*
G54D31*
X01260640Y02597050D02*
X01294100D01*
G54D30*
X02185050Y02640750D02*
X02218510D01*
G54D31*
X02200790Y02597050D02*
X02233470D01*
G54D16*
X02823560Y03229260D02*
Y03219580D01*
X02881900Y03229260D02*
Y03219580D01*
X02790440Y02506270D02*
X02800120D01*
X02790440Y02564610D02*
X02800120D01*
X00377050Y01897640D02*
X00386730D01*
X00377050Y01839300D02*
X00386730D01*
X04476380Y01583590D02*
Y01573910D01*
X04534720Y01583590D02*
Y01573910D01*
X05747130Y01517720D02*
X05756810D01*
X05747130Y01576060D02*
X05756810D01*
X05129920Y02300120D02*
Y02290440D01*
X05188260Y02300120D02*
Y02290440D01*
G54D11*
X05328370Y02299210D02*
Y02291350D01*
X05257510Y02299210D02*
Y02291350D01*
G54D22*
X01732880Y01220480D02*
X01778940D01*
X01732880Y01194890D02*
X01778940D01*
X01732880Y01169310D02*
X01778940D01*
X01732880Y01143720D02*
X01778940D01*
X01910040D02*
X01956100D01*
X01910040Y01169310D02*
X01956100D01*
X01910040Y01194890D02*
X01956100D01*
X01910040Y01220480D02*
X01956100D01*
G54D16*
X02306170Y01207950D02*
X02315850D01*
X02306170Y01149610D02*
X02315850D01*
G54D32*
X03646450Y02966230D02*
Y02917250D01*
X03626770Y02966230D02*
Y02917250D01*
X03607080Y02966230D02*
Y02917250D01*
X03587400Y02966230D02*
Y02917250D01*
X03567710Y02966230D02*
Y02917250D01*
X03548030Y02966230D02*
Y02917250D01*
X03528340Y02966230D02*
Y02917250D01*
X03508660Y02966230D02*
Y02917250D01*
X03488970Y02966230D02*
Y02917250D01*
X03469290Y02966230D02*
Y02917250D01*
X03449600Y02966230D02*
Y02917250D01*
X03429920Y02966230D02*
Y02917250D01*
X03410230Y02966230D02*
Y02917250D01*
X03390550Y02966230D02*
Y02917250D01*
X03370860Y02966230D02*
Y02917250D01*
X03351180Y02966230D02*
Y02917250D01*
X03227480Y02842520D02*
X03276460D01*
X03227480Y02822840D02*
X03276460D01*
X03227480Y02803150D02*
X03276460D01*
X03227480Y02783470D02*
X03276460D01*
X03227480Y02763780D02*
X03276460D01*
X03227480Y02744100D02*
X03276460D01*
X03227480Y02724410D02*
X03276460D01*
X03227480Y02704730D02*
X03276460D01*
X03227480Y02685040D02*
X03276460D01*
X03227480Y02665360D02*
X03276460D01*
X03227480Y02645670D02*
X03276460D01*
X03227480Y02625990D02*
X03276460D01*
X03227480Y02606300D02*
X03276460D01*
X03227480Y02586620D02*
X03276460D01*
X03227480Y02566930D02*
X03276460D01*
X03227480Y02547250D02*
X03276460D01*
X03351190Y02472530D02*
Y02423550D01*
X03370870Y02472530D02*
Y02423550D01*
X03390560Y02472530D02*
Y02423550D01*
X03410240Y02472530D02*
Y02423550D01*
X03429930Y02472530D02*
Y02423550D01*
X03449610Y02472530D02*
Y02423550D01*
X03469300Y02472530D02*
Y02423550D01*
X03488980Y02472530D02*
Y02423550D01*
X03508670Y02472530D02*
Y02423550D01*
X03528350Y02472530D02*
Y02423550D01*
X03548040Y02472530D02*
Y02423550D01*
X03567720Y02472530D02*
Y02423550D01*
X03587410Y02472530D02*
Y02423550D01*
X03607090Y02472530D02*
Y02423550D01*
X03626780Y02472530D02*
Y02423550D01*
X03646460Y02472530D02*
Y02423550D01*
X03721180Y02547260D02*
X03770160D01*
X03721180Y02566940D02*
X03770160D01*
X03721180Y02586630D02*
X03770160D01*
X03721180Y02606310D02*
X03770160D01*
X03721180Y02626000D02*
X03770160D01*
X03721180Y02645680D02*
X03770160D01*
X03721180Y02665370D02*
X03770160D01*
X03721180Y02685050D02*
X03770160D01*
X03721180Y02704740D02*
X03770160D01*
X03721180Y02724420D02*
X03770160D01*
X03721180Y02744110D02*
X03770160D01*
X03721180Y02763790D02*
X03770160D01*
X03721180Y02783480D02*
X03770160D01*
X03721180Y02803160D02*
X03770160D01*
X03721180Y02822850D02*
X03770160D01*
X03721180Y02842530D02*
X03770160D01*
G54D16*
X05955980Y01197760D02*
Y01188080D01*
X05897640Y01197760D02*
Y01188080D01*
X00258940Y02094490D02*
X00268620D01*
X00258940Y02152830D02*
X00268620D01*
X04258940Y02838590D02*
X04268620D01*
X04258940Y02780250D02*
X04268620D01*
X01593590Y01210280D02*
X01603270D01*
X01593590Y01151940D02*
X01603270D01*
G54D11*
X01448820Y02956690D02*
Y02948830D01*
X01519680Y02956690D02*
Y02948830D01*
G54D16*
X00409450Y01189890D02*
Y01180210D01*
X00467790Y01189890D02*
Y01180210D01*
X03625080Y03078030D02*
X03634760D01*
X03625080Y03019690D02*
X03634760D01*
X01041700Y01741070D02*
Y01731390D01*
X01100040Y01741070D02*
Y01731390D01*
X04865240Y01620440D02*
X04874920D01*
X04865240Y01678780D02*
X04874920D01*
X02050280Y03508600D02*
X02059960D01*
X02050280Y03566940D02*
X02059960D01*
M02*
