*
%FSLAX26Y26*%
%MOIN*%
%ADD10C,0.007900*%
%ADD11C,0.010000*%
%ADD12C,0.008000*%
%ADD13C,0.020000*%
%ADD14C,0.009800*%
%IPPOS*%
%LNsi.gbx*%
%LPD*%
G75*
G54D10*
X03734250Y01562990D02*
X03812990Y01484250D01*
X03517720Y01562990D02*
X03734250D01*
X03826770Y01425200D02*
X04080710D01*
Y01543310D01*
X03826770D01*
Y01425200D01*
X03238190Y01460630D02*
X03505910D01*
Y01620080D01*
X03238190D01*
Y01460630D01*
X03910120Y01493740D02*
Y01478000D01*
X03940280Y01493740D02*
Y01478000D01*
X03877280Y01493740D02*
Y01478000D01*
X03847120Y01493740D02*
Y01478000D01*
G54D11*
X04071240Y01649360D02*
Y01621532D01*
Y01583188D02*
Y01555360D01*
X03952240Y01649360D02*
X03956935D01*
X03997545D02*
X04071240D01*
X03952240D02*
Y01644652D01*
Y01610068D02*
Y01593652D01*
Y01559068D02*
Y01555360D01*
X03955065D01*
X03999415D02*
X04071240D01*
G54D10*
X03882560Y01610230D02*
Y01594490D01*
X03912720Y01610230D02*
Y01594490D01*
X04032160Y01493740D02*
Y01478000D01*
X04062320Y01493740D02*
Y01478000D01*
X03969170Y01493740D02*
Y01478000D01*
X03999330Y01493740D02*
Y01478000D01*
X04180430Y01871690D02*
Y01855950D01*
X04150270Y01871690D02*
Y01855950D01*
G54D11*
X04522010Y01599700D02*
Y01314700D01*
X04108010Y01599700D02*
X04522010D01*
X04108010D02*
Y01314700D01*
X04522010D01*
G54D10*
X04255240Y01871690D02*
Y01855950D01*
X04225080Y01871690D02*
Y01855950D01*
G54D12*
X04405520Y01730330D02*
X04444880D01*
X04405520Y01836610D02*
X04444880D01*
G54D10*
X03538070Y01894060D02*
Y01878320D01*
X03568230Y01894060D02*
Y01878320D01*
X03433430Y01993430D02*
X03449170D01*
X03433430Y01963270D02*
X03449170D01*
X03632560Y01896030D02*
Y01880290D01*
X03662720Y01896030D02*
Y01880290D01*
X03559720Y02010200D02*
Y01994460D01*
X03589880Y02010200D02*
Y01994460D01*
X03662720Y02010200D02*
Y01994460D01*
X03632560Y02010200D02*
Y01994460D01*
X04105630Y01813350D02*
Y01797610D01*
X04075470Y01813350D02*
Y01797610D01*
G54D11*
X03763620Y01792560D02*
Y01902320D01*
X04019840D01*
Y01792560D01*
X03763620D02*
X03866730D01*
X04019840D02*
X03916730D01*
G03X03866730Y01792560I-00025000J00000000D01*
G54D13*
X04243110Y02146920D02*
G01Y02231040D01*
G54D11*
X04313110Y02248040D01*
X04556110D01*
Y02129920D01*
X04313110D01*
X04243110Y02146920D02*
X04313110Y02129920D01*
G54D12*
X04405520Y01911430D02*
X04444880D01*
X04405520Y02017710D02*
X04444880D01*
G54D11*
X04126200Y02071500D02*
X04215845D01*
X04256555D02*
X04265200D01*
Y01943500D01*
X04126200D02*
X04215845D01*
X04256555D02*
X04265200D01*
X04126200Y02071500D02*
Y02024508D01*
Y01990492D02*
Y01943500D01*
X04075240Y01414400D02*
Y01367408D01*
Y01333392D02*
Y01286400D01*
X03936240Y01414400D02*
X03944885D01*
X03985595D02*
X04075240D01*
X03936240D02*
Y01286400D01*
X03944885D01*
X03985595D02*
X04075240D01*
X03317760Y00985160D02*
X03867760D01*
Y01135160D02*
Y00985160D01*
X03317760Y01135160D02*
X03464556D01*
X03488204D02*
X03867760D01*
X03317760D02*
Y00985160D01*
X03334426Y00810160D02*
X03867760D01*
Y00960160D02*
Y00810160D01*
X03317760Y00960160D02*
X03867760D01*
X03317760D02*
Y00822876D01*
X01927760Y00965160D02*
Y00865160D01*
X01827760Y00965160D02*
X01927760D01*
X01827760Y00865160D02*
X02018238D01*
X02036882D02*
X03227760D01*
Y01065160D02*
Y00865160D01*
X01827760Y01065160D02*
X03227760D01*
X01827760D02*
Y00865160D01*
X01452760Y00740160D02*
X02190999D01*
X02218461D02*
X03096509D01*
X03123971D02*
X03355604D01*
X03376676D02*
X03434344D01*
X03455416D02*
X04452760D01*
X01452760Y03840160D02*
Y03108221D01*
Y03080759D02*
Y02841246D01*
Y02820174D02*
Y01060981D01*
Y01033519D02*
Y00883811D01*
Y00856349D02*
Y00797201D01*
Y00769739D02*
Y00740160D01*
Y03840160D02*
X04452760D01*
Y02387485D01*
Y02384175D02*
Y02292995D01*
Y02289685D02*
Y02231429D01*
Y02146531D02*
Y02107955D01*
Y02104645D02*
Y02056775D01*
Y02053465D02*
Y02023123D01*
Y01906017D02*
Y01842023D01*
Y01724917D02*
Y01570704D01*
Y01342696D02*
Y00740160D01*
G54D12*
X03570860Y02208650D02*
Y02169290D01*
X03464580Y02208650D02*
Y02169290D01*
G54D11*
X03376470Y01934210D02*
X03448295D01*
X03492645D02*
X03495470D01*
Y01930502D01*
Y01895918D02*
Y01879502D01*
Y01844918D02*
Y01840210D01*
X03376470D02*
X03450165D01*
X03490775D02*
X03495470D01*
X03376470Y01934210D02*
Y01906382D01*
Y01868038D02*
Y01840210D01*
G54D12*
X03395660Y02208650D02*
Y02169290D01*
X03289380Y02208650D02*
Y02169290D01*
G54D10*
X02012480Y01840200D02*
Y01824460D01*
X02042640Y01840200D02*
Y01824460D01*
G54D14*
X00528350Y02968510D02*
Y03060603D01*
Y03120497D02*
Y03159033D01*
Y03218927D02*
Y03237773D01*
Y03297667D02*
Y03336203D01*
Y03396097D02*
Y03488190D01*
X00134650D02*
X00304125D01*
X00460345D02*
X00528350D01*
X00134650Y02968510D02*
X00303374D01*
X00459257D02*
X00528350D01*
G54D11*
X00216100Y02619120D02*
Y02572128D01*
Y02538112D02*
Y02491120D01*
X00305745D01*
X00346455D02*
X00355100D01*
Y02619120D02*
Y02491120D01*
X00216100Y02619120D02*
X00233772D01*
X00262288D02*
X00305745D01*
X00346455D02*
X00355100D01*
G54D12*
X00539380Y02891720D02*
X00578740D01*
X00539380Y02785440D02*
X00578740D01*
G54D11*
X00134150Y01721550D02*
X00681900D01*
Y02361550D02*
Y01721550D01*
X00134150Y02361550D02*
X00681900D01*
X00784650Y01886230D02*
Y02286230D01*
X00884650D01*
Y01886230D01*
X00784650D01*
Y01986230D02*
X00884650D01*
Y01886230D01*
G54D10*
X04879920Y01437010D02*
X05064960D01*
X04879920Y01649610D02*
X05064960D01*
G54D12*
X05434161Y01582670D02*
X05439839D01*
X05434161Y01527570D02*
X05439839D01*
G54D10*
X04879920Y01775600D02*
X04904813D01*
X04929827D02*
X05064960D01*
X04879920Y01988200D02*
X05064960D01*
G54D11*
X03557070Y00427170D02*
X04147630D01*
Y00112210D01*
X03557070Y00427170D02*
Y00112210D01*
X02848430Y00427180D02*
X03438990D01*
Y00112220D01*
X02848430Y00427180D02*
Y00112220D01*
G54D14*
X05996070Y01283280D02*
X06037377D01*
X06249453D02*
X06409460D01*
X05996070Y01645480D02*
Y01578051D01*
Y01350020D02*
Y01283280D01*
Y01645480D02*
X06409460D01*
X05424810Y00224030D02*
Y00823250D01*
Y00224030D02*
X05863258D01*
X05876902D02*
X05902628D01*
X05916272D02*
X05941998D01*
X05955642D02*
X05981368D01*
X05995012D02*
X06355388D01*
X06369032D02*
X06409060D01*
X05424810Y00823250D02*
X06409060D01*
G54D10*
X05572480Y01641070D02*
X05588220D01*
X05572480Y01610910D02*
X05588220D01*
X05572480Y01574140D02*
X05588220D01*
X05572480Y01543980D02*
X05588220D01*
X02431470Y02229020D02*
X02447210D01*
X02431470Y02259180D02*
X02447210D01*
G54D14*
X03771650Y02385830D02*
X04007870D01*
X03771650D02*
X03692910Y02307090D01*
Y02267766D01*
Y02110194D02*
Y02070870D01*
X03716553Y02047227D01*
X03732257Y02031523D02*
X03771650Y01992130D01*
X04007870D01*
X04071589Y02055849D01*
X04081951Y02066211D02*
X04086610Y02070870D01*
Y02307090D02*
Y02267766D01*
Y02110194D02*
Y02070870D01*
Y02307090D02*
X04082657Y02311043D01*
X04066943Y02326757D02*
X04007870Y02385830D01*
X05840160Y02129930D02*
Y02303150D01*
X05509460D02*
X05840160D01*
X05509460Y02129930D02*
Y02303150D01*
Y02129930D02*
X05840160D01*
X05408650Y02226390D02*
Y02379140D01*
X05252750Y02226390D02*
Y02379140D01*
X05424240Y02561030D02*
X05486610D01*
X05299520D02*
X05361880D01*
X05174790D02*
X05237160D01*
X05486610Y02379140D02*
Y02904340D01*
X05174790Y02379140D02*
Y02904340D01*
Y02379140D02*
X05486610D01*
X04082680Y03048240D02*
X04132856D01*
X04229364D02*
X04279540D01*
X04082680D02*
Y02708145D01*
Y02677695D02*
Y02591540D01*
X04132856D01*
X04229364D02*
X04279540D01*
Y03048240D02*
Y02591540D01*
G54D11*
X00134150Y00962110D02*
X00681900D01*
Y01602110D02*
Y00962110D01*
X00134150Y01602110D02*
X00681900D01*
X00185280Y00871460D02*
Y00824468D01*
Y00790452D02*
Y00743460D01*
X00274925D01*
X00315635D02*
X00324280D01*
Y00871460D02*
Y00743460D01*
X00185280Y00871460D02*
X00205968D01*
X00219232D02*
X00274925D01*
X00315635D02*
X00324280D01*
G54D14*
X01292140Y01326790D02*
Y01157490D01*
X01337420D01*
X01292140Y01326790D02*
X01337420D01*
X00990960Y00741550D02*
X01337420D01*
X01018261Y01742730D02*
X01337420D01*
X00990960Y01727350D02*
Y00741550D01*
X01337420Y01742730D02*
Y00741550D01*
G54D11*
X01431120Y00427190D02*
X02021680D01*
Y00112230D01*
X01431120Y00427190D02*
Y00112230D01*
X02139780Y00427180D02*
X02730340D01*
Y00112220D01*
X02139780Y00427180D02*
Y00112220D01*
G54D14*
X00885440Y00318900D02*
Y00114180D01*
X01240160Y00318900D02*
Y00114180D01*
X00885440Y00318900D02*
X01240160D01*
G54D10*
X02139750Y00445030D02*
X02154750D01*
Y00480030D01*
X02149750Y00485030D02*
X02154750Y00480030D01*
X02144750Y00485030D02*
X02149750D01*
X02139750Y00480030D02*
X02144750Y00485030D01*
X02166760Y00450030D02*
X02171760Y00445030D01*
X02181760D01*
X02186760Y00450030D01*
Y00480030D01*
X02181760Y00485030D02*
X02186760Y00480030D01*
X02171760Y00485030D02*
X02181760D01*
X02166760Y00480030D02*
X02171760Y00485030D01*
Y00465030D02*
X02186760D01*
X02198770Y00480030D02*
X02203770Y00485030D01*
X02198770Y00450030D02*
Y00480030D01*
Y00450030D02*
X02203770Y00445030D01*
X02213770D01*
X02218770Y00450030D01*
Y00480030D01*
X02213770Y00485030D02*
X02218770Y00480030D01*
X02203770Y00485030D02*
X02213770D01*
X02198770Y00475030D02*
X02218770Y00455030D01*
X02230780Y00450030D02*
X02235780Y00445030D01*
X02250780D01*
X02255780Y00450030D01*
Y00460030D01*
X02230780Y00485030D02*
X02255780Y00460030D01*
X02230780Y00485030D02*
X02255780D01*
X01431080Y00445030D02*
X01446080D01*
Y00480030D01*
X01441080Y00485030D02*
X01446080Y00480030D01*
X01436080Y00485030D02*
X01441080D01*
X01431080Y00480030D02*
X01436080Y00485030D01*
X01458090Y00450030D02*
X01463090Y00445030D01*
X01473090D01*
X01478090Y00450030D01*
Y00480030D01*
X01473090Y00485030D02*
X01478090Y00480030D01*
X01463090Y00485030D02*
X01473090D01*
X01458090Y00480030D02*
X01463090Y00485030D01*
Y00465030D02*
X01478090D01*
X01490100Y00480030D02*
X01495100Y00485030D01*
X01490100Y00450030D02*
Y00480030D01*
Y00450030D02*
X01495100Y00445030D01*
X01505100D01*
X01510100Y00450030D01*
Y00480030D01*
X01505100Y00485030D02*
X01510100Y00480030D01*
X01495100Y00485030D02*
X01505100D01*
X01490100Y00475030D02*
X01510100Y00455030D01*
X01522110Y00480030D02*
X01527110Y00485030D01*
X01522110Y00450030D02*
Y00480030D01*
Y00450030D02*
X01527110Y00445030D01*
X01537110D01*
X01542110Y00450030D01*
Y00480030D01*
X01537110Y00485030D02*
X01542110Y00480030D01*
X01527110Y00485030D02*
X01537110D01*
X01522110Y00475030D02*
X01542110Y00455030D01*
X02848420Y00445030D02*
X02863420D01*
Y00480030D01*
X02858420Y00485030D02*
X02863420Y00480030D01*
X02853420Y00485030D02*
X02858420D01*
X02848420Y00480030D02*
X02853420Y00485030D01*
X02875430Y00450030D02*
X02880430Y00445030D01*
X02890430D01*
X02895430Y00450030D01*
Y00480030D01*
X02890430Y00485030D02*
X02895430Y00480030D01*
X02880430Y00485030D02*
X02890430D01*
X02875430Y00480030D02*
X02880430Y00485030D01*
Y00465030D02*
X02895430D01*
X02907440Y00480030D02*
X02912440Y00485030D01*
X02907440Y00450030D02*
Y00480030D01*
Y00450030D02*
X02912440Y00445030D01*
X02922440D01*
X02927440Y00450030D01*
Y00480030D01*
X02922440Y00485030D02*
X02927440Y00480030D01*
X02912440Y00485030D02*
X02922440D01*
X02907440Y00475030D02*
X02927440Y00455030D01*
X02939450Y00465030D02*
X02959450Y00445030D01*
X02939450Y00465030D02*
X02964450D01*
X02959450Y00445030D02*
Y00485030D01*
X02101190Y01864200D02*
Y01879200D01*
X02096190Y01884200D02*
X02101190Y01879200D01*
X02066190Y01884200D02*
X02096190D01*
X02066190D02*
X02061190Y01879200D01*
Y01864200D02*
Y01879200D01*
X02101190Y01837190D02*
Y01847190D01*
X02061190Y01842190D02*
X02101190D01*
X02071190Y01852190D02*
X02061190Y01842190D01*
X02101190Y01810180D02*
Y01820180D01*
X02061190Y01815180D02*
X02101190D01*
X02071190Y01825180D02*
X02061190Y01815180D01*
X02101190Y01783170D02*
Y01793170D01*
X02061190Y01788170D02*
X02101190D01*
X02071190Y01798170D02*
X02061190Y01788170D01*
X03260010Y01582020D02*
Y01602020D01*
Y01582020D02*
X03265010Y01577020D01*
X03275010D01*
X03280010Y01582020D02*
X03275010Y01577020D01*
X03280010Y01582020D02*
Y01597020D01*
X03260010D02*
X03300010D01*
X03280010D02*
X03300010Y01577020D01*
X03265010Y01565010D02*
X03260010Y01560010D01*
Y01550010D02*
Y01560010D01*
Y01550010D02*
X03265010Y01545010D01*
X03295010D01*
X03300010Y01550010D02*
X03295010Y01545010D01*
X03300010Y01550010D02*
Y01560010D01*
X03295010Y01565010D02*
X03300010Y01560010D01*
X03280010Y01545010D02*
Y01560010D01*
X03265010Y01533000D02*
X03260010Y01528000D01*
Y01518000D02*
Y01528000D01*
Y01518000D02*
X03265010Y01513000D01*
X03295010D01*
X03300010Y01518000D02*
X03295010Y01513000D01*
X03300010Y01518000D02*
Y01528000D01*
X03295010Y01533000D02*
X03300010Y01528000D01*
X03280010Y01513000D02*
Y01528000D01*
X03295010Y01500990D02*
X03300010Y01495990D01*
X03265010Y01500990D02*
X03295010D01*
X03265010D02*
X03260010Y01495990D01*
Y01485990D02*
Y01495990D01*
Y01485990D02*
X03265010Y01480990D01*
X03295010D01*
X03300010Y01485990D02*
X03295010Y01480990D01*
X03300010Y01485990D02*
Y01495990D01*
X03290010Y01500990D02*
X03270010Y01480990D01*
X00994460Y00621410D02*
X01009460D01*
Y00656410D01*
X01004460Y00661410D02*
X01009460Y00656410D01*
X00999460Y00661410D02*
X01004460D01*
X00994460Y00656410D02*
X00999460Y00661410D01*
X01021470Y00626410D02*
X01026470Y00621410D01*
X01041470D01*
X01046470Y00626410D01*
Y00636410D01*
X01021470Y00661410D02*
X01046470Y00636410D01*
X01021470Y00661410D02*
X01046470D01*
X01058480Y00656410D02*
X01063480Y00661410D01*
X01058480Y00626410D02*
Y00656410D01*
Y00626410D02*
X01063480Y00621410D01*
X01073480D01*
X01078480Y00626410D01*
Y00656410D01*
X01073480Y00661410D02*
X01078480Y00656410D01*
X01063480Y00661410D02*
X01073480D01*
X01058480Y00651410D02*
X01078480Y00631410D01*
X01090490Y00626410D02*
X01095490Y00621410D01*
X01110490D01*
X01115490Y00626410D01*
Y00636410D01*
X01090490Y00661410D02*
X01115490Y00636410D01*
X01090490Y00661410D02*
X01115490D01*
X00886010Y00336770D02*
X00901010D01*
Y00371770D01*
X00896010Y00376770D02*
X00901010Y00371770D01*
X00891010Y00376770D02*
X00896010D01*
X00886010Y00371770D02*
X00891010Y00376770D01*
X00913020Y00341770D02*
X00918020Y00336770D01*
X00933020D01*
X00938020Y00341770D01*
Y00351770D01*
X00913020Y00376770D02*
X00938020Y00351770D01*
X00913020Y00376770D02*
X00938020D01*
X00950030Y00371770D02*
X00955030Y00376770D01*
X00950030Y00341770D02*
Y00371770D01*
Y00341770D02*
X00955030Y00336770D01*
X00965030D01*
X00970030Y00341770D01*
Y00371770D01*
X00965030Y00376770D02*
X00970030Y00371770D01*
X00955030Y00376770D02*
X00965030D01*
X00950030Y00366770D02*
X00970030Y00346770D01*
X00982040Y00341770D02*
X00987040Y00336770D01*
X00997040D01*
X01002040Y00341770D01*
Y00371770D01*
X00997040Y00376770D02*
X01002040Y00371770D01*
X00987040Y00376770D02*
X00997040D01*
X00982040Y00371770D02*
X00987040Y00376770D01*
Y00356770D02*
X01002040D01*
X00508930Y02770470D02*
X00523930D01*
X00503930Y02765470D02*
X00508930Y02770470D01*
X00503930Y02735470D02*
Y02765470D01*
Y02735470D02*
X00508930Y02730470D01*
X00523930D01*
X00535940Y02735470D02*
X00540940Y02730470D01*
X00555940D01*
X00560940Y02735470D01*
Y02745470D01*
X00535940Y02770470D02*
X00560940Y02745470D01*
X00535940Y02770470D02*
X00560940D01*
X00577950D02*
X00587950D01*
X00582950Y02730470D02*
Y02770470D01*
X00572950Y02740470D02*
X00582950Y02730470D01*
X00599960Y02765470D02*
X00604960Y02770470D01*
X00599960Y02755470D02*
Y02765470D01*
Y02755470D02*
X00604960Y02750470D01*
X00614960D01*
X00619960Y02755470D01*
Y02765470D01*
X00614960Y02770470D02*
X00619960Y02765470D01*
X00604960Y02770470D02*
X00614960D01*
X00599960Y02745470D02*
X00604960Y02750470D01*
X00599960Y02735470D02*
Y02745470D01*
Y02735470D02*
X00604960Y02730470D01*
X00614960D01*
X00619960Y02735470D01*
Y02745470D01*
X00614960Y02750470D02*
X00619960Y02745470D01*
X03322990Y01582720D02*
Y01602720D01*
Y01582720D02*
X03327990Y01577720D01*
X03337990D01*
X03342990Y01582720D02*
X03337990Y01577720D01*
X03342990Y01582720D02*
Y01597720D01*
X03322990D02*
X03362990D01*
X03342990D02*
X03362990Y01577720D01*
X03327990Y01565710D02*
X03322990Y01560710D01*
Y01550710D02*
Y01560710D01*
Y01550710D02*
X03327990Y01545710D01*
X03357990D01*
X03362990Y01550710D02*
X03357990Y01545710D01*
X03362990Y01550710D02*
Y01560710D01*
X03357990Y01565710D02*
X03362990Y01560710D01*
X03342990Y01545710D02*
Y01560710D01*
X03327990Y01533700D02*
X03322990Y01528700D01*
Y01513700D02*
Y01528700D01*
Y01513700D02*
X03327990Y01508700D01*
X03337990D01*
X03362990Y01533700D02*
X03337990Y01508700D01*
X03362990D02*
Y01533700D01*
X03322990Y01481690D02*
X03327990Y01476690D01*
X03322990Y01481690D02*
Y01491690D01*
X03327990Y01496690D02*
X03322990Y01491690D01*
X03327990Y01496690D02*
X03357990D01*
X03362990Y01491690D01*
X03342990Y01481690D02*
X03347990Y01476690D01*
X03342990Y01481690D02*
Y01496690D01*
X03362990Y01481690D02*
Y01491690D01*
Y01481690D02*
X03357990Y01476690D01*
X03347990D02*
X03357990D01*
X03531670Y01811780D02*
Y01831780D01*
Y01811780D02*
X03536670Y01806780D01*
X03546670D01*
X03551670Y01811780D02*
X03546670Y01806780D01*
X03551670Y01811780D02*
Y01826780D01*
X03531670D02*
X03571670D01*
X03551670D02*
X03571670Y01806780D01*
X03536670Y01794770D02*
X03531670Y01789770D01*
Y01779770D02*
Y01789770D01*
Y01779770D02*
X03536670Y01774770D01*
X03566670D01*
X03571670Y01779770D02*
X03566670Y01774770D01*
X03571670Y01779770D02*
Y01789770D01*
X03566670Y01794770D02*
X03571670Y01789770D01*
X03551670Y01774770D02*
Y01789770D01*
X03536670Y01762760D02*
X03531670Y01757760D01*
Y01747760D02*
Y01757760D01*
Y01747760D02*
X03536670Y01742760D01*
X03566670D01*
X03571670Y01747760D02*
X03566670Y01742760D01*
X03571670Y01747760D02*
Y01757760D01*
X03566670Y01762760D02*
X03571670Y01757760D01*
X03551670Y01742760D02*
Y01757760D01*
X03536670Y01730750D02*
X03531670Y01725750D01*
Y01710750D02*
Y01725750D01*
Y01710750D02*
X03536670Y01705750D01*
X03546670D01*
X03571670Y01730750D02*
X03546670Y01705750D01*
X03571670D02*
Y01730750D01*
X03626140Y01812320D02*
Y01832320D01*
Y01812320D02*
X03631140Y01807320D01*
X03641140D01*
X03646140Y01812320D02*
X03641140Y01807320D01*
X03646140Y01812320D02*
Y01827320D01*
X03626140D02*
X03666140D01*
X03646140D02*
X03666140Y01807320D01*
X03631140Y01795310D02*
X03626140Y01790310D01*
Y01780310D02*
Y01790310D01*
Y01780310D02*
X03631140Y01775310D01*
X03661140D01*
X03666140Y01780310D02*
X03661140Y01775310D01*
X03666140Y01780310D02*
Y01790310D01*
X03661140Y01795310D02*
X03666140Y01790310D01*
X03646140Y01775310D02*
Y01790310D01*
X03631140Y01763300D02*
X03626140Y01758300D01*
Y01743300D02*
Y01758300D01*
Y01743300D02*
X03631140Y01738300D01*
X03641140D01*
X03666140Y01763300D02*
X03641140Y01738300D01*
X03666140D02*
Y01763300D01*
Y01726290D02*
X03646140Y01706290D01*
X03631140D02*
X03646140D01*
X03626140Y01711290D02*
X03631140Y01706290D01*
X03626140Y01711290D02*
Y01721290D01*
X03631140Y01726290D02*
X03626140Y01721290D01*
X03631140Y01726290D02*
X03641140D01*
X03646140Y01721290D01*
Y01706290D02*
Y01721290D01*
X03483080Y01576810D02*
Y01591810D01*
X03478080Y01596810D02*
X03483080Y01591810D01*
X03448080Y01596810D02*
X03478080D01*
X03448080D02*
X03443080Y01591810D01*
Y01576810D02*
Y01591810D01*
X03448080Y01564800D02*
X03443080Y01559800D01*
Y01549800D02*
Y01559800D01*
Y01549800D02*
X03448080Y01544800D01*
X03478080D01*
X03483080Y01549800D02*
X03478080Y01544800D01*
X03483080Y01549800D02*
Y01559800D01*
X03478080Y01564800D02*
X03483080Y01559800D01*
X03463080Y01544800D02*
Y01559800D01*
X03483080Y01517790D02*
Y01527790D01*
X03443080Y01522790D02*
X03483080D01*
X03453080Y01532790D02*
X03443080Y01522790D01*
X03478080Y01505780D02*
X03483080Y01500780D01*
X03448080Y01505780D02*
X03478080D01*
X03448080D02*
X03443080Y01500780D01*
Y01490780D02*
Y01500780D01*
Y01490780D02*
X03448080Y01485780D01*
X03478080D01*
X03483080Y01490780D02*
X03478080Y01485780D01*
X03483080Y01490780D02*
Y01500780D01*
X03473080Y01505780D02*
X03453080Y01485780D01*
X03384010Y01582710D02*
Y01602710D01*
Y01582710D02*
X03389010Y01577710D01*
X03399010D01*
X03404010Y01582710D02*
X03399010Y01577710D01*
X03404010Y01582710D02*
Y01597710D01*
X03384010D02*
X03424010D01*
X03404010D02*
X03424010Y01577710D01*
X03389010Y01565700D02*
X03384010Y01560700D01*
Y01550700D02*
Y01560700D01*
Y01550700D02*
X03389010Y01545700D01*
X03419010D01*
X03424010Y01550700D02*
X03419010Y01545700D01*
X03424010Y01550700D02*
Y01560700D01*
X03419010Y01565700D02*
X03424010Y01560700D01*
X03404010Y01545700D02*
Y01560700D01*
X03389010Y01533690D02*
X03384010Y01528690D01*
Y01518690D02*
Y01528690D01*
Y01518690D02*
X03389010Y01513690D01*
X03419010D01*
X03424010Y01518690D02*
X03419010Y01513690D01*
X03424010Y01518690D02*
Y01528690D01*
X03419010Y01533690D02*
X03424010Y01528690D01*
X03404010Y01513690D02*
Y01528690D01*
X03424010Y01486680D02*
Y01496680D01*
X03384010Y01491680D02*
X03424010D01*
X03394010Y01501680D02*
X03384010Y01491680D01*
X03376470Y01787970D02*
Y01817970D01*
Y01787970D02*
X03381470Y01782970D01*
X03391470D01*
X03396470Y01787970D01*
Y01817970D01*
X03391470Y01822970D02*
X03396470Y01817970D01*
X03381470Y01822970D02*
X03391470D01*
X03376470Y01817970D02*
X03381470Y01822970D01*
X03386470Y01812970D02*
X03396470Y01822970D01*
X03408480Y01787970D02*
X03413480Y01782970D01*
X03423480D01*
X03428480Y01787970D01*
Y01817970D01*
X03423480Y01822970D02*
X03428480Y01817970D01*
X03413480Y01822970D02*
X03423480D01*
X03408480Y01817970D02*
X03413480Y01822970D01*
Y01802970D02*
X03428480D01*
X03440490Y01817970D02*
X03445490Y01822970D01*
X03440490Y01787970D02*
Y01817970D01*
Y01787970D02*
X03445490Y01782970D01*
X03455490D01*
X03460490Y01787970D01*
Y01817970D01*
X03455490Y01822970D02*
X03460490Y01817970D01*
X03445490Y01822970D02*
X03455490D01*
X03440490Y01812970D02*
X03460490Y01792970D01*
X03472500Y01817970D02*
X03477500Y01822970D01*
X03472500Y01807970D02*
Y01817970D01*
Y01807970D02*
X03477500Y01802970D01*
X03487500D01*
X03492500Y01807970D01*
Y01817970D01*
X03487500Y01822970D02*
X03492500Y01817970D01*
X03477500Y01822970D02*
X03487500D01*
X03472500Y01797970D02*
X03477500Y01802970D01*
X03472500Y01787970D02*
Y01797970D01*
Y01787970D02*
X03477500Y01782970D01*
X03487500D01*
X03492500Y01787970D01*
Y01797970D01*
X03487500Y01802970D02*
X03492500Y01797970D01*
X03278270Y01998830D02*
X03293270D01*
X03273270Y01993830D02*
X03278270Y01998830D01*
X03273270Y01963830D02*
Y01993830D01*
Y01963830D02*
X03278270Y01958830D01*
X03293270D01*
X03305280Y01963830D02*
X03310280Y01958830D01*
X03320280D01*
X03325280Y01963830D01*
Y01993830D01*
X03320280Y01998830D02*
X03325280Y01993830D01*
X03310280Y01998830D02*
X03320280D01*
X03305280Y01993830D02*
X03310280Y01998830D01*
Y01978830D02*
X03325280D01*
X03342290Y01998830D02*
X03352290D01*
X03347290Y01958830D02*
Y01998830D01*
X03337290Y01968830D02*
X03347290Y01958830D01*
X03364300Y01998830D02*
X03384300Y01978830D01*
Y01963830D02*
Y01978830D01*
X03379300Y01958830D02*
X03384300Y01963830D01*
X03369300Y01958830D02*
X03379300D01*
X03364300Y01963830D02*
X03369300Y01958830D01*
X03364300Y01963830D02*
Y01973830D01*
X03369300Y01978830D01*
X03384300D01*
X03512830Y02040920D02*
Y02058720D01*
Y02040920D02*
X03517280Y02036470D01*
X03526180D01*
X03530630Y02040920D02*
X03526180Y02036470D01*
X03530630Y02040920D02*
Y02054270D01*
X03512830D02*
X03548430D01*
X03530630D02*
X03548430Y02036470D01*
X03517280Y02025790D02*
X03512830Y02021340D01*
Y02012440D02*
Y02021340D01*
Y02012440D02*
X03517280Y02007990D01*
X03543980D01*
X03548430Y02012440D02*
X03543980Y02007990D01*
X03548430Y02012440D02*
Y02021340D01*
X03543980Y02025790D02*
X03548430Y02021340D01*
X03530630Y02007990D02*
Y02021340D01*
X03517280Y01997300D02*
X03512830Y01992850D01*
Y01979500D02*
Y01992850D01*
Y01979500D02*
X03517280Y01975050D01*
X03526180D01*
X03548430Y01997300D02*
X03526180Y01975050D01*
X03548430D02*
Y01997300D01*
Y01964360D02*
X03526180Y01942110D01*
X03512830D02*
X03526180D01*
X03512830D02*
Y01964360D01*
X04147790Y01788700D02*
Y01808700D01*
Y01788700D02*
X04152790Y01783700D01*
X04162790D01*
X04167790Y01788700D02*
X04162790Y01783700D01*
X04167790Y01788700D02*
Y01803700D01*
X04147790D02*
X04187790D01*
X04167790D02*
X04187790Y01783700D01*
X04152790Y01771690D02*
X04147790Y01766690D01*
Y01756690D02*
Y01766690D01*
Y01756690D02*
X04152790Y01751690D01*
X04182790D01*
X04187790Y01756690D02*
X04182790Y01751690D01*
X04187790Y01756690D02*
Y01766690D01*
X04182790Y01771690D02*
X04187790Y01766690D01*
X04167790Y01751690D02*
Y01766690D01*
X04152790Y01739680D02*
X04147790Y01734680D01*
Y01719680D02*
Y01734680D01*
Y01719680D02*
X04152790Y01714680D01*
X04162790D01*
X04187790Y01739680D02*
X04162790Y01714680D01*
X04187790D02*
Y01739680D01*
X04147790Y01682670D02*
Y01702670D01*
X04167790D01*
X04162790Y01697670D01*
Y01687670D02*
Y01697670D01*
Y01687670D02*
X04167790Y01682670D01*
X04170455D01*
X04182790Y01702670D02*
X04185656Y01699804D01*
X04264570Y01786730D02*
Y01801730D01*
X04259570Y01806730D02*
X04264570Y01801730D01*
X04229570Y01806730D02*
X04259570D01*
X04229570D02*
X04224570Y01801730D01*
Y01786730D02*
Y01801730D01*
X04229570Y01774720D02*
X04224570Y01769720D01*
Y01759720D02*
Y01769720D01*
Y01759720D02*
X04229570Y01754720D01*
X04259570D01*
X04264570Y01759720D02*
X04259570Y01754720D01*
X04264570Y01759720D02*
Y01769720D01*
X04259570Y01774720D02*
X04264570Y01769720D01*
X04244570Y01754720D02*
Y01769720D01*
X04259570Y01742710D02*
X04264570Y01737710D01*
X04229570Y01742710D02*
X04259570D01*
X04229570D02*
X04224570Y01737710D01*
Y01727710D02*
Y01737710D01*
Y01727710D02*
X04229570Y01722710D01*
X04259570D01*
X04264570Y01727710D02*
X04259570Y01722710D01*
X04264570Y01727710D02*
Y01737710D01*
X04254570Y01742710D02*
X04234570Y01722710D01*
X04259570Y01710700D02*
X04264570Y01705700D01*
X04249570Y01710700D02*
X04259570D01*
X04249570D02*
X04244570Y01705700D01*
Y01695700D02*
Y01705700D01*
Y01695700D02*
X04249570Y01690700D01*
X04259570D01*
X04264570Y01695700D02*
X04259570Y01690700D01*
X04264570Y01695700D02*
Y01705700D01*
X04239570Y01710700D02*
X04244570Y01705700D01*
X04229570Y01710700D02*
X04239570D01*
X04229570D02*
X04224570Y01705700D01*
Y01695700D02*
Y01705700D01*
Y01695700D02*
X04229570Y01690700D01*
X04239570D01*
X04244570Y01695700D02*
X04239570Y01690700D01*
X03950410Y01670450D02*
Y01670451D01*
Y01699629D02*
Y01700450D01*
Y01670450D02*
X03955410Y01665450D01*
X03965410D01*
X03970410Y01670450D01*
Y01700450D01*
X03965410Y01705450D02*
X03970410Y01700450D01*
X03955410Y01705450D02*
X03965410D01*
X03950410Y01700450D02*
X03955410Y01705450D01*
X03961737Y01696777D02*
X03970410Y01705450D01*
X03982420Y01670450D02*
X03987420Y01665450D01*
X03997420D01*
X04002420Y01670450D01*
Y01700450D01*
X03997420Y01705450D02*
X04002420Y01700450D01*
X03987420Y01705450D02*
X03997420D01*
X03982420Y01700450D02*
X03987420Y01705450D01*
Y01685450D02*
X04002420D01*
X04014430Y01700450D02*
X04019430Y01705450D01*
X04014430Y01670450D02*
Y01700450D01*
Y01670450D02*
X04019430Y01665450D01*
X04029430D01*
X04034430Y01670450D01*
Y01673229D01*
Y01696851D02*
Y01700450D01*
X04029430Y01705450D02*
X04034430Y01700450D01*
X04019430Y01705450D02*
X04029430D01*
X04014430Y01695450D02*
X04029187Y01680693D01*
X04046440Y01665450D02*
X04066440D01*
X04046440D02*
Y01670598D01*
X04057356Y01680450D02*
X04061440D01*
X04066440Y01685450D01*
Y01700450D01*
X04061440Y01705450D02*
X04066440Y01700450D01*
X04051440Y01705450D02*
X04061440D01*
X04046440Y01700450D02*
X04051440Y01705450D01*
X03822980Y01672920D02*
Y01692920D01*
Y01672920D02*
X03827980Y01667920D01*
X03837980D01*
X03842980Y01672920D02*
X03837980Y01667920D01*
X03842980Y01672920D02*
Y01687920D01*
X03822980D02*
X03862980D01*
X03842980D02*
X03862980Y01667920D01*
X03827980Y01655910D02*
X03822980Y01650910D01*
Y01640910D02*
Y01650910D01*
Y01640910D02*
X03827980Y01635910D01*
X03857980D01*
X03862980Y01640910D02*
X03857980Y01635910D01*
X03862980Y01640910D02*
Y01650910D01*
X03857980Y01655910D02*
X03862980Y01650910D01*
X03842980Y01635910D02*
Y01650910D01*
X03827980Y01623900D02*
X03822980Y01618900D01*
Y01603900D02*
Y01618900D01*
Y01603900D02*
X03827980Y01598900D01*
X03837980D01*
X03862980Y01623900D02*
X03837980Y01598900D01*
X03862980D02*
Y01623900D01*
X03842980Y01586890D02*
X03822980Y01566890D01*
X03842980Y01561890D02*
Y01586890D01*
X03822980Y01566890D02*
X03862980D01*
X04101180Y01956020D02*
Y01971020D01*
X04096180Y01976020D02*
X04101180Y01971020D01*
X04066180Y01976020D02*
X04096180D01*
X04066180D02*
X04061180Y01971020D01*
Y01956020D02*
Y01971020D01*
X04066180Y01944010D02*
X04061180Y01939010D01*
Y01929010D02*
Y01939010D01*
Y01929010D02*
X04066180Y01924010D01*
X04096180D01*
X04101180Y01929010D02*
X04096180Y01924010D01*
X04101180Y01929010D02*
Y01939010D01*
X04096180Y01944010D02*
X04101180Y01939010D01*
X04081180Y01924010D02*
Y01939010D01*
X04101180Y01897000D02*
Y01907000D01*
X04061180Y01902000D02*
X04101180D01*
X04071180Y01912000D02*
X04061180Y01902000D01*
X04101180Y01884990D02*
X04076180Y01859990D01*
X04061180D02*
X04076180D01*
X04061180D02*
Y01884990D01*
X03763460Y01917520D02*
Y01952520D01*
X03768460Y01957520D01*
X03778460D01*
X03783460Y01952520D01*
Y01917520D02*
Y01952520D01*
X03795470Y01922520D02*
X03800470Y01917520D01*
X03810470D01*
X03815470Y01922520D01*
Y01952520D01*
X03810470Y01957520D02*
X03815470Y01952520D01*
X03800470Y01957520D02*
X03810470D01*
X03795470Y01952520D02*
X03800470Y01957520D01*
Y01937520D02*
X03815470D01*
X03827480Y01952520D02*
X03832480Y01957520D01*
X03827480Y01922520D02*
Y01952520D01*
Y01922520D02*
X03832480Y01917520D01*
X03842480D01*
X03847480Y01922520D01*
Y01952520D01*
X03842480Y01957520D02*
X03847480Y01952520D01*
X03832480Y01957520D02*
X03842480D01*
X03827480Y01947520D02*
X03847480Y01927520D01*
X03859490Y01922520D02*
X03864490Y01917520D01*
X03879490D01*
X03884490Y01922520D01*
Y01932520D01*
X03859490Y01957520D02*
X03884490Y01932520D01*
X03859490Y01957520D02*
X03884490D01*
X03709860Y02025180D02*
Y02038530D01*
X03705410Y02042980D02*
X03709860Y02038530D01*
X03678710Y02042980D02*
X03705410D01*
X03678710D02*
X03674260Y02038530D01*
Y02025180D02*
Y02038530D01*
X03678710Y02014500D02*
X03674260Y02010050D01*
Y02001150D02*
Y02010050D01*
Y02001150D02*
X03678710Y01996700D01*
X03705410D01*
X03709860Y02001150D02*
X03705410Y01996700D01*
X03709860Y02001150D02*
Y02010050D01*
X03705410Y02014500D02*
X03709860Y02010050D01*
X03692060Y01996700D02*
Y02010050D01*
X03705410Y01986010D02*
X03709860Y01981560D01*
X03678710Y01986010D02*
X03705410D01*
X03678710D02*
X03674260Y01981560D01*
Y01972660D02*
Y01981560D01*
Y01972660D02*
X03678710Y01968210D01*
X03705410D01*
X03709860Y01972660D02*
X03705410Y01968210D01*
X03709860Y01972660D02*
Y01981560D01*
X03700960Y01986010D02*
X03683160Y01968210D01*
X03709860Y01957520D02*
X03692060Y01939720D01*
X03678710D02*
X03692060D01*
X03674260Y01944170D02*
X03678710Y01939720D01*
X03674260Y01944170D02*
Y01953070D01*
X03678710Y01957520D02*
X03674260Y01953070D01*
X03678710Y01957520D02*
X03687610D01*
X03692060Y01953070D01*
Y01939720D02*
Y01953070D01*
X03557100Y00445040D02*
X03572100D01*
Y00480040D01*
X03567100Y00485040D02*
X03572100Y00480040D01*
X03562100Y00485040D02*
X03567100D01*
X03557100Y00480040D02*
X03562100Y00485040D01*
X03584110Y00450040D02*
X03589110Y00445040D01*
X03599110D01*
X03604110Y00450040D01*
Y00480040D01*
X03599110Y00485040D02*
X03604110Y00480040D01*
X03589110Y00485040D02*
X03599110D01*
X03584110Y00480040D02*
X03589110Y00485040D01*
Y00465040D02*
X03604110D01*
X03616120Y00480040D02*
X03621120Y00485040D01*
X03616120Y00450040D02*
Y00480040D01*
Y00450040D02*
X03621120Y00445040D01*
X03631120D01*
X03636120Y00450040D01*
Y00480040D01*
X03631120Y00485040D02*
X03636120Y00480040D01*
X03621120Y00485040D02*
X03631120D01*
X03616120Y00475040D02*
X03636120Y00455040D01*
X03648130Y00445040D02*
X03668130D01*
X03648130D02*
Y00465040D01*
X03653130Y00460040D01*
X03663130D01*
X03668130Y00465040D01*
Y00480040D01*
X03663130Y00485040D02*
X03668130Y00480040D01*
X03653130Y00485040D02*
X03663130D01*
X03648130Y00480040D02*
X03653130Y00485040D01*
X04338580Y00683230D02*
Y00718230D01*
X04343580Y00723230D01*
X04353580D01*
X04358580Y00718230D01*
Y00683230D02*
Y00718230D01*
X04375590Y00723230D02*
X04385590D01*
X04380590Y00683230D02*
Y00723230D01*
X04370590Y00693230D02*
X04380590Y00683230D01*
X04397600Y00718230D02*
X04402600Y00723230D01*
X04397600Y00688230D02*
Y00718230D01*
Y00688230D02*
X04402600Y00683230D01*
X04412600D01*
X04417600Y00688230D01*
Y00718230D01*
X04412600Y00723230D02*
X04417600Y00718230D01*
X04402600Y00723230D02*
X04412600D01*
X04397600Y00713230D02*
X04417600Y00693230D01*
X04429610Y00688230D02*
X04434610Y00683230D01*
X04444610D01*
X04449610Y00688230D01*
Y00718230D01*
X04444610Y00723230D02*
X04449610Y00718230D01*
X04434610Y00723230D02*
X04444610D01*
X04429610Y00718230D02*
X04434610Y00723230D01*
Y00703230D02*
X04449610D01*
X03943540Y01231110D02*
Y01271110D01*
X03958540Y01231110D02*
X03963540Y01236110D01*
Y01266110D01*
X03958540Y01271110D02*
X03963540Y01266110D01*
X03938540Y01271110D02*
X03958540D01*
X03938540Y01231110D02*
X03958540D01*
X03975550Y01236110D02*
X03980550Y01231110D01*
X03990550D01*
X03995550Y01236110D01*
Y01266110D01*
X03990550Y01271110D02*
X03995550Y01266110D01*
X03980550Y01271110D02*
X03990550D01*
X03975550Y01266110D02*
X03980550Y01271110D01*
Y01251110D02*
X03995550D01*
X04007560Y01266110D02*
X04012560Y01271110D01*
X04007560Y01236110D02*
Y01266110D01*
Y01236110D02*
X04012560Y01231110D01*
X04022560D01*
X04027560Y01236110D01*
Y01266110D01*
X04022560Y01271110D02*
X04027560Y01266110D01*
X04012560Y01271110D02*
X04022560D01*
X04007560Y01261110D02*
X04027560Y01241110D01*
X04039570Y01231110D02*
X04059570D01*
X04039570D02*
Y01251110D01*
X04044570Y01246110D01*
X04054570D01*
X04059570Y01251110D01*
Y01266110D01*
X04054570Y01271110D02*
X04059570Y01266110D01*
X04044570Y01271110D02*
X04054570D01*
X04039570Y01266110D02*
X04044570Y01271110D01*
X05429120Y00167490D02*
X05444120D01*
Y00202490D01*
X05439120Y00207490D02*
X05444120Y00202490D01*
X05434120Y00207490D02*
X05439120D01*
X05429120Y00202490D02*
X05434120Y00207490D01*
X05456130Y00172490D02*
X05461130Y00167490D01*
X05471130D01*
X05476130Y00172490D01*
Y00202490D01*
X05471130Y00207490D02*
X05476130Y00202490D01*
X05461130Y00207490D02*
X05471130D01*
X05456130Y00202490D02*
X05461130Y00207490D01*
Y00187490D02*
X05476130D01*
X05488140Y00202490D02*
X05493140Y00207490D01*
X05488140Y00172490D02*
Y00202490D01*
Y00172490D02*
X05493140Y00167490D01*
X05503140D01*
X05508140Y00172490D01*
Y00202490D01*
X05503140Y00207490D02*
X05508140Y00202490D01*
X05493140Y00207490D02*
X05503140D01*
X05488140Y00197490D02*
X05508140Y00177490D01*
X05520150Y00172490D02*
X05525150Y00167490D01*
X05535150D01*
X05540150Y00172490D01*
Y00202490D01*
X05535150Y00207490D02*
X05540150Y00202490D01*
X05525150Y00207490D02*
X05535150D01*
X05520150Y00202490D02*
X05525150Y00207490D01*
Y00187490D02*
X05540150D01*
X00165370Y02911580D02*
X00180370D01*
Y02946580D01*
X00175370Y02951580D02*
X00180370Y02946580D01*
X00170370Y02951580D02*
X00175370D01*
X00165370Y02946580D02*
X00170370Y02951580D01*
X00192380Y02916580D02*
X00197380Y02911580D01*
X00212380D01*
X00217380Y02916580D01*
Y02926580D01*
X00192380Y02951580D02*
X00217380Y02926580D01*
X00192380Y02951580D02*
X00217380D01*
X00229390Y02946580D02*
X00234390Y02951580D01*
X00229390Y02916580D02*
Y02946580D01*
Y02916580D02*
X00234390Y02911580D01*
X00244390D01*
X00249390Y02916580D01*
Y02946580D01*
X00244390Y02951580D02*
X00249390Y02946580D01*
X00234390Y02951580D02*
X00244390D01*
X00229390Y02941580D02*
X00249390Y02921580D01*
X00261400Y02911580D02*
X00281400D01*
X00261400D02*
Y02931580D01*
X00266400Y02926580D01*
X00276400D01*
X00281400Y02931580D01*
Y02946580D01*
X00276400Y02951580D02*
X00281400Y02946580D01*
X00266400Y02951580D02*
X00276400D01*
X00261400Y02946580D02*
X00266400Y02951580D01*
X00228970Y02437810D02*
Y02477810D01*
X00243970Y02437810D02*
X00248970Y02442810D01*
Y02472810D01*
X00243970Y02477810D02*
X00248970Y02472810D01*
X00223970Y02477810D02*
X00243970D01*
X00223970Y02437810D02*
X00243970D01*
X00260980Y02442810D02*
X00265980Y02437810D01*
X00275980D01*
X00280980Y02442810D01*
Y02472810D01*
X00275980Y02477810D02*
X00280980Y02472810D01*
X00265980Y02477810D02*
X00275980D01*
X00260980Y02472810D02*
X00265980Y02477810D01*
Y02457810D02*
X00280980D01*
X00292990Y02472810D02*
X00297990Y02477810D01*
X00292990Y02442810D02*
Y02472810D01*
Y02442810D02*
X00297990Y02437810D01*
X00307990D01*
X00312990Y02442810D01*
Y02472810D01*
X00307990Y02477810D02*
X00312990Y02472810D01*
X00297990Y02477810D02*
X00307990D01*
X00292990Y02467810D02*
X00312990Y02447810D01*
X00330000Y02477810D02*
X00340000D01*
X00335000Y02449730D02*
Y02477810D01*
X00325000Y02447810D02*
X00329266Y02443544D01*
X00699790Y01054270D02*
Y01069270D01*
Y01054270D02*
X00734790D01*
X00739790Y01059270D02*
X00734790Y01054270D01*
X00739790Y01059270D02*
Y01064270D01*
X00734790Y01069270D02*
X00739790Y01064270D01*
X00704790Y01042260D02*
X00699790Y01037260D01*
Y01022260D02*
Y01037260D01*
Y01022260D02*
X00704790Y01017260D01*
X00714790D01*
X00739790Y01042260D02*
X00714790Y01017260D01*
X00739790D02*
Y01042260D01*
X00734790Y01005250D02*
X00739790Y01000250D01*
X00704790Y01005250D02*
X00734790D01*
X00704790D02*
X00699790Y01000250D01*
Y00990250D02*
Y01000250D01*
Y00990250D02*
X00704790Y00985250D01*
X00734790D01*
X00739790Y00990250D02*
X00734790Y00985250D01*
X00739790Y00990250D02*
Y01000250D01*
X00729790Y01005250D02*
X00709790Y00985250D01*
X00739790Y00958240D02*
Y00968240D01*
X00699790Y00963240D02*
X00739790D01*
X00709790Y00973240D02*
X00699790Y00963240D01*
X00699380Y01821990D02*
Y01836990D01*
Y01821990D02*
X00734380D01*
X00739380Y01826990D02*
X00734380Y01821990D01*
X00739380Y01826990D02*
Y01831990D01*
X00734380Y01836990D02*
X00739380Y01831990D01*
X00704380Y01809980D02*
X00699380Y01804980D01*
Y01789980D02*
Y01804980D01*
Y01789980D02*
X00704380Y01784980D01*
X00714380D01*
X00739380Y01809980D02*
X00714380Y01784980D01*
X00739380D02*
Y01809980D01*
X00734380Y01772970D02*
X00739380Y01767970D01*
X00704380Y01772970D02*
X00734380D01*
X00704380D02*
X00699380Y01767970D01*
Y01757970D02*
Y01767970D01*
Y01757970D02*
X00704380Y01752970D01*
X00734380D01*
X00739380Y01757970D02*
X00734380Y01752970D01*
X00739380Y01757970D02*
Y01767970D01*
X00729380Y01772970D02*
X00709380Y01752970D01*
X00734380Y01740960D02*
X00739380Y01735960D01*
X00704380Y01740960D02*
X00734380D01*
X00704380D02*
X00699380Y01735960D01*
Y01725960D02*
Y01735960D01*
Y01725960D02*
X00704380Y01720960D01*
X00734380D01*
X00739380Y01725960D02*
X00734380Y01720960D01*
X00739380Y01725960D02*
Y01735960D01*
X00729380Y01740960D02*
X00709380Y01720960D01*
X00787810Y01829150D02*
X00802810D01*
Y01864150D01*
X00797810Y01869150D02*
X00802810Y01864150D01*
X00792810Y01869150D02*
X00797810D01*
X00787810Y01864150D02*
X00792810Y01869150D01*
X00814820Y01834150D02*
X00819820Y01829150D01*
X00834820D01*
X00839820Y01834150D01*
Y01844150D01*
X00814820Y01869150D02*
X00839820Y01844150D01*
X00814820Y01869150D02*
X00839820D01*
X00851830Y01864150D02*
X00856830Y01869150D01*
X00851830Y01834150D02*
Y01864150D01*
Y01834150D02*
X00856830Y01829150D01*
X00866830D01*
X00869013Y01831333D01*
X00871830Y01849404D02*
Y01864150D01*
X00866830Y01869150D02*
X00871830Y01864150D01*
X00856830Y01869150D02*
X00866830D01*
X00851830Y01859150D02*
X00867836Y01843144D01*
X00896516Y01836474D02*
X00903840Y01829150D01*
X00892216Y01849150D02*
X00908840D01*
X00903840Y01829150D02*
Y01869150D01*
X02388490Y02211420D02*
X02403490D01*
X02383490Y02206420D02*
X02388490Y02211420D01*
X02383490Y02176420D02*
Y02206420D01*
Y02176420D02*
X02388490Y02171420D01*
X02403490D01*
X02420500Y02211420D02*
X02430500D01*
X02425500Y02171420D02*
Y02211420D01*
X02415500Y02181420D02*
X02425500Y02171420D01*
X02442510Y02206420D02*
X02447510Y02211420D01*
X02442510Y02176420D02*
Y02206420D01*
Y02176420D02*
X02447510Y02171420D01*
X02457510D01*
X02462510Y02176420D01*
Y02206420D01*
X02457510Y02211420D02*
X02462510Y02206420D01*
X02447510Y02211420D02*
X02457510D01*
X02442510Y02201420D02*
X02462510Y02181420D01*
X02474520Y02211420D02*
X02494520Y02191420D01*
Y02176420D02*
Y02191420D01*
X02489520Y02171420D02*
X02494520Y02176420D01*
X02479520Y02171420D02*
X02489520D01*
X02474520Y02176420D02*
X02479520Y02171420D01*
X02474520Y02176420D02*
Y02186420D01*
X02479520Y02191420D01*
X02494520D01*
X00198160Y00686210D02*
Y00726210D01*
X00213160Y00686210D02*
X00218160Y00691210D01*
Y00721210D01*
X00213160Y00726210D02*
X00218160Y00721210D01*
X00193160Y00726210D02*
X00213160D01*
X00193160Y00686210D02*
X00213160D01*
X00230170Y00691210D02*
X00235170Y00686210D01*
X00245170D01*
X00250170Y00691210D01*
Y00721210D01*
X00245170Y00726210D02*
X00250170Y00721210D01*
X00235170Y00726210D02*
X00245170D01*
X00230170Y00721210D02*
X00235170Y00726210D01*
Y00706210D02*
X00250170D01*
X00262180Y00721210D02*
X00267180Y00726210D01*
X00262180Y00691210D02*
Y00721210D01*
Y00691210D02*
X00267180Y00686210D01*
X00277180D01*
X00282180Y00691210D01*
Y00721210D01*
X00277180Y00726210D02*
X00282180Y00721210D01*
X00267180Y00726210D02*
X00277180D01*
X00262180Y00716210D02*
X00282180Y00696210D01*
X00294190Y00691210D02*
X00299190Y00686210D01*
X00309190D01*
X00314190Y00691210D01*
Y00721210D01*
X00309190Y00726210D02*
X00314190Y00721210D01*
X00299190Y00726210D02*
X00309190D01*
X00294190Y00721210D02*
X00299190Y00726210D01*
Y00706210D02*
X00314190D01*
X03773640Y02403710D02*
Y02443710D01*
X03793640D01*
X03805650Y02408710D02*
X03810650Y02403710D01*
X03820650D01*
X03825650Y02408710D01*
Y02438710D01*
X03820650Y02443710D02*
X03825650Y02438710D01*
X03810650Y02443710D02*
X03820650D01*
X03805650Y02438710D02*
X03810650Y02443710D01*
Y02423710D02*
X03825650D01*
X03837660Y02438710D02*
X03842660Y02443710D01*
X03837660Y02408710D02*
Y02438710D01*
Y02408710D02*
X03842660Y02403710D01*
X03852660D01*
X03857660Y02408710D01*
Y02438710D01*
X03852660Y02443710D02*
X03857660Y02438710D01*
X03842660Y02443710D02*
X03852660D01*
X03837660Y02433710D02*
X03857660Y02413710D01*
X03869670Y02438710D02*
X03874670Y02443710D01*
X03869670Y02408710D02*
Y02438710D01*
Y02408710D02*
X03874670Y02403710D01*
X03884670D01*
X03889670Y02408710D01*
Y02438710D01*
X03884670Y02443710D02*
X03889670Y02438710D01*
X03874670Y02443710D02*
X03884670D01*
X03869670Y02433710D02*
X03889670Y02413710D01*
X05506050Y02476330D02*
Y02491330D01*
Y02476330D02*
X05541050D01*
X05546050Y02481330D02*
X05541050Y02476330D01*
X05546050Y02481330D02*
Y02486330D01*
X05541050Y02491330D02*
X05546050Y02486330D01*
X05511050Y02464320D02*
X05506050Y02459320D01*
Y02449320D02*
Y02459320D01*
Y02449320D02*
X05511050Y02444320D01*
X05541050D01*
X05546050Y02449320D02*
X05541050Y02444320D01*
X05546050Y02449320D02*
Y02459320D01*
X05541050Y02464320D02*
X05546050Y02459320D01*
X05526050Y02444320D02*
Y02459320D01*
X05541050Y02432310D02*
X05546050Y02427310D01*
X05511050Y02432310D02*
X05541050D01*
X05511050D02*
X05506050Y02427310D01*
Y02417310D02*
Y02427310D01*
Y02417310D02*
X05511050Y02412310D01*
X05541050D01*
X05546050Y02417310D02*
X05541050Y02412310D01*
X05546050Y02417310D02*
Y02427310D01*
X05536050Y02432310D02*
X05516050Y02412310D01*
X05506050Y02385300D02*
X05511050Y02380300D01*
X05506050Y02385300D02*
Y02395300D01*
X05511050Y02400300D02*
X05506050Y02395300D01*
X05511050Y02400300D02*
X05541050D01*
X05546050Y02395300D01*
X05526050Y02385300D02*
X05531050Y02380300D01*
X05526050Y02385300D02*
Y02400300D01*
X05546050Y02385300D02*
Y02395300D01*
Y02385300D02*
X05541050Y02380300D01*
X05531050D02*
X05541050D01*
X04544920Y01598800D02*
X04574920D01*
X04544920D02*
X04539920Y01593800D01*
Y01583800D02*
Y01593800D01*
Y01583800D02*
X04544920Y01578800D01*
X04574920D01*
X04579920Y01583800D02*
X04574920Y01578800D01*
X04579920Y01583800D02*
Y01593800D01*
X04574920Y01598800D02*
X04579920Y01593800D01*
X04569920Y01588800D02*
X04579920Y01578800D01*
X04544920Y01566790D02*
X04539920Y01561790D01*
Y01551790D02*
Y01561790D01*
Y01551790D02*
X04544920Y01546790D01*
X04574920D01*
X04579920Y01551790D02*
X04574920Y01546790D01*
X04579920Y01551790D02*
Y01561790D01*
X04574920Y01566790D02*
X04579920Y01561790D01*
X04559920Y01546790D02*
Y01561790D01*
X04574920Y01534780D02*
X04579920Y01529780D01*
X04544920Y01534780D02*
X04574920D01*
X04544920D02*
X04539920Y01529780D01*
Y01519780D02*
Y01529780D01*
Y01519780D02*
X04544920Y01514780D01*
X04574920D01*
X04579920Y01519780D02*
X04574920Y01514780D01*
X04579920Y01519780D02*
Y01529780D01*
X04569920Y01534780D02*
X04549920Y01514780D01*
X04539920Y01487770D02*
X04544920Y01482770D01*
X04539920Y01487770D02*
Y01497770D01*
X04544920Y01502770D02*
X04539920Y01497770D01*
X04544920Y01502770D02*
X04574920D01*
X04579920Y01497770D01*
X04559920Y01487770D02*
X04564920Y01482770D01*
X04559920Y01487770D02*
Y01502770D01*
X04579920Y01487770D02*
Y01497770D01*
Y01487770D02*
X04574920Y01482770D01*
X04564920D02*
X04574920D01*
X05377950Y01474580D02*
X05397950D01*
X05402950Y01479580D01*
Y01489580D01*
X05397950Y01494580D02*
X05402950Y01489580D01*
X05382950Y01494580D02*
X05397950D01*
X05382950Y01474580D02*
Y01514580D01*
Y01494580D02*
X05402950Y01514580D01*
X05414960Y01479580D02*
X05419960Y01474580D01*
X05429960D01*
X05434960Y01479580D01*
Y01509580D01*
X05429960Y01514580D02*
X05434960Y01509580D01*
X05419960Y01514580D02*
X05429960D01*
X05414960Y01509580D02*
X05419960Y01514580D01*
Y01494580D02*
X05434960D01*
X05451970Y01514580D02*
X05461970D01*
X05456970Y01474580D02*
Y01514580D01*
X05446970Y01484580D02*
X05456970Y01474580D01*
X05488980D02*
X05493980Y01479580D01*
X05478980Y01474580D02*
X05488980D01*
X05473980Y01479580D02*
X05478980Y01474580D01*
X05473980Y01479580D02*
Y01509580D01*
X05478980Y01514580D01*
X05488980Y01494580D02*
X05493980Y01499580D01*
X05473980Y01494580D02*
X05488980D01*
X05478980Y01514580D02*
X05488980D01*
X05493980Y01509580D01*
Y01499580D02*
Y01509580D01*
X05718910Y02073020D02*
Y02113020D01*
Y02073020D02*
X05738910D01*
X05718910Y02093020D02*
X05733910D01*
X05750920Y02078020D02*
X05755920Y02073020D01*
X05765920D01*
X05770920Y02078020D01*
Y02108020D01*
X05765920Y02113020D02*
X05770920Y02108020D01*
X05755920Y02113020D02*
X05765920D01*
X05750920Y02108020D02*
X05755920Y02113020D01*
Y02093020D02*
X05770920D01*
X05782930Y02108020D02*
X05787930Y02113020D01*
X05782930Y02078020D02*
Y02108020D01*
Y02078020D02*
X05787930Y02073020D01*
X05797930D01*
X05802930Y02078020D01*
Y02108020D01*
X05797930Y02113020D02*
X05802930Y02108020D01*
X05787930Y02113020D02*
X05797930D01*
X05782930Y02103020D02*
X05802930Y02083020D01*
X05814940Y02093020D02*
X05834940Y02073020D01*
X05814940Y02093020D02*
X05839940D01*
X05834940Y02073020D02*
Y02113020D01*
X06271630Y01226740D02*
X06286630D01*
Y01261740D01*
X06281630Y01266740D02*
X06286630Y01261740D01*
X06276630Y01266740D02*
X06281630D01*
X06271630Y01261740D02*
X06276630Y01266740D01*
X06298640Y01231740D02*
X06303640Y01226740D01*
X06313640D01*
X06318640Y01231740D01*
Y01261740D01*
X06313640Y01266740D02*
X06318640Y01261740D01*
X06303640Y01266740D02*
X06313640D01*
X06298640Y01261740D02*
X06303640Y01266740D01*
Y01246740D02*
X06318640D01*
X06330650Y01261740D02*
X06335650Y01266740D01*
X06330650Y01231740D02*
Y01261740D01*
Y01231740D02*
X06335650Y01226740D01*
X06345650D01*
X06350650Y01231740D01*
Y01261740D01*
X06345650Y01266740D02*
X06350650Y01261740D01*
X06335650Y01266740D02*
X06345650D01*
X06330650Y01256740D02*
X06350650Y01236740D01*
X06367660Y01266740D02*
X06377660D01*
X06372660Y01226740D02*
Y01266740D01*
X06362660Y01236740D02*
X06372660Y01226740D01*
X05640130Y01607710D02*
X05660130D01*
X05665130Y01612710D01*
Y01622710D01*
X05660130Y01627710D02*
X05665130Y01622710D01*
X05645130Y01627710D02*
X05660130D01*
X05645130Y01607710D02*
Y01647710D01*
Y01627710D02*
X05665130Y01647710D01*
X05677140Y01612710D02*
X05682140Y01607710D01*
X05692140D01*
X05697140Y01612710D01*
Y01642710D01*
X05692140Y01647710D02*
X05697140Y01642710D01*
X05682140Y01647710D02*
X05692140D01*
X05677140Y01642710D02*
X05682140Y01647710D01*
Y01627710D02*
X05697140D01*
X05709150Y01612710D02*
X05714150Y01607710D01*
X05729150D01*
X05734150Y01612710D01*
Y01622710D01*
X05709150Y01647710D02*
X05734150Y01622710D01*
X05709150Y01647710D02*
X05734150D01*
X05746160Y01642710D02*
X05751160Y01647710D01*
X05746160Y01612710D02*
Y01642710D01*
Y01612710D02*
X05751160Y01607710D01*
X05761160D01*
X05766160Y01612710D01*
Y01642710D01*
X05761160Y01647710D02*
X05766160Y01642710D01*
X05751160Y01647710D02*
X05761160D01*
X05746160Y01637710D02*
X05766160Y01617710D01*
X05649770Y01581490D02*
X05664770D01*
X05644770Y01576490D02*
X05649770Y01581490D01*
X05644770Y01546490D02*
Y01576490D01*
Y01546490D02*
X05649770Y01541490D01*
X05664770D01*
X05676780Y01546490D02*
X05681780Y01541490D01*
X05691780D01*
X05696780Y01546490D01*
Y01576490D01*
X05691780Y01581490D02*
X05696780Y01576490D01*
X05681780Y01581490D02*
X05691780D01*
X05676780Y01576490D02*
X05681780Y01581490D01*
Y01561490D02*
X05696780D01*
X05708790Y01576490D02*
X05713790Y01581490D01*
X05708790Y01546490D02*
Y01576490D01*
Y01546490D02*
X05713790Y01541490D01*
X05723790D01*
X05728790Y01546490D01*
Y01576490D01*
X05723790Y01581490D02*
X05728790Y01576490D01*
X05713790Y01581490D02*
X05723790D01*
X05708790Y01571490D02*
X05728790Y01551490D01*
X05740800Y01561490D02*
X05760800Y01541490D01*
X05740800Y01561490D02*
X05765800D01*
X05760800Y01541490D02*
Y01581490D01*
X04297410Y02709660D02*
X04302410D01*
X04327410Y02684660D01*
X04337410D01*
X04327410Y02709660D02*
X04337410D01*
X04327410D02*
X04302410Y02684660D01*
X04297410D02*
X04302410D01*
Y02672650D02*
X04297410Y02667650D01*
Y02652650D02*
Y02667650D01*
Y02652650D02*
X04302410Y02647650D01*
X04312410D01*
X04337410Y02672650D02*
X04312410Y02647650D01*
X04337410D02*
Y02672650D01*
X04332410Y02635640D02*
X04337410Y02630640D01*
X04302410Y02635640D02*
X04332410D01*
X04302410D02*
X04297410Y02630640D01*
Y02620640D02*
Y02630640D01*
Y02620640D02*
X04302410Y02615640D01*
X04332410D01*
X04337410Y02620640D02*
X04332410Y02615640D01*
X04337410Y02620640D02*
Y02630640D01*
X04327410Y02635640D02*
X04307410Y02615640D01*
X04337410Y02588630D02*
Y02598630D01*
X04297410Y02593630D02*
X04337410D01*
X04307410Y02603630D02*
X04297410Y02593630D01*
X03622830Y02320560D02*
Y02335560D01*
X03617830Y02340560D02*
X03622830Y02335560D01*
X03587830Y02340560D02*
X03617830D01*
X03587830D02*
X03582830Y02335560D01*
Y02320560D02*
Y02335560D01*
X03587830Y02308550D02*
X03582830Y02303550D01*
Y02293550D02*
Y02303550D01*
Y02293550D02*
X03587830Y02288550D01*
X03617830D01*
X03622830Y02293550D02*
X03617830Y02288550D01*
X03622830Y02293550D02*
Y02303550D01*
X03617830Y02308550D02*
X03622830Y02303550D01*
X03602830Y02288550D02*
Y02303550D01*
X03622830Y02261540D02*
Y02271540D01*
X03582830Y02266540D02*
X03622830D01*
X03592830Y02276540D02*
X03582830Y02266540D01*
X03602830Y02249530D02*
X03582830Y02229530D01*
X03602830Y02224530D02*
Y02249530D01*
X03582830Y02229530D02*
X03622830D01*
X03276380Y02325467D02*
Y02337550D01*
X03271380Y02342550D02*
X03276380Y02337550D01*
X03241380Y02342550D02*
X03271380D01*
X03241380D02*
X03236380Y02337550D01*
Y02322550D02*
Y02337550D01*
X03241380Y02310540D02*
X03236380Y02305540D01*
Y02295540D02*
Y02305540D01*
Y02295540D02*
X03241380Y02290540D01*
X03271380D01*
X03276380Y02295540D02*
X03271380Y02290540D01*
X03276380Y02295540D02*
Y02296593D01*
X03256380Y02290540D02*
Y02305540D01*
X03276380Y02263530D02*
Y02273530D01*
X03236380Y02268530D02*
X03276380D01*
X03246380Y02278530D02*
X03236380Y02268530D01*
X03241380Y02251520D02*
X03236380Y02246520D01*
Y02236520D02*
Y02246520D01*
Y02236520D02*
X03241380Y02231520D01*
X03271380D01*
X03276380Y02236520D02*
X03271380Y02231520D01*
X03276380Y02236520D02*
Y02246520D01*
X03271380Y02251520D02*
X03276380Y02246520D01*
X03256380Y02231520D02*
Y02246520D01*
X04901570Y02002120D02*
Y02042120D01*
Y02002120D02*
X04921570D01*
X04901570Y02022120D02*
X04916570D01*
X04933580Y02007120D02*
X04938580Y02002120D01*
X04948580D01*
X04953580Y02007120D01*
Y02037120D01*
X04948580Y02042120D02*
X04953580Y02037120D01*
X04938580Y02042120D02*
X04948580D01*
X04933580Y02037120D02*
X04938580Y02042120D01*
Y02022120D02*
X04953580D01*
X04965590Y02037120D02*
X04970590Y02042120D01*
X04965590Y02007120D02*
Y02037120D01*
Y02007120D02*
X04970590Y02002120D01*
X04980590D01*
X04985590Y02007120D01*
Y02037120D01*
X04980590Y02042120D02*
X04985590Y02037120D01*
X04970590Y02042120D02*
X04980590D01*
X04965590Y02032120D02*
X04985590Y02012120D01*
X04997600Y02007120D02*
X05002600Y02002120D01*
X05012600D01*
X05017600Y02007120D01*
Y02037120D01*
X05012600Y02042120D02*
X05017600Y02037120D01*
X05002600Y02042120D02*
X05012600D01*
X04997600Y02037120D02*
X05002600Y02042120D01*
Y02022120D02*
X05017600D01*
X04901580Y01663540D02*
Y01703540D01*
Y01663540D02*
X04921580D01*
X04901580Y01683540D02*
X04916580D01*
X04933590Y01668540D02*
X04938590Y01663540D01*
X04948590D01*
X04953590Y01668540D01*
Y01698540D01*
X04948590Y01703540D02*
X04953590Y01698540D01*
X04938590Y01703540D02*
X04948590D01*
X04933590Y01698540D02*
X04938590Y01703540D01*
Y01683540D02*
X04953590D01*
X04965600Y01698540D02*
X04970600Y01703540D01*
X04965600Y01668540D02*
Y01698540D01*
Y01668540D02*
X04970600Y01663540D01*
X04980600D01*
X04985600Y01668540D01*
Y01698540D01*
X04980600Y01703540D02*
X04985600Y01698540D01*
X04970600Y01703540D02*
X04980600D01*
X04965600Y01693540D02*
X04985600Y01673540D01*
X04997610Y01668540D02*
X05002610Y01663540D01*
X05017610D01*
X05022610Y01668540D01*
Y01678540D01*
X04997610Y01703540D02*
X05022610Y01678540D01*
X04997610Y01703540D02*
X05022610D01*
X04561820Y01814650D02*
Y01829650D01*
X04556820Y01834650D02*
X04561820Y01829650D01*
X04526820Y01834650D02*
X04556820D01*
X04526820D02*
X04521820Y01829650D01*
Y01814650D02*
Y01829650D01*
X04526820Y01802640D02*
X04521820Y01797640D01*
Y01787640D02*
Y01797640D01*
Y01787640D02*
X04526820Y01782640D01*
X04556820D01*
X04561820Y01787640D02*
X04556820Y01782640D01*
X04561820Y01787640D02*
Y01797640D01*
X04556820Y01802640D02*
X04561820Y01797640D01*
X04541820Y01782640D02*
Y01797640D01*
X04556820Y01770630D02*
X04561820Y01765630D01*
X04526820Y01770630D02*
X04556820D01*
X04526820D02*
X04521820Y01765630D01*
Y01755630D02*
Y01765630D01*
Y01755630D02*
X04526820Y01750630D01*
X04556820D01*
X04561820Y01755630D02*
X04556820Y01750630D01*
X04561820Y01755630D02*
Y01765630D01*
X04551820Y01770630D02*
X04531820Y01750630D01*
X04561820Y01738620D02*
X04536820Y01713620D01*
X04521820D02*
X04536820D01*
X04521820D02*
Y01738620D01*
X04574420Y02245010D02*
X04614420D01*
X04574420Y02230010D02*
X04579420Y02225010D01*
X04609420D01*
X04614420Y02230010D02*
X04609420Y02225010D01*
X04614420Y02230010D02*
Y02250010D01*
X04574420Y02230010D02*
Y02250010D01*
X04577657Y02194763D02*
X04579420Y02193000D01*
X04609420D01*
X04614420Y02198000D02*
X04609420Y02193000D01*
X04614420Y02198000D02*
Y02208000D01*
X04609420Y02213000D02*
X04614420Y02208000D01*
X04594420Y02193000D02*
Y02199686D01*
X04609420Y02180990D02*
X04614420Y02175990D01*
X04579420Y02180990D02*
X04609420D01*
X04579420D02*
X04574420Y02175990D01*
Y02165990D02*
Y02175990D01*
Y02165990D02*
X04579420Y02160990D01*
X04609420D01*
X04614420Y02165990D02*
X04609420Y02160990D01*
X04614420Y02165990D02*
Y02175990D01*
X04604420Y02180990D02*
X04584420Y02160990D01*
X04579420Y02148980D02*
X04574420Y02143980D01*
Y02128980D02*
Y02143980D01*
Y02128980D02*
X04579420Y02123980D01*
X04589420D01*
X04614420Y02148980D02*
X04589420Y02123980D01*
X04614420D02*
Y02148980D01*
X04561810Y01993780D02*
Y02008780D01*
X04556810Y02013780D02*
X04561810Y02008780D01*
X04526810Y02013780D02*
X04556810D01*
X04526810D02*
X04521810Y02008780D01*
Y01993780D02*
Y02008780D01*
X04526810Y01981770D02*
X04521810Y01976770D01*
Y01966770D02*
Y01976770D01*
Y01966770D02*
X04526810Y01961770D01*
X04556810D01*
X04561810Y01966770D02*
X04556810Y01961770D01*
X04561810Y01966770D02*
Y01976770D01*
X04556810Y01981770D02*
X04561810Y01976770D01*
X04541810Y01961770D02*
Y01976770D01*
X04556810Y01949760D02*
X04561810Y01944760D01*
X04526810Y01949760D02*
X04556810D01*
X04526810D02*
X04521810Y01944760D01*
Y01934760D02*
Y01944760D01*
Y01934760D02*
X04526810Y01929760D01*
X04556810D01*
X04561810Y01934760D02*
X04556810Y01929760D01*
X04561810Y01934760D02*
Y01944760D01*
X04551810Y01949760D02*
X04531810Y01929760D01*
X04521810Y01902750D02*
X04526810Y01897750D01*
X04521810Y01902750D02*
Y01912750D01*
X04526810Y01917750D02*
X04521810Y01912750D01*
X04526810Y01917750D02*
X04556810D01*
X04561810Y01912750D01*
X04541810Y01902750D02*
X04546810Y01897750D01*
X04541810Y01902750D02*
Y01917750D01*
X04561810Y01902750D02*
Y01912750D01*
Y01902750D02*
X04556810Y01897750D01*
X04546810D02*
X04556810D01*
X04284960Y02072630D02*
X04314960D01*
X04284960D02*
X04279960Y02067630D01*
Y02057630D02*
Y02067630D01*
Y02057630D02*
X04284960Y02052630D01*
X04314960D01*
X04319960Y02057630D02*
X04314960Y02052630D01*
X04319960Y02057630D02*
Y02067630D01*
X04314960Y02072630D02*
X04319960Y02067630D01*
X04309960Y02062630D02*
X04319960Y02052630D01*
X04284960Y02040620D02*
X04279960Y02035620D01*
Y02025620D02*
Y02035620D01*
Y02025620D02*
X04284960Y02020620D01*
X04314960D01*
X04319960Y02025620D02*
X04314960Y02020620D01*
X04319960Y02025620D02*
Y02035620D01*
X04314960Y02040620D02*
X04319960Y02035620D01*
X04299960Y02020620D02*
Y02035620D01*
X04314960Y02008610D02*
X04319960Y02003610D01*
X04284960Y02008610D02*
X04314960D01*
X04284960D02*
X04279960Y02003610D01*
Y01993610D02*
Y02003610D01*
Y01993610D02*
X04284960Y01988610D01*
X04314960D01*
X04319960Y01993610D02*
X04314960Y01988610D01*
X04319960Y01993610D02*
Y02003610D01*
X04309960Y02008610D02*
X04289960Y01988610D01*
X04319960Y01976600D02*
X04294960Y01951600D01*
X04279960D02*
X04294960D01*
X04279960D02*
Y01976600D01*
M02*
