*
%FSLAX26Y26*%
%MOIN*%
%ADD10R,0.034000X0.034000*%
%ADD11R,0.028300X0.028300*%
%ADD12R,0.013000X0.013000*%
%ADD13R,0.051200X0.051200*%
%ADD14R,0.029000X0.029000*%
%ADD15R,0.068900X0.068900*%
%ADD16R,0.056000X0.056000*%
%ADD17R,0.122000X0.122000*%
%ADD18R,0.080700X0.080700*%
%ADD19R,0.044100X0.044100*%
%ADD20R,0.070900X0.070900*%
%ADD21R,0.090600X0.090600*%
%IPPOS*%
%LNsp.gbx*%
%LPD*%
G75*
G54D10*
X04233200Y02046500D02*
X04239200D01*
X04233200Y01968500D02*
X04239200D01*
X04151200Y02007500D02*
X04157200D01*
G54D11*
X03642800Y01973160D02*
X03652480D01*
X03642800Y02031500D02*
X03652480D01*
G54D12*
X03780120Y01809060D02*
X03826180D01*
X03780120Y01834650D02*
X03826180D01*
X03780120Y01860230D02*
X03826180D01*
X03780120Y01885820D02*
X03826180D01*
X03957280D02*
X04003340D01*
X03957280Y01860230D02*
X04003340D01*
X03957280Y01834650D02*
X04003340D01*
X03957280Y01809060D02*
X04003340D01*
G54D13*
X03314970Y02129920D02*
X03370070D01*
X03314970Y02248020D02*
X03370070D01*
X04366150Y01811020D02*
Y01755920D01*
X04484250Y01811020D02*
Y01755920D01*
X04366150Y01992120D02*
Y01937020D01*
X04484250Y01992120D02*
Y01937020D01*
G54D14*
X03467470Y01913210D02*
X03473470D01*
X03467470Y01862210D02*
X03473470D01*
X03397470Y01887210D02*
X03403470D01*
G54D13*
X03490170Y02129920D02*
X03545270D01*
X03490170Y02248020D02*
X03545270D01*
G54D15*
X04297250Y02188980D02*
X04332680D01*
X04466540D02*
X04501970D01*
G54D11*
X04085710Y01776310D02*
X04095390D01*
X04085710Y01834650D02*
X04095390D01*
G54D13*
X00618110Y02866130D02*
Y02811030D01*
X00500010Y02866130D02*
Y02811030D01*
G54D11*
X03979410Y01456700D02*
X03989090D01*
X03979410Y01515040D02*
X03989090D01*
X04042400Y01456700D02*
X04052080D01*
X04042400Y01515040D02*
X04052080D01*
X03892800Y01573190D02*
X03902480D01*
X03892800Y01631530D02*
X03902480D01*
G54D14*
X03974240Y01576360D02*
X03980240D01*
X03974240Y01627360D02*
X03980240D01*
X04044240Y01602360D02*
X04050240D01*
G54D11*
X04235320Y01892990D02*
X04245000D01*
X04235320Y01834650D02*
X04245000D01*
X03569960Y01973160D02*
X03579640D01*
X03569960Y02031500D02*
X03579640D01*
G54D16*
X04160010Y01366700D02*
X04226010D01*
X04160010Y01456700D02*
X04226010D01*
X04160010Y01547700D02*
X04226010D01*
G54D17*
X04437010Y01501700D02*
Y01411700D01*
G54D10*
X03962240Y01311400D02*
X03968240D01*
X03962240Y01389400D02*
X03968240D01*
X04044240Y01350400D02*
X04050240D01*
G54D11*
X04160510Y01892990D02*
X04170190D01*
X04160510Y01834650D02*
X04170190D01*
X03642800Y01858990D02*
X03652480D01*
X03642800Y01917330D02*
X03652480D01*
X03857360Y01515040D02*
X03867040D01*
X03857360Y01456700D02*
X03867040D01*
X03920360D02*
X03930040D01*
X03920360Y01515040D02*
X03930040D01*
X03548310Y01857020D02*
X03557990D01*
X03548310Y01915360D02*
X03557990D01*
G54D18*
X04181110Y03076780D02*
Y02938980D01*
Y02700800D02*
Y02563000D01*
G54D19*
X00488190Y03090550D02*
X00557480D01*
X00488190Y03188980D02*
X00557480D01*
X00488190Y03267720D02*
X00557480D01*
X00488190Y03366150D02*
X00557480D01*
G54D20*
X04066930Y02224410D02*
Y02153550D01*
X03712590Y02224410D02*
Y02153550D01*
G54D21*
X05118110Y01608270D02*
Y01478350D01*
X04826770Y01608270D02*
Y01478350D01*
G54D11*
X02022720Y01803160D02*
X02032400D01*
X02022720Y01861500D02*
X02032400D01*
G54D21*
X05118110Y01946860D02*
Y01816940D01*
X04826770Y01946860D02*
Y01816940D01*
G54D13*
X05401570Y01559050D02*
Y01551190D01*
X05472430Y01559050D02*
Y01551190D01*
G54D11*
X02468510Y02248940D02*
Y02239260D01*
X02410170Y02248940D02*
Y02239260D01*
G54D10*
X00323100Y02594120D02*
X00329100D01*
X00323100Y02516120D02*
X00329100D01*
X00241100Y02555120D02*
X00247100D01*
X00292280Y00846460D02*
X00298280D01*
X00292280Y00768460D02*
X00298280D01*
X00210280Y00807460D02*
X00216280D01*
G54D11*
X03470470Y01983190D02*
Y01973510D01*
X03412130Y01983190D02*
Y01973510D01*
X05551180Y01630830D02*
Y01621150D01*
X05609520Y01630830D02*
Y01621150D01*
X05551180Y01563900D02*
Y01554220D01*
X05609520Y01563900D02*
Y01554220D01*
M02*
