*
%FSLAX26Y26*%
%MOIN*%
%ADD10C,0.164000*%
%ADD11C,0.070000*%
%ADD12C,0.052000*%
%ADD13C,0.108300*%
%ADD14C,0.227000*%
%ADD15C,0.096500*%
%ADD16C,0.147598*%
%ADD17C,0.206700*%
%ADD18C,0.147600*%
%ADD19C,0.226400*%
%ADD20C,0.135800*%
%ADD21C,0.131800*%
%ADD22C,0.136000*%
%ADD23C,0.072800*%
%ADD24C,0.132000*%
%ADD25C,0.104300*%
%ADD26R,0.070000X0.070000*%
%ADD27R,0.072835X0.072835*%
%ADD28C,0.132400*%
%ADD29R,0.044016X0.044016*%
%ADD30R,0.061181X0.061181*%
%ADD31R,0.053898X0.053898*%
%ADD32R,0.080709X0.080709*%
%ADD33R,0.034189X0.034189*%
%ADD34R,0.078898X0.078898*%
%ADD35R,0.022992X0.022992*%
%ADD36R,0.100394X0.100394*%
%ADD37R,0.039016X0.039016*%
%ADD38R,0.038189X0.038189*%
%ADD39R,0.132008X0.132008*%
%ADD40R,0.065984X0.065984*%
%ADD41R,0.090591X0.090591*%
%ADD42C,0.017654*%
%ADD43C,0.037339*%
%ADD44C,0.137795*%
%ADD45C,0.124016*%
%IPPOS*%
%LNsr.gbx*%
%LPD*%
G75*
G54D10*
X04302760Y03690160D03*
X01602760D03*
G54D11*
X02677760Y00915160D03*
X02777760D03*
X02877760D03*
X02977760D03*
X03077760D03*
X03177760D03*
X02877760Y01015160D03*
X02977760D03*
X03077760D03*
X03177760D03*
G54D12*
X03817760Y01085160D03*
Y01035160D03*
G54D13*
X05252750Y02167330D03*
G54D14*
X04850390Y02838580D03*
G54D13*
X05408650Y02167330D03*
G54D15*
X05774810Y02216540D03*
X05574810D03*
G54D16*
X06086610Y01750003D02*
Y01836617D01*
G54D17*
X06263790Y01464380D03*
X06143710Y01271470D03*
G54D16*
X05889760Y01750003D02*
Y01836617D01*
X05732280Y01750003D02*
Y01836617D01*
X05535430Y01750003D02*
Y01836617D01*
X06086610Y00952763D02*
Y01039377D01*
X05889760Y00952763D02*
Y01039377D01*
X05732280Y00952763D02*
Y01039377D01*
G54D18*
X05535430Y00996070D03*
G54D14*
X05023620Y01185040D03*
G54D19*
X06027570Y01464380D03*
G54D20*
X05503550Y00673640D03*
X05803550D03*
X05503550Y00373640D03*
G54D21*
X05803550D03*
G54D22*
X03999990Y00348430D03*
G54D10*
X04302760Y00890160D03*
G54D23*
X04738190Y00818880D03*
X04836620D03*
X04639760D03*
X04836620Y00248010D03*
X04639760D03*
G54D18*
X04958660Y00523600D03*
X04517720D03*
G36*
X03341760Y00936160D02*
X03393760D01*
Y00884160D01*
X03341760D01*
Y00936160D01*
G37*
G54D12*
X03417760Y00910160D03*
X03467760D03*
G36*
X03341760Y01111160D02*
X03393760D01*
Y01059160D01*
X03341760D01*
Y01111160D01*
G37*
G54D12*
X03367760Y01035160D03*
X03417760Y01085160D03*
Y01035160D03*
G54D22*
X03291350Y00348440D03*
X02996070D03*
G54D12*
X03517760Y00910160D03*
X03567760D03*
X03617760D03*
X03667760D03*
X03517760Y00860160D03*
X03567760D03*
X03617760D03*
X03667760D03*
X03717760Y00910160D03*
X03767760D03*
X03817760D03*
X03717760Y00860160D03*
X03767760D03*
X03817760D03*
G54D22*
X03704710Y00348430D03*
G54D12*
X03467760Y01085160D03*
Y01035160D03*
X03517760D03*
X03567760D03*
X03517760Y01085160D03*
X03567760D03*
X03617760D03*
X03667760D03*
X03717760D03*
X03767760D03*
X03617760Y01035160D03*
X03667760D03*
X03717760D03*
X03767760D03*
G54D24*
X00281900Y01057110D03*
G54D12*
X03367760Y00860160D03*
X03417760D03*
X03467760D03*
G54D23*
X00604350Y00818910D03*
X00702780D03*
X00505920D03*
G54D22*
X02582700Y00348440D03*
X02287420D03*
X01874040Y00348450D03*
X01578760D03*
G54D23*
X00702780Y00248040D03*
X00505920D03*
G54D18*
X00824820Y00523630D03*
G54D25*
X01137800Y00271660D03*
X00987800D03*
G54D18*
X00383880Y00523630D03*
G54D14*
X00255910Y00232290D03*
G54D11*
X01877760Y01015160D03*
X01977760D03*
X02077760D03*
X01977760Y00915160D03*
X02077760D03*
X02177760D03*
X02277760D03*
X02377760D03*
X02477760D03*
X02577760D03*
Y01015160D03*
X02677760D03*
X02777760D03*
G54D10*
X01602760Y00890160D03*
G54D26*
X01877760Y00915160D03*
G54D11*
X02177760Y01015160D03*
X02277760D03*
X02377760D03*
X02477760D03*
G54D27*
X01214190Y01542140D03*
G54D24*
X00281900Y01507110D03*
G54D23*
X01114190Y01542140D03*
Y01442140D03*
Y01342140D03*
X01214190Y01442140D03*
Y01342140D03*
Y01242140D03*
Y01142140D03*
Y01042140D03*
Y00942140D03*
X01114190Y01242140D03*
Y01142140D03*
Y01042140D03*
Y00942140D03*
G54D11*
X00531900Y01407110D03*
Y01207110D03*
Y01307110D03*
G54D26*
Y01107110D03*
G54D28*
X00281900Y01816550D03*
G54D26*
X00834650Y01936230D03*
G54D11*
Y02036230D03*
Y02136230D03*
Y02236230D03*
X00631900Y01457110D03*
Y01257110D03*
Y01157110D03*
Y01357110D03*
X00531900Y02166550D03*
Y01966550D03*
Y02066550D03*
G54D26*
Y01866550D03*
G54D11*
X00631900Y02216550D03*
Y02016550D03*
Y01916550D03*
Y02116550D03*
G54D28*
X00281900Y02266550D03*
G54D18*
X00381890Y02969690D03*
Y03487010D03*
G54D14*
X00255910Y03708660D03*
G54D29*
X00323108Y02594120D02*
X00329092D01*
X00241108Y02555120D02*
X00247092D01*
G54D30*
X00618110Y02811021D02*
Y02866139D01*
X00500010Y02811021D02*
Y02866139D01*
G54D29*
X00323108Y02516120D02*
X00329092D01*
G54D31*
X00488189Y03090550D02*
X00557481D01*
X00488189Y03188980D02*
X00557481D01*
X00488189Y03267720D02*
X00557481D01*
X00488189Y03366150D02*
X00557481D01*
G54D32*
X04066930Y02153547D02*
Y02224413D01*
G54D33*
X04085707Y01776310D02*
X04095393D01*
X04085707Y01834650D02*
X04095393D01*
G54D29*
X04233208Y02046500D02*
X04239192D01*
X04233208Y01968500D02*
X04239192D01*
X04151208Y02007500D02*
X04157192D01*
G54D32*
X03712590Y02153547D02*
Y02224413D01*
G54D34*
X04297248Y02188980D02*
X04332681D01*
X04466538D02*
X04501971D01*
G54D35*
X03780119Y01809060D02*
X03826181D01*
X03957279D02*
X04003342D01*
X03780119Y01834650D02*
X03826181D01*
X03957279D02*
X04003342D01*
X03780119Y01860230D02*
X03826181D01*
X03957279D02*
X04003342D01*
X03780119Y01885820D02*
X03826181D01*
X03957279D02*
X04003342D01*
G54D36*
X04826770Y01816939D02*
Y01946861D01*
X05118110Y01816939D02*
Y01946861D01*
G54D33*
X04160507Y01892990D02*
X04170193D01*
X04160507Y01834650D02*
X04170193D01*
X04235317Y01892990D02*
X04245002D01*
X04235317Y01834650D02*
X04245002D01*
G54D30*
X04366150Y01937011D02*
Y01992129D01*
X04484250Y01937011D02*
Y01992129D01*
X04366150Y01755911D02*
Y01811029D01*
X04484250Y01755911D02*
Y01811029D01*
G54D33*
X03548307Y01857020D02*
X03557993D01*
G54D37*
X03467478Y01862210D02*
X03473462D01*
X03397478Y01887210D02*
X03403462D01*
G54D33*
X03548307Y01915360D02*
X03557993D01*
X03569957Y01973160D02*
X03579643D01*
X03569957Y02031500D02*
X03579643D01*
G54D37*
X03467478Y01913210D02*
X03473462D01*
G54D33*
X03642797Y01858990D02*
X03652482D01*
X03642797Y01917330D02*
X03652482D01*
G54D30*
X03490161Y02129920D02*
X03545279D01*
X03490161Y02248020D02*
X03545279D01*
X03314961Y02129920D02*
X03370079D01*
X03314961Y02248020D02*
X03370079D01*
G54D33*
X03642797Y01973160D02*
X03652482D01*
X03642797Y02031500D02*
X03652482D01*
G54D38*
X05609520Y01554217D02*
Y01563902D01*
Y01621147D02*
Y01630832D01*
G54D16*
X05535430Y00952763D02*
Y01039377D01*
G54D38*
X05551180Y01554217D02*
Y01563902D01*
Y01621147D02*
Y01630832D01*
G54D30*
X05401570Y01551183D02*
Y01559057D01*
X05472430Y01551183D02*
Y01559057D01*
G54D36*
X05118110Y01478349D02*
Y01608271D01*
X04826770Y01478349D02*
Y01608271D01*
G54D39*
X04437010Y01411700D02*
Y01501700D01*
G54D33*
X03920357Y01456700D02*
X03930043D01*
X03857357D02*
X03867043D01*
G54D29*
X03962248Y01311400D02*
X03968232D01*
X03962248Y01389400D02*
X03968232D01*
G54D33*
X03979407Y01456700D02*
X03989093D01*
X03920357Y01515040D02*
X03930043D01*
X03857357D02*
X03867043D01*
X04042397D02*
X04052082D01*
X03979407D02*
X03989093D01*
G54D29*
X04044248Y01350400D02*
X04050232D01*
G54D40*
X04159998Y01366700D02*
X04226022D01*
X04159998Y01456700D02*
X04226022D01*
G54D33*
X04042397D02*
X04052082D01*
G54D40*
X04159998Y01547700D02*
X04226022D01*
G54D37*
X03974248Y01576360D02*
X03980232D01*
G54D33*
X03892797Y01573190D02*
X03902482D01*
G54D37*
X03974248Y01627360D02*
X03980232D01*
X04044248Y01602360D02*
X04050232D01*
G54D33*
X03892797Y01631530D02*
X03902482D01*
G54D41*
X04181110Y02938982D02*
Y03076778D01*
G54D38*
X03470470Y01973507D02*
Y01983193D01*
X03412130Y01973507D02*
Y01983193D01*
X02468510Y02239257D02*
Y02248943D01*
X02410170Y02239257D02*
Y02248943D01*
G54D41*
X04181110Y02563002D02*
Y02700798D01*
G54D33*
X02022717Y01803160D02*
X02032402D01*
X02022717Y01861500D02*
X02032402D01*
G54D29*
X00210288Y00807460D02*
X00216272D01*
X00292288Y00846460D02*
X00298272D01*
X00292288Y00768460D02*
X00298272D01*
G54D42*
X05053150Y00720480D03*
X05013780D03*
X04712600Y00677170D03*
X04787400D03*
X04858270D03*
X05013780Y00759850D03*
X05053150D03*
Y00799220D03*
X05013780D03*
Y00838590D03*
X05053150D03*
X04685040Y00736230D03*
X04157480Y00763780D03*
X04287400D03*
X04405510D03*
X04429130Y00842520D03*
X04570870Y00755910D03*
X04917320Y01476380D03*
Y01783470D03*
X04185040Y01685040D03*
X04582680Y02000000D03*
Y01877950D03*
Y01771660D03*
X02929140Y01102370D03*
X03476380Y01145680D03*
X03929130Y01035440D03*
X04165360Y01055120D03*
X04228350Y01149610D03*
X04263780Y01114180D03*
X04295280Y01082680D03*
X04196850Y01019690D03*
X04228350Y00984260D03*
X03338580Y01354330D03*
X03051180Y01405510D03*
X02700790Y01720470D03*
X02535430Y01885830D03*
X02905510Y01937010D03*
X03031500Y01834650D03*
X03153540Y01716540D03*
X03251970Y00889770D03*
X03318900Y00807090D03*
X03366140Y00751970D03*
X03444880D03*
X02988190Y00535440D03*
X03110240Y00732290D03*
X02960630Y00791340D03*
X03600390Y01856300D03*
X03720470Y01789370D03*
X03732280Y02047250D03*
X03795280Y02011810D03*
X03913390Y01753940D03*
X03952760Y01685040D03*
X04043310D03*
X06019690Y00622050D03*
Y00582680D03*
Y00543310D03*
X05980320Y00582680D03*
Y00543310D03*
Y00503940D03*
X06019690D03*
Y00464570D03*
X05980320D03*
X05940950Y00480320D03*
X05917320Y00511820D03*
X05649610Y01681100D03*
X05704720Y01460630D03*
X05657480Y01370090D03*
Y01503940D03*
X05940950Y00543310D03*
X06145670Y00533470D03*
X06185040Y00572840D03*
Y00533470D03*
X06145670Y00572840D03*
Y00612210D03*
X06185040D03*
X06145670Y00653550D03*
X06066930Y00669300D03*
X06145670Y00692920D03*
Y00732290D03*
X06106300Y00708670D03*
Y00669300D03*
X06185040Y00653550D03*
Y00692920D03*
X06228350Y00673230D03*
X06267720D03*
Y00712600D03*
X06185040Y00732290D03*
Y00771660D03*
X06228350Y00712600D03*
Y00751970D03*
X06267720D03*
X06362210Y00356310D03*
Y00277570D03*
Y00238200D03*
Y00198830D03*
Y00159460D03*
Y00316940D03*
X05988190Y00159460D03*
Y00198830D03*
Y00238200D03*
Y00277570D03*
Y00316940D03*
Y00356310D03*
X05948820Y00277570D03*
Y00238200D03*
Y00356310D03*
Y00316940D03*
Y00159460D03*
Y00198830D03*
X05909450D03*
Y00159460D03*
X05870080D03*
Y00198830D03*
X05909450Y00238200D03*
X05870080D03*
X05909450Y00277570D03*
X05870080D03*
Y00316940D03*
X05909450D03*
Y00356310D03*
X06228350Y00791340D03*
X06267720D03*
X06299210Y00976380D03*
X02570870Y02692920D03*
Y02740160D03*
X02409450Y02846460D03*
X02787400Y02830710D03*
X02795280Y02740160D03*
X03314960Y02712600D03*
Y02665360D03*
X03188980Y02669290D03*
X02496060Y02366140D03*
X02996060Y03275590D03*
X02795280Y03185050D03*
X02748040D03*
X03094490Y03177170D03*
X03047250Y03208670D03*
X02649610Y03220470D03*
X02996070Y03452760D03*
X03094490D03*
X03047250D03*
X03322840Y03043310D03*
X03200790Y02866150D03*
X03244100Y02877960D03*
X03492130Y03031500D03*
X03468510Y02877960D03*
X03141730Y03043310D03*
X03157480Y02877960D03*
X02881890Y02870080D03*
X02712600Y03559060D03*
X02862200Y03547250D03*
X03649610Y03519690D03*
X04078740Y02692920D03*
X03988190Y02846460D03*
X02917320Y02606310D03*
X02795280D03*
X02673230D03*
X03641730Y02622050D03*
X03685040Y02842530D03*
X03625990Y02724420D03*
X03685040Y02795280D03*
X03677170Y02724420D03*
X03807090Y02783470D03*
X03511810Y02811030D03*
Y02728350D03*
X03362200Y02688980D03*
X03448820Y02775590D03*
X05013780Y00877960D03*
X05053150D03*
Y00917330D03*
X05013780D03*
X05053150Y00956700D03*
X05013780D03*
X05053150Y00996070D03*
X05013780D03*
X05053150Y01035440D03*
X05092520Y00996070D03*
Y01035440D03*
X05047250Y02007880D03*
X05368110Y01035440D03*
X05328740D03*
X05131890Y00996070D03*
X05171260D03*
X05210630D03*
X05131890Y01035440D03*
X05171260D03*
X05210630D03*
X05250000D03*
X05289370D03*
X04897640Y01059060D03*
X05250000Y00996070D03*
X05289370D03*
X05328740D03*
X05368110D03*
X04759840Y00925200D03*
X04519680Y00921260D03*
X04586620Y01063000D03*
X05368110Y01074810D03*
X05328740D03*
X05289370D03*
X05250000D03*
X05210630D03*
X05171260D03*
X05131890D03*
X05279530Y01271660D03*
Y01232290D03*
X05240160D03*
X05279530Y01192920D03*
Y01153550D03*
X05240160Y01192920D03*
Y01153550D03*
X05318900Y01559060D03*
X05464570Y01633860D03*
X05417320Y02035440D03*
X05318900Y01464570D03*
X05259840Y01492130D03*
X05318900Y01511810D03*
X05389760Y01440950D03*
X04326770Y01377950D03*
X04665360Y01476380D03*
X04641730Y01653550D03*
X04783470Y01287410D03*
X04277560Y01409450D03*
X04273620Y01639770D03*
X04066930Y02070870D03*
X04350390D03*
X04090550Y01730320D03*
X04484250Y01874020D03*
X04468500Y02106300D03*
Y02055120D03*
X04582680Y02106300D03*
X03232280Y03129920D03*
X03866140Y03374020D03*
X03476380Y03102370D03*
X03866140Y03232290D03*
X03460630Y03244100D03*
X03519680Y03181100D03*
X03988190Y02948830D03*
X03759840Y03000010D03*
X03342520Y03102360D03*
X03866140Y03704730D03*
X03456690Y03519690D03*
X04799210Y03677170D03*
Y03586620D03*
Y03496070D03*
X04598430Y03677170D03*
X04700790D03*
Y03586620D03*
Y03771660D03*
X04598430D03*
X04496060D03*
X04582680Y02862210D03*
X04381890Y02783470D03*
X04141730Y02787410D03*
X04311020Y02779530D03*
X03988190Y02897640D03*
X04334650Y02909460D03*
X04035440Y02948830D03*
X03232290Y02956700D03*
X03334650Y02795280D03*
X03645670Y02877960D03*
X03850400Y02586620D03*
X03897640D03*
X03720470Y02433080D03*
X03267720Y02452760D03*
X03251970Y02381900D03*
X03279530Y02311030D03*
X03362200D03*
X03608270Y02379920D03*
X04145670Y02267720D03*
Y02200790D03*
Y02133860D03*
X04066930Y02311030D03*
X04350390D03*
X03350400Y02535440D03*
X03570870Y02559060D03*
X03484250Y02590550D03*
X04468500Y02385830D03*
Y02291340D03*
X04893700Y02627950D03*
X05133860Y02251970D03*
X04850390Y02618110D03*
X04759840Y02216540D03*
X04582680Y02314960D03*
Y02208660D03*
X04700790Y02153550D03*
X04799210Y03023620D03*
Y03118110D03*
Y03212600D03*
Y03307090D03*
Y03397640D03*
X04905510Y03023620D03*
Y03118110D03*
Y03212600D03*
Y03307090D03*
Y03397640D03*
Y03496070D03*
Y03586620D03*
Y03677170D03*
Y03771660D03*
X04799210D03*
X01791340Y01330720D03*
X02346460Y01330710D03*
X02311020Y01377950D03*
X02125980Y01350400D03*
X01728350Y01358270D03*
X01582680Y01338580D03*
X01933070Y01279530D03*
X01803150Y01082680D03*
X02122050D03*
X01460630Y01047250D03*
X01566930Y01055120D03*
X02811030Y01204730D03*
X02685040D03*
X02775590Y01244100D03*
X02559060D03*
X02728350Y01161420D03*
X02732290Y01283470D03*
X02677170Y01318900D03*
X02736220Y01460640D03*
X02783460Y01535440D03*
X02728350Y00846460D03*
X02500000Y01492130D03*
X02590550Y01559060D03*
X02118110Y01700790D03*
X02248030Y01574810D03*
X02200790Y01787410D03*
X02161420Y01748040D03*
X02031500Y01606300D03*
X02330710Y01657490D03*
X02401580Y01728350D03*
X02271660Y01858270D03*
X02354330Y01940950D03*
X02311030Y01901580D03*
X02484250Y01811030D03*
X02204720Y01448820D03*
X02070870Y01405510D03*
X01897640Y01759850D03*
X01578740Y01866140D03*
X01708660D03*
X01578740Y01736220D03*
X01708660Y01732290D03*
X01897640Y01696860D03*
X01708660Y01606300D03*
X01543310Y01547250D03*
X01641730Y01440950D03*
X01503940Y01417330D03*
X02204730Y00732290D03*
X02464570Y00846460D03*
X02027560Y00877950D03*
X02003940Y00783470D03*
X01858270D03*
X01728350D03*
Y00870080D03*
X03208660Y01342520D03*
X03090550Y01566930D03*
X03271660Y01354340D03*
Y01397640D03*
X02897640Y01385830D03*
X02976380Y01598430D03*
X02830710Y01633860D03*
X03307090Y01259850D03*
X03448820Y01204730D03*
X03515750Y01251970D03*
X03775590Y01188980D03*
X03736220Y01216540D03*
X03850400Y01271660D03*
X03724410D03*
X03814960Y01314970D03*
X03779530Y01350400D03*
X03744100Y01385830D03*
X03708660Y01425200D03*
X03673230Y01460640D03*
X03637800Y01496070D03*
X03602360Y01527570D03*
X03547250Y01594490D03*
X02480320Y02066940D03*
X02562990Y02149610D03*
X02633860Y02220480D03*
X02523620Y02110240D03*
X02610240Y01937010D03*
X02692920Y02023630D03*
X03423230Y02041340D03*
X03488190D03*
X02763780Y02090560D03*
X02716540Y02303160D03*
X02846460Y02177170D03*
X02673230Y02263790D03*
X03133860Y02244100D03*
X03263780Y02202760D03*
X02968510Y02350400D03*
X02240160Y02181100D03*
X00791340Y01700790D03*
X00448820Y01661420D03*
X00641740D03*
X00456690Y01429140D03*
X00216540Y01433070D03*
X00755910Y01385830D03*
X00712600Y02334650D03*
X00531500Y02236220D03*
X01003940Y01736230D03*
X00913390Y01988190D03*
X00980310Y01937010D03*
X00212600Y00885830D03*
X00307090Y00929140D03*
X00881890Y01838580D03*
X00980310Y02051180D03*
Y02173230D03*
X03429130Y02250000D03*
X03425200Y02303150D03*
X03988190Y02133860D03*
Y02200790D03*
Y02267720D03*
X03795280Y02220470D03*
Y02149610D03*
Y02082680D03*
X00870080Y01137800D03*
Y00964570D03*
X00874020Y01318900D03*
Y01263790D03*
X00940940Y01062990D03*
X01200790Y01633860D03*
X01291340Y00988190D03*
X01555120Y01279530D03*
X01578740Y02007880D03*
X01062990Y00992130D03*
X01381890Y02661420D03*
X01464570Y02830710D03*
X01307090Y02838590D03*
X01401580Y02909460D03*
X01267720Y02716540D03*
X01192910Y02661420D03*
X01196850Y02913390D03*
X00940940Y02897640D03*
X00338580Y02866140D03*
X00940940Y02984250D03*
X00251970Y02996070D03*
X00940940Y03070870D03*
X01460630Y03094490D03*
X00440950Y02417330D03*
X00629920D03*
X00342520Y02437010D03*
X02968510Y02401580D03*
X02814960Y02425200D03*
X03031500Y02484260D03*
X01354330Y02511810D03*
X00519690Y02488190D03*
X00248030Y02625990D03*
Y02744100D03*
X00377950D03*
Y02625990D03*
X01763780Y03456700D03*
X01818900D03*
X01901580Y03484260D03*
X01952760D03*
X00602360Y03468510D03*
X01996070Y03523630D03*
X01897640Y03618110D03*
X02287400Y03633860D03*
X02496060D03*
X01988190Y03716540D03*
X01862200D03*
X00854330Y03192920D03*
X00799210Y03602360D03*
X00929130D03*
X01059060D03*
X01185040D03*
X01334650D03*
X00393700Y03232290D03*
X00543310Y03602360D03*
X00673230D03*
X00251970Y03279530D03*
Y03393700D03*
X00334650Y03370080D03*
X02110240Y02661420D03*
X01913390Y02771660D03*
X02492130Y02893700D03*
X01952760Y03059060D03*
X01901580Y03153550D03*
X01763780D03*
X01818900Y03114180D03*
X01685040Y03208660D03*
X02377950Y03137800D03*
X02070870Y03019690D03*
X01685040Y03000000D03*
X01590550Y02866140D03*
X01783460Y02838580D03*
X01098430Y00598430D03*
X01240160Y00622050D03*
X01574800Y00633860D03*
Y00559060D03*
X01212600Y00389770D03*
X01066930Y00157480D03*
X01185040D03*
X01460630Y00783470D03*
Y00870080D03*
X01346460Y00716540D03*
Y00622050D03*
X01574800Y00708660D03*
X01192910Y00799210D03*
X00838580Y00377950D03*
Y00267720D03*
Y00157480D03*
X00956690D03*
X00472440Y00374020D03*
X00586610Y00452760D03*
X01299210Y00157480D03*
X00716540D03*
X00598430D03*
X00488190D03*
X01015750Y00566930D03*
X00582680Y00590550D03*
X00334650Y00669290D03*
X01137800Y00874020D03*
X01263780D03*
X00818900Y00799210D03*
X00940940D03*
Y00929140D03*
X01078740Y00799210D03*
X00811020Y00645670D03*
X00929130D03*
X00937010Y00527560D03*
G54D43*
X00531900Y01407110D03*
Y01207110D03*
Y01307110D03*
Y01107100D03*
X00631900Y01457110D03*
Y01257110D03*
Y01157110D03*
Y01357110D03*
X00531900Y02166550D03*
Y01966550D03*
Y02066550D03*
Y01866500D03*
X00631900Y02216550D03*
Y02016550D03*
Y01916550D03*
Y02116550D03*
X06066930Y00476380D03*
X06129920D03*
X06263780Y00474420D03*
X06194880D03*
G54D44*
X-00114170Y03446859D03*
X06421260Y04076781D03*
X06657480Y01281502D03*
X00909452Y-00135820D03*
G54D45*
X-00114170Y04076781D03*
X06657480D03*
Y-00135820D03*
X-00114170D03*
M02*
